<?xml version="1.0" standalone="no"?>
<!DOCTYPE svg PUBLIC "-//W3C//DTD SVG 1.1//EN" "http://www.w3.org/Graphics/SVG/1.1/DTD/svg11.dtd" >
<svg xmlns="http://www.w3.org/2000/svg">
<metadata>Generated by IcoMoon</metadata>
<defs>
<font id="KPN-UI-Icons" horiz-adv-x="1024">
<font-face units-per-em="1024" ascent="960" descent="-64" />
<missing-glyph horiz-adv-x="1024" />
<glyph unicode="&#x20;" horiz-adv-x="512" d="" />
<glyph unicode="&#xe900;" glyph-name="account-diap" d="M817.92 149.333c74.433 76.713 120.32 181.487 120.32 296.978 0 235.641-191.025 426.667-426.667 426.667s-426.667-191.025-426.667-426.667c0-115.492 45.887-220.266 120.423-297.085l-0.103 0.107 2.133-2.56c77.513-79.113 185.456-128.156 304.853-128.156s227.341 49.043 304.783 128.084l0.070 0.072zM512 789.333c188.308-0.271 340.857-152.987 340.857-341.333 0-71.514-21.993-137.892-59.584-192.738l0.754 1.165-28.587 56.747c-21.445 42.274-64.561 70.756-114.337 70.827h-278.196c-49.786-0.070-92.902-28.553-114.011-70.099l-0.336-0.728-28.587-56.747c-36.837 53.682-58.83 120.059-58.83 191.574 0 188.346 152.549 341.062 340.831 341.333h0.026zM512 405.333c94.257 0 170.667 76.41 170.667 170.667s-76.41 170.667-170.667 170.667c-94.257 0-170.667-76.41-170.667-170.667v0c0-94.257 76.41-170.667 170.667-170.667v0z" />
<glyph unicode="&#xe901;" glyph-name="account" d="M817.92 149.333c74.433 76.713 120.32 181.487 120.32 296.978 0 235.641-191.025 426.667-426.667 426.667s-426.667-191.025-426.667-426.667c0-115.492 45.887-220.266 120.423-297.085l-0.103 0.107 2.133-2.56c77.513-79.113 185.456-128.156 304.853-128.156s227.341 49.043 304.783 128.084l0.070 0.072zM512 789.333c188.308-0.271 340.857-152.987 340.857-341.333 0-71.514-21.993-137.892-59.584-192.738l0.754 1.165-28.587 56.747c-21.445 42.274-64.561 70.756-114.337 70.827h-278.196c-49.786-0.070-92.902-28.553-114.011-70.099l-0.336-0.728-28.587-56.747c-36.837 53.682-58.83 120.059-58.83 191.574 0 188.346 152.549 341.062 340.831 341.333h0.026zM290.987 188.16l42.667 85.333c7.163 13.992 21.462 23.415 37.966 23.467h278.62c16.512-0.052 30.81-9.474 37.861-23.226l0.112-0.24 42.667-85.333c-59.108-50.383-136.375-81.034-220.8-81.034s-161.692 30.651-221.279 81.432l0.479-0.398zM512 405.333c94.257 0 170.667 76.41 170.667 170.667s-76.41 170.667-170.667 170.667c-94.257 0-170.667-76.41-170.667-170.667v0c0-94.257 76.41-170.667 170.667-170.667v0zM512 661.333c47.128 0 85.333-38.205 85.333-85.333s-38.205-85.333-85.333-85.333c-47.128 0-85.333 38.205-85.333 85.333v0c0 47.128 38.205 85.333 85.333 85.333v0z" />
<glyph unicode="&#xe902;" glyph-name="add" d="M554.667 490.667h128v-85.333h-128v-128h-85.333v128h-128v85.333h128v128h85.333zM938.667 448c0-235.641-191.025-426.667-426.667-426.667s-426.667 191.025-426.667 426.667c0 235.641 191.025 426.667 426.667 426.667v0c235.641 0 426.667-191.025 426.667-426.667v0zM853.333 448c0 188.513-152.82 341.333-341.333 341.333s-341.333-152.82-341.333-341.333c0-188.513 152.82-341.333 341.333-341.333v0c188.513 0 341.333 152.82 341.333 341.333v0z" />
<glyph unicode="&#xe903;" glyph-name="arrow-down" d="M725.333 508.16v-120.747l-183.040-183.040c-7.712-7.668-18.343-12.407-30.080-12.407s-22.368 4.74-30.082 12.409l-183.465 183.465v120.32l170.667-170.667v366.507h85.333v-366.507z" />
<glyph unicode="&#xe904;" glyph-name="arrow-left" d="M768 490.667v-85.333h-366.507l170.667-170.667h-120.32l-183.467 183.040c-7.668 7.712-12.407 18.343-12.407 30.080s4.74 22.368 12.409 30.082l183.465 183.465h120.747l-170.667-170.667z" />
<glyph unicode="&#xe905;" glyph-name="arrow-right" d="M755.627 417.707l-183.467-183.040h-120.32l170.667 170.667h-366.507v85.333h366.507l-170.667 170.667h120.747l183.040-183.040c7.795-7.733 12.621-18.45 12.621-30.293s-4.826-22.56-12.618-30.291l-0.003-0.003z" />
<glyph unicode="&#xe906;" glyph-name="arrow-up" d="M725.333 508.16v-120.747l-170.667 170.667v-366.080h-85.333v366.507l-170.667-170.667v120.32l183.040 183.040c7.712 7.668 18.343 12.407 30.080 12.407s22.368-4.74 30.082-12.409l-0.002 0.002z" />
<glyph unicode="&#xe907;" glyph-name="asterisk" d="M853.333 405.333h-267.52l147.627-256h-98.133l-123.307 213.333-123.307-213.333h-98.56l147.627 256h-267.093v85.333h267.52l-148.053 256h98.56l123.307-213.333 123.307 213.333h98.56l-147.627-256h267.093z" />
<glyph unicode="&#xe908;" glyph-name="backspace" d="M742.827 533.333l-85.333-85.333 85.333-85.333-60.16-60.16-85.333 85.333-85.333-85.333-60.16 60.16 85.333 85.333-85.333 85.333 60.16 60.16 85.333-85.333 85.333 85.333zM938.667 661.333v-426.667c0-70.692-57.308-128-128-128v0h-426.667c-42.785 0.057-80.644 21.096-103.846 53.378l-0.261 0.382-151.893 213.333c-14.931 20.669-23.881 46.516-23.881 74.453s8.95 53.785 24.14 74.83l-0.259-0.377 152.32 213.333c23.461 32.386 61.125 53.235 103.664 53.333h426.683c70.692 0 128-57.308 128-128v0zM853.333 661.333c0 23.564-19.103 42.667-42.667 42.667v0h-426.667c-14.208-0.068-26.766-7.070-34.473-17.793l-0.087-0.127-152.32-213.333c-4.946-6.875-7.91-15.465-7.91-24.747s2.964-17.871 7.997-24.874l-0.087 0.127 152.32-213.333c7.794-10.85 20.352-17.852 34.549-17.92h426.678c23.564 0 42.667 19.103 42.667 42.667v0z" />
<glyph unicode="&#xe909;" glyph-name="backward" d="M845.653 676.267c-14.131 7.879-30.999 12.517-48.951 12.517-20.312 0-39.236-5.938-55.132-16.174l0.403 0.243-187.307-119.893v38.827c0.003 0.27 0.004 0.589 0.004 0.908 0 36.391-20.339 68.032-50.27 84.175l-0.508 0.25c-14.131 7.879-30.999 12.517-48.951 12.517-20.312 0-39.236-5.938-55.132-16.174l0.403 0.243-226.987-144.213c-27.351-17.232-45.257-47.272-45.257-81.493s17.906-64.261 44.861-81.26l0.397-0.233 225.707-143.787c15.493-9.992 34.417-15.931 54.729-15.931 17.952 0 34.82 4.639 49.472 12.783l-0.52-0.265c30.438 16.393 50.778 48.034 50.778 84.425 0 0.319-0.002 0.638-0.005 0.957v-0.049 38.827l188.587-120.32c15.493-9.992 34.417-15.931 54.729-15.931 17.952 0 34.82 4.639 49.472 12.783l-0.52-0.265c30.438 16.393 50.778 48.034 50.778 84.425 0 0.319-0.002 0.638-0.005 0.957v-0.049 286.72c0 0.017 0 0.037 0 0.057 0 36.39-20.337 68.029-50.266 84.173l-0.507 0.25zM469.333 304.213c-0.197-4.298-2.721-7.964-6.334-9.783l-0.066-0.030c-2.387-1.402-5.257-2.229-8.32-2.229s-5.933 0.828-8.399 2.272l0.079-0.043-227.413 144.213c-3.36 1.84-5.6 5.352-5.6 9.387s2.24 7.546 5.545 9.359l0.055 0.028 225.707 143.787c2.407 1.59 5.357 2.542 8.529 2.56h0.005c1.218 0.295 2.616 0.464 4.053 0.464s2.836-0.169 4.175-0.489l-0.122 0.025c3.679-1.85 6.203-5.515 6.399-9.788l0.001-0.025zM810.667 304.213c-0.096-4.329-2.658-8.037-6.333-9.785l-0.067-0.029c-2.387-1.402-5.257-2.229-8.32-2.229s-5.933 0.828-8.399 2.272l0.079-0.043-225.707 143.787c-3.36 1.84-5.6 5.352-5.6 9.387s2.24 7.546 5.545 9.359l0.055 0.028 225.707 143.787c2.407 1.59 5.357 2.542 8.529 2.56h0.005c1.217 0.303 2.615 0.476 4.053 0.476s2.836-0.174 4.173-0.501l-0.12 0.025c3.742-1.776 6.304-5.484 6.4-9.801v-0.012z" />
<glyph unicode="&#xe90a;" glyph-name="bookmark" d="M469.333 405.333h-85.333v85.333h85.333v85.333h85.333v-85.333h85.333v-85.333h-85.333v-85.333h-85.333zM768 746.667v-636.587c-0.015-33.612-19.46-62.678-47.712-76.577l-0.501-0.223c-10.845-5.372-23.613-8.521-37.116-8.533h-0.004c-20.262 0.016-38.869 7.092-53.496 18.9l0.163-0.127-90.88 72.533c-7.235 5.831-16.539 9.36-26.667 9.36s-19.432-3.529-26.749-9.424l0.082 0.064-90.88-72.533c-14.396-11.456-32.843-18.381-52.908-18.381-46.99 0-85.11 37.982-85.332 84.92v636.608c0 70.692 57.308 128 128 128v0h256c70.692 0 128-57.308 128-128v0zM682.667 661.333h-341.333v-551.253l90.88 72.533c21.705 17.494 49.616 28.080 80 28.080s58.295-10.586 80.246-28.272l-0.246 0.192 90.453-72.533zM682.667 746.667c0 23.564-19.103 42.667-42.667 42.667v0h-256c-23.564 0-42.667-19.103-42.667-42.667v0z" />
<glyph unicode="&#xe90b;" glyph-name="business-diap" d="M725.333 874.667h-426.667c-70.692 0-128-57.308-128-128v0-597.333c0-70.4 38.4-128 85.333-128h469.333c70.692 0 128 57.308 128 128v0 597.333c0 70.692-57.308 128-128 128v0zM341.333 533.333h128v-85.333h-128zM554.667 106.667h-85.333v149.333c-0.234 11.687-9.647 21.099-21.311 21.333h-0.022c-0.001 0-0.003 0-0.004 0-11.632 0-21.090-9.31-21.329-20.884v-149.782h-85.333v151.040c0 58.91 47.756 106.667 106.667 106.667s106.667-47.756 106.667-106.667v0zM682.667 448h-128v85.333h128zM682.667 618.667h-341.333v85.333h341.333z" />
<glyph unicode="&#xe90c;" glyph-name="business" d="M725.333 874.667h-426.667c-70.692 0-128-57.308-128-128v0-597.333c0-70.692 57.308-128 128-128v0h426.667c70.692 0 128 57.308 128 128v0 597.333c0 70.692-57.308 128-128 128v0zM469.333 106.667h-42.667v149.333c0 11.782 9.551 21.333 21.333 21.333s21.333-9.551 21.333-21.333v0zM768 149.333c0-23.564-19.103-42.667-42.667-42.667v0h-170.667v149.333c0 58.91-47.756 106.667-106.667 106.667s-106.667-47.756-106.667-106.667v0-149.333h-42.667c-23.564 0-42.667 19.103-42.667 42.667v0 597.333c0 23.564 19.103 42.667 42.667 42.667v0h426.667c23.564 0 42.667-19.103 42.667-42.667v0zM341.333 704h341.333v-85.333h-341.333zM341.333 533.333h128v-85.333h-128zM554.667 533.333h128v-85.333h-128z" />
<glyph unicode="&#xe90d;" glyph-name="calendar" d="M725.333 789.333v85.333h-85.333v-85.333h-256v85.333h-85.333v-85.333c-70.692 0-128-57.308-128-128v0-426.667c0-70.692 57.308-128 128-128v0h426.667c70.692 0 128 57.308 128 128v0 426.667c0 70.692-57.308 128-128 128v0zM298.667 704h426.667c23.564 0 42.667-19.103 42.667-42.667v0-42.667h-512v42.667c0 23.564 19.103 42.667 42.667 42.667v0zM725.333 192h-426.667c-23.564 0-42.667 19.103-42.667 42.667v0 298.667h512v-298.667c0-23.564-19.103-42.667-42.667-42.667v0zM341.333 362.667h341.333v-85.333h-341.333z" />
<glyph unicode="&#xe90e;" glyph-name="call-end" d="M784.64 283.307l-152.747 30.293c-5.127 1.095-11.018 1.722-17.055 1.722-27.828 0-52.545-13.321-68.122-33.933l-0.156-0.215-63.573-85.333c-91.985 55.724-166.996 130.735-221.1 219.846l-1.62 2.874 85.333 63.573c20.828 15.733 34.148 40.45 34.148 68.278 0 6.037-0.627 11.928-1.819 17.611l0.098-0.556-30.72 153.173c-8.043 39.416-42.415 68.659-83.623 68.693h-42.67c-0.393 0.004-0.858 0.007-1.323 0.007-70.692 0-128-57.308-128-128 0-6.475 0.481-12.838 1.409-19.055l-0.086 0.702c12.45-84.613 37.88-160.924 74.414-230.49l-1.88 3.93c1.273-4.222 3.017-7.903 5.22-11.255l-0.1 0.161c69.368-127.339 171.328-229.298 294.836-296.751l3.831-1.916c2.828-2.005 6.067-3.731 9.519-5.023l0.294-0.097c65.637-34.661 141.948-60.093 222.651-72.057l3.909-0.476c5.515-0.842 11.878-1.323 18.354-1.323 70.692 0 128 57.308 128 128 0 0.465-0.002 0.929-0.007 1.393l0.001-0.071v42.667c0 0.058 0 0.127 0 0.196 0 40.781-28.606 74.88-66.847 83.326l-0.566 0.105zM177.067 654.933c-0.307 1.924-0.483 4.143-0.483 6.403 0 23.564 19.103 42.667 42.667 42.667 0.17 0 0.34-0.001 0.509-0.003h42.641l32-152.747-72.533-54.613c-20.339 45.858-35.991 99.146-44.37 154.816l-0.43 3.478zM768 155.733c0.002-0.144 0.003-0.313 0.003-0.483 0-23.564-19.103-42.667-42.667-42.667-2.26 0-4.478 0.176-6.643 0.514l0.24-0.031c-58.992 8.062-112.365 23.008-162.435 44.226l4.142-1.559 54.613 72.533 152.747-30.293zM828.16 685.653l128-128-60.16-60.16-128 128-128-128-60.16 60.16 128 128-128 128 60.16 61.013 128-128 128 128 60.16-60.16z" />
<glyph unicode="&#xe90f;" glyph-name="call-incomming" d="M784.64 283.307l-152.747 30.293c-5.127 1.095-11.018 1.722-17.055 1.722-27.828 0-52.545-13.321-68.122-33.933l-0.156-0.215-63.573-85.333c-91.985 55.724-166.996 130.735-221.1 219.846l-1.62 2.874 85.333 63.573c20.828 15.733 34.148 40.45 34.148 68.278 0 6.037-0.627 11.928-1.819 17.611l0.098-0.556-30.72 153.173c-8.043 39.416-42.415 68.659-83.623 68.693h-42.67c-0.393 0.004-0.858 0.007-1.323 0.007-70.692 0-128-57.308-128-128 0-6.475 0.481-12.838 1.409-19.055l-0.086 0.702c12.45-84.613 37.88-160.924 74.414-230.49l-1.88 3.93c1.273-4.222 3.017-7.903 5.22-11.255l-0.1 0.161c69.368-127.339 171.328-229.298 294.836-296.751l3.831-1.916c2.828-2.005 6.067-3.731 9.519-5.023l0.294-0.097c65.637-34.661 141.948-60.093 222.651-72.057l3.909-0.476c5.515-0.842 11.878-1.323 18.354-1.323 70.692 0 128 57.308 128 128 0 0.465-0.002 0.929-0.007 1.393l0.001-0.071v42.667c0 0.058 0 0.127 0 0.196 0 40.781-28.606 74.88-66.847 83.326l-0.566 0.105zM177.067 654.933c-0.307 1.924-0.483 4.143-0.483 6.403 0 23.564 19.103 42.667 42.667 42.667 0.17 0 0.34-0.001 0.509-0.003h42.641l32-152.747-72.533-54.613c-20.339 45.858-35.991 99.146-44.37 154.816l-0.43 3.478zM768 155.733c0.002-0.144 0.003-0.313 0.003-0.483 0-23.564-19.103-42.667-42.667-42.667-2.26 0-4.478 0.176-6.643 0.514l0.24-0.031c-58.992 8.062-112.365 23.008-162.435 44.226l4.142-1.559 54.613 72.533 152.747-30.293zM934.827 704v-85.333h-323.413l170.667-170.667h-120.747l-183.040 183.040c-7.668 7.712-12.407 18.343-12.407 30.080s4.74 22.368 12.409 30.082l-0.002-0.002 183.040 183.467h120.747l-170.667-170.667h323.84z" />
<glyph unicode="&#xe910;" glyph-name="call-outbound" d="M938.667 661.333c0-0.073 0.001-0.16 0.001-0.247 0-11.721-4.726-22.338-12.377-30.049l0.003 0.003-183.467-183.040h-120.32l170.667 170.667h-323.84v85.333h323.84l-170.667 170.667h120.747l183.040-183.040c7.648-7.709 12.374-18.326 12.374-30.047 0-0.087 0-0.173-0.001-0.26v0.013zM853.333 199.68v-42.667c0.004-0.393 0.007-0.858 0.007-1.323 0-70.692-57.308-128-128-128-6.475 0-12.838 0.481-19.055 1.409l0.702-0.086c-84.612 12.441-160.923 37.872-230.486 74.412l3.926-1.879c-4.222 1.273-7.903 3.017-11.255 5.22l0.161-0.1c-127.339 69.368-229.298 171.328-296.751 294.836l-1.916 3.831c-2.005 2.828-3.731 6.067-5.023 9.519l-0.097 0.294c-34.654 65.638-60.084 141.948-72.057 222.647l-0.477 3.913c-0.963 5.899-1.514 12.699-1.514 19.627 0 70.692 57.308 128 128 128 0.082 0 0.164 0 0.247 0h42.654c0.487 0.010 1.060 0.016 1.635 0.016 41.246 0 75.657-29.263 83.605-68.159l0.094-0.55 30.72-152.747c1.095-5.127 1.722-11.018 1.722-17.055 0-27.828-13.321-52.545-33.933-68.122l-0.215-0.156-85.333-63.573c55.724-91.985 130.735-166.996 219.846-221.1l2.874-1.62 63.573 85.333c15.733 20.828 40.45 34.148 68.278 34.148 6.037 0 11.928-0.627 17.611-1.819l-0.556 0.098 152.747-30.293c39.229-8.217 68.268-42.522 68.268-83.609 0-0.156 0-0.312-0.001-0.468v0.024zM221.44 498.347l72.96 52.907-30.72 152.747h-42.667c-0.144 0.002-0.313 0.003-0.483 0.003-23.564 0-42.667-19.103-42.667-42.667 0-2.26 0.176-4.478 0.514-6.643l-0.031 0.24c8.203-59.021 23.29-112.378 44.657-162.412l-1.563 4.118zM768 199.68l-152.747 30.293-54.613-72.533c45.928-19.659 99.301-34.605 154.991-42.293l3.302-0.373c1.924-0.307 4.143-0.483 6.403-0.483 23.564 0 42.667 19.103 42.667 42.667 0 0.17-0.001 0.34-0.003 0.509v-0.026z" />
<glyph unicode="&#xe911;" glyph-name="camera" d="M512 576c-94.257 0-170.667-76.41-170.667-170.667s76.41-170.667 170.667-170.667c94.257 0 170.667 76.41 170.667 170.667v0c0 94.257-76.41 170.667-170.667 170.667v0zM512 320c-47.128 0-85.333 38.205-85.333 85.333s38.205 85.333 85.333 85.333c47.128 0 85.333-38.205 85.333-85.333v0c0-47.128-38.205-85.333-85.333-85.333v0zM798.293 563.627c7.795-7.733 12.621-18.45 12.621-30.293s-4.826-22.56-12.618-30.291l-0.003-0.003-6.4-5.12c-2.211-1.521-4.75-2.82-7.453-3.77l-0.227-0.070-7.68-3.413h-8.533c-0.074 0-0.161-0.001-0.248-0.001-23.564 0-42.667 19.103-42.667 42.667 0 11.844 4.826 22.561 12.619 30.291l0.003 0.003c7.778 8.102 18.699 13.136 30.796 13.136 2.841 0 5.616-0.278 8.302-0.807l-0.271 0.045 7.68-2.56c2.93-1.020 5.469-2.319 7.79-3.912l-0.11 0.072zM810.667 704h-97.28l-13.653 40.533c-17.461 51.183-65.078 87.358-121.16 87.467h-133.133c-56.095-0.108-103.713-36.284-120.906-86.566l-0.268-0.901-13.653-40.533h-97.28c-70.692 0-128-57.308-128-128v0-341.333c0-70.692 57.308-128 128-128v0h597.333c70.692 0 128 57.308 128 128v0 341.333c0 70.692-57.308 128-128 128v0zM853.333 234.667c0-23.564-19.103-42.667-42.667-42.667v0h-597.333c-23.564 0-42.667 19.103-42.667 42.667v0 341.333c0 23.564 19.103 42.667 42.667 42.667v0h128c0.033 0 0.071 0 0.11 0 18.678 0 34.552 12.002 40.333 28.714l0.090 0.3 23.040 69.547c5.741 17.225 21.71 29.426 40.532 29.44h133.122c0.033 0 0.071 0 0.11 0 18.678 0 34.552-12.002 40.333-28.714l0.090-0.3 23.040-69.547c5.741-17.225 21.71-29.426 40.532-29.44h128.002c23.564 0 42.667-19.103 42.667-42.667v0z" />
<glyph unicode="&#xe912;" glyph-name="caret-down" d="M755.627 545.707l-213.333-213.333c-7.712-7.668-18.343-12.407-30.080-12.407s-22.368 4.74-30.082 12.409l-213.331 213.331c-7.795 7.733-12.621 18.45-12.621 30.294 0 23.501 19.001 42.565 42.478 42.666h426.677c0.074 0 0.161 0.001 0.248 0.001 23.564 0 42.667-19.103 42.667-42.667 0-11.844-4.826-22.561-12.619-30.291l-0.003-0.003z" />
<glyph unicode="&#xe913;" glyph-name="caret-up" d="M764.587 346.453c-6.527-15.59-21.621-26.363-39.242-26.453h-426.679c-0.074 0-0.161-0.001-0.248-0.001-23.564 0-42.667 19.103-42.667 42.667 0 11.844 4.826 22.561 12.619 30.291l213.336 213.336c7.712 7.668 18.343 12.407 30.080 12.407s22.368-4.74 30.082-12.409l213.331-213.331c7.781-7.731 12.597-18.438 12.597-30.27 0-5.856-1.18-11.437-3.315-16.518l0.105 0.281z" />
<glyph unicode="&#xe914;" glyph-name="check" d="M747.947 704h101.12l-343.893-535.040c-7.694-11.86-20.86-19.601-35.836-19.627h-0.004c-14.98 0.026-28.146 7.767-35.739 19.461l-0.101 0.166-177.493 279.040h100.693l112.64-177.067z" />
<glyph unicode="&#xe915;" glyph-name="chevron-down" d="M725.333 550.827v-120.747l-183.040-183.040c-7.712-7.668-18.343-12.407-30.080-12.407s-22.368 4.74-30.082 12.409l-183.465 183.465v120.32l213.333-213.333z" />
<glyph unicode="&#xe916;" glyph-name="chevron-left" d="M401.493 448l213.333-213.333h-120.32l-183.467 183.040c-7.668 7.712-12.407 18.343-12.407 30.080s4.74 22.368 12.409 30.082l183.465 183.465h120.747z" />
<glyph unicode="&#xe917;" glyph-name="chevron-right" d="M712.96 417.707l-183.467-183.040h-120.32l213.333 213.333-213.333 213.333h120.747l183.040-183.040c7.795-7.733 12.621-18.45 12.621-30.293s-4.826-22.56-12.618-30.291l-0.003-0.003z" />
<glyph unicode="&#xe918;" glyph-name="chevron-up" d="M725.333 465.493v-120.747l-213.333 213.333-213.333-213.333v120.747l183.040 183.040c7.712 7.668 18.343 12.407 30.080 12.407s22.368-4.74 30.082-12.409l-0.002 0.002z" />
<glyph unicode="&#xe919;" glyph-name="close" d="M572.16 448l213.333-213.333-60.16-60.16-213.333 213.333-213.333-213.333-60.16 60.16 213.333 213.333-213.333 213.333 60.16 60.16 213.333-213.333 213.333 213.333 60.16-60.16z" />
<glyph unicode="&#xe91a;" glyph-name="cross" d="M554.667 618.667v256h-85.333v-256h-256v-85.333h256v-512h85.333v512h256v85.333z" />
<glyph unicode="&#xe91b;" glyph-name="delete-backward" d="M810.667 789.333h-341.333c-68.089-3.416-129.259-30.518-176.008-73.159l0.222 0.199-177.92-177.493c-23.13-23.158-37.434-55.135-37.434-90.453s14.304-67.296 37.435-90.455l-0.001 0.001 177.92-178.347c46.338-42.774 107.625-69.968 175.203-72.94l0.584-0.020h341.333c70.692 0 128 57.308 128 128v0 426.667c0 70.692-57.308 128-128 128v0zM853.333 234.667c0-23.564-19.103-42.667-42.667-42.667v0h-341.333c-44.596 3.169-84.574 20.721-115.863 47.988l0.236-0.202-177.92 178.347c-7.795 7.733-12.621 18.45-12.621 30.293s4.826 22.56 12.618 30.291l0.003 0.003 177.92 177.493c31.067 27.040 71.036 44.585 114.989 47.75l0.638 0.037h341.333c23.564 0 42.667-19.103 42.667-42.667v0zM755.627 545.707l-98.133-97.707 97.707-97.707-60.16-60.16-97.707 97.707-97.707-97.707-60.16 60.16 97.707 97.707-98.133 97.707 60.16 60.16 98.133-97.707 97.707 97.707z" />
<glyph unicode="&#xe91c;" glyph-name="delete" d="M896 746.667h-213.333c0 70.692-57.308 128-128 128v0h-85.333c-70.692 0-128-57.308-128-128v0h-213.333v-85.333h85.333v-512c0-70.692 57.308-128 128-128v0h341.333c70.692 0 128 57.308 128 128v0 512h85.333zM469.333 789.333h85.333c23.564 0 42.667-19.103 42.667-42.667v0h-170.667c0 23.564 19.103 42.667 42.667 42.667v0zM725.333 149.333c0-23.564-19.103-42.667-42.667-42.667v0h-341.333c-23.564 0-42.667 19.103-42.667 42.667v0 512h426.667zM384 533.333h85.333v-298.667h-85.333zM554.667 533.333h85.333v-298.667h-85.333z" />
<glyph unicode="&#xe91d;" glyph-name="dialpad" d="M298.667 576c-47.128 0-85.333 38.205-85.333 85.333s38.205 85.333 85.333 85.333c47.128 0 85.333-38.205 85.333-85.333v0c0-47.128-38.205-85.333-85.333-85.333v0zM597.333 661.333c0 47.128-38.205 85.333-85.333 85.333s-85.333-38.205-85.333-85.333c0-47.128 38.205-85.333 85.333-85.333v0c47.128 0 85.333 38.205 85.333 85.333v0zM810.667 661.333c0 47.128-38.205 85.333-85.333 85.333s-85.333-38.205-85.333-85.333c0-47.128 38.205-85.333 85.333-85.333v0c47.128 0 85.333 38.205 85.333 85.333v0zM384 448c0 47.128-38.205 85.333-85.333 85.333s-85.333-38.205-85.333-85.333c0-47.128 38.205-85.333 85.333-85.333v0c47.128 0 85.333 38.205 85.333 85.333v0zM597.333 448c0 47.128-38.205 85.333-85.333 85.333s-85.333-38.205-85.333-85.333c0-47.128 38.205-85.333 85.333-85.333v0c47.128 0 85.333 38.205 85.333 85.333v0zM810.667 448c0 47.128-38.205 85.333-85.333 85.333s-85.333-38.205-85.333-85.333c0-47.128 38.205-85.333 85.333-85.333v0c47.128 0 85.333 38.205 85.333 85.333v0zM384 234.667c0 47.128-38.205 85.333-85.333 85.333s-85.333-38.205-85.333-85.333c0-47.128 38.205-85.333 85.333-85.333v0c47.128 0 85.333 38.205 85.333 85.333v0zM597.333 234.667c0 47.128-38.205 85.333-85.333 85.333s-85.333-38.205-85.333-85.333c0-47.128 38.205-85.333 85.333-85.333v0c47.128 0 85.333 38.205 85.333 85.333v0zM810.667 234.667c0 47.128-38.205 85.333-85.333 85.333s-85.333-38.205-85.333-85.333c0-47.128 38.205-85.333 85.333-85.333v0c47.128 0 85.333 38.205 85.333 85.333v0z" />
<glyph unicode="&#xe91e;" glyph-name="directions" d="M798.293 460.373l-140.8-140.373h-120.32l128 128h-110.507c-141.385 0-256-114.615-256-256v0h-85.333c0 188.513 152.82 341.333 341.333 341.333v0h110.507l-128 128h120.747l140.373-140.373c7.795-7.733 12.621-18.45 12.621-30.293s-4.826-22.56-12.618-30.291l-0.003-0.003z" />
<glyph unicode="&#xe91f;" glyph-name="document" d="M815.787 716.373l-120.747 120.747c-23.143 23.171-55.12 37.515-90.447 37.547h-305.926c-70.692 0-128-57.308-128-128v0-597.333c0-70.692 57.308-128 128-128v0h426.667c70.692 0 128 57.308 128 128v0 476.587c-0.032 35.333-14.375 67.31-37.545 90.452l-0.001 0.001zM640 771.84l110.507-110.507h-110.507zM725.333 106.667h-426.667c-23.564 0-42.667 19.103-42.667 42.667v0 597.333c0 23.564 19.103 42.667 42.667 42.667v0h256v-170.667c0-23.564 19.103-42.667 42.667-42.667v0h170.667v-426.667c0-23.564-19.103-42.667-42.667-42.667v0zM341.333 448h341.333v-85.333h-341.333zM341.333 320h341.333v-85.333h-341.333z" />
<glyph unicode="&#xe920;" glyph-name="download" d="M481.707 289.707l-140.373 140.8v120.32l128-128v366.507h85.333v-366.507l128 128v-120.747l-140.373-140.373c-7.712-7.668-18.343-12.407-30.080-12.407s-22.368 4.74-30.082 12.409l0.002-0.002zM256 192v-85.333h512v85.333z" />
<glyph unicode="&#xe921;" glyph-name="edit" d="M865.707 751.787l-49.92 49.92c-23.158 23.13-55.135 37.434-90.453 37.434s-67.296-14.304-90.455-37.435l-476.159-476.159c-17.315-17.311-29.693-39.559-34.843-64.451l-0.143-0.829-12.373-62.72c-1.59-7.568-2.5-16.264-2.5-25.173 0-70.671 57.273-127.966 127.937-128h0.003c8.922 0.022 17.615 0.953 26.005 2.705l-0.832-0.145 62.293 12.8c25.721 5.293 47.969 17.672 65.28 34.986l476.16 476.16c23.13 23.158 37.434 55.135 37.434 90.453s-14.304 67.296-37.435 90.455l0.001-0.001zM329.387 154.453c-5.783-5.718-13.199-9.797-21.486-11.474l-0.274-0.046-62.293-12.373c-2.569-0.55-5.52-0.864-8.544-0.864-23.564 0-42.667 19.103-42.667 42.667 0 3.025 0.315 5.976 0.913 8.822l-0.049-0.278 12.373 62.293c1.723 8.561 5.802 15.977 11.524 21.764l-0.004-0.004 378.453 378.88 110.507-110.507zM657.493 704l37.547 37.547c7.712 7.668 18.343 12.407 30.080 12.407s22.368-4.74 30.082-12.409l49.918-49.918c7.668-7.712 12.407-18.343 12.407-30.080s-4.74-22.368-12.409-30.082l0.002 0.002-37.12-37.973zM512 106.667h298.667v-85.333h-298.667z" />
<glyph unicode="&#xe922;" glyph-name="email" d="M512 874.667c-235.641 0-426.667-191.025-426.667-426.667s191.025-426.667 426.667-426.667v0 0c61.85 1.914 120.233 14.429 174.156 35.778l-3.489-1.218v93.44c-49.838-24.449-108.133-39.894-169.732-42.634l-0.934-0.033c-188.513 0-341.333 152.82-341.333 341.333s152.82 341.333 341.333 341.333c188.513 0 341.333-152.82 341.333-341.333v0c0.145-1.825 0.227-3.951 0.227-6.096 0-21.162-8.024-40.45-21.196-54.987l0.062 0.069c-17.248-14.801-39.735-23.938-64.346-24.319l-0.081-0.001c-16.454 0.962-31.724 5.11-45.507 11.831l0.707-0.311c-24.465 12.244-40.968 37.113-40.968 65.838 0 2.81 0.158 5.582 0.465 8.31l-0.031-0.335v170.667h-85.333v-23.893c-24.401 14.718-53.8 23.556-85.238 23.893l-0.095 0.001c-93.692-0.741-169.358-76.865-169.358-170.662 0-94.257 76.41-170.667 170.667-170.667 50.198 0 95.334 21.672 126.562 56.169l0.13 0.146c13.057-14.563 28.612-26.574 46.040-35.428l0.893-0.412c23.633-11.886 51.352-19.321 80.685-20.468l0.381-0.012c48.186 0.028 92.093 18.331 125.168 48.352l-0.155-0.138c28.39 29.482 45.877 69.636 45.877 113.875 0 3.017-0.081 6.016-0.242 8.993l0.018-0.415c0 235.641-191.025 426.667-426.667 426.667v0zM512 362.667c-47.128 0-85.333 38.205-85.333 85.333s38.205 85.333 85.333 85.333c47.128 0 85.333-38.205 85.333-85.333v0c0-47.128-38.205-85.333-85.333-85.333v0z" />
<glyph unicode="&#xe923;" glyph-name="emotion-angry" d="M331.52 565.76c-0.103 1.531-0.162 3.319-0.162 5.12s0.059 3.589 0.174 5.361l-0.013-0.241c0 0.061 0 0.134 0 0.206 0 14.641 6.045 27.871 15.775 37.329l0.012 0.012c2.13 1.872 4.505 3.567 7.042 5.010l9.171 4.804c2.943 1.277 6.38 2.313 9.957 2.945l0.283 0.041c3.075 0.792 6.604 1.247 10.24 1.247s7.165-0.455 10.535-1.311l-0.295 0.064c3.864-0.682 7.301-1.718 10.552-3.105l-0.312 0.118 8.96-4.693c3.068-2.007 5.727-4.26 8.081-6.799l0.025-0.028c9.742-9.47 15.787-22.699 15.787-37.34 0-0.073 0-0.145 0-0.217v0.011c0.098-1.531 0.154-3.319 0.154-5.12s-0.056-3.589-0.166-5.363l0.012 0.243c-0.839-3.888-2.015-7.309-3.538-10.534l0.125 0.294c-1.488-3.476-3.059-6.419-4.844-9.212l0.151 0.252c-4.161-5.829-9.104-10.772-14.743-14.804l-0.19-0.129-8.96-4.693c-2.931-1.398-6.352-2.574-9.921-3.355l-0.319-0.059h-20.48c-3.886 0.835-7.307 2.011-10.53 3.537l0.29-0.124-9.813 8.107c-3.068 2.007-5.727 4.26-8.081 6.799l-0.025 0.028c-1.855 1.908-3.541 4-5.021 6.241l-0.099 0.159c-1.648 2.547-3.219 5.491-4.543 8.566l-0.151 0.394c-1.962 2.946-3.688 6.325-5.010 9.9l-0.11 0.34zM640 523.093h10.24c3.888 0.839 7.309 2.015 10.534 3.538l-0.294-0.125 8.96 4.693c5.172 4.355 9.561 9.423 13.072 15.092l0.155 0.268c1.635 2.541 3.205 5.484 4.537 8.554l0.157 0.406c1.398 2.931 2.574 6.352 3.355 9.921l0.059 0.319c0.098 1.531 0.154 3.319 0.154 5.12s-0.056 3.589-0.166 5.363l0.012-0.243c0.098 1.531 0.154 3.319 0.154 5.12s-0.056 3.589-0.166 5.363l0.012-0.243c-0.835 3.886-2.011 7.307-3.537 10.53l0.124-0.29c-1.474 3.469-3.045 6.413-4.838 9.2l0.145-0.24c-2.007 3.068-4.26 5.727-6.799 8.081l-0.028 0.025c-1.908 1.855-4 3.541-6.241 5.021l-0.159 0.099-8.96 4.693c-2.939 1.268-6.376 2.305-9.95 2.944l-0.29 0.043c-3.075 0.792-6.604 1.247-10.24 1.247s-7.165-0.455-10.535-1.311l0.295 0.064c-3.86-0.673-7.297-1.71-10.546-3.103l0.306 0.117-8.96-4.693c-3.068-2.007-5.727-4.26-8.081-6.799l-0.025-0.028c-8.601-9.435-13.869-22.040-13.869-35.875 0-28.781 22.797-52.237 51.319-53.296l0.097-0.003zM501.333 448c-117.821 0-213.333-95.513-213.333-213.333v0h85.333c0.125 15.341 2.93 29.989 7.968 43.552l-0.288-0.885c18.541 49.303 65.302 83.746 120.107 83.746s101.565-34.444 119.815-82.865l0.291-0.882c4.75-12.677 7.555-27.325 7.68-42.612v-0.055h85.333c0 117.821-95.513 213.333-213.333 213.333v0zM938.667 448c0-235.641-191.025-426.667-426.667-426.667s-426.667 191.025-426.667 426.667c0 235.641 191.025 426.667 426.667 426.667v0c235.641 0 426.667-191.025 426.667-426.667v0zM853.333 448c0.001 0.259 0.001 0.566 0.001 0.873 0 188.513-152.82 341.333-341.333 341.333s-341.333-152.82-341.333-341.333c0-97.125 40.566-184.776 105.679-246.933l0.133-0.126 10.667-9.813c59.753-52.608 138.66-84.714 225.067-84.714s165.314 32.106 225.444 85.040l-0.377-0.326 10.667 9.813c64.884 62.145 105.25 149.439 105.387 246.161v0.025z" />
<glyph unicode="&#xe924;" glyph-name="emotion-happy" d="M765.013 409.6c-18.962-124.297-125.103-218.42-253.227-218.42s-234.264 94.123-253.048 216.996l-0.179 1.424h85.333c17.896-76.579 85.589-132.744 166.4-132.744s148.504 56.165 166.172 131.589l0.228 1.155zM938.667 448c0-235.641-191.025-426.667-426.667-426.667s-426.667 191.025-426.667 426.667c0 235.641 191.025 426.667 426.667 426.667v0c235.641 0 426.667-191.025 426.667-426.667v0zM853.333 448c0 188.513-152.82 341.333-341.333 341.333s-341.333-152.82-341.333-341.333c0-188.513 152.82-341.333 341.333-341.333v0c188.513 0 341.333 152.82 341.333 341.333v0zM334.933 555.52c1.998-3.389 4.113-6.318 6.465-9.036l-0.065 0.076c2.007-3.068 4.26-5.727 6.799-8.081l0.028-0.025c2.379-2.567 5.039-4.82 7.945-6.727l0.162-0.1 8.96-4.693c2.933-1.402 6.354-2.579 9.925-3.356l0.315-0.058h20.48c3.888 0.839 7.309 2.015 10.534 3.538l-0.294-0.125 7.253 6.4c5.085 3.779 9.448 8.142 13.108 13.060l0.119 0.167c1.635 2.541 3.205 5.484 4.537 8.554l0.157 0.406c1.398 2.931 2.574 6.352 3.355 9.921l0.059 0.319c0.098 1.531 0.154 3.319 0.154 5.12s-0.056 3.589-0.166 5.363l0.012-0.243c0 0.061 0 0.134 0 0.206 0 14.641-6.045 27.871-15.775 37.329l-0.012 0.012c-1.689 1.857-3.502 3.535-5.45 5.048l-0.097 0.072-8.96 4.693c-2.939 1.268-6.376 2.305-9.95 2.944l-0.29 0.043c-3.075 0.792-6.604 1.247-10.24 1.247s-7.165-0.455-10.535-1.311l0.295 0.064c-3.86-0.673-7.297-1.71-10.546-3.103l0.306 0.117-8.96-4.693c-3.068-2.007-5.727-4.26-8.081-6.799l-0.025-0.028c-9.4-9.126-15.362-21.748-15.785-35.762l-0.002-0.078c-0.103-1.531-0.162-3.319-0.162-5.12s0.059-3.589 0.174-5.361l-0.013 0.241c1.146-3.913 2.598-7.309 4.394-10.484l-0.127 0.244zM640 522.667h10.24c3.888 0.839 7.309 2.015 10.534 3.538l-0.294-0.125 8.96 4.693c5.195 4.469 9.59 9.679 13.068 15.5l0.159 0.286c1.635 2.541 3.205 5.484 4.537 8.554l0.157 0.406c1.398 2.931 2.574 6.352 3.355 9.921l0.059 0.319c0.098 1.531 0.154 3.319 0.154 5.12s-0.056 3.589-0.166 5.363l0.012-0.243c0.098 1.531 0.154 3.319 0.154 5.12s-0.056 3.589-0.166 5.363l0.012-0.243c-0.835 3.886-2.011 7.307-3.537 10.53l0.124-0.29c-1.474 3.469-3.045 6.413-4.838 9.2l0.145-0.24c-2.007 3.068-4.26 5.727-6.799 8.081l-0.028 0.025c-1.908 1.855-4 3.541-6.241 5.021l-0.159 0.099-8.96 4.693c-2.939 1.268-6.376 2.305-9.95 2.944l-0.29 0.043c-3.075 0.792-6.604 1.247-10.24 1.247s-7.165-0.455-10.535-1.311l0.295 0.064c-3.86-0.673-7.297-1.71-10.546-3.103l0.306 0.117-8.96-4.693c-3.068-2.007-5.727-4.26-8.081-6.799l-0.025-0.028c-8.601-9.435-13.869-22.040-13.869-35.875 0-28.781 22.797-52.237 51.319-53.296l0.097-0.003z" />
<glyph unicode="&#xe925;" glyph-name="emotion-neutral" d="M512 874.667c-235.641 0-426.667-191.025-426.667-426.667s191.025-426.667 426.667-426.667c235.641 0 426.667 191.025 426.667 426.667v0c0 235.641-191.025 426.667-426.667 426.667v0zM512 106.667c-188.513 0-341.333 152.82-341.333 341.333s152.82 341.333 341.333 341.333c188.513 0 341.333-152.82 341.333-341.333v0c0-188.513-152.82-341.333-341.333-341.333v0zM346.453 538.453c-1.905 2.358-3.61 5.018-5.009 7.856l-0.111 0.25c-1.648 2.547-3.219 5.491-4.543 8.566l-0.151 0.394c-1.39 2.928-2.566 6.348-3.353 9.914l-0.060 0.326c-0.103 1.531-0.162 3.319-0.162 5.12s0.059 3.589 0.174 5.361l-0.013-0.241c0 0.061 0 0.134 0 0.206 0 14.641 6.045 27.871 15.775 37.329l0.012 0.012c1.689 1.857 3.502 3.535 5.45 5.048l0.097 0.072 8.96 4.693c2.943 1.277 6.38 2.313 9.957 2.945l0.283 0.041c3.075 0.792 6.604 1.247 10.24 1.247s7.165-0.455 10.535-1.311l-0.295 0.064c3.864-0.682 7.301-1.718 10.552-3.105l-0.312 0.118 8.96-4.693c3.068-2.007 5.727-4.26 8.081-6.799l0.025-0.028c9.742-9.47 15.787-22.699 15.787-37.34 0-0.073 0-0.145 0-0.217v0.011c0.098-1.531 0.154-3.319 0.154-5.12s-0.056-3.589-0.166-5.363l0.012 0.243c-0.839-3.888-2.015-7.309-3.538-10.534l0.125 0.294c-1.488-3.476-3.059-6.419-4.844-9.212l0.151 0.252c-4.161-5.829-9.104-10.772-14.743-14.804l-0.19-0.129-8.96-4.693c-2.931-1.398-6.352-2.574-9.921-3.355l-0.319-0.059h-20.48c-3.886 0.835-7.307 2.011-10.53 3.537l0.29-0.124-9.813 8.107c-3.089 1.51-5.749 3.215-8.188 5.184l0.081-0.064zM692.48 586.24c0.098-1.531 0.154-3.319 0.154-5.12s-0.056-3.589-0.166-5.363l0.012 0.243c0.098-1.531 0.154-3.319 0.154-5.12s-0.056-3.589-0.166-5.363l0.012 0.243c-0.839-3.888-2.015-7.309-3.538-10.534l0.125 0.294c-1.488-3.476-3.059-6.419-4.844-9.212l0.151 0.252c-4.161-5.829-9.104-10.772-14.743-14.804l-0.19-0.129-8.96-4.693c-2.931-1.398-6.352-2.574-9.921-3.355l-0.319-0.059h-10.24c-29.313 0.187-53.004 23.993-53.004 53.332 0 14.646 5.903 27.913 15.461 37.551l-0.004-0.004c2.333 1.592 5.002 3.024 7.82 4.164l0.286 0.102 8.96 4.693c2.943 1.277 6.38 2.313 9.957 2.945l0.283 0.041c3.075 0.792 6.604 1.247 10.24 1.247s7.165-0.455 10.535-1.311l-0.295 0.064c3.864-0.682 7.301-1.718 10.552-3.105l-0.312 0.118 8.96-4.693c3.068-2.007 5.727-4.26 8.081-6.799l0.025-0.028c2.567-2.379 4.82-5.039 6.727-7.945l0.1-0.162c1.648-2.547 3.219-5.491 4.543-8.566l0.151-0.394c1.282-2.417 2.443-5.246 3.326-8.195l0.087-0.338zM341.333 362.667h341.333v-85.333h-341.333z" />
<glyph unicode="&#xe926;" glyph-name="error" d="M512 21.333c-235.641 0-426.667 191.025-426.667 426.667s191.025 426.667 426.667 426.667c235.641 0 426.667-191.025 426.667-426.667v0c0-235.641-191.025-426.667-426.667-426.667v0zM512 789.333c-188.513 0-341.333-152.82-341.333-341.333s152.82-341.333 341.333-341.333c188.513 0 341.333 152.82 341.333 341.333v0c0 188.513-152.82 341.333-341.333 341.333v0zM469.333 661.333h85.333v-298.667h-85.333v298.667zM512 224c-29.358 0.239-53.094 23.975-53.333 53.31v0.023c0.023 14.836 6.052 28.259 15.786 37.972l0.001 0.001c9.844 9.075 23.046 14.64 37.547 14.64s27.702-5.565 37.585-14.675l-0.038 0.035c9.808-9.677 15.884-23.116 15.884-37.973 0-29.455-23.878-53.333-53.333-53.333-0.034 0-0.068 0-0.102 0h0.005z" />
<glyph unicode="&#xe927;" glyph-name="euro" d="M375.893 576h221.44v-85.333h-252.16c-2.452-12.829-3.854-27.584-3.854-42.667s1.403-29.838 4.084-44.143l-0.23 1.476h252.16v-85.333h-221.44c45.152-76.782 127.36-127.504 221.415-127.504 65.693 0 125.607 24.744 170.929 65.421l-0.238-0.21v-104.96c-48.933-28.714-107.77-45.673-170.567-45.673-142.227 0-264.136 86.988-315.428 210.663l-0.832 2.263h-110.507v85.333h88.32c-1.887 12.819-2.965 27.617-2.965 42.667s1.078 29.848 3.16 44.321l-0.195-1.654h-88.32v85.333h110.507c52.123 125.938 174.033 212.926 316.259 212.926 62.797 0 121.634-16.958 172.18-46.545l-1.613 0.872v-104.96c-45.084 40.466-104.998 65.211-170.691 65.211-94.055 0-176.263-50.722-220.763-126.306l-0.653-1.198z" />
<glyph unicode="&#xe928;" glyph-name="external-link" d="M896 789.333v-256h-85.333v152.747l-232.107-232.107-60.16 60.16 232.107 232.533h-153.173v85.333h256c23.564 0 42.667-19.103 42.667-42.667v0zM725.333 192c0-23.564-19.103-42.667-42.667-42.667v0h-426.667c-23.564 0-42.667 19.103-42.667 42.667v0 426.667c0 23.564 19.103 42.667 42.667 42.667v0h256v85.333h-256c-70.692 0-128-57.308-128-128v0-426.667c0-70.692 57.308-128 128-128v0h426.667c70.692 0 128 57.308 128 128v0 256h-85.333z" />
<glyph unicode="&#xe929;" glyph-name="file-csv" d="M725.333 106.667h-426.667c-23.564 0-42.667 19.103-42.667 42.667v0 597.333c0 23.564 19.103 42.667 42.667 42.667v0h256v-170.667c0-23.564 19.103-42.667 42.667-42.667v0h170.667v-128h85.333v177.92c-0.032 35.333-14.375 67.31-37.545 90.452l-120.748 120.748c-23.143 23.171-55.12 37.515-90.447 37.547h-305.926c-70.692 0-128-57.308-128-128v0-597.333c0-70.692 57.308-128 128-128v0h426.667c70.692 0 128 57.308 128 128v0h-85.333c0-23.564-19.103-42.667-42.667-42.667v0zM750.507 661.333h-110.507v110.507zM384 299.093c-0.12-1.334-0.188-2.886-0.188-4.455 0-29.22 23.687-52.907 52.907-52.907 1.568 0 3.12 0.068 4.654 0.202l-0.199-0.014c0.179-0.001 0.39-0.002 0.601-0.002 18.211 0 34.957 6.269 48.2 16.766l-0.161-0.123v-53.333c-14.263-9.131-31.663-14.555-50.329-14.555-1.057 0-2.109 0.017-3.157 0.052l0.153-0.004c-1.713-0.103-3.715-0.161-5.731-0.161-56.318 0-101.973 45.655-101.973 101.973 0 2.158 0.067 4.301 0.199 6.426l-0.014-0.291c-0.074 1.456-0.117 3.161-0.117 4.875 0 56.318 45.655 101.973 101.973 101.973 2.142 0 4.27-0.066 6.379-0.196l-0.289 0.014c0.896 0.031 1.948 0.048 3.005 0.048 18.666 0 36.065-5.424 50.708-14.781l-0.379 0.227v-53.333c-13.206 10.617-30.17 17.047-48.636 17.067h-0.004c-1.428 0.137-3.088 0.215-4.766 0.215-29.22 0-52.907-23.687-52.907-52.907 0-0.976 0.026-1.946 0.079-2.909l-0.006 0.134zM632.32 253.44c0 10.24-6.4 13.653-17.92 17.92l-31.573 9.387c-34.987 10.24-54.613 27.733-54.613 62.293 0 42.667 34.987 64.427 78.933 64.427 1.041 0.030 2.266 0.047 3.495 0.047 22.806 0 44.242-5.867 62.88-16.173l-0.669 0.339v-50.347c-17.347 12.893-39.060 20.821-62.6 21.331l-0.12 0.002c-15.787 0-27.733-4.267-27.733-14.933s6.4-13.227 17.493-16.64l31.573-9.387c38.4-11.947 55.467-32 55.467-64 0-45.227-38.4-65.707-85.333-65.707-0.537-0.007-1.171-0.012-1.806-0.012-24.526 0-47.575 6.329-67.601 17.442l0.714-0.363v49.493c18.954-12.919 42.171-20.931 67.206-21.755l0.207-0.005c17.493-2.133 32.427 3.84 32.427 16.64zM814.933 268.373l47.787 136.96h56.32l-78.080-209.493h-53.76l-78.080 209.493h58.88z" />
<glyph unicode="&#xe92a;" glyph-name="file-doc" d="M725.333 106.667h-426.667c-23.564 0-42.667 19.103-42.667 42.667v0 597.333c0 23.564 19.103 42.667 42.667 42.667v0h256v-170.667c0-23.564 19.103-42.667 42.667-42.667v0h170.667v-128h85.333v177.92c-0.032 35.333-14.375 67.31-37.545 90.452l-120.748 120.748c-23.143 23.171-55.12 37.515-90.447 37.547h-305.926c-70.692 0-128-57.308-128-128v0-597.333c0-70.692 57.308-128 128-128v0h426.667c70.692 0 128 57.308 128 128v0h-85.333c0-23.564-19.103-42.667-42.667-42.667v0zM750.507 661.333h-110.507v110.507zM337.493 405.333v-209.493h79.36c2.508-0.229 5.424-0.359 8.371-0.359 53.962 0 97.707 43.745 97.707 97.707 0 2.529-0.096 5.035-0.285 7.516l0.020-0.33c0.189 2.28 0.297 4.935 0.297 7.615 0 53.962-43.745 97.707-97.707 97.707-2.958 0-5.886-0.131-8.778-0.389l0.374 0.027zM469.333 299.093c0.239-1.857 0.375-4.005 0.375-6.184 0-28.277-22.923-51.2-51.2-51.2-1.634 0-3.25 0.077-4.845 0.226l0.204-0.015h-22.613v114.773h22.613c1.407 0.137 3.043 0.216 4.696 0.216 28.277 0 51.2-22.923 51.2-51.2 0-2.333-0.156-4.629-0.458-6.879l0.029 0.263zM547.84 299.093c0-56.554 45.846-102.4 102.4-102.4s102.4 45.846 102.4 102.4v0c0 56.554-45.846 102.4-102.4 102.4s-102.4-45.846-102.4-102.4v0zM697.173 299.093c0-36.267-19.2-60.16-47.36-60.16s-46.507 23.893-46.507 60.16 18.347 60.16 46.507 60.16 46.507-23.893 46.507-60.16zM831.573 299.093c-0.12-1.334-0.188-2.886-0.188-4.455 0-29.22 23.687-52.907 52.907-52.907 1.568 0 3.12 0.068 4.654 0.202l-0.199-0.014c0.179-0.001 0.39-0.002 0.601-0.002 18.211 0 34.957 6.269 48.2 16.766l-0.161-0.123v-53.333c-13.833-8.418-30.561-13.401-48.453-13.401-2.017 0-4.020 0.063-6.005 0.188l0.272-0.014c-1.713-0.103-3.715-0.161-5.731-0.161-56.318 0-101.973 45.655-101.973 101.973 0 2.158 0.067 4.301 0.199 6.426l-0.014-0.291c-0.040 1.064-0.062 2.313-0.062 3.568 0 56.318 45.655 101.973 101.973 101.973 1.973 0 3.933-0.056 5.879-0.167l-0.27 0.012c0.896 0.031 1.948 0.048 3.005 0.048 18.666 0 36.065-5.424 50.708-14.781l-0.379 0.227v-53.333c-13.206 10.617-30.17 17.047-48.636 17.067h-0.004c-1.299 0.113-2.811 0.178-4.338 0.178-29.22 0-52.907-23.687-52.907-52.907 0-0.963 0.026-1.92 0.077-2.871l-0.006 0.133z" />
<glyph unicode="&#xe92b;" glyph-name="file-pdf" d="M725.333 106.667h-426.667c-23.564 0-42.667 19.103-42.667 42.667v0 597.333c0 23.564 19.103 42.667 42.667 42.667v0h256v-170.667c0-23.564 19.103-42.667 42.667-42.667v0h170.667v-128h85.333v177.92c-0.032 35.333-14.375 67.31-37.545 90.452l-120.748 120.748c-23.143 23.171-55.12 37.515-90.447 37.547h-305.926c-70.692 0-128-57.308-128-128v0-597.333c0-70.692 57.308-128 128-128v0h426.667c70.692 0 128 57.308 128 128v0h-85.333c0-23.564-19.103-42.667-42.667-42.667v0zM640 771.84l110.507-110.507h-110.507zM337.493 405.333v-209.493h54.187v63.573h37.547c2.208-0.252 4.767-0.395 7.359-0.395 37.938 0 68.693 30.755 68.693 68.693 0 1.34-0.038 2.671-0.114 3.992l0.008-0.183c0.142 1.655 0.223 3.582 0.223 5.528 0 37.938-30.755 68.693-68.693 68.693-2.634 0-5.233-0.148-7.79-0.437l0.314 0.029zM452.267 333.227c0-15.787-8.96-26.453-28.587-26.453h-32v51.2h31.573c20.053 0 29.013-10.24 29.013-26.453zM529.067 405.333v-209.493h78.933c2.508-0.229 5.424-0.359 8.371-0.359 53.962 0 97.707 43.745 97.707 97.707 0 2.529-0.096 5.035-0.285 7.516l0.020-0.33c0.189 2.28 0.297 4.935 0.297 7.615 0 53.962-43.745 97.707-97.707 97.707-2.958 0-5.886-0.131-8.778-0.389l0.374 0.027zM659.627 300.8c0.231-1.826 0.363-3.939 0.363-6.083 0-28.277-22.923-51.2-51.2-51.2-1.178 0-2.348 0.040-3.506 0.118l0.157-0.009h-22.613v113.067h22.613c1.018 0.072 2.205 0.113 3.403 0.113 28.277 0 51.2-22.923 51.2-51.2 0-2.296-0.151-4.557-0.444-6.773l0.028 0.26zM791.040 357.973v-42.667h85.333v-46.507h-85.333v-73.813h-54.187v210.347h147.2v-47.36z" />
<glyph unicode="&#xe92c;" glyph-name="file-zip" d="M725.333 106.667h-426.667c-23.564 0-42.667 19.103-42.667 42.667v0 597.333c0 23.564 19.103 42.667 42.667 42.667v0h256v-170.667c0-23.564 19.103-42.667 42.667-42.667v0h170.667v-128h85.333v177.92c-0.032 35.333-14.375 67.31-37.545 90.452l-120.748 120.748c-23.143 23.171-55.12 37.515-90.447 37.547h-305.926c-70.692 0-128-57.308-128-128v0-597.333c0-70.692 57.308-128 128-128v0h426.667c70.692 0 128 57.308 128 128v0h-85.333c0-23.564-19.103-42.667-42.667-42.667v0zM750.507 661.333h-110.507v110.507zM634.453 402.347l-89.173-160.853h88.32v-47.36h-170.667l90.88 160.853h-85.333v50.347h170.667zM670.293 194.133v211.2h55.040v-209.493zM860.16 405.333h-92.16v-209.493h54.187v63.573h37.547c2.208-0.252 4.767-0.395 7.359-0.395 37.938 0 68.693 30.755 68.693 68.693 0 1.34-0.038 2.671-0.114 3.992l0.008-0.183c0.14 1.642 0.219 3.553 0.219 5.482 0 37.938-30.755 68.693-68.693 68.693-2.482 0-4.933-0.132-7.346-0.388l0.3 0.026zM853.333 305.493h-31.573v52.48h31.573c19.627 0 28.587-10.24 28.587-26.453s-7.68-26.027-28.587-26.027z" />
<glyph unicode="&#xe92d;" glyph-name="filter" d="M298.667 490.667h426.667v-85.333h-426.667zM426.667 192h170.667v85.333h-170.667zM170.667 704v-85.333h682.667v85.333z" />
<glyph unicode="&#xe92e;" glyph-name="flag" d="M827.733 785.067c-5.224 2.457-11.345 3.891-17.801 3.891-10.869 0-20.789-4.064-28.323-10.756l0.044 0.038s-37.547-31.573-141.653-31.573c-3.437-0.173-7.463-0.272-11.513-0.272-40.498 0-78.689 9.882-112.291 27.365l1.351-0.64c-35.753 18.389-78.016 29.169-122.797 29.169-18.903 0-37.357-1.921-55.177-5.577l1.762 0.302v34.987h-85.333v-768h85.333v262.827c14.99 3.892 32.199 6.127 49.93 6.127 33.752 0 65.613-8.097 93.746-22.455l-1.169 0.542c42.48-21.366 92.576-33.876 145.595-33.876 3.715 0 7.416 0.061 11.102 0.183l-0.537-0.014c141.227 0 194.987 49.493 200.533 55.040 7.861 7.709 12.749 18.426 12.8 30.284v384.010c-0.293 17.112-10.615 31.743-25.328 38.292l-0.272 0.108zM768 385.707c-33.695-14.77-72.966-23.365-114.245-23.365-4.838 0-9.648 0.118-14.428 0.351l0.673-0.026c-3.003-0.131-6.526-0.206-10.066-0.206-40.356 0-78.449 9.694-112.075 26.879l1.394-0.647c-36.141 18.392-78.815 29.168-124.006 29.168-19.077 0-37.705-1.92-55.702-5.578l1.787 0.303v298.667c15.144 4.184 32.533 6.589 50.485 6.589 32.654 0 63.45-7.957 90.554-22.039l-1.092 0.516c42.928-22.177 93.697-35.179 147.504-35.179 3.944 0 7.872 0.070 11.783 0.208l-0.567-0.016c2.254-0.042 4.912-0.066 7.575-0.066 42.91 0 84.358 6.259 123.481 17.914l-3.056-0.781z" />
<glyph unicode="&#xe92f;" glyph-name="folder" d="M213.333 109.227c-70.692 0-128 57.308-128 128v0 426.667c0 70.692 57.308 128 128 128v0h136.96c35.333-0.032 67.31-14.375 90.452-37.545l78.081-78.081c7.709-7.648 18.326-12.374 30.047-12.374 0.087 0 0.173 0 0.26 0.001h261.534c70.692 0 128-57.308 128-128v0-298.667c0-70.692-57.308-128-128-128v0h-597.333zM213.333 706.56c-23.564 0-42.667-19.103-42.667-42.667v0-426.667c0-23.564 19.103-42.667 42.667-42.667v0 0h597.333c23.564 0 42.667 19.103 42.667 42.667v0 298.667c0 23.564-19.103 42.667-42.667 42.667v0h-261.973c-35.676 0.755-67.651 15.991-90.397 40.046l-0.056 0.060-78.080 76.373c-7.709 7.648-18.326 12.374-30.047 12.374-0.087 0-0.173 0-0.26-0.001h0.013z" />
<glyph unicode="&#xe930;" glyph-name="forum" d="M929.28 114.347c1.138-4.768 1.79-10.243 1.79-15.87 0-39.352-31.901-71.253-71.253-71.253-5.627 0-11.101 0.652-16.352 1.885l0.482-0.095-85.333 16.64c-34.605-15.372-74.976-24.322-117.438-24.322-0.413 0-0.826 0.001-1.239 0.003h0.064c-0.173 0-0.377-0.001-0.582-0.001-19.707 0-38.979 1.863-57.65 5.424l1.911-0.303c-79.061 15.257-145.641 59.927-189.233 121.93l-0.634 0.95c11.093 0 21.76 0 32.853 0h22.613c18.368 0.881 35.532 2.863 52.325 5.909l-2.405-0.362h4.267c25.957-21.611 57.686-37.193 92.528-44.15l1.339-0.223c11.983-2.389 25.758-3.756 39.853-3.756 35.447 0 68.875 8.645 98.29 23.942l-1.183-0.56c5.64 2.939 12.316 4.663 19.395 4.663 2.951 0 5.832-0.3 8.614-0.87l-0.275 0.047 77.227-15.36-15.36 77.227c-0.523 2.507-0.823 5.388-0.823 8.339 0 7.079 1.724 13.755 4.775 19.632l-0.112-0.237c15.899 29.132 25.248 63.811 25.248 100.673 0 13.583-1.269 26.869-3.696 39.746l0.208-1.326c-7.452 37.481-23.961 70.272-47.16 97.121l0.226-0.268c0 5.12 2.56 9.813 3.413 14.507 0 13.227 2.987 26.027 3.84 38.827 0.625 8.298 0.982 17.974 0.982 27.733s-0.357 19.435-1.057 29.015l0.075-1.281c78.496-54.596 129.232-144.35 129.232-245.955 0-44.122-9.568-86.010-26.742-123.702l0.763 1.87zM418.56 192c-48.478 1.404-94.037 12.417-135.322 31.19l2.202-0.896-100.693-20.053c-4.406-0.908-9.469-1.427-14.654-1.427-41.944 0-75.947 34.002-75.947 75.947 0 5.185 0.52 10.248 1.509 15.141l-0.082-0.487 20.053 100.693c-19.059 41.229-30.174 89.474-30.174 140.315 0 188.513 152.82 341.333 341.333 341.333 185.342 0 336.182-147.722 341.204-331.851l0.010-0.464c0.020-1.404 0.032-3.061 0.032-4.72 0-16.238-1.097-32.22-3.221-47.876l0.202 1.823c0-4.693 0-9.387 0-14.080-23.566-141.911-131.967-253.046-270.474-280.39l-2.166-0.357-23.467-3.413c-7.369-0.556-15.96-0.873-24.626-0.873-6.196 0-12.354 0.162-18.469 0.482l0.855-0.036zM431.36 277.333c15.275 0.283 29.993 1.823 44.301 4.523l-1.635-0.256c105.417 20.304 186.88 103.061 205.007 207.539l0.219 1.527c1.757 11.049 2.837 23.894 2.985 36.963l0.001 0.157c0.013 0.958 0.020 2.088 0.020 3.221 0 13.923-1.093 27.59-3.199 40.921l0.192-1.475c-18.738 124.539-124.997 218.927-253.301 218.927-14.817 0-29.34-1.259-43.467-3.675l1.515 0.214c-122.307-20.759-214.275-125.928-214.275-252.577 0-42.353 10.285-82.304 28.494-117.491l-0.672 1.428c2.939-5.64 4.663-12.316 4.663-19.395 0-2.951-0.3-5.832-0.87-8.614l0.047 0.275-20.053-100.693 100.693 20.053h8.533c7.017-0.043 13.619-1.774 19.436-4.805l-0.236 0.112c8.827-4.469 19.548-8.943 30.605-12.691l1.822-0.536c25.1-9.211 54.083-14.539 84.311-14.539 1.41 0 2.816 0.012 4.221 0.035l-0.211-0.003zM554.667 576v85.333h-256v-85.333h256zM469.333 405.333v85.333h-170.667v-85.333h170.667z" />
<glyph unicode="&#xe931;" glyph-name="forward" d="M853.333 529.493l-227.413 143.36c-15.493 9.992-34.417 15.931-54.729 15.931-17.952 0-34.82-4.639-49.472-12.783l0.52 0.265c-30.438-16.393-50.778-48.034-50.778-84.425 0-0.319 0.002-0.638 0.005-0.957v0.049-38.827l-189.013 120.747c-15.493 9.992-34.417 15.931-54.729 15.931-17.952 0-34.82-4.639-49.472-12.783l0.52 0.265c-30.436-16.394-50.773-48.033-50.773-84.423 0-0.020 0-0.040 0-0.060v0.003-287.147c-0.003-0.27-0.004-0.589-0.004-0.908 0-36.391 20.339-68.032 50.27-84.175l0.508-0.25c14.131-7.879 30.999-12.517 48.951-12.517 20.312 0 39.236 5.938 55.132 16.174l-0.403-0.243 186.88 120.32v-38.827c-0.003-0.27-0.004-0.589-0.004-0.908 0-36.391 20.339-68.032 50.27-84.175l0.508-0.25c14.131-7.879 30.999-12.517 48.951-12.517 20.312 0 39.236 5.938 55.132 16.174l-0.403-0.243 229.547 144.213c27.351 17.232 45.257 47.272 45.257 81.493s-17.906 64.261-44.861 81.26l-0.397 0.233zM464.213 438.613l-227.413-143.787c-2.387-1.402-5.257-2.229-8.32-2.229s-5.933 0.828-8.399 2.272l0.079-0.043c-3.738 1.672-6.388 5.175-6.822 9.337l-0.004 0.050v287.573c0.197 4.298 2.721 7.964 6.334 9.783l0.066 0.030c1.218 0.295 2.616 0.464 4.053 0.464s2.836-0.169 4.175-0.489l-0.122 0.025c3.176-0.018 6.126-0.971 8.593-2.597l-0.059 0.037 225.707-143.787c3.36-1.84 5.6-5.352 5.6-9.387s-2.24-7.546-5.545-9.359l-0.055-0.028zM805.547 438.613l-225.707-143.787c-2.387-1.402-5.257-2.229-8.32-2.229s-5.933 0.828-8.399 2.272l0.079-0.043c-3.679 1.85-6.203 5.515-6.399 9.788l-0.001 0.025v287.147c0.197 4.298 2.721 7.964 6.334 9.783l0.066 0.030c1.218 0.295 2.616 0.464 4.053 0.464s2.836-0.169 4.175-0.489l-0.122 0.025c3.176-0.018 6.126-0.971 8.593-2.597l-0.059 0.037 225.707-143.787c3.36-1.84 5.6-5.352 5.6-9.387s-2.24-7.546-5.545-9.359l-0.055-0.028z" />
<glyph unicode="&#xe932;" glyph-name="fullscreen-exit" d="M853.333 618.667v-85.333h-128c-70.692 0-128 57.308-128 128v0 128h85.333v-128c0-23.564 19.103-42.667 42.667-42.667v0zM597.333 234.667v-128h85.333v128c0 23.564 19.103 42.667 42.667 42.667v0h128v85.333h-128c-70.692 0-128-57.308-128-128v0zM298.667 362.667h-128v-85.333h128c23.564 0 42.667-19.103 42.667-42.667v0-128h85.333v128c0 70.692-57.308 128-128 128v0zM341.333 661.333c0-23.564-19.103-42.667-42.667-42.667v0h-128v-85.333h128c70.692 0 128 57.308 128 128v0 128h-85.333z" />
<glyph unicode="&#xe933;" glyph-name="fullscreen" d="M298.667 192h128v-85.333h-128c-70.692 0-128 57.308-128 128v0 128h85.333v-128c0-23.564 19.103-42.667 42.667-42.667v0zM170.667 661.333v-128h85.333v128c0 23.564 19.103 42.667 42.667 42.667v0h128v85.333h-128c-70.692 0-128-57.308-128-128v0zM725.333 789.333h-128v-85.333h128c23.564 0 42.667-19.103 42.667-42.667v0-128h85.333v128c0 70.692-57.308 128-128 128v0zM768 234.667c0-23.564-19.103-42.667-42.667-42.667v0h-128v-85.333h128c70.692 0 128 57.308 128 128v0 128h-85.333z" />
<glyph unicode="&#xe934;" glyph-name="graph-view" d="M341.333 789.333h-42.667c-70.692 0-128-57.308-128-128v0-426.667c0-70.692 57.308-128 128-128v0h42.667c70.692 0 128 57.308 128 128v0 426.667c0 70.692-57.308 128-128 128v0zM384 234.667c0-23.564-19.103-42.667-42.667-42.667v0h-42.667c-23.564 0-42.667 19.103-42.667 42.667v0 426.667c0 23.564 19.103 42.667 42.667 42.667v0h42.667c23.564 0 42.667-19.103 42.667-42.667v0zM725.333 405.333h-42.667c-70.692 0-128-57.308-128-128v0-42.667c0-70.692 57.308-128 128-128v0h42.667c70.692 0 128 57.308 128 128v0 42.667c0 70.692-57.308 128-128 128v0zM768 234.667c0-23.564-19.103-42.667-42.667-42.667v0h-42.667c-23.564 0-42.667 19.103-42.667 42.667v0 42.667c0 23.564 19.103 42.667 42.667 42.667v0h42.667c23.564 0 42.667-19.103 42.667-42.667v0z" />
<glyph unicode="&#xe935;" glyph-name="grid-view" d="M341.333 789.333h-42.667c-70.692 0-128-57.308-128-128v0-42.667c0-70.692 57.308-128 128-128v0h42.667c70.692 0 128 57.308 128 128v0 42.667c0 70.692-57.308 128-128 128v0zM384 618.667c0-23.564-19.103-42.667-42.667-42.667v0h-42.667c-23.564 0-42.667 19.103-42.667 42.667v0 42.667c0 23.564 19.103 42.667 42.667 42.667v0h42.667c23.564 0 42.667-19.103 42.667-42.667v0zM341.333 405.333h-42.667c-70.692 0-128-57.308-128-128v0-42.667c0-70.692 57.308-128 128-128v0h42.667c70.692 0 128 57.308 128 128v0 42.667c0 70.692-57.308 128-128 128v0zM384 234.667c0-23.564-19.103-42.667-42.667-42.667v0h-42.667c-23.564 0-42.667 19.103-42.667 42.667v0 42.667c0 23.564 19.103 42.667 42.667 42.667v0h42.667c23.564 0 42.667-19.103 42.667-42.667v0zM725.333 789.333h-42.667c-70.692 0-128-57.308-128-128v0-42.667c0-70.692 57.308-128 128-128v0h42.667c70.692 0 128 57.308 128 128v0 42.667c0 70.692-57.308 128-128 128v0zM768 618.667c0-23.564-19.103-42.667-42.667-42.667v0h-42.667c-23.564 0-42.667 19.103-42.667 42.667v0 42.667c0 23.564 19.103 42.667 42.667 42.667v0h42.667c23.564 0 42.667-19.103 42.667-42.667v0zM725.333 405.333h-42.667c-70.692 0-128-57.308-128-128v0-42.667c0-70.692 57.308-128 128-128v0h42.667c70.692 0 128 57.308 128 128v0 42.667c0 70.692-57.308 128-128 128v0zM768 234.667c0-23.564-19.103-42.667-42.667-42.667v0h-42.667c-23.564 0-42.667 19.103-42.667 42.667v0 42.667c0 23.564 19.103 42.667 42.667 42.667v0h42.667c23.564 0 42.667-19.103 42.667-42.667v0z" />
<glyph unicode="&#xe936;" glyph-name="hash" d="M853.333 533.333v85.333h-170.667v170.667h-85.333v-170.667h-170.667v170.667h-85.333v-170.667h-170.667v-85.333h170.667v-170.667h-170.667v-85.333h170.667v-170.667h85.333v170.667h170.667v-170.667h85.333v170.667h170.667v85.333h-170.667v170.667zM597.333 362.667h-170.667v170.667h170.667z" />
<glyph unicode="&#xe937;" glyph-name="heart" d="M512 106.667c-35.66 0.273-67.808 15.086-90.851 38.796l-0.029 0.030-267.52 275.627c-10.497 10.928-20.053 22.924-28.439 35.756l-0.575 0.938c-2.516 3.912-5.076 8.527-7.348 13.305l-0.332 0.775-4.267 8.107c-3.009 5.192-6.153 11.501-8.932 18.003l-0.455 1.197c-2.005 5.061-4.052 11.464-5.719 18.019l-0.254 1.181-2.987 9.387c-1.514 4.342-2.988 9.782-4.12 15.347l-0.147 0.867c-2.905 14.073-4.61 30.279-4.693 46.868v0.066c0.074 16.799 1.779 33.155 4.965 48.974l-0.271-1.614c1.314 6.488 2.787 11.927 4.561 17.228l-0.294-1.015 2.56 6.827c2.037 8.036 4.227 14.719 6.804 21.207l-0.404-1.154c2.992 8.925 6.167 16.399 9.834 23.579l-0.448-0.965 4.267 8.107c2.619 5.75 5.182 10.508 8.012 15.083l-0.332-0.577c17.621 24.961 39.168 45.828 63.962 62.168l0.891 0.552c4.081 2.804 8.828 5.638 13.75 8.178l0.757 0.355 9.387 5.973c5.094 3.228 11.111 6.502 17.34 9.394l1.006 0.419c5.132 2.175 11.522 4.361 18.079 6.141l1.121 0.259 5.12 2.56c4.34 1.639 9.763 3.253 15.317 4.521l0.897 0.172c12.718 2.749 27.42 4.446 42.476 4.691l0.191 0.002h8.96c15.253-0.258 29.955-1.955 44.174-4.96l-1.507 0.267c6.868-1.36 12.736-2.981 18.426-4.979l-0.933 0.285 8.533-2.56c7.694-2.051 14.083-4.237 20.28-6.795l-1.080 0.395c7.239-3.315 13.256-6.589 19.030-10.213l-0.683 0.4 7.68-4.267c5.683-2.902 10.43-5.736 14.979-8.837l-0.472 0.304c13.391-9.287 25.113-19.248 35.784-30.236l25.656-26.511 25.6 26.453c10.232 10.365 21.391 19.763 33.36 28.078l0.774 0.509c4.081 2.804 8.828 5.638 13.75 8.178l0.757 0.355 8.107 4.267c10.798 6.799 23.313 12.222 36.645 15.593l0.902 0.193 8.533 2.56c4.476 1.66 10.046 3.277 15.753 4.53l0.887 0.163c12.722 2.757 27.426 4.454 42.484 4.691l0.183 0.002h8.96c15.253-0.258 29.955-1.955 44.174-4.96l-1.507 0.267c6.453-1.442 11.876-3.056 17.143-4.992l-0.929 0.299 8.533-2.56c14.233-3.557 26.749-8.98 38.088-16.104l-0.542 0.317 8.107-4.267c5.683-2.902 10.43-5.736 14.979-8.837l-0.472 0.304c25.905-17.939 47.503-40.081 64.298-65.66l0.555-0.9c2.651-4.041 5.349-8.792 7.756-13.713l0.351-0.794 4.267-8.533c2.894-4.982 5.895-11.011 8.538-17.23l0.422-1.117c2.145-5.295 4.335-11.977 6.126-18.821l0.274-1.232 2.56-8.96c1.494-4.208 2.966-9.499 4.112-14.912l0.155-0.875c1.125-8.9 1.767-19.198 1.767-29.646 0-5.482-0.177-10.922-0.525-16.316l0.038 0.735c-0.067-16.646-1.772-32.853-4.963-48.52l0.27 1.586c-1.294-6.455-2.768-11.895-4.553-17.191l0.286 0.978-2.987-9.387c-1.963-7.802-4.009-14.204-6.389-20.441l0.416 1.241c-3.201-7.667-6.346-13.977-9.842-20.059l0.455 0.859-3.84-7.68c-2.745-5.705-5.444-10.457-8.417-15.013l0.31 0.507c-8.938-13.775-18.495-25.773-29.086-36.769l0.073 0.076-56.32-58.88-211.2-218.027c-23.185-23.426-55.334-37.942-90.874-37.973h-0.006zM320 746.667v0c-9.615-0.171-18.875-1.25-27.83-3.156l0.95 0.169h-5.973l-12.8-3.84-8.96-2.987-9.387-6.827-11.52-6.4-5.12-2.987c-17.040-11.417-31.249-25.626-42.32-42.119l-0.346-0.548-2.987-5.547-6.4-11.093c-1.527-2.568-3.098-5.651-4.48-8.835l-0.213-0.552c-1.037-2.735-2.064-6.159-2.875-9.665l-0.112-0.575-3.84-12.8c-0.062-0.957-0.097-2.074-0.097-3.2s0.035-2.243 0.104-3.352l-0.008 0.152c-2.53-9.089-4.351-19.72-5.093-30.647l-0.027-0.499c0.051-10.897 1.136-21.508 3.161-31.781l-0.174 1.061c-0.052-0.956-0.082-2.074-0.082-3.2s0.030-2.244 0.089-3.355l-0.007 0.155 3.84-13.653c0.947-3.758 1.97-6.887 3.174-9.924l-0.188 0.537c1.719-3.873 3.43-7.093 5.332-10.183l-0.212 0.369 5.973-11.52c0.85-2.020 1.707-3.702 2.668-5.316l-0.108 0.196c5.79-8.972 11.976-16.785 18.829-23.952l-0.056 0.059 269.227-276.053c7.666-7.418 18.126-11.989 29.653-11.989s21.987 4.571 29.665 12l-0.012-0.011 269.227 276.053c6.803 7.107 12.989 14.92 18.401 23.28l0.372 0.614c1.018 1.566 2.015 3.386 2.878 5.279l0.109 0.267 5.973 11.947c1.55 2.588 3.122 5.672 4.493 8.862l0.201 0.524c1.014 2.598 2.039 5.874 2.865 9.228l0.122 0.586 3.84 13.227c0.058 0.956 0.092 2.074 0.092 3.2s-0.033 2.244-0.099 3.353l0.007-0.153c1.967 8.886 3.199 19.17 3.411 29.704l0.003 0.163c0 0.075 0 0.163 0 0.251 0 10.93-1.087 21.606-3.16 31.926l0.173-1.031c0.056 0.893 0.087 1.936 0.087 2.987s-0.032 2.094-0.094 3.129l0.007-0.142-3.84 13.227c-0.937 4.103-1.964 7.526-3.184 10.856l0.198-0.616c-2.161 3.791-4.277 6.996-6.575 10.057l0.175-0.243-6.4 11.947-2.987 5.547c-11.417 17.040-25.626 31.249-42.119 42.32l-0.548 0.346-5.547 2.987-11.52 5.547-8.533 4.693-8.96 2.987-12.8 3.84h-5.973c-7.477 2.297-16.309 4.1-25.393 5.065l-0.634 0.055h-3.413c-9.609-0.163-18.87-1.243-27.823-3.155l0.943 0.169h-5.973l-12.8-3.84-8.96-2.987-8.533-4.693-11.52-6.4-5.12-2.987c-8.621-5.882-16.157-12.198-23.019-19.179l-0.021-0.021-56.747-60.16c-7.75-7.902-18.538-12.801-30.471-12.801-0.088 0-0.175 0-0.263 0.001h0.013c-0.074 0-0.162-0.001-0.249-0.001-11.932 0-22.721 4.898-30.464 12.794l-0.007 0.007-54.613 58.027c-6.888 6.992-14.423 13.307-22.52 18.863l-0.52 0.337-6.827 2.987-12.8 6.4-8.96 4.693-8.96 2.987-12.8 3.84h-5.973c-7.334 2.266-16.016 4.067-24.943 5.061l-0.657 0.059z" />
<glyph unicode="&#xe938;" glyph-name="help" d="M512 874.667c-235.641 0-426.667-191.025-426.667-426.667s191.025-426.667 426.667-426.667c235.641 0 426.667 191.025 426.667 426.667v0c0 235.641-191.025 426.667-426.667 426.667v0zM512 106.667c-188.513 0-341.333 152.82-341.333 341.333s152.82 341.333 341.333 341.333c188.513 0 341.333-152.82 341.333-341.333v0c0-188.513-152.82-341.333-341.333-341.333v0zM682.667 533.333c-4.056-53.508-36.582-98.563-82.323-120.37l-0.877-0.376c-32-21.333-44.8-32-44.8-49.92v-42.667h-85.333v42.667c4.056 53.508 36.582 98.563 82.323 120.37l0.877 0.376c32 21.333 44.8 32 44.8 49.92 0 47.128-38.205 85.333-85.333 85.333s-85.333-38.205-85.333-85.333v0-42.667h-85.333v42.667c0 94.257 76.41 170.667 170.667 170.667s170.667-76.41 170.667-170.667v0zM549.547 272.213c9.75-9.668 15.787-23.068 15.787-37.877 0-29.455-23.878-53.333-53.333-53.333s-53.333 23.878-53.333 53.333c0 14.81 6.036 28.21 15.783 37.874l0.004 0.004c9.765 9.26 22.991 14.954 37.547 14.954s27.782-5.694 37.571-14.977l-0.024 0.023z" />
<glyph unicode="&#xe939;" glyph-name="hide" d="M951.467 381.013c-88.182-140.293-242.125-232.17-417.528-232.17-7.716 0-15.391 0.178-23.021 0.53l1.082-0.040c-25.079 0.108-49.675 1.655-73.851 4.563l3.025-0.296 81.493 81.067c3.317-0.097 7.22-0.152 11.135-0.152 144.746 0 271.865 75.474 344.148 189.216l0.984 1.656c4.070 6.418 6.485 14.234 6.485 22.613s-2.416 16.195-6.589 22.788l0.103-0.175c-15.921 25.593-33.385 47.805-52.988 67.924l0.082-0.084 60.16 60.16c24.156-25.137 45.725-53.086 64.078-83.21l1.202-2.123c11.561-18.862 18.408-41.698 18.408-66.133s-6.847-47.271-18.727-66.694l0.319 0.561zM947.2 779.947l-673.707-673.28h-120.32l102.827 102.827c-76.027 40.561-138.037 98.47-182.302 168.688l-1.165 1.979c-11.964 19.108-19.059 42.326-19.059 67.2s7.095 48.092 19.373 67.738l-0.314-0.538c52.053 87.040 179.2 232.107 439.467 232.107 2.363 0.036 5.151 0.057 7.945 0.057 80.479 0 156.955-17.14 225.976-47.969l-3.521 1.405h2.133l91.307 89.173h120.747zM319.147 272.64l64.853 64.427c-26.073 29.449-42.16 68.265-42.666 110.828l-0.001 0.105c0 94.257 76.41 170.667 170.667 170.667v0c42.668-0.507 81.484-16.594 111.113-42.823l-0.18 0.157 56.32 56.32c-49.208 18.38-106.067 29.017-165.411 29.017-0.648 0-1.295-0.001-1.942-0.004h0.1c-218.453 0-323.84-119.467-366.933-190.293-4.070-6.418-6.485-14.234-6.485-22.613s2.416-16.195 6.589-22.788l-0.103 0.175c40.96-66.096 99.108-118.073 168.262-150.455l2.404-1.011zM562.773 516.267c-13.973 10.571-31.617 16.968-50.75 17.067h-0.023c-47.128 0-85.333-38.205-85.333-85.333v0c0.099-19.157 6.495-36.801 17.222-50.988l-0.156 0.215z" />
<glyph unicode="&#xe93a;" glyph-name="history" d="M554.667 618.667v-128h85.333v-85.333h-128c-23.564 0-42.667 19.103-42.667 42.667v0 170.667zM512 789.333c-188.513 0-341.333-152.82-341.333-341.333v0-110.507l-85.333 85.333v-120.747l97.707-97.707c7.712-7.668 18.343-12.407 30.080-12.407s22.368 4.74 30.082 12.409l98.131 98.131v120.32l-85.333-85.333v110.507c0 141.385 114.615 256 256 256s256-114.615 256-256c0-141.385-114.615-256-256-256v0h-42.667v-85.333h42.667c188.513 0 341.333 152.82 341.333 341.333s-152.82 341.333-341.333 341.333v0z" />
<glyph unicode="&#xe93b;" glyph-name="home-diap" d="M597.333 840.96c-22.54 20.227-52.493 32.594-85.333 32.594s-62.793-12.368-85.453-32.7l0.119 0.105-341.333-307.627v-115.2l85.333 77.653v-346.453c0-70.692 57.308-128 128-128v0h426.667c70.692 0 128 57.308 128 128v0 345.173l85.333-77.653v116.48z" />
<glyph unicode="&#xe93c;" glyph-name="home" d="M597.333 840.96c-22.54 20.227-52.493 32.594-85.333 32.594s-62.793-12.368-85.453-32.7l0.119 0.105-341.333-307.627v-115.2l85.333 77.653v-346.453c0-70.692 57.308-128 128-128v0h426.667c70.692 0 128 57.308 128 128v0 345.173l85.333-77.653v116.48zM298.667 106.667c-23.564 0-42.667 19.103-42.667 42.667v0 422.4l227.413 206.507c7.562 6.936 17.684 11.186 28.8 11.186s21.238-4.251 28.831-11.215l-0.031 0.028 226.987-206.507v-422.4c0-23.564-19.103-42.667-42.667-42.667v0z" />
<glyph unicode="&#xe93d;" glyph-name="infinite" d="M298.667 704c57.97-0.133 111.389-19.513 154.23-52.086l-0.63 0.46c-16.509-22.044-30.841-47.212-41.842-74.096l-0.825-2.278c-29.449 26.073-68.265 42.16-110.828 42.666l-0.105 0.001c-94.257 0-170.667-76.41-170.667-170.667s76.41-170.667 170.667-170.667v0c94.257 0 170.667 76.41 170.667 170.667v0c0.060 52.619 15.986 101.506 43.249 142.149l-0.583-0.922c16.523 24.615 36.325 45.502 59.085 62.678l0.649 0.469c42.411 32.355 96.155 51.84 154.45 51.84 141.385 0 256-114.615 256-256s-114.615-256-256-256c-58.294 0-112.038 19.485-155.073 52.296l0.624-0.456c16.455 21.809 30.775 46.686 41.833 73.261l0.833 2.259c29.497-25.92 68.318-41.86 110.854-42.239l0.079-0.001c94.257 0 170.667 76.41 170.667 170.667s-76.41 170.667-170.667 170.667v0c-94.257 0-170.667-76.41-170.667-170.667v0c-0.060-52.619-15.986-101.506-43.249-142.149l0.583 0.922c-16.523-24.615-36.325-45.502-59.085-62.678l-0.649-0.469c-42.358-32.225-95.997-51.626-154.166-51.626-141.385 0-256 114.615-256 256s114.615 256 256 256c0.199 0 0.398 0 0.597-0.001h-0.031z" />
<glyph unicode="&#xe93e;" glyph-name="info-diap" d="M512 874.667c-235.641 0-426.667-191.025-426.667-426.667s191.025-426.667 426.667-426.667c235.641 0 426.667 191.025 426.667 426.667v0c0 235.641-191.025 426.667-426.667 426.667v0zM554.667 234.667h-85.333v298.667h85.333zM549.547 581.12c-9.609-9.609-22.884-15.552-37.547-15.552-29.326 0-53.099 23.773-53.099 53.099 0 14.663 5.943 27.938 15.552 37.547v0c9.765 9.26 22.991 14.954 37.547 14.954s27.782-5.694 37.571-14.977l-0.024 0.023c9.761-9.539 15.814-22.836 15.814-37.547s-6.053-28.008-15.804-37.537l-0.010-0.010z" />
<glyph unicode="&#xe93f;" glyph-name="info" d="M512 874.667c-235.641 0-426.667-191.025-426.667-426.667s191.025-426.667 426.667-426.667c235.641 0 426.667 191.025 426.667 426.667v0c0 235.641-191.025 426.667-426.667 426.667v0zM512 106.667c-188.513 0-341.333 152.82-341.333 341.333s152.82 341.333 341.333 341.333c188.513 0 341.333-152.82 341.333-341.333v0c0-188.513-152.82-341.333-341.333-341.333v0zM469.333 533.333h85.333v-298.667h-85.333zM549.547 656.213c9.235-9.513 14.929-22.509 14.929-36.834 0-29.22-23.687-52.907-52.907-52.907-28.969 0-52.5 23.283-52.901 52.157v0.038c0 0.029 0 0.063 0 0.097 0 14.597 5.864 27.825 15.366 37.456l-0.006-0.006c9.832 9.287 23.129 14.995 37.76 14.995s27.928-5.709 37.786-15.020l-0.026 0.025z" />
<glyph unicode="&#xe940;" glyph-name="internet" d="M512 874.667v0c-235.641 0-426.667-191.025-426.667-426.667s191.025-426.667 426.667-426.667c235.641 0 426.667 191.025 426.667 426.667v0c0 235.641-191.025 426.667-426.667 426.667v0zM853.333 481.28h-107.52c0.007 0.952 0.011 2.077 0.011 3.203 0 101.088-31.959 194.711-86.324 271.317l0.98-1.454c105.61-51.096 179.974-152.124 192.724-271.571l0.13-1.496zM469.333 735.573c0-80.64 0-170.667 2.56-256h-107.093c11.093 141.653 61.867 217.173 104.533 256zM472.747 394.24c0-109.653 0-206.080 0-264.96-42.667 32.427-102.827 105.813-109.653 264.96zM558.080 394.24h99.413c-1.629-96.516-39.468-183.89-100.475-249.4l0.209 0.226c2.987 53.333 3.413 132.267 2.56 250.88zM558.080 479.573c0 73.813 0 160-2.987 260.693 42.667-34.56 97.28-108.8 104.107-260.693zM379.307 762.453c-60.105-77.192-97.37-174.779-100.253-280.948l-0.014-0.652h-108.373c12.964 127.458 94.353 233.19 206.405 280.757l2.235 0.843zM174.933 395.947h103.68c0-0.212-0.001-0.462-0.001-0.712 0-89.154 23.252-172.878 64.023-245.437l-1.303 2.523c-87.868 51.524-149.909 138.991-166.148 241.691l-0.252 1.936zM666.453 144.213c45.887 71.453 74.497 157.913 78.051 250.793l0.029 0.94h104.533c-17.69-110.568-86.368-202.058-180.708-250.837l-1.906-0.896z" />
<glyph unicode="&#xe941;" glyph-name="laptop" d="M981.333 362.667h-42.667v298.667c0 70.692-57.308 128-128 128v0h-597.333c-70.692 0-128-57.308-128-128v0-298.667h-42.667c-23.564 0-42.667-19.103-42.667-42.667v0-85.333c0-70.692 57.308-128 128-128v0h768c70.692 0 128 57.308 128 128v0 85.333c0 23.564-19.103 42.667-42.667 42.667v0zM170.667 661.333c0 23.564 19.103 42.667 42.667 42.667v0h597.333c23.564 0 42.667-19.103 42.667-42.667v0-298.667h-682.667zM938.667 234.667c0-23.564-19.103-42.667-42.667-42.667v0h-768c-23.564 0-42.667 19.103-42.667 42.667v0 42.667h341.333v-42.667h170.667v42.667h341.333z" />
<glyph unicode="&#xe942;" glyph-name="list-view" d="M725.333 789.333h-426.667c-70.692 0-128-57.308-128-128v0-42.667c0-70.692 57.308-128 128-128v0h426.667c70.692 0 128 57.308 128 128v0 42.667c0 70.692-57.308 128-128 128v0zM768 618.667c0-23.564-19.103-42.667-42.667-42.667v0h-426.667c-23.564 0-42.667 19.103-42.667 42.667v0 42.667c0 23.564 19.103 42.667 42.667 42.667v0h426.667c23.564 0 42.667-19.103 42.667-42.667v0zM725.333 405.333h-426.667c-70.692 0-128-57.308-128-128v0-42.667c0-70.692 57.308-128 128-128v0h426.667c70.692 0 128 57.308 128 128v0 42.667c0 70.692-57.308 128-128 128v0zM768 234.667c0-23.564-19.103-42.667-42.667-42.667v0h-426.667c-23.564 0-42.667 19.103-42.667 42.667v0 42.667c0 23.564 19.103 42.667 42.667 42.667v0h426.667c23.564 0 42.667-19.103 42.667-42.667v0z" />
<glyph unicode="&#xe943;" glyph-name="locate" d="M938.667 490.667h-88.32c-20.152 154.513-141.167 275.528-293.958 295.496l-1.722 0.184v88.32h-85.333v-88.32c-154.513-20.152-275.528-141.167-295.496-293.958l-0.184-1.722h-88.32v-85.333h88.32c20.152-154.513 141.167-275.528 293.958-295.496l1.722-0.184v-88.32h85.333v88.32c154.513 20.152 275.528 141.167 295.496 293.958l0.184 1.722h88.32zM512 192c-141.385 0-256 114.615-256 256s114.615 256 256 256c141.385 0 256-114.615 256-256v0c0-141.385-114.615-256-256-256v0zM597.333 448c0-47.128-38.205-85.333-85.333-85.333s-85.333 38.205-85.333 85.333c0 47.128 38.205 85.333 85.333 85.333v0c47.128 0 85.333-38.205 85.333-85.333v0z" />
<glyph unicode="&#xe944;" glyph-name="locations-diap" d="M512 874.667c-188.513 0-341.333-152.82-341.333-341.333v0c0-186.88 197.973-393.813 282.88-474.027 15.206-14.227 35.703-22.964 58.24-22.964s43.034 8.737 58.288 23.009l-0.048-0.044c85.333 79.787 283.307 285.867 283.307 474.027 0 188.513-152.82 341.333-341.333 341.333v0zM512 448c-47.128 0-85.333 38.205-85.333 85.333s38.205 85.333 85.333 85.333c47.128 0 85.333-38.205 85.333-85.333v0c0-47.128-38.205-85.333-85.333-85.333v0z" />
<glyph unicode="&#xe945;" glyph-name="lock-open" d="M725.333 576v85.333c0 117.821-95.513 213.333-213.333 213.333s-213.333-95.513-213.333-213.333v0h85.333c0 70.692 57.308 128 128 128s128-57.308 128-128v0-85.333h-341.333c-70.692 0-128-57.308-128-128v0-256c0-70.692 57.308-128 128-128v0h426.667c70.692 0 128 57.308 128 128v0 256c0 70.692-57.308 128-128 128v0zM768 192c0-23.564-19.103-42.667-42.667-42.667v0h-426.667c-23.564 0-42.667 19.103-42.667 42.667v0 256c0 23.564 19.103 42.667 42.667 42.667v0h426.667c23.564 0 42.667-19.103 42.667-42.667v0z" />
<glyph unicode="&#xe946;" glyph-name="lock" d="M725.333 576v85.333c0 117.821-95.513 213.333-213.333 213.333s-213.333-95.513-213.333-213.333v0-85.333c-70.692 0-128-57.308-128-128v0-256c0-70.692 57.308-128 128-128v0h426.667c70.692 0 128 57.308 128 128v0 256c0 70.692-57.308 128-128 128v0zM384 661.333c0 70.692 57.308 128 128 128s128-57.308 128-128v0-85.333h-256zM768 192c0-23.564-19.103-42.667-42.667-42.667v0h-426.667c-23.564 0-42.667 19.103-42.667 42.667v0 256c0 23.564 19.103 42.667 42.667 42.667v0h426.667c23.564 0 42.667-19.103 42.667-42.667v0z" />
<glyph unicode="&#xe947;" glyph-name="mail" d="M810.667 789.333h-597.333c-70.692 0-128-57.308-128-128v0-426.667c0-70.692 57.308-128 128-128v0h597.333c70.692 0 128 57.308 128 128v0 426.667c0 70.692-57.308 128-128 128v0zM770.56 704l-232.107-181.333c-7.16-5.626-16.303-9.023-26.24-9.023s-19.080 3.397-26.332 9.093l0.092-0.070-232.533 181.333zM810.667 192h-597.333c-23.564 0-42.667 19.103-42.667 42.667v0 426.667l262.4-205.227c21.48-16.878 48.91-27.069 78.72-27.069s57.24 10.19 78.997 27.278l-0.277-0.209 262.827 205.227v-426.667c0-23.564-19.103-42.667-42.667-42.667v0z" />
<glyph unicode="&#xe948;" glyph-name="manual" d="M725.333 874.667h-426.667c-70.692 0-128-57.308-128-128v0-597.333c0-70.692 57.308-128 128-128v0h469.333c23.564 0 42.667 19.103 42.667 42.667v0 158.293c26.003 24.588 42.298 59.209 42.666 97.639l0.001 0.068v426.667c0 70.692-57.308 128-128 128v0zM725.333 106.667h-426.667c-23.564 0-42.667 19.103-42.667 42.667s19.103 42.667 42.667 42.667v0h426.667zM768 320c0.078-0.931 0.122-2.015 0.122-3.109 0-21.915-17.765-39.68-39.68-39.68-1.094 0-2.178 0.044-3.25 0.131l0.141-0.009h-426.667c-0.056 0-0.123 0-0.19 0-15.223 0-29.826-2.658-43.369-7.534l0.892 0.281v476.587c0 23.564 19.103 42.667 42.667 42.667v0h426.667c23.564 0 42.667-19.103 42.667-42.667v0zM341.333 704h341.333v-85.333h-341.333zM341.333 533.333h256v-85.333h-256z" />
<glyph unicode="&#xe949;" glyph-name="mapview" d="M922.027 83.2c-21.376-37.211-60.892-61.868-106.167-61.868-0.176 0-0.351 0-0.527 0.001h-606.693c-0.074 0-0.162 0-0.25 0-67.865 0-122.88 55.015-122.88 122.88 0 22.622 6.113 43.816 16.777 62.020l-0.314-0.58 92.16 157.013h98.987l-117.333-200.107c-3.21-5.303-5.109-11.71-5.109-18.56s1.899-13.257 5.2-18.723l-0.091 0.163c6.508-11.296 18.516-18.778 32.272-18.778 0.205 0 0.409 0.002 0.612 0.005h606.689c0.173-0.003 0.377-0.005 0.582-0.005 13.755 0 25.763 7.482 32.176 18.598l0.095 0.179c3.21 5.303 5.109 11.71 5.109 18.56s-1.899 13.257-5.2 18.723l0.091-0.163-117.333 200.107h98.56l92.16-158.72c10.263-17.417 16.325-38.373 16.325-60.745 0-22.070-5.901-42.763-16.21-60.585l0.311 0.583zM256 618.667c0 141.385 114.615 256 256 256s256-114.615 256-256v0c0-139.093-144.213-289.28-206.080-347.307-13.042-12.355-30.701-19.952-50.133-19.952s-37.091 7.597-50.167 19.984l0.033-0.031c-77.653 72.533-205.653 213.76-205.653 347.307zM341.333 618.667c0-101.547 121.173-229.547 170.667-277.333 49.493 47.787 170.667 174.933 170.667 277.333 0 94.257-76.41 170.667-170.667 170.667s-170.667-76.41-170.667-170.667v0zM597.333 618.667c0 47.128-38.205 85.333-85.333 85.333s-85.333-38.205-85.333-85.333c0-47.128 38.205-85.333 85.333-85.333v0c47.128 0 85.333 38.205 85.333 85.333v0z" />
<glyph unicode="&#xe94a;" glyph-name="marker" d="M512 874.667c-188.513 0-341.333-152.82-341.333-341.333v0c0-186.88 197.973-393.813 282.88-474.027 15.206-14.227 35.703-22.964 58.24-22.964s43.034 8.737 58.288 23.009l-0.048-0.044c85.333 79.787 283.307 285.867 283.307 474.027 0 188.513-152.82 341.333-341.333 341.333v0zM512 121.6c-59.733 56.32-256 253.44-256 411.733 0 141.385 114.615 256 256 256s256-114.615 256-256v0c0-159.147-195.84-355.413-256-411.733zM597.333 533.333c0-47.128-38.205-85.333-85.333-85.333s-85.333 38.205-85.333 85.333c0 47.128 38.205 85.333 85.333 85.333v0c47.128 0 85.333-38.205 85.333-85.333v0z" />
<glyph unicode="&#xe94b;" glyph-name="menu" d="M170.667 490.667h682.667v-85.333h-682.667zM170.667 192h682.667v85.333h-682.667zM170.667 704v-85.333h682.667v85.333z" />
<glyph unicode="&#xe94c;" glyph-name="message" d="M341.333 576h341.333v-85.333h-341.333zM341.333 320h256v85.333h-256zM925.44 135.253c1.031-4.977 1.621-10.697 1.621-16.555 0-47.128-38.205-85.333-85.333-85.333-5.858 0-11.577 0.59-17.103 1.714l0.549-0.093-133.12 26.453c-52.68-25.316-114.532-40.107-179.839-40.107-0.075 0-0.151 0-0.226 0h0.012c-28.56 0.068-56.426 2.86-83.405 8.13l2.765-0.45c-175.582 35.218-310.89 173.687-340.969 348.166l-0.364 2.554c-3.506 20.547-5.51 44.215-5.51 68.35 0 235.641 191.025 426.667 426.667 426.667 24.397 0 48.316-2.048 71.594-5.981l-2.51 0.351c177.034-30.444 315.502-165.752 350.259-338.585l0.461-2.748c4.805-24.034 7.555-51.664 7.555-79.936 0-65.461-14.742-127.479-41.087-182.915l1.105 2.585zM847.36 512.853c-27.807 140.38-138.699 248.539-278.321 271.937l-1.999 0.277c-16.543 2.714-35.61 4.265-55.039 4.267h-0.001c-0.080 0-0.175 0-0.27 0-188.513 0-341.333-152.82-341.333-341.333 0-19.589 1.65-38.792 4.819-57.478l-0.282 2.011c27.623-163.139 167.879-285.831 336.791-285.831 56.462 0 109.722 13.709 156.634 37.981l-1.904-0.896c5.64 2.939 12.316 4.663 19.395 4.663 2.951 0 5.832-0.3 8.614-0.87l-0.275 0.047 147.2-29.44-30.72 147.627c-0.523 2.507-0.823 5.388-0.823 8.339 0 7.079 1.724 13.755 4.775 19.632l-0.112-0.237c24.257 45.707 38.499 99.931 38.499 157.48 0 21.859-2.055 43.237-5.981 63.953l0.335-2.127z" />
<glyph unicode="&#xe94d;" glyph-name="microphone-off" d="M896 789.333h-102.4l-153.6-153.173v110.507c0 70.692-57.308 128-128 128s-128-57.308-128-128v0-256c0.021-30.875 10.97-59.188 29.188-81.285l-0.175 0.219-60.16-60.587c-33.538 37.445-54.077 87.14-54.187 141.631v42.69h-85.333v-42.667c0.252-78.020 30.381-148.955 79.537-202.007l-0.177 0.193-182.187-182.187h120.32l258.56 258.56 150.613 150.187 264.533 264.533 8.96 9.387zM554.667 550.827l-79.787-79.787c-3.266 5.646-5.292 12.374-5.545 19.553l-0.002 0.074v256c0 23.564 19.103 42.667 42.667 42.667s42.667-19.103 42.667-42.667v0zM725.333 479.147c-6.502-108.036-92.498-194.031-199.941-200.505l-0.593-0.029-4.267-1.28-51.2-52.907-24.32-24.32 24.32-4.693v-88.747h-128v-85.333h341.333v85.333h-128v88.747c145.456 21.585 255.819 145.504 256 295.234v42.686h-32.427z" />
<glyph unicode="&#xe94e;" glyph-name="microphone" d="M810.667 533.333v-42.667c-0.181-149.75-110.544-273.669-254.367-295.054l-1.633-0.2v-88.747h128v-85.333h-341.333v85.333h128v88.747c-145.456 21.585-255.819 145.504-256 295.234v42.686h85.333v-42.667c0-117.821 95.513-213.333 213.333-213.333s213.333 95.513 213.333 213.333v0 42.667zM384 490.667v256c0 70.692 57.308 128 128 128s128-57.308 128-128v0-256c0-70.692-57.308-128-128-128s-128 57.308-128 128v0zM469.333 490.667c0-23.564 19.103-42.667 42.667-42.667s42.667 19.103 42.667 42.667v0 256c0 23.564-19.103 42.667-42.667 42.667s-42.667-19.103-42.667-42.667v0z" />
<glyph unicode="&#xe94f;" glyph-name="mobile" d="M640 874.667h-256c-70.692 0-128-57.308-128-128v0-597.333c0-70.692 57.308-128 128-128v0h256c70.692 0 128 57.308 128 128v0 597.333c0 70.692-57.308 128-128 128v0zM682.667 149.333c0-23.564-19.103-42.667-42.667-42.667v0h-256c-23.564 0-42.667 19.103-42.667 42.667v0 597.333c0 23.564 19.103 42.667 42.667 42.667v0h256c23.564 0 42.667-19.103 42.667-42.667v0zM542.293 222.293c7.753-7.753 12.548-18.463 12.548-30.293 0-23.661-19.181-42.841-42.841-42.841-11.83 0-22.541 4.795-30.293 12.548v0c-7.795 7.733-12.621 18.45-12.621 30.293s4.826 22.56 12.618 30.291l0.003 0.003c7.733 7.795 18.45 12.621 30.293 12.621s22.56-4.826 30.291-12.618l0.003-0.003z" />
<glyph unicode="&#xe950;" glyph-name="more" d="M512 576c-47.128 0-85.333 38.205-85.333 85.333s38.205 85.333 85.333 85.333c47.128 0 85.333-38.205 85.333-85.333v0c0-47.128-38.205-85.333-85.333-85.333v0zM597.333 448c0 47.128-38.205 85.333-85.333 85.333s-85.333-38.205-85.333-85.333c0-47.128 38.205-85.333 85.333-85.333v0c47.128 0 85.333 38.205 85.333 85.333v0zM597.333 234.667c0 47.128-38.205 85.333-85.333 85.333s-85.333-38.205-85.333-85.333c0-47.128 38.205-85.333 85.333-85.333v0c47.128 0 85.333 38.205 85.333 85.333v0z" />
<glyph unicode="&#xe951;" glyph-name="music" d="M725.333 832h-85.333c-70.692 0-128-57.308-128-128v0-322.133c-24.433 14.576-53.848 23.269-85.277 23.466h-0.056c-94.257 0-170.667-76.41-170.667-170.667s76.41-170.667 170.667-170.667c94.257 0 170.667 76.41 170.667 170.667v0 341.333h128c70.692 0 128 57.308 128 128s-57.308 128-128 128v0zM426.667 149.333c-47.128 0-85.333 38.205-85.333 85.333s38.205 85.333 85.333 85.333c47.128 0 85.333-38.205 85.333-85.333v0c0-47.128-38.205-85.333-85.333-85.333v0zM725.333 661.333h-128v42.667c0 23.564 19.103 42.667 42.667 42.667v0h85.333c23.564 0 42.667-19.103 42.667-42.667s-19.103-42.667-42.667-42.667v0z" />
<glyph unicode="&#xe952;" glyph-name="network-diap" d="M789.333 362.667c-9.666-0.015-19.104-0.946-28.245-2.711l0.938 0.151-133.973 229.547c20.725 25.433 33.28 58.24 33.28 93.979 0 82.475-66.859 149.333-149.333 149.333s-149.333-66.859-149.333-149.333c0-35.739 12.555-68.546 33.495-94.251l-0.215 0.272-133.973-229.547c-8.385 1.671-18.025 2.627-27.888 2.627-82.475 0-149.333-66.859-149.333-149.333s66.859-149.333 149.333-149.333c67.236 0 124.094 44.435 142.81 105.541l0.279 1.058h270.080c19.094-61.738 75.667-105.813 142.535-105.813 82.239 0 148.907 66.668 148.907 148.907s-66.668 148.907-148.907 148.907c-0.16 0-0.32 0-0.479-0.001h0.025zM646.827 256h-269.653c-7.813 25.261-21.372 46.813-39.204 63.953l-0.049 0.047 128 220.16c13.593-4.979 29.287-7.859 45.653-7.859s32.061 2.88 46.603 8.16l-0.95-0.302 128-220.16c-17.558-17.251-30.834-38.801-38.127-62.949l-0.273-1.051z" />
<glyph unicode="&#xe953;" glyph-name="network" d="M789.333 362.667c-9.664-0.012-19.102-0.944-28.243-2.711l0.936 0.151-133.973 229.547c20.615 25.145 33.154 57.603 33.28 92.986v0.028c0 82.475-66.859 149.333-149.333 149.333s-149.333-66.859-149.333-149.333v0c0.126-35.41 12.665-67.868 33.488-93.274l-0.208 0.261-133.973-229.547c-8.385 1.671-18.025 2.627-27.888 2.627-82.475 0-149.333-66.859-149.333-149.333s66.859-149.333 149.333-149.333c67.236 0 124.094 44.435 142.81 105.541l0.279 1.058h270.080c19.094-61.738 75.667-105.813 142.535-105.813 82.239 0 148.907 66.668 148.907 148.907s-66.668 148.907-148.907 148.907c-0.16 0-0.32 0-0.479-0.001h0.025zM512 746.667c35.346 0 64-28.654 64-64s-28.654-64-64-64c-35.346 0-64 28.654-64 64v0c0 35.346 28.654 64 64 64v0zM234.667 149.333c-35.346 0-64 28.654-64 64s28.654 64 64 64v0 0c35.346 0 64-28.654 64-64s-28.654-64-64-64v0zM646.827 256h-269.653c-7.832 25.254-21.388 46.803-39.206 63.955l-0.047 0.045 128 220.587c13.591-4.995 29.284-7.885 45.653-7.885s32.063 2.89 46.599 8.186l-0.946-0.301 128-220.587c-17.542-17.261-30.816-38.807-38.126-62.945l-0.274-1.055zM789.333 149.333c-35.346 0-64 28.654-64 64s28.654 64 64 64v0 0c35.346 0 64-28.654 64-64s-28.654-64-64-64v0z" />
<glyph unicode="&#xe954;" glyph-name="notifications-off" d="M426.667 106.667h170.667c0-47.128-38.205-85.333-85.333-85.333s-85.333 38.205-85.333 85.333v0zM776.533 365.653c-5.327 7.042-8.533 15.947-8.533 25.6v0 131.84l-85.333-85.333v-46.507c0-28.96 9.618-55.674 25.833-77.122l-0.233 0.322 59.733-79.787h-288.427l-85.333-85.333h373.76c47.128 0 85.333 38.205 85.333 85.333 0 19.307-6.412 37.116-17.222 51.415l0.156-0.215zM913.493 789.333l-682.667-682.667h-120.32l77.653 77.653c-11.352 13.682-18.24 31.423-18.24 50.773s6.888 37.091 18.346 50.905l-0.106-0.132 59.733 79.787c5.327 7.042 8.533 15.947 8.533 25.6v0 142.080c0.131 110.68 70.478 204.895 168.884 240.503l1.782 0.563v14.933c0 47.128 38.205 85.333 85.333 85.333s85.333-38.205 85.333-85.333v0-15.36c42.716-15.597 78.752-40.784 106.828-73.075l0.265-0.312 88.32 88.747zM643.84 640.427c-31.325 38.645-78.676 63.237-131.783 63.573h-0.057c-94.257 0-170.667-76.41-170.667-170.667v0-142.080c0-28.96-9.618-55.674-25.833-77.122l0.233 0.322-6.827-8.96z" />
<glyph unicode="&#xe955;" glyph-name="notifications-on" d="M776.533 365.653c-5.327 7.042-8.533 15.947-8.533 25.6v0 142.080c-0.131 110.68-70.478 204.895-168.884 240.503l-1.782 0.563v14.933c0 47.128-38.205 85.333-85.333 85.333s-85.333-38.205-85.333-85.333v0-14.933c-100.189-36.172-170.536-130.387-170.667-241.051v-142.096c0-9.653-3.206-18.558-8.611-25.707l0.078 0.107-59.733-79.787c-10.655-14.084-17.067-31.893-17.067-51.2 0-47.128 38.205-85.333 85.333-85.333h512c47.128 0 85.333 38.205 85.333 85.333 0 19.307-6.412 37.116-17.222 51.415l0.156-0.215zM256 234.667l59.733 79.787c15.982 21.126 25.6 47.84 25.6 76.8v142.080c0 94.257 76.41 170.667 170.667 170.667s170.667-76.41 170.667-170.667v0-142.080c0-28.96 9.618-55.674 25.833-77.122l-0.233 0.322 59.733-79.787zM256 758.613c-52.969-59.451-85.334-138.266-85.334-224.64 0-0.225 0-0.45 0.001-0.675v0.035h-85.333c-0.001 0.34-0.002 0.744-0.002 1.147 0 117.454 47.794 223.744 124.994 300.485l0.021 0.021c13.946 13.956 28.842 26.957 44.584 38.902l1.070 0.778zM938.667 533.333h-85.333c-0.24 86.407-32.549 165.223-85.647 225.214l0.313-0.361v116.48c104.095-78.667 170.667-202.226 170.667-341.333v0zM426.667 106.667h170.667c0-47.128-38.205-85.333-85.333-85.333s-85.333 38.205-85.333 85.333v0z" />
<glyph unicode="&#xe956;" glyph-name="notifications" d="M836.267 285.867l-59.733 79.787c-5.327 7.042-8.533 15.947-8.533 25.6v0 142.080c-0.131 110.68-70.478 204.895-168.884 240.503l-1.782 0.563v14.933c0 47.128-38.205 85.333-85.333 85.333s-85.333-38.205-85.333-85.333v0-14.933c-100.189-36.172-170.536-130.387-170.667-241.051v-142.096c0-9.653-3.206-18.558-8.611-25.707l0.078 0.107-59.733-79.787c-10.655-14.084-17.067-31.893-17.067-51.2 0-47.128 38.205-85.333 85.333-85.333h512c47.128 0 85.333 38.205 85.333 85.333 0 19.307-6.412 37.116-17.222 51.415l0.156-0.215zM256 234.667l59.733 79.787c15.982 21.126 25.6 47.84 25.6 76.8v142.080c0 94.257 76.41 170.667 170.667 170.667s170.667-76.41 170.667-170.667v0-142.080c0-28.96 9.618-55.674 25.833-77.122l-0.233 0.322 59.733-79.787zM426.667 106.667h170.667c0-47.128-38.205-85.333-85.333-85.333s-85.333 38.205-85.333 85.333v0z" />
<glyph unicode="&#xe957;" glyph-name="on-demand" d="M810.667 789.333h-597.333c-70.692 0-128-57.308-128-128v0-426.667c0-70.692 57.308-128 128-128v0h597.333c70.692 0 128 57.308 128 128v0 426.667c0 70.692-57.308 128-128 128v0zM853.333 234.667c0-23.564-19.103-42.667-42.667-42.667v0h-597.333c-23.564 0-42.667 19.103-42.667 42.667v0 426.667c0 23.564 19.103 42.667 42.667 42.667v0h597.333c23.564 0 42.667-19.103 42.667-42.667v0zM624.213 514.987l-104.533 82.347c-14.396 11.456-32.843 18.381-52.907 18.381-47.128 0-85.333-38.205-85.333-85.333 0-0.012 0-0.024 0-0.036v0.002-165.12c0-0.010 0-0.022 0-0.034 0-47.128 38.205-85.333 85.333-85.333 20.064 0 38.511 6.925 53.081 18.515l-0.174-0.134 104.533 82.347c19.852 15.767 32.47 39.903 32.47 66.987s-12.617 51.22-32.294 66.852l-0.175 0.134zM466.773 365.653v165.12l104.533-82.773z" />
<glyph unicode="&#xe958;" glyph-name="pause" d="M298.667 106.667c-70.692 0-128 57.308-128 128v0 426.667c0 70.692 57.308 128 128 128s128-57.308 128-128v0-426.667c0-70.692-57.308-128-128-128v0zM298.667 704c-23.564 0-42.667-19.103-42.667-42.667v0-426.667c0-23.564 19.103-42.667 42.667-42.667s42.667 19.103 42.667 42.667v0 426.667c0 23.564-19.103 42.667-42.667 42.667v0zM725.333 106.667c-70.692 0-128 57.308-128 128v0 426.667c0 70.692 57.308 128 128 128s128-57.308 128-128v0-426.667c0-70.692-57.308-128-128-128v0zM725.333 704c-23.564 0-42.667-19.103-42.667-42.667v0-426.667c0-23.564 19.103-42.667 42.667-42.667s42.667 19.103 42.667 42.667v0 426.667c0 23.564-19.103 42.667-42.667 42.667v0z" />
<glyph unicode="&#xe959;" glyph-name="payment" d="M810.667 789.333h-597.333c-70.692 0-128-57.308-128-128v0-426.667c0-70.692 57.308-128 128-128v0h597.333c70.692 0 128 57.308 128 128v0 426.667c0 70.692-57.308 128-128 128v0zM213.333 704h597.333c23.564 0 42.667-19.103 42.667-42.667v0-42.667h-682.667v42.667c0 23.564 19.103 42.667 42.667 42.667v0zM810.667 192h-597.333c-23.564 0-42.667 19.103-42.667 42.667v0 298.667h682.667v-298.667c0-23.564-19.103-42.667-42.667-42.667v0zM256 362.667h170.667v-85.333h-170.667zM512 362.667h170.667v-85.333h-170.667z" />
<glyph unicode="&#xe95a;" glyph-name="person" d="M512 448c94.257 0 170.667 76.41 170.667 170.667s-76.41 170.667-170.667 170.667c-94.257 0-170.667-76.41-170.667-170.667v0c0-94.257 76.41-170.667 170.667-170.667v0zM512 704c47.128 0 85.333-38.205 85.333-85.333s-38.205-85.333-85.333-85.333c-47.128 0-85.333 38.205-85.333 85.333v0c0 47.128 38.205 85.333 85.333 85.333v0zM853.333 149.333h-85.333l-33.28 145.067c-6.752 15.197-21.714 25.604-39.106 25.604-0.202 0-0.403-0.001-0.604-0.004h-364.77c-0.623 0.032-1.352 0.051-2.085 0.051-18.855 0-34.853-12.23-40.495-29.19l-0.087-0.301-31.573-141.227h-85.333c-0.165 1.408-0.259 3.040-0.259 4.693s0.094 3.285 0.277 4.89l-0.018-0.196 35.413 154.453c16.022 53.692 64.959 92.166 122.882 92.166 0.449 0 0.898-0.002 1.346-0.007l-0.068 0.001h363.947c56.469-0.043 104.378-36.646 121.338-87.417l0.262-0.903 37.547-158.293c0.165-1.408 0.259-3.040 0.259-4.693s-0.094-3.285-0.277-4.89l0.018 0.196z" />
<glyph unicode="&#xe95b;" glyph-name="phone" d="M784.64 283.307l-152.747 30.293c-5.127 1.095-11.018 1.722-17.055 1.722-27.828 0-52.545-13.321-68.122-33.933l-0.156-0.215-63.573-85.333c-91.985 55.724-166.996 130.735-221.1 219.846l-1.62 2.874 85.333 63.573c20.828 15.733 34.148 40.45 34.148 68.278 0 6.037-0.627 11.928-1.819 17.611l0.098-0.556-30.72 153.173c-8.043 39.416-42.415 68.659-83.623 68.693h-42.67c-0.393 0.004-0.858 0.007-1.323 0.007-70.692 0-128-57.308-128-128 0-6.475 0.481-12.838 1.409-19.055l-0.086 0.702c12.45-84.613 37.88-160.924 74.414-230.49l-1.88 3.93c1.273-4.222 3.017-7.903 5.22-11.255l-0.1 0.161c69.368-127.339 171.328-229.298 294.836-296.751l3.831-1.916c2.828-2.005 6.067-3.731 9.519-5.023l0.294-0.097c65.637-34.661 141.948-60.093 222.651-72.057l3.909-0.476c5.515-0.842 11.878-1.323 18.354-1.323 70.692 0 128 57.308 128 128 0 0.465-0.002 0.929-0.007 1.393l0.001-0.071v42.667c0 0.058 0 0.127 0 0.196 0 40.781-28.606 74.88-66.847 83.326l-0.566 0.105zM177.067 654.933c-0.307 1.924-0.483 4.143-0.483 6.403 0 23.564 19.103 42.667 42.667 42.667 0.17 0 0.34-0.001 0.509-0.003h42.641l32-152.747-72.533-54.613c-20.339 45.858-35.991 99.146-44.37 154.816l-0.43 3.478zM768 155.733c0.002-0.144 0.003-0.313 0.003-0.483 0-23.564-19.103-42.667-42.667-42.667-2.26 0-4.478 0.176-6.643 0.514l0.24-0.031c-58.992 8.062-112.365 23.008-162.435 44.226l4.142-1.559 54.613 72.533 152.747-30.293zM938.667 490.667h-85.333c0 164.949-133.718 298.667-298.667 298.667v0 85.333c212.077 0 384-171.923 384-384v0zM554.667 618.667v85.333c117.821 0 213.333-95.513 213.333-213.333v0h-85.333c0 70.692-57.308 128-128 128v0z" />
<glyph unicode="&#xe95c;" glyph-name="play" d="M341.333 106.667c-0.068 0-0.15 0-0.231 0-23.231 0-45.059 6.009-64.015 16.557l0.672-0.343c-38.659 21.212-64.429 61.641-64.429 108.088 0 0.25 0.001 0.501 0.002 0.751v-0.039 432.64c0 0.076 0 0.166 0 0.256 0 46.787 26.148 87.466 64.628 108.222l0.652 0.322c18.291 10.215 40.129 16.23 63.373 16.23 26.195 0 50.605-7.639 71.125-20.812l-0.525 0.315 341.333-216.32c35.017-22.056 57.943-60.511 57.943-104.32s-22.926-82.264-57.435-104.021l-0.508-0.299-341.333-216.32c-20.096-13.109-44.697-20.907-71.118-20.907-0.048 0-0.095 0-0.143 0h0.008zM341.333 704c-8.314-0.055-16.101-2.264-22.846-6.095l0.232 0.121c-11.966-6.703-19.946-19.261-20.053-33.692v-432.655c0.288-14.607 8.598-27.208 20.695-33.605l0.211-0.102c6.761-4.114 14.936-6.55 23.68-6.55s16.919 2.436 23.884 6.665l-0.204-0.115 341.333 216.32c11.215 6.633 18.619 18.665 18.619 32.427s-7.403 25.794-18.445 32.331l-0.174 0.095-341.333 216.32c-7.117 5.152-15.968 8.318-25.548 8.532l-0.052 0.001z" />
<glyph unicode="&#xe95d;" glyph-name="plus" d="M725.333 405.333h-170.667v-170.667h-85.333v170.667h-170.667v85.333h170.667v170.667h85.333v-170.667h170.667z" />
<glyph unicode="&#xe95e;" glyph-name="present" d="M810.667 661.333h-93.013c4.75 12.677 7.555 27.325 7.68 42.612v0.055c0 70.692-57.308 128-128 128v0c-21.433-0.27-41.523-5.766-59.133-15.268l0.679 0.335c-27.745 58.928-86.637 98.988-154.885 98.988-93.807 0-169.937-75.683-170.661-169.319v-0.069c0.338-31.533 9.175-60.932 24.323-86.103l-0.43 0.77h-23.893c-70.692 0-128-57.308-128-128v0-85.333c0-23.564 19.103-42.667 42.667-42.667v0-256c0-70.692 57.308-128 128-128v0h512c70.692 0 128 57.308 128 128v0 256c23.564 0 42.667 19.103 42.667 42.667v0 85.333c0 70.692-57.308 128-128 128v0zM853.333 533.333v-42.667h-301.227v85.333h258.56c23.564 0 42.667-19.103 42.667-42.667v0zM597.333 746.667c23.564 0 42.667-19.103 42.667-42.667s-19.103-42.667-42.667-42.667v0h-42.667c0 11.093 0 24.747 0 40.107 0 0 0 0 0 2.56 0 23.564 19.103 42.667 42.667 42.667v0zM298.667 746.667c0 47.128 38.205 85.333 85.333 85.333s85.333-38.205 85.333-85.333v0c0-29.867 0-61.44 0-85.333h-85.333c-47.128 0-85.333 38.205-85.333 85.333v0zM170.667 533.333c0 23.564 19.103 42.667 42.667 42.667v0h253.44v-85.333h-296.107zM213.333 149.333v256h253.44v-298.667h-210.773c-23.564 0-42.667 19.103-42.667 42.667v0zM810.667 149.333c0-23.564-19.103-42.667-42.667-42.667v0h-215.893v298.667h258.56z" />
<glyph unicode="&#xe95f;" glyph-name="products-diap" d="M554.667 807.68l250.88-143.36c25.687-15.029 42.667-42.482 42.667-73.901 0-0.119 0-0.238-0.001-0.357v0.018-285.013c0-0.101 0.001-0.22 0.001-0.339 0-31.419-16.98-58.872-42.265-73.683l-0.403-0.218-250.88-142.507c-12.239-7.187-26.957-11.432-42.667-11.432s-30.427 4.245-43.069 11.651l0.403-0.218-250.453 142.933c-25.687 15.029-42.667 42.482-42.667 73.901 0 0.119 0 0.238 0.001 0.357v-0.018 285.013c0 0.101-0.001 0.22-0.001 0.339 0 31.419 16.98 58.872 42.265 73.683l0.403 0.218 250.453 142.933c12.239 7.187 26.957 11.432 42.667 11.432s30.427-4.245 43.069-11.651l-0.403 0.218zM512 34.56c-0.137-0.001-0.299-0.001-0.461-0.001-23.204 0-44.967 6.175-63.734 16.97l0.621-0.33-250.453 143.36c-38.723 22.46-64.365 63.695-64.427 110.925v285.022c0.062 47.238 25.704 88.474 63.814 110.605l0.612 0.328 250.453 143.36c18.359 10.781 40.436 17.149 64 17.149s45.641-6.368 64.604-17.476l-0.604 0.327 250.88-143.36c38.723-22.46 64.365-63.695 64.427-110.925v-285.022c-0.062-47.238-25.704-88.474-63.814-110.605l-0.612-0.328-251.733-143.36c-18.145-10.466-39.908-16.641-63.112-16.641-0.162 0-0.324 0-0.486 0.001h0.025zM512 776.533c-0.088 0.001-0.191 0.001-0.295 0.001-7.735 0-14.99-2.058-21.246-5.658l0.207 0.11-250.453-143.36c-12.844-7.514-21.334-21.241-21.334-36.951 0-0.060 0-0.119 0-0.179v0.009-285.013c0-0.050 0-0.11 0-0.169 0-15.71 8.49-29.436 21.132-36.842l0.201-0.109 250.88-143.36c6.12-3.594 13.479-5.716 21.333-5.716s15.214 2.123 21.535 5.825l-0.201-0.109 250.88 143.36c12.844 7.514 21.334 21.241 21.334 36.951 0 0.060 0 0.119 0 0.179v-0.009 285.013c0 0.050 0 0.11 0 0.169 0 15.71-8.49 29.436-21.132 36.842l-0.201 0.109-251.307 142.933c-6.1 3.68-13.45 5.889-21.31 5.973h-0.024z" />
<glyph unicode="&#xe960;" glyph-name="products" d="M512 34.56c-0.137-0.001-0.299-0.001-0.461-0.001-23.204 0-44.967 6.175-63.734 16.97l0.621-0.33-250.453 143.36c-38.723 22.46-64.365 63.695-64.427 110.925v285.022c0.062 47.238 25.704 88.474 63.814 110.605l0.612 0.328 250.453 143.36c18.359 10.781 40.436 17.149 64 17.149s45.641-6.368 64.604-17.476l-0.604 0.327 250.88-143.36c38.723-22.46 64.365-63.695 64.427-110.925v-285.022c-0.062-47.238-25.704-88.474-63.814-110.605l-0.612-0.328-251.733-143.36c-18.145-10.466-39.908-16.641-63.112-16.641-0.162 0-0.324 0-0.486 0.001h0.025zM512 776.533c-0.088 0.001-0.191 0.001-0.295 0.001-7.735 0-14.99-2.058-21.246-5.658l0.207 0.11-250.453-143.36c-12.844-7.514-21.334-21.241-21.334-36.951 0-0.060 0-0.119 0-0.179v0.009-285.013c0-0.050 0-0.11 0-0.169 0-15.71 8.49-29.436 21.132-36.842l0.201-0.109 250.88-143.36c6.12-3.594 13.479-5.716 21.333-5.716s15.214 2.123 21.535 5.825l-0.201-0.109 250.88 143.36c12.844 7.514 21.334 21.241 21.334 36.951 0 0.060 0 0.119 0 0.179v-0.009 285.013c0 0.050 0 0.11 0 0.169 0 15.71-8.49 29.436-21.132 36.842l-0.201 0.109-251.307 142.933c-6.1 3.68-13.45 5.889-21.31 5.973h-0.024z" />
<glyph unicode="&#xe961;" glyph-name="record" d="M512 106.667c-188.513 0-341.333 152.82-341.333 341.333s152.82 341.333 341.333 341.333c188.513 0 341.333-152.82 341.333-341.333v0c0-188.513-152.82-341.333-341.333-341.333v0zM512 704c-141.385 0-256-114.615-256-256s114.615-256 256-256c141.385 0 256 114.615 256 256v0c0 141.385-114.615 256-256 256v0z" />
<glyph unicode="&#xe962;" glyph-name="refresh" d="M938.667 422.827v-120.747l-97.707-97.707c-7.712-7.668-18.343-12.407-30.080-12.407s-22.368 4.74-30.082 12.409l-98.131 98.131v120.32l85.333-85.333v110.507c0 141.385-114.615 256-256 256s-256-114.615-256-256c0-141.385 114.615-256 256-256v0h42.667v-85.333h-42.667c-188.513 0-341.333 152.82-341.333 341.333s152.82 341.333 341.333 341.333c188.513 0 341.333-152.82 341.333-341.333v0-110.507z" />
<glyph unicode="&#xe963;" glyph-name="remove-diap" d="M512 874.667c-235.641 0-426.667-191.025-426.667-426.667s191.025-426.667 426.667-426.667c235.641 0 426.667 191.025 426.667 426.667v0c0 235.641-191.025 426.667-426.667 426.667v0zM670.293 350.293l-60.16-60.16-98.133 97.707-97.707-98.133-60.587 60.587 98.133 97.707-98.133 97.707 60.587 60.587 97.707-98.133 97.707 97.707 60.16-60.16-97.707-97.707z" />
<glyph unicode="&#xe964;" glyph-name="remove" d="M512 874.667c-235.641 0-426.667-191.025-426.667-426.667s191.025-426.667 426.667-426.667c235.641 0 426.667 191.025 426.667 426.667v0c0 235.641-191.025 426.667-426.667 426.667v0zM512 106.667c-188.513 0-341.333 152.82-341.333 341.333s152.82 341.333 341.333 341.333c188.513 0 341.333-152.82 341.333-341.333v0c0-188.513-152.82-341.333-341.333-341.333v0zM670.293 545.707l-98.133-97.707 97.707-97.707-60.16-60.16-97.707 97.707-97.707-98.133-60.587 60.587 98.133 97.707-98.133 97.707 60.587 60.587 97.707-98.133 97.707 97.707z" />
<glyph unicode="&#xe965;" glyph-name="renew" d="M323.84 533.333l85.333 85.333h-67.84c-94.257 0-170.667-76.41-170.667-170.667s76.41-170.667 170.667-170.667v0h42.667v-85.333h-42.667c-141.385 0-256 114.615-256 256s114.615 256 256 256v0h67.84l-85.333 85.333h120.747l97.707-97.707c7.668-7.712 12.407-18.343 12.407-30.080s-4.74-22.368-12.409-30.082l-98.131-98.131zM938.667 448c0 141.385-114.615 256-256 256v0h-42.667v-85.333h42.667c94.257 0 170.667-76.41 170.667-170.667s-76.41-170.667-170.667-170.667v0h-67.84l85.333 85.333h-120.32l-97.707-97.707c-7.668-7.712-12.407-18.343-12.407-30.080s4.74-22.368 12.409-30.082l-0.002 0.002 97.707-98.133h120.747l-85.333 85.333h67.413c141.385 0 256 114.615 256 256v0z" />
<glyph unicode="&#xe966;" glyph-name="reveal" d="M512 149.333c-6.556-0.313-14.241-0.491-21.967-0.491-175.295 0-329.176 91.685-416.305 229.716l-1.195 2.028c-11.964 19.108-19.059 42.326-19.059 67.2s7.095 48.092 19.373 67.738l-0.314-0.538c52.053 86.613 179.2 231.68 439.467 231.68s387.413-145.067 439.893-231.253v0c11.964-19.108 19.059-42.326 19.059-67.2s-7.095-48.092-19.373-67.738l0.314 0.538c-88.279-140.305-242.295-232.178-417.77-232.178-7.781 0-15.52 0.181-23.213 0.538l1.089-0.040zM512 661.333c-218.453 0-323.84-119.467-366.933-190.293-4.070-6.418-6.485-14.234-6.485-22.613s2.416-16.195 6.589-22.788l-0.103 0.175c73.576-115.871 201.221-191.654 346.566-191.654 7.164 0 14.285 0.184 21.359 0.548l-0.992-0.041c6.16-0.331 13.372-0.52 20.627-0.52 145.173 0 272.689 75.604 345.321 189.586l0.986 1.654c4.070 6.418 6.485 14.234 6.485 22.613s-2.416 16.195-6.589 22.788l0.103-0.175c-43.093 71.253-148.053 190.72-366.933 190.72zM512 277.333c-94.257 0-170.667 76.41-170.667 170.667s76.41 170.667 170.667 170.667c94.257 0 170.667-76.41 170.667-170.667v0c0-94.257-76.41-170.667-170.667-170.667v0zM512 533.333c-47.128 0-85.333-38.205-85.333-85.333s38.205-85.333 85.333-85.333c47.128 0 85.333 38.205 85.333 85.333v0c0 47.128-38.205 85.333-85.333 85.333v0z" />
<glyph unicode="&#xe967;" glyph-name="rewind" d="M512 789.333c-188.513 0-341.333-152.82-341.333-341.333s152.82-341.333 341.333-341.333v0h110.507l-85.333-85.333h120.747l97.707 97.707c7.668 7.712 12.407 18.343 12.407 30.080s-4.74 22.368-12.409 30.082l-98.131 98.131h-120.32l85.333-85.333h-110.507c-141.385 0-256 114.615-256 256s114.615 256 256 256c141.385 0 256-114.615 256-256v0-42.667h85.333v42.667c0 188.513-152.82 341.333-341.333 341.333v0z" />
<glyph unicode="&#xe968;" glyph-name="robot" d="M810.667 192v256c-0.132 70.085-24.384 134.48-64.894 185.354l0.467-0.607 54.187 71.253h10.24c0.021 0 0.045 0 0.070 0 47.128 0 85.333 38.205 85.333 85.333s-38.205 85.333-85.333 85.333c-47.128 0-85.333-38.205-85.333-85.333 0-12.020 2.485-23.46 6.97-33.833l-0.213 0.553-49.493-64.427c-47.606 33.516-106.795 53.565-170.667 53.565s-123.061-20.050-171.616-54.199l0.95 0.633-49.493 64c4.386 9.937 6.939 21.523 6.939 33.707 0 47.128-38.205 85.333-85.333 85.333s-85.333-38.205-85.333-85.333c0-47.089 38.141-85.269 85.215-85.333h9.819l54.187-72.533c-39.634-49.982-63.69-113.885-64-183.397v-256.070c-70.692 0-128-57.308-128-128v0-42.667h85.333v42.667c0 23.564 19.103 42.667 42.667 42.667v0h597.333c23.564 0 42.667-19.103 42.667-42.667v0-42.667h85.333v42.667c0 70.692-57.308 128-128 128v0zM298.667 448c0 117.821 95.513 213.333 213.333 213.333s213.333-95.513 213.333-213.333v0-256h-426.667zM384 362.667h252.16v-85.333h-252.16zM388.267 454.4c-4.943 4.751-8.968 10.416-11.81 16.727l-0.137 0.339c-1.904 5.302-3.005 11.419-3.005 17.794 0 0.494 0.007 0.987 0.020 1.479l-0.002-0.072c0 0.061 0 0.134 0 0.206 0 14.641 6.045 27.871 15.775 37.329l0.012 0.012c9.736 9.771 23.204 15.816 38.084 15.816 3.43 0 6.785-0.321 10.037-0.935l-0.334 0.053c3.894-0.852 7.314-2.027 10.543-3.541l-0.303 0.128 8.96-4.693c3.068-2.007 5.727-4.26 8.081-6.799l0.025-0.028c9.742-9.47 15.787-22.699 15.787-37.34 0-0.073 0-0.145 0-0.217v0.011c0.001-0.131 0.002-0.286 0.002-0.44 0-7.217-1.411-14.105-3.972-20.402l0.13 0.363c-2.968-6.655-6.995-12.321-11.928-17.049l-0.019-0.018c-9.47-9.742-22.699-15.787-37.34-15.787-0.073 0-0.145 0-0.217 0h0.011c-0.083 0-0.182-0.001-0.28-0.001-7.272 0-14.215 1.41-20.57 3.972l0.37-0.132c-6.651 2.979-12.315 7.004-17.050 11.929l-0.017 0.018zM634.027 529.493c9.742-9.47 15.787-22.699 15.787-37.34 0-0.073 0-0.145 0-0.217v0.011c0.001-0.131 0.002-0.286 0.002-0.44 0-7.217-1.411-14.105-3.972-20.402l0.13 0.363c-2.968-6.655-6.995-12.321-11.928-17.049l-0.019-0.018c-9.539-9.761-22.836-15.814-37.547-15.814s-28.008 6.053-37.537 15.804l-0.010 0.010c-4.943 4.751-8.968 10.416-11.81 16.727l-0.137 0.339c-2.431 5.935-3.842 12.822-3.842 20.040 0 0.155 0.001 0.309 0.002 0.464v-0.024c-0.103 1.531-0.162 3.319-0.162 5.12s0.059 3.589 0.174 5.361l-0.013-0.241c0.848 3.892 2.023 7.312 3.54 10.54l-0.127-0.3c1.491 3.478 3.061 6.421 4.845 9.214l-0.152-0.254c2.007 3.068 4.26 5.727 6.799 8.081l0.028 0.025c9.736 9.771 23.204 15.816 38.084 15.816 3.43 0 6.785-0.321 10.037-0.935l-0.334 0.053c3.894-0.852 7.314-2.027 10.543-3.541l-0.303 0.128 8.96-4.693c3.764-2.283 6.995-4.97 9.779-8.068l0.035-0.039z" />
<glyph unicode="&#xe969;" glyph-name="scroll-to-top" d="M512 874.667c-235.641 0-426.667-191.025-426.667-426.667s191.025-426.667 426.667-426.667c235.641 0 426.667 191.025 426.667 426.667v0c0 235.641-191.025 426.667-426.667 426.667v0zM512 106.667c-188.513 0-341.333 152.82-341.333 341.333s152.82 341.333 341.333 341.333c188.513 0 341.333-152.82 341.333-341.333v0c0-188.513-152.82-341.333-341.333-341.333v0zM542.293 563.627l157.867-158.293h-120.32l-67.84 67.84-67.84-67.84h-120.32l158.293 158.293c7.712 7.668 18.343 12.407 30.080 12.407s22.368-4.74 30.082-12.409l-0.002 0.002z" />
<glyph unicode="&#xe96a;" glyph-name="search" d="M901.12 239.787l-170.667 170.667c-23.141 23.029-55.050 37.265-90.284 37.265-20.070 0-39.061-4.619-55.968-12.852l0.759 0.334-35.413 35.413c29.65 41.24 47.417 92.757 47.417 148.423 0 141.385-114.615 256-256 256s-256-114.615-256-256c0-141.385 114.615-256 256-256 55.666 0 107.182 17.767 149.188 47.94l-0.765-0.523 35.413-35.413c-7.9-16.148-12.519-35.139-12.519-55.209 0-35.234 14.236-67.143 37.27-90.289l170.662-170.662c23.432-25.096 56.712-40.74 93.646-40.74 70.692 0 128 57.308 128 128 0 36.934-15.643 70.215-40.665 93.577l-0.074 0.069zM170.667 618.667c0 94.257 76.41 170.667 170.667 170.667s170.667-76.41 170.667-170.667c0-94.257-76.41-170.667-170.667-170.667v0c-94.257 0-170.667 76.41-170.667 170.667v0zM840.96 119.040c-7.712-7.668-18.343-12.407-30.080-12.407s-22.368 4.74-30.082 12.409l-170.665 170.665c-6.377 7.412-10.259 17.129-10.259 27.753 0 23.564 19.103 42.667 42.667 42.667 10.624 0 20.341-3.883 27.809-10.307l-0.056 0.047 170.667-170.667c7.668-7.712 12.407-18.343 12.407-30.080s-4.74-22.368-12.409-30.082l0.002 0.002z" />
<glyph unicode="&#xe96b;" glyph-name="secure" d="M725.333 874.667h-426.667c-70.692 0-128-57.308-128-128v0-387.413c-0.009-0.554-0.014-1.208-0.014-1.862 0-37.858 16.436-71.877 42.561-95.312l0.12-0.106 213.333-183.040c22.227-19.1 51.356-30.728 83.2-30.728s60.973 11.629 83.37 30.871l-0.17-0.143 213.333 183.040c26.245 23.54 42.68 57.56 42.68 95.418 0 0.655-0.005 1.309-0.015 1.961l0.001-0.099v387.413c0 0.021 0 0.046 0 0.071 0 69.192-54.901 125.561-123.517 127.923l-0.216 0.006zM768 359.253c0-0.001 0-0.002 0-0.003 0-12.949-5.769-24.551-14.877-32.376l-0.057-0.048-213.333-183.040c-7.409-6.367-17.119-10.243-27.733-10.243s-20.324 3.876-27.79 10.29l0.057-0.048-213.333 183.040c-9.165 7.872-14.933 19.474-14.933 32.424 0 0.001 0 0.002 0 0.003v0 387.413c0 23.564 19.103 42.667 42.667 42.667v0h426.667c23.564 0 42.667-19.103 42.667-42.667v0zM471.893 448l-52.053 85.333h-99.413l114.347-191.573c7.009-12.364 19.703-20.797 34.434-21.753l0.126-0.007c15.368 0.162 28.772 8.424 36.159 20.714l0.107 0.193 200.96 320.427h-100.693z" />
</font>
</defs>
</svg>
