<svg id="1a8597f3-3724-4f69-b868-cd1feaee5317" data-name="Laag 1" xmlns="http://www.w3.org/2000/svg" xmlns:xlink="http://www.w3.org/1999/xlink" width="96" height="96" viewBox="0 0 96 96"><defs><style>.\38 ea27ea0-5ad9-43a9-8db4-535aa1b02ea3{fill:none;}.\37 9609e58-9e75-4b1a-9cd3-ef2fec7d8492{clip-path:url(#836f8f03-cb78-45c3-86c2-04940c0bd60e);}.\32 9b552dc-e513-4aa7-bea0-864f34db51ca{fill:#033333;}.\31 00f24f9-9e4f-4792-9853-91edb705011c{clip-path:url(#8a1c0091-ba36-4237-8c77-249026359175);}</style><clipPath id="836f8f03-cb78-45c3-86c2-04940c0bd60e"><rect class="8ea27ea0-5ad9-43a9-8db4-535aa1b02ea3" width="96" height="96"/></clipPath><clipPath id="8a1c0091-ba36-4237-8c77-249026359175"><rect class="8ea27ea0-5ad9-43a9-8db4-535aa1b02ea3" y="1" width="96" height="96"/></clipPath></defs><title>247_v2</title><path class="29b552dc-e513-4aa7-bea0-864f34db51ca" d="M41,31.37h-.78c2-2.95,3.85-6.4,3.85-10.47C44.07,13.3,38.39,8,30.27,8a20.62,20.62,0,0,0-12.86,4.31,4,4,0,0,0-1.47,3.1v7.4A4,4,0,0,0,22.4,26a12.19,12.19,0,0,1,5.41-2.73,22.37,22.37,0,0,1-2.9,4.25l-.27.35L15.82,39.38A4,4,0,0,0,15,41.81V42a4,4,0,0,0,4,4H41a4,4,0,0,0,4-4V35.37A4,4,0,0,0,41,31.37ZM41,42H19v-.19l8.82-11.54C30.51,26.76,32,24.93,32,22.43c0-2-1.37-3.22-3.77-3.22-3.09,0-6.32,2.07-8.28,3.61v-7.4A16.6,16.6,0,0,1,30.27,12c6,0,9.8,3.56,9.8,8.89,0,3.75-2.2,7-4.8,10.53l-2.94,3.94H41ZM77.46,26.2V26a4,4,0,0,0-4-4H69.87l3.87-8.32A4,4,0,0,0,70.11,8h-8.2a4,4,0,0,0-3.63,2.31L49.37,29.47A4,4,0,0,0,49,31.15v5.38a4,4,0,0,0,4,4h9.47V42a4,4,0,0,0,4,4h7a4,4,0,0,0,4-4V40.5a4,4,0,0,0,3.54-4V30.18A4,4,0,0,0,77.46,26.2ZM77,36.53H73.46V42h-7V36.53H53V31.15L61.91,12h8.2L61.66,30.18h4.81V26h7v4.17H77ZM74,50H50.09a4,4,0,0,0-4,3.93L46,59.3a4,4,0,0,0,4,4.07h8.36l-1,1.4,0,.06C53.2,71.3,51,77.7,50.74,83.85a4,4,0,0,0,4,4.15h6.91a4,4,0,0,0,4-4,21.84,21.84,0,0,1,1-5.63,35,35,0,0,1,2.29-6.2,36.87,36.87,0,0,1,4-6.32,34.17,34.17,0,0,1,3.67-4.18,4,4,0,0,0,1.35-3V54A4,4,0,0,0,74,50Zm0,8.67a38.76,38.76,0,0,0-4.16,4.71,40.63,40.63,0,0,0-4.47,7,38.69,38.69,0,0,0-2.57,6.92A26,26,0,0,0,61.65,84H54.74q.3-8.18,6-17a40.77,40.77,0,0,1,6.14-7.63H50L50.09,54H74ZM36,50H32.75A4,4,0,0,0,29,52.65l-10.75,30A4,4,0,0,0,22,88h3.25A4,4,0,0,0,29,85.35l10.75-30A4,4,0,0,0,36,50ZM25.25,84H22L32.75,54H36Z"/></svg>