<svg id="9377f4e6-017a-4459-8e51-9a87a3725712" data-name="Laag 1" xmlns="http://www.w3.org/2000/svg" width="96" height="96" viewBox="0 0 96 96"><defs><style>.\31 80ed406-5b6b-441e-8362-a66c003d9149,.e9509212-44f2-4805-992b-d98024b75c3d{fill:none;}.\31 80ed406-5b6b-441e-8362-a66c003d9149{stroke:#333;stroke-linejoin:round;stroke-width:4px;}.\38 c055d2c-7f58-457c-9fe3-4e43e37882f3{fill:#333;}</style></defs><title>add_v1</title><rect class="e9509212-44f2-4805-992b-d98024b75c3d" width="96" height="96"/><circle class="180ed406-5b6b-441e-8362-a66c003d9149" cx="48" cy="48" r="42"/><path class="8c055d2c-7f58-457c-9fe3-4e43e37882f3" d="M49,25a4,4,0,0,1,4,4V43H67a4,4,0,0,1,4,4v2a4,4,0,0,1-4,4H53V67a4,4,0,0,1-4,4H47a4,4,0,0,1-4-4V53H29a4,4,0,0,1-4-4V47a4,4,0,0,1,4-4H43V29a4,4,0,0,1,4-4h2m0-4H47a8,8,0,0,0-8,8V39H29a8,8,0,0,0-8,8v2a8,8,0,0,0,8,8H39V67a8,8,0,0,0,8,8h2a8,8,0,0,0,8-8V57H67a8,8,0,0,0,8-8V47a8,8,0,0,0-8-8H57V29a8,8,0,0,0-8-8Z"/></svg>