<svg id="050b9c0f-0586-44b5-b4c4-bf3d665713b7" data-name="Laag 1" xmlns="http://www.w3.org/2000/svg" width="96" height="96" viewBox="0 0 96 96"><defs><style>.\37 f14717f-517a-4b79-8e2c-041a7f99dc2c{fill:none;}.aaf7ec5d-2798-4c92-be2d-b527d32ebe38{fill:#333;}</style></defs><title>alles_in_een_v1</title><rect class="7f14717f-517a-4b79-8e2c-041a7f99dc2c" width="96" height="96"/><path class="aaf7ec5d-2798-4c92-be2d-b527d32ebe38" d="M74,4H22A10,10,0,0,0,12,14V42A10,10,0,0,0,22,52H41.28l-.37,1.66A5.07,5.07,0,0,0,46,60h6a5.07,5.07,0,0,0,5.08-6.34L56.72,52H74A10,10,0,0,0,84,42V14A10,10,0,0,0,74,4ZM22,8H74a6,6,0,0,1,6,6V38H16V14A6,6,0,0,1,22,8ZM53.18,54.53A1.09,1.09,0,0,1,52,56H46a1.09,1.09,0,0,1-1.18-1.47L45.38,52h7.24ZM74,48H22a6,6,0,0,1-6-6H80A6,6,0,0,1,74,48Z"/><path class="aaf7ec5d-2798-4c92-be2d-b527d32ebe38" d="M43.11,31.86a4,4,0,0,0,4.11-.2l8-5.33a4,4,0,0,0,0-6.66l-8-5.33A4,4,0,0,0,41,17.67V28.33A4,4,0,0,0,43.11,31.86ZM45,17.67,53,23l-8,5.33Z"/><path class="aaf7ec5d-2798-4c92-be2d-b527d32ebe38" d="M48,64H18a6,6,0,0,0-6,6V86a6,6,0,0,0,6,6H48a6,6,0,0,0,6-6V70A6,6,0,0,0,48,64Zm2,22a2,2,0,0,1-2,2H18a2,2,0,0,1-2-2V70a2,2,0,0,1,2-2H48a2,2,0,0,1,2,2Z"/><ellipse class="aaf7ec5d-2798-4c92-be2d-b527d32ebe38" cx="20.16" cy="78" rx="2.05" ry="2"/><path class="aaf7ec5d-2798-4c92-be2d-b527d32ebe38" d="M80,77V64a6,6,0,0,0-3-5.19V56H73v2H71a6,6,0,0,0-6,6V77c-2.32,0-4,2.52-4,6v3a6,6,0,0,0,6,6H78a6,6,0,0,0,6-6V83C84,79.52,82.32,77,80,77ZM69,64a2,2,0,0,1,2-2h3a2,2,0,0,1,2,2V80a2,2,0,0,1-2,2H71a2,2,0,0,1-2-2ZM80,86a2,2,0,0,1-2,2H67a2,2,0,0,1-2-2V83a5,5,0,0,1,.21-1.47A6,6,0,0,0,71,86h3a6,6,0,0,0,5.79-4.47A5,5,0,0,1,80,83Z"/></svg>