<svg id="ee44f6e6-93f7-4580-a86f-976aff16eae5" data-name="Laag 1" xmlns="http://www.w3.org/2000/svg" width="96" height="96" viewBox="0 0 96 96"><defs><style>.b37b1e50-c518-4a30-ba89-f9151fd7ed01{fill:none;}.\36 7f600bd-02c1-4d44-8345-02da71374b42{fill:#333;}</style></defs><title>app_netflix_v1</title><rect class="b37b1e50-c518-4a30-ba89-f9151fd7ed01" width="96" height="96"/><path class="67f600bd-02c1-4d44-8345-02da71374b42" d="M51.07,40.79h3.07c0-.79,0-2,0-2.79H46.65V53.63h2.67c0-2.21,0-4.23,0-6.44H53c0-.79,0-2,0-2.76H49.31c0-1.42,0-2.22,0-3.65h1.76Z"/><path class="67f600bd-02c1-4d44-8345-02da71374b42" d="M36.58,40.78h2.8c0,4.46,0,8.54,0,13l2.7-.09c0-4.44,0-8.49,0-12.93H44.9c0-.79,0-2,0-2.76H36.59C36.59,38.82,36.59,40,36.58,40.78Z"/><path class="67f600bd-02c1-4d44-8345-02da71374b42" d="M32.26,40.79h2.6c0-.81,0-2,0-2.78H27.38q0,8.3,0,16.61,3.75-.36,7.5-.58c0-.81,0-2,0-2.78l-4.8.33c0-1.49,0-2.72,0-4.21,1.18,0,2.44,0,3.65,0,0-.81,0-2,0-2.79l-3.65,0c0-1.49,0-2.3,0-3.79Z"/><path class="67f600bd-02c1-4d44-8345-02da71374b42" d="M22.07,48.17c-1.16-3.75-2.32-6.23-3.48-10.17H16V56l2.68-.37c0-3.76,0-6.07,0-9.84,1.2,3.7,1.94,5.89,3.14,9.41.94-.11,2-.25,2.91-.35q0-8.42,0-16.84H22.08C22.08,41.84,22.07,44.33,22.07,48.17Z"/><path class="67f600bd-02c1-4d44-8345-02da71374b42" d="M65.43,54.33l2.66.23q0-8.27,0-16.55H65.4Q65.41,46.17,65.43,54.33Z"/><path class="67f600bd-02c1-4d44-8345-02da71374b42" d="M80,38H77c-.73,1.83-1.23,3-1.93,4.74-.65-1.81-1.09-3-1.74-4.74H70.4c1.08,2.75,2.06,5.51,3.16,8.43-1.14,2.81-2.29,5.59-3.43,8.29.94.1,1.91.24,2.85.35.67-1.73,1.29-3.07,2-4.85.67,1.9,1.29,3.36,2,5.32L80,56c-1.14-3.18-2.38-6.5-3.52-9.51C77.62,43.67,78.78,41,80,38Z"/><path class="67f600bd-02c1-4d44-8345-02da71374b42" d="M58.58,51.11c0-4.51,0-8.59,0-13.1H55.89c0,5.26,0,10.52,0,15.78,2.4.09,4.91.2,7.31.37,0-.81,0-2,0-2.78C61.67,51.29,60.09,51.18,58.58,51.11Z"/><path class="67f600bd-02c1-4d44-8345-02da71374b42" d="M74,4H22A18,18,0,0,0,4,22V74A18,18,0,0,0,22,92H74A18,18,0,0,0,92,74V22A18,18,0,0,0,74,4ZM88,74A14,14,0,0,1,74,88H22A14,14,0,0,1,8,74V22A14,14,0,0,1,22,8H74A14,14,0,0,1,88,22Z"/></svg>