<svg id="b61aed17-af3a-40c3-84cb-f5760519f68c" data-name="Laag 1" xmlns="http://www.w3.org/2000/svg" width="96" height="96" viewBox="0 0 96 96"><defs><style>.\35 9920ef4-5dad-4486-b75f-5dd721c1814f{fill:none;}.c283d74c-1824-49dc-8e67-6745b337b89d{fill:#333;}</style></defs><title>bike_v1</title><rect class="59920ef4-5dad-4486-b75f-5dd721c1814f" width="96" height="96"/><path class="c283d74c-1824-49dc-8e67-6745b337b89d" d="M77,43a14.91,14.91,0,0,0-5.68,1.13L62,28H73V24H55v4h2.41l2.53,4.38L49.61,49.45a7.86,7.86,0,0,0-5.28,0L34.08,32H38V28H22v4h7.44l1.14,1.95-5.83,10.2a15,15,0,1,0,9.13,15.64h5.63a8,8,0,1,0,13.43-8.13l9.28-15.32,5.64,9.79A15,15,0,1,0,77,43ZM26.19,49.7a11,11,0,0,1,3.59,6.09H22.71ZM19,69a11,11,0,1,1,3.74-21.33L17.53,56.8a2,2,0,0,0,1.74,3H29.84A11,11,0,0,1,19,69ZM39.1,55.79H33.82a15,15,0,0,0-5.62-9.61l4.72-8.25L41,51.71A8,8,0,0,0,39.1,55.79ZM47,61a3.95,3.95,0,0,1-3.79-5.21c0-.07,0-.15.07-.22a4,4,0,0,1,3.16-2.52,2.48,2.48,0,0,1,1,0A4,4,0,0,1,47,61Zm30,8a11,11,0,0,1-7.13-19.36L74.12,57h4.62l-5.39-9.36A11,11,0,1,1,77,69ZM18,34H4V30H18ZM8,36H20v4H8Z"/></svg>