<svg id="9eaf397f-469a-4b88-9b42-3ec05a46c5ac" data-name="Laag 1" xmlns="http://www.w3.org/2000/svg" width="96" height="96" viewBox="0 0 96 96"><defs><style>.\30 4924b32-64b5-4144-9404-5256e4473fe4{fill:none;}.\30 ce52884-9e1a-4225-8d35-1f6cb1cd2de7{fill:#333;}</style></defs><title>browser_v1</title><rect class="04924b32-64b5-4144-9404-5256e4473fe4" width="96" height="96"/><path class="0ce52884-9e1a-4225-8d35-1f6cb1cd2de7" d="M56.25,56.38a2,2,0,0,0,2.19-.46l1-1L61.14,60h4.23L63,53.2h1.86a2,2,0,0,0,1.52-3.3l-7.89-9.2A2,2,0,0,0,55,42V54.53A2,2,0,0,0,56.25,56.38Z"/><circle class="0ce52884-9e1a-4225-8d35-1f6cb1cd2de7" cx="16" cy="26" r="2"/><circle class="0ce52884-9e1a-4225-8d35-1f6cb1cd2de7" cx="22" cy="26" r="2"/><path class="0ce52884-9e1a-4225-8d35-1f6cb1cd2de7" d="M82,16H14A10,10,0,0,0,4,26V70A10,10,0,0,0,14,80H82A10,10,0,0,0,92,70V26A10,10,0,0,0,82,16Zm6,54a6,6,0,0,1-6,6H14a6,6,0,0,1-6-6V36H88Zm0-38H8V26a6,6,0,0,1,6-6H82a6,6,0,0,1,6,6Z"/><circle class="0ce52884-9e1a-4225-8d35-1f6cb1cd2de7" cx="28" cy="26" r="2"/></svg>