<svg id="ccf82408-edb8-4678-91ca-16c91a4029b9" data-name="Laag 1" xmlns="http://www.w3.org/2000/svg" xmlns:xlink="http://www.w3.org/1999/xlink" width="96" height="96" viewBox="0 0 96 96"><defs><style>.e20dfc2b-3666-4f58-a795-4f4a9bad8226{fill:none;}.c1589e28-e7b3-4a42-8abf-cb8c7deb910e{clip-path:url(#d3027bb8-885c-430b-a114-87eb5ef9d00a);}.dbd88ee7-402b-4cdf-9704-97d17f2f3388{clip-path:url(#5802e602-f775-4bfc-a3f8-ef3c01edd6a4);}.\34 ce40e20-615c-426f-91ab-4f9fa0343f2c{clip-path:url(#c7ef65b1-690a-4da0-b624-5572cfaf8bcd);}.bae82bc6-8e84-4d9f-8f6b-4704a614f890{clip-path:url(#98015d66-bf38-4101-8d94-71a23995e5dd);}.d54274d7-d72e-4a1f-8577-a06f827656b9{fill:#333;}</style><clipPath id="d3027bb8-885c-430b-a114-87eb5ef9d00a"><rect class="e20dfc2b-3666-4f58-a795-4f4a9bad8226" width="96" height="96"/></clipPath><clipPath id="5802e602-f775-4bfc-a3f8-ef3c01edd6a4"><rect class="e20dfc2b-3666-4f58-a795-4f4a9bad8226" width="96" height="96"/></clipPath><clipPath id="c7ef65b1-690a-4da0-b624-5572cfaf8bcd"><rect class="e20dfc2b-3666-4f58-a795-4f4a9bad8226" y="1" width="96" height="96"/></clipPath><clipPath id="98015d66-bf38-4101-8d94-71a23995e5dd"><rect class="e20dfc2b-3666-4f58-a795-4f4a9bad8226" y="1" width="96" height="96"/></clipPath></defs><title>business_serie_M_v2</title><circle class="d54274d7-d72e-4a1f-8577-a06f827656b9" cx="26.33" cy="56" r="2"/><circle class="d54274d7-d72e-4a1f-8577-a06f827656b9" cx="35.33" cy="56" r="2"/><circle class="d54274d7-d72e-4a1f-8577-a06f827656b9" cx="60.33" cy="56" r="2"/><circle class="d54274d7-d72e-4a1f-8577-a06f827656b9" cx="69.33" cy="56" r="2"/><circle class="d54274d7-d72e-4a1f-8577-a06f827656b9" cx="43.33" cy="30" r="2"/><circle class="d54274d7-d72e-4a1f-8577-a06f827656b9" cx="52.33" cy="30" r="2"/><path class="d54274d7-d72e-4a1f-8577-a06f827656b9" d="M85.7,80.72A12.19,12.19,0,0,0,74.25,71h-18A11.72,11.72,0,0,0,48,74.66,11.67,11.67,0,0,0,39.75,71h-18a12.26,12.26,0,0,0-11.49,9.68l-2,10.41,3.93.75,2-10.41a8.16,8.16,0,0,1,3.26-4.93l11.77,14a2,2,0,0,0,3.06,0L44,76.5a8.68,8.68,0,0,1,1.22,1.07h0l0,0a9.3,9.3,0,0,1,.62.75l.29.42a2,2,0,0,0,3.49.17l.26-.39h0l.29-.38.3-.36.18-.2A8.76,8.76,0,0,1,52,76.52l11.77,14a2,2,0,0,0,3.06,0l11.76-14a8.1,8.1,0,0,1,3.23,4.93l2,10.91,3.93-.73Zm-56-3.48v-2h2v2Zm-8-2.24h4c0,.08,0,.16,0,.24v2a4,4,0,0,0,.32,1.56L25.6,80l-4.17-5Zm9,11.13-2.23-2.66.9-2.26c.11,0,.22,0,.33,0h2c.11,0,.22,0,.33,0l.9,2.26ZM35.9,80l-.47-1.18a4,4,0,0,0,.32-1.56v-2c0-.08,0-.16,0-.24h4l.32,0Zm28.35-2.72v-2h2v2Zm-8-2.24h4c0,.08,0,.16,0,.24v2a4,4,0,0,0,.32,1.56L60.1,80l-4.16-5Zm9,11.13L63,83.48l.9-2.26c.11,0,.22,0,.33,0h2c.11,0,.22,0,.33,0l.9,2.26ZM70.4,80l-.47-1.18a4,4,0,0,0,.32-1.56v-2c0-.08,0-.16,0-.24h4l.32,0Z"/><path class="d54274d7-d72e-4a1f-8577-a06f827656b9" d="M31,70A14,14,0,1,0,17,56,14,14,0,0,0,31,70Zm0-24A10,10,0,1,1,21,56,10,10,0,0,1,31,46Z"/><path class="d54274d7-d72e-4a1f-8577-a06f827656b9" d="M51,56A14,14,0,1,0,65,42,14,14,0,0,0,51,56ZM65,46A10,10,0,1,1,55,56,10,10,0,0,1,65,46Z"/><path class="d54274d7-d72e-4a1f-8577-a06f827656b9" d="M48,44A14,14,0,1,0,34,30,14,14,0,0,0,48,44Zm0-24A10,10,0,1,1,38,30,10,10,0,0,1,48,20Z"/></svg>