<svg id="a8321f3b-5a40-4999-9c87-f293d3cef69b" data-name="Laag 1" xmlns="http://www.w3.org/2000/svg" xmlns:xlink="http://www.w3.org/1999/xlink" width="96" height="96" viewBox="0 0 96 96"><defs><style>.\37 6412926-55c6-4ba9-8c88-36301f5bb36b{fill:none;}.a070baa6-d374-4e4a-b3a0-5152fc518ee2{clip-path:url(#68d6dc67-68d2-4777-a18e-ad90b89e7a81);}.f764bc01-f6a6-47d5-b8f8-79c68683e2a9{clip-path:url(#9af28287-3e05-46a9-8510-8929a698770a);}.b9a70bb6-5e94-41d3-a8f0-c1d776f4593a{fill:#333;}.b369f7ef-a470-4c1f-ba26-04be5892bf1f{clip-path:url(#94cbcd5c-4abd-4255-9b96-88026465d679);}.\37 a798545-6a6f-4048-aeaa-c608a6beb293{clip-path:url(#4ca4581f-6067-42b9-8a3d-ba2c7f58982d);}</style><clipPath id="68d6dc67-68d2-4777-a18e-ad90b89e7a81"><rect class="76412926-55c6-4ba9-8c88-36301f5bb36b" width="96" height="96"/></clipPath><clipPath id="9af28287-3e05-46a9-8510-8929a698770a"><rect class="76412926-55c6-4ba9-8c88-36301f5bb36b" width="96" height="96"/></clipPath><clipPath id="94cbcd5c-4abd-4255-9b96-88026465d679"><rect class="76412926-55c6-4ba9-8c88-36301f5bb36b" y="1" width="96" height="96"/></clipPath><clipPath id="4ca4581f-6067-42b9-8a3d-ba2c7f58982d"><rect class="76412926-55c6-4ba9-8c88-36301f5bb36b" y="1" width="96" height="96"/></clipPath></defs><title>business_serie_XL_v2</title><path class="b9a70bb6-5e94-41d3-a8f0-c1d776f4593a" d="M32,12H28a6,6,0,0,0-6,6v4a6,6,0,0,0,6,6h4a6,6,0,0,0,6-6V18A6,6,0,0,0,32,12Zm2,10a2,2,0,0,1-2,2H28a2,2,0,0,1-2-2V18a2,2,0,0,1,2-2h4a2,2,0,0,1,2,2ZM68,12H64a6,6,0,0,0-6,6v4a6,6,0,0,0,6,6h4a6,6,0,0,0,6-6V18A6,6,0,0,0,68,12Zm2,10a2,2,0,0,1-2,2H64a2,2,0,0,1-2-2V18a2,2,0,0,1,2-2h4a2,2,0,0,1,2,2ZM50,12H46a6,6,0,0,0-6,6v4a6,6,0,0,0,6,6h4a6,6,0,0,0,6-6V18A6,6,0,0,0,50,12Zm2,10a2,2,0,0,1-2,2H46a2,2,0,0,1-2-2V18a2,2,0,0,1,2-2h4a2,2,0,0,1,2,2ZM32,30H28a6,6,0,0,0-6,6v4a6,6,0,0,0,6,6h4a6,6,0,0,0,6-6V36A6,6,0,0,0,32,30Zm2,10a2,2,0,0,1-2,2H28a2,2,0,0,1-2-2V36a2,2,0,0,1,2-2h4a2,2,0,0,1,2,2ZM68,30H64a6,6,0,0,0-6,6v4a6,6,0,0,0,6,6h4a6,6,0,0,0,6-6V36A6,6,0,0,0,68,30Zm2,10a2,2,0,0,1-2,2H64a2,2,0,0,1-2-2V36a2,2,0,0,1,2-2h4a2,2,0,0,1,2,2ZM50,30H46a6,6,0,0,0-6,6v4a6,6,0,0,0,6,6h4a6,6,0,0,0,6-6V36A6,6,0,0,0,50,30Zm2,10a2,2,0,0,1-2,2H46a2,2,0,0,1-2-2V36a2,2,0,0,1,2-2h4a2,2,0,0,1,2,2ZM32,48H28a6,6,0,0,0-6,6v4a6,6,0,0,0,6,6h4a6,6,0,0,0,6-6V54A6,6,0,0,0,32,48Zm2,10a2,2,0,0,1-2,2H28a2,2,0,0,1-2-2V54a2,2,0,0,1,2-2h4a2,2,0,0,1,2,2ZM68,48H64a6,6,0,0,0-6,6v4a6,6,0,0,0,6,6h4a6,6,0,0,0,6-6V54A6,6,0,0,0,68,48Zm2,10a2,2,0,0,1-2,2H64a2,2,0,0,1-2-2V54a2,2,0,0,1,2-2h4a2,2,0,0,1,2,2ZM50,48H46a6,6,0,0,0-6,6v4a6,6,0,0,0,6,6h4a6,6,0,0,0,6-6V54A6,6,0,0,0,50,48Zm2,10a2,2,0,0,1-2,2H46a2,2,0,0,1-2-2V54a2,2,0,0,1,2-2h4a2,2,0,0,1,2,2ZM32,66H28a6,6,0,0,0-6,6v4a6,6,0,0,0,6,6h4a6,6,0,0,0,6-6V72A6,6,0,0,0,32,66Zm2,10a2,2,0,0,1-2,2H28a2,2,0,0,1-2-2V72a2,2,0,0,1,2-2h4a2,2,0,0,1,2,2ZM68,66H64a6,6,0,0,0-6,6v4a6,6,0,0,0,6,6h4a6,6,0,0,0,6-6V72A6,6,0,0,0,68,66Zm2,10a2,2,0,0,1-2,2H64a2,2,0,0,1-2-2V72a2,2,0,0,1,2-2h4a2,2,0,0,1,2,2ZM86.33,48H80V14A10,10,0,0,0,70,4H26A10,10,0,0,0,16,14V28H14A10,10,0,0,0,4,38V82A10,10,0,0,0,14,92H70v0h0l.29,0h16a6,6,0,0,0,6-6V54A6,6,0,0,0,86.33,48ZM14,88a6,6,0,0,1-6-6V38a6,6,0,0,1,6-6h2V82a10,10,0,0,0,2,6Zm30-.44V72a2,2,0,0,1,2-2h4a2,2,0,0,1,2,2V87.56ZM76,82a6,6,0,0,1-5.84,6L70,88H56V72a6,6,0,0,0-6-6H46a6,6,0,0,0-6,6V88H26a6,6,0,0,1-6-6V14a6,6,0,0,1,6-6H70a6,6,0,0,1,6,6V82Zm12.33,4a2,2,0,0,1-2,2H78a10,10,0,0,0,2-6V52h6.33a2,2,0,0,1,2,2Z"/></svg>