<svg id="191b6fd1-3a6c-4c92-9696-2d480c91adf8" data-name="Laag 1" xmlns="http://www.w3.org/2000/svg" xmlns:xlink="http://www.w3.org/1999/xlink" width="96" height="96" viewBox="0 0 96 96"><defs><style>.e59c9659-a920-4bf2-9297-5f0979cac351{fill:none;}.\35 2f22b70-7e69-4fd8-a49c-5cf3c25a48e6{clip-path:url(#c098da40-185d-47cf-be88-f8ef76875a5d);}.\39 4e44def-9d48-4ad9-a799-49b45e9161af{fill:#333;}.\34 7020d1f-4017-4e7a-8bec-140bcfa3af6d{clip-path:url(#2480020a-89cc-4496-a903-ac4727b3915b);}</style><clipPath id="c098da40-185d-47cf-be88-f8ef76875a5d"><rect class="e59c9659-a920-4bf2-9297-5f0979cac351" width="96" height="96"/></clipPath><clipPath id="2480020a-89cc-4496-a903-ac4727b3915b"><rect class="e59c9659-a920-4bf2-9297-5f0979cac351" y="1" width="96" height="96"/></clipPath></defs><title>businessman_v2</title><path class="94e44def-9d48-4ad9-a799-49b45e9161af" d="M86.94,71.35C85.13,61.78,75.74,54,66,54H30c-9.73,0-19.16,7.77-21,17.32L5.35,90H9.43l3.48-17.91a18.18,18.18,0,0,1,9.15-11.91L46.47,89.29a2,2,0,0,0,3.06,0l24.41-29.1A18.06,18.06,0,0,1,83,72.09L86.4,90h4.07ZM50,58a2,2,0,0,1,2,2v4a2,2,0,0,1-2,2H46a2,2,0,0,1-2-2V60a2,2,0,0,1,2-2ZM30,58H40.35A6,6,0,0,0,40,60v4a6,6,0,0,0,.83,3l-2.52,6.3L25.93,58.58A15.26,15.26,0,0,1,30,58ZM48,84.89l-6.77-8.07,2.85-7.13A6,6,0,0,0,46,70h4a6,6,0,0,0,1.92-.32l2.85,7.13Zm9.69-11.55L55.17,67A6,6,0,0,0,56,64V60a6,6,0,0,0-.35-2H66a15.21,15.21,0,0,1,4.07.58ZM48,49A22.5,22.5,0,1,0,25.5,26.5,22.53,22.53,0,0,0,48,49ZM48,8A18.5,18.5,0,1,1,29.5,26.5,18.52,18.52,0,0,1,48,8ZM37,27a3,3,0,1,1,3,3A3,3,0,0,1,37,27Zm16,0a3,3,0,1,1,3,3A3,3,0,0,1,53,27Z"/></svg>