<svg id="cb332028-eacf-482d-94f4-3efdd06c8957" data-name="Laag 1" xmlns="http://www.w3.org/2000/svg" xmlns:xlink="http://www.w3.org/1999/xlink" width="96" height="96" viewBox="0 0 96 96"><defs><style>.\38 9433109-4c4b-4c03-b9ae-49b7cd72e9c1{fill:none;}.da7782f9-f97d-4c1c-beb9-eadfb172030c{clip-path:url(#a33a7f9d-9b3c-45a6-a794-4246897fe8bf);}.\39 fdcc3ad-28a6-49d6-84cc-94e85c2ba4ce{clip-path:url(#4efb002c-a4bf-451f-b693-68f12a5d80ed);}.\34 2e12737-d73b-4d8e-a64d-38ef355ad867{fill:#333;}</style><clipPath id="a33a7f9d-9b3c-45a6-a794-4246897fe8bf"><rect class="89433109-4c4b-4c03-b9ae-49b7cd72e9c1" width="96" height="96"/></clipPath><clipPath id="4efb002c-a4bf-451f-b693-68f12a5d80ed"><rect class="89433109-4c4b-4c03-b9ae-49b7cd72e9c1" y="1" width="96" height="96"/></clipPath></defs><title>business_serie_S_v2</title><ellipse class="42e12737-d73b-4d8e-a64d-38ef355ad867" cx="54.71" cy="35.86" rx="2.52" ry="2.55"/><ellipse class="42e12737-d73b-4d8e-a64d-38ef355ad867" cx="41.29" cy="35.86" rx="2.52" ry="2.55"/><path class="42e12737-d73b-4d8e-a64d-38ef355ad867" d="M48,54.56A19.13,19.13,0,1,0,29.11,35.44,19,19,0,0,0,48,54.56Zm0-34.87A15.75,15.75,0,1,1,32.49,35.44,15.65,15.65,0,0,1,48,19.69Z"/><path class="42e12737-d73b-4d8e-a64d-38ef355ad867" d="M15.54,90l3-15.79a15.45,15.45,0,0,1,7.66-10.13L46.7,88.82a1.69,1.69,0,0,0,2.6,0L69.77,64.09a15.34,15.34,0,0,1,7.59,10.13L80.31,90h3.44L80.69,73.59c-1.52-8.13-9.41-14.75-17.58-14.75H32.9c-8.17,0-16.09,6.61-17.65,14.73L12.1,90ZM54.41,62.22H63.1a12.57,12.57,0,0,1,3.42.5L56.13,75.27,54,69.89a5.07,5.07,0,0,0,.71-2.56v-3.4A5.07,5.07,0,0,0,54.41,62.22Zm-9.75,1.71a1.69,1.69,0,0,1,1.67-1.71h3.36a1.69,1.69,0,0,1,1.67,1.71v3.4A1.69,1.69,0,0,1,49.68,69H46.32a1.69,1.69,0,0,1-1.67-1.71Zm.08,8.21a4.94,4.94,0,0,0,1.59.28h3.36a4.94,4.94,0,0,0,1.59-.28l2.41,6.1L48,85.1l-5.68-6.86ZM32.9,62.22h8.69a5.07,5.07,0,0,0-.31,1.71v3.4A5.07,5.07,0,0,0,42,69.89l-2.12,5.37L29.48,62.71A12.62,12.62,0,0,1,32.9,62.22Z"/></svg>