<svg id="01e1e0c3-720b-4fd0-a1ed-6588d76f2f34" data-name="Laag 1" xmlns="http://www.w3.org/2000/svg" xmlns:xlink="http://www.w3.org/1999/xlink" width="96" height="96" viewBox="0 0 96 96"><defs><style>.c50053b1-4c4d-42f9-af4e-477c03ce93b1{fill:none;}.\34 82a8668-562c-4669-9b59-ab03b1fe7d1e{clip-path:url(#c58f2a2f-3225-4141-a920-ac8620027b3d);}.cba3d629-9abc-4620-8c52-4528f45c0d74{clip-path:url(#74b5587a-f81c-4781-8193-737e0d5cad31);}.\34 8cbc379-868a-4f11-9569-753bd66291ed{fill:#333;}.\32 6df1fb4-47c4-4a04-9fb8-4128e5fe14b0{clip-path:url(#efe72211-0e88-47ba-b220-e52f6719e4cf);}.\39 fc19827-e2b1-4390-926f-084c8b9faa0f{clip-path:url(#43d35c03-8e19-40ee-ad9a-404d045d68f1);}</style><clipPath id="c58f2a2f-3225-4141-a920-ac8620027b3d"><rect class="c50053b1-4c4d-42f9-af4e-477c03ce93b1" width="96" height="96"/></clipPath><clipPath id="74b5587a-f81c-4781-8193-737e0d5cad31"><rect class="c50053b1-4c4d-42f9-af4e-477c03ce93b1" width="96" height="96"/></clipPath><clipPath id="efe72211-0e88-47ba-b220-e52f6719e4cf"><rect class="c50053b1-4c4d-42f9-af4e-477c03ce93b1" y="1" width="96" height="96"/></clipPath><clipPath id="43d35c03-8e19-40ee-ad9a-404d045d68f1"><rect class="c50053b1-4c4d-42f9-af4e-477c03ce93b1" y="1" width="96" height="96"/></clipPath></defs><title>business_serie_L_v2</title><path class="48cbc379-868a-4f11-9569-753bd66291ed" d="M70,14H26C20.48,14,16,18.05,16,23V83c0,5,4.49,9.06,10,9.06H70c5.52,0,10-4.07,10-9.06V23C80,18.05,75.52,14,70,14ZM44,87.56V72a2,2,0,0,1,2-2h4a2,2,0,0,1,2,2V87.56ZM76,83c0,2.78-2.69,5-6,5H56V72a6,6,0,0,0-6-6H46a6,6,0,0,0-6,6V88H26c-3.3,0-6-2.26-6-5V23c0-2.78,2.69-5,6-5H70c3.3,0,6,2.26,6,5ZM32,26H28a6,6,0,0,0-6,6v4a6,6,0,0,0,6,6h4a6,6,0,0,0,6-6V32A6,6,0,0,0,32,26Zm2,10a2,2,0,0,1-2,2H28a2,2,0,0,1-2-2V32a2,2,0,0,1,2-2h4a2,2,0,0,1,2,2ZM68,26H64a6,6,0,0,0-6,6v4a6,6,0,0,0,6,6h4a6,6,0,0,0,6-6V32A6,6,0,0,0,68,26Zm2,10a2,2,0,0,1-2,2H64a2,2,0,0,1-2-2V32a2,2,0,0,1,2-2h4a2,2,0,0,1,2,2ZM50,26H46a6,6,0,0,0-6,6v4a6,6,0,0,0,6,6h4a6,6,0,0,0,6-6V32A6,6,0,0,0,50,26Zm2,10a2,2,0,0,1-2,2H46a2,2,0,0,1-2-2V32a2,2,0,0,1,2-2h4a2,2,0,0,1,2,2ZM32,46H28a6,6,0,0,0-6,6v4a6,6,0,0,0,6,6h4a6,6,0,0,0,6-6V52A6,6,0,0,0,32,46Zm2,10a2,2,0,0,1-2,2H28a2,2,0,0,1-2-2V52a2,2,0,0,1,2-2h4a2,2,0,0,1,2,2ZM68,46H64a6,6,0,0,0-6,6v4a6,6,0,0,0,6,6h4a6,6,0,0,0,6-6V52A6,6,0,0,0,68,46Zm2,10a2,2,0,0,1-2,2H64a2,2,0,0,1-2-2V52a2,2,0,0,1,2-2h4a2,2,0,0,1,2,2ZM50,46H46a6,6,0,0,0-6,6v4a6,6,0,0,0,6,6h4a6,6,0,0,0,6-6V52A6,6,0,0,0,50,46Zm2,10a2,2,0,0,1-2,2H46a2,2,0,0,1-2-2V52a2,2,0,0,1,2-2h4a2,2,0,0,1,2,2ZM32,66H28a6,6,0,0,0-6,6v4a6,6,0,0,0,6,6h4a6,6,0,0,0,6-6V72A6,6,0,0,0,32,66Zm2,10a2,2,0,0,1-2,2H28a2,2,0,0,1-2-2V72a2,2,0,0,1,2-2h4a2,2,0,0,1,2,2ZM68,66H64a6,6,0,0,0-6,6v4a6,6,0,0,0,6,6h4a6,6,0,0,0,6-6V72A6,6,0,0,0,68,66Zm2,10a2,2,0,0,1-2,2H64a2,2,0,0,1-2-2V72a2,2,0,0,1,2-2h4a2,2,0,0,1,2,2Z"/></svg>