<svg id="44e29f61-66fb-430e-b601-9893b4dea0ac" data-name="Laag 1" xmlns="http://www.w3.org/2000/svg" width="96" height="96" viewBox="0 0 96 96"><defs><style>.\34 ab6ebfd-462e-4564-92b7-e34d221e5db9,.\39 9b2ccd5-b4be-4841-b7d3-494659459b5c{fill:none;}.\39 9b2ccd5-b4be-4841-b7d3-494659459b5c{stroke:#333;stroke-linejoin:round;stroke-width:4px;}.\30 b4f1ab7-f781-4343-942c-04f8ba8ec5e3{fill:#333;}</style></defs><title>calendar_v1</title><rect class="4ab6ebfd-462e-4564-92b7-e34d221e5db9" width="96" height="96"/><rect class="99b2ccd5-b4be-4841-b7d3-494659459b5c" x="10" y="18" width="76" height="60" rx="8" ry="8"/><line class="99b2ccd5-b4be-4841-b7d3-494659459b5c" x1="48" y1="17" x2="48" y2="8"/><line class="99b2ccd5-b4be-4841-b7d3-494659459b5c" x1="22" y1="17" x2="22" y2="8"/><line class="99b2ccd5-b4be-4841-b7d3-494659459b5c" x1="74" y1="17" x2="74" y2="8"/><line class="99b2ccd5-b4be-4841-b7d3-494659459b5c" x1="11" y1="30" x2="85" y2="30"/><circle class="0b4f1ab7-f781-4343-942c-04f8ba8ec5e3" cx="43" cy="44" r="3"/><circle class="0b4f1ab7-f781-4343-942c-04f8ba8ec5e3" cx="53" cy="44" r="3"/><circle class="0b4f1ab7-f781-4343-942c-04f8ba8ec5e3" cx="63" cy="44" r="3"/><circle class="0b4f1ab7-f781-4343-942c-04f8ba8ec5e3" cx="73" cy="44" r="3"/><circle class="0b4f1ab7-f781-4343-942c-04f8ba8ec5e3" cx="23" cy="54" r="3"/><circle class="0b4f1ab7-f781-4343-942c-04f8ba8ec5e3" cx="33" cy="54" r="3"/><circle class="0b4f1ab7-f781-4343-942c-04f8ba8ec5e3" cx="43" cy="54" r="3"/><circle class="0b4f1ab7-f781-4343-942c-04f8ba8ec5e3" cx="53" cy="54" r="3"/><circle class="0b4f1ab7-f781-4343-942c-04f8ba8ec5e3" cx="63" cy="54" r="3"/><circle class="0b4f1ab7-f781-4343-942c-04f8ba8ec5e3" cx="73" cy="54" r="3"/><circle class="0b4f1ab7-f781-4343-942c-04f8ba8ec5e3" cx="23" cy="64" r="3"/><circle class="0b4f1ab7-f781-4343-942c-04f8ba8ec5e3" cx="33" cy="64" r="3"/><circle class="0b4f1ab7-f781-4343-942c-04f8ba8ec5e3" cx="43" cy="64" r="3"/><circle class="0b4f1ab7-f781-4343-942c-04f8ba8ec5e3" cx="53" cy="64" r="3"/></svg>