<svg id="87d482f7-120f-469a-ad40-128643a73b51" data-name="Laag 1" xmlns="http://www.w3.org/2000/svg" width="96" height="96" viewBox="0 0 96 96"><defs><style>.\34 ad274e3-3dff-4477-8cb2-5277a8611aa2{fill:none;}.\30 878b3db-c896-4da5-a974-4d22d4946cfb{fill:#333;}</style></defs><title>chat_v1</title><rect class="4ad274e3-3dff-4477-8cb2-5277a8611aa2" width="96" height="96"/><rect class="0878b3db-c896-4da5-a974-4d22d4946cfb" x="24" y="46" width="48" height="4"/><rect class="0878b3db-c896-4da5-a974-4d22d4946cfb" x="32" y="34" width="32" height="4"/><rect class="0878b3db-c896-4da5-a974-4d22d4946cfb" x="32" y="58" width="32" height="4"/><path class="0878b3db-c896-4da5-a974-4d22d4946cfb" d="M87.5,67.31A44,44,0,1,0,39.69,91.22,45.1,45.1,0,0,0,48,92a43.67,43.67,0,0,0,19.31-4.5l15.43,3.09a6.67,6.67,0,0,0,7.84-7.84ZM85.94,85.94a2.64,2.64,0,0,1-2.41.73l-16.1-3.22a2,2,0,0,0-1.3.18A40,40,0,1,1,48,8a42,42,0,0,1,6.47.5A40,40,0,0,1,83.62,66.12a2,2,0,0,0-.18,1.3l3.22,16.1A2.63,2.63,0,0,1,85.94,85.94Z"/></svg>