<svg id="3343d0e0-dbec-4ddf-8582-103fc412b400" data-name="Laag 1" xmlns="http://www.w3.org/2000/svg" xmlns:xlink="http://www.w3.org/1999/xlink" width="96" height="96" viewBox="0 0 96 96"><defs><style>.\31 421a45b-e455-417f-8f00-45267da54e60{fill:none;}.e6bdb679-1ffc-40ca-b2a6-af2c5a484392{clip-path:url(#3017cf05-7147-445c-84ce-9a12740c4e37);}.c234f50f-674e-47d9-bbd0-f61b1b318497{fill:#333;}.\38 21ff88d-5359-46b1-8ef3-0be5326bdc9e{clip-path:url(#765585e7-0350-4a83-8b6f-9796f00a0128);}</style><clipPath id="3017cf05-7147-445c-84ce-9a12740c4e37"><rect class="1421a45b-e455-417f-8f00-45267da54e60" width="96" height="96"/></clipPath><clipPath id="765585e7-0350-4a83-8b6f-9796f00a0128"><rect class="1421a45b-e455-417f-8f00-45267da54e60" y="1" width="96" height="96"/></clipPath></defs><title>checkbox_v2</title><path class="c234f50f-674e-47d9-bbd0-f61b1b318497" d="M38.14,84.55h-.07c-4,0-7-3.71-8.84-6.48h0L13.07,54.88a2,2,0,0,1-.28-.57L6.64,45.43a6,6,0,0,1,1.49-8.36l3.45-2.41a6,6,0,0,1,8.35,1.49L38.28,62.6,76,7.81a8,8,0,0,1,11.11-2l.17.12a8.07,8.07,0,0,1,2,11.16L78,33.38a1.9,1.9,0,0,1-.21.41c-.24.35-24.26,35.46-30.47,44.24C44.26,82.42,41.25,84.55,38.14,84.55ZM31.05,73.61l0,.07,1.43,2.11c2.16,3.18,4,4.74,5.58,4.75s3.73-1.65,6-4.83c5.84-8.27,27.54-40,30.17-43.81a1.89,1.89,0,0,1,.22-.42L86,14.81a4.06,4.06,0,0,0-1-5.61l-.17-.12a4,4,0,0,0-5.52,1L39.94,67.26a2,2,0,0,1-1.64.87h0a2,2,0,0,1-1.64-.86l-20-28.84a2,2,0,0,0-2.77-.49l-3.45,2.41a2,2,0,0,0-.5,2.8l6.52,9.39a2,2,0,0,1,.27.57L30.6,73l.07.08,0,0Z"/></svg>