<svg id="175b904d-ae4f-428b-ac43-3dfd767c7d00" data-name="Laag 1" xmlns="http://www.w3.org/2000/svg" width="96" height="96" viewBox="0 0 96 96"><defs><style>.e2232838-0d00-477d-8c5d-51b50379ec52{fill:none;}.\31 0e169d2-bfb1-4c47-bc7b-9250855f4485{fill:#333;}</style></defs><title>cloud_v1</title><rect class="e2232838-0d00-477d-8c5d-51b50379ec52" width="96" height="96"/><path class="10e169d2-bfb1-4c47-bc7b-9250855f4485" d="M78,46h-.08Q78,45,78,44A26,26,0,0,0,32.5,26.8a14.07,14.07,0,0,0-2.26,3.61A22,22,0,1,0,26,74H78a14,14,0,0,0,0-28Zm0,24H26A18,18,0,1,1,39,39.58V34.27a22,22,0,0,0-4.88-2.71,9.69,9.69,0,0,1,1.38-2.11A22,22,0,0,1,71,55h4.5a25.67,25.67,0,0,0,1.75-5c.23,0,.47,0,.7,0a10,10,0,0,1,0,20Z"/></svg>