<svg id="3d43d0e5-a6b3-46fc-8551-e135ff3f8046" data-name="Laag 1" xmlns="http://www.w3.org/2000/svg" width="96" height="96" viewBox="0 0 96 96"><defs><style>.\37 c8a6678-d351-4df9-969e-134794c3428a{fill:none;}.df806ca3-c71f-4c01-bb6a-ede100daf346{fill:#333;}</style></defs><title>device_locked_v1</title><rect class="7c8a6678-d351-4df9-969e-134794c3428a" width="96" height="96"/><path class="df806ca3-c71f-4c01-bb6a-ede100daf346" d="M64,4H32A10,10,0,0,0,22,14V82A10,10,0,0,0,32,92H64A10,10,0,0,0,74,82V14A10,10,0,0,0,64,4ZM32,8H64a6,6,0,0,1,6,6V70H26V14A6,6,0,0,1,32,8ZM64,88H32a6,6,0,0,1-6-6V74H70v8A6,6,0,0,1,64,88Z"/><circle class="df806ca3-c71f-4c01-bb6a-ede100daf346" cx="48" cy="81" r="3"/><path class="df806ca3-c71f-4c01-bb6a-ede100daf346" d="M38,55H57.88a4,4,0,0,0,4-4V37.94a4,4,0,0,0-4-4H56.76V30.82a8.82,8.82,0,0,0-17.65,0v3.12H38a4,4,0,0,0-4,4V51A4,4,0,0,0,38,55Zm5.12-24.18a4.82,4.82,0,0,1,9.65,0v3.12H43.12ZM38,37.94H57.88V51H38Z"/></svg>