<svg id="7299964a-250f-4f38-a8cf-4fac66c4ba33" data-name="Laag 1" xmlns="http://www.w3.org/2000/svg" width="96" height="96" viewBox="0 0 96 96"><defs><style>.\39 fe50610-3501-4243-a136-1cb73eb03fa3{fill:none;}.\32 5e4131d-6e26-457f-bea3-0f8931b23b66{fill:#333;}</style></defs><title>devolo_v1</title><rect class="9fe50610-3501-4243-a136-1cb73eb03fa3" width="96" height="96"/><path class="25e4131d-6e26-457f-bea3-0f8931b23b66" d="M60,4H36A10,10,0,0,0,26,14V60A10,10,0,0,0,36,70h4v1.5A5.77,5.77,0,0,0,46,77c0,.09.11,9,10,9,5.65,0,6,5,6,6h4c0-3.46-2.09-10-10-10-5.6,0-6-4.13-6-5a5.77,5.77,0,0,0,6-5.5V70h4A10,10,0,0,0,70,60V14A10,10,0,0,0,60,4ZM52,71.5c0,.8-.93,1.5-2,1.5H46c-1.07,0-2-.7-2-1.5V70h8ZM66,60a6,6,0,0,1-6,6H36a6,6,0,0,1-6-6V14a6,6,0,0,1,6-6H60a6,6,0,0,1,6,6ZM48,12A14,14,0,1,0,62,26,14,14,0,0,0,48,12Zm0,24A10,10,0,1,1,58,26,10,10,0,0,1,48,36ZM46,26a2,2,0,1,1-2-2A2,2,0,0,1,46,26Zm8,0a2,2,0,1,1-2-2A2,2,0,0,1,54,26ZM40,58a2,2,0,1,1-2-2A2,2,0,0,1,40,58Z"/></svg>