<svg id="2ec79435-2c00-4a4e-8583-2856239d1f0f" data-name="Laag 1" xmlns="http://www.w3.org/2000/svg" width="96" height="96" viewBox="0 0 96 96"><defs><style>.\32 8abe6fa-7527-49fa-bd74-e44746e5b9fe{fill:none;}.\37 0b12d84-49c4-4e36-9287-254f721b9847{fill:#333;}</style></defs><title>digitenne_v1</title><rect class="28abe6fa-7527-49fa-bd74-e44746e5b9fe" width="96" height="96"/><path class="70b12d84-49c4-4e36-9287-254f721b9847" d="M70,4V8A18,18,0,0,1,88,26h4A22,22,0,0,0,70,4Z"/><path class="70b12d84-49c4-4e36-9287-254f721b9847" d="M70,12v4A10,10,0,0,1,80,26h4A14,14,0,0,0,70,12Z"/><path class="70b12d84-49c4-4e36-9287-254f721b9847" d="M77,47H74V32A10,10,0,0,0,64,22H14A10,10,0,0,0,4,32V60A10,10,0,0,0,14,70H31.28l-.37,1.66A5.07,5.07,0,0,0,36,78h6a5.07,5.07,0,0,0,5.08-6.34L46.72,70H64a10,10,0,0,0,3-.47A6,6,0,0,0,69.69,74H68v4H82V74H80.31A6,6,0,0,0,83,69V53A6,6,0,0,0,77,47ZM43,73.6a1.25,1.25,0,0,1-1,.4H36a1.09,1.09,0,0,1-1.18-1.47L35.38,70h7.24l.56,2.53A1.25,1.25,0,0,1,43,73.6Zm24-8.41A6,6,0,0,1,64,66H14a6,6,0,0,1-6-6H67Zm3-17.38A6,6,0,0,0,67,53v3H8V32a6,6,0,0,1,6-6H64a6,6,0,0,1,6,6ZM79,69a2,2,0,0,1-2,2H73a2,2,0,0,1-2-2V53a2,2,0,0,1,2-2h4a2,2,0,0,1,2,2Z"/></svg>