<svg id="3fbac6be-a321-4546-accc-be4aa32078c4" data-name="Laag 1" xmlns="http://www.w3.org/2000/svg" width="96" height="96" viewBox="0 0 96 96"><defs><style>.\30 8724d42-708e-4216-8d67-3f7699c36f0e{fill:none;}.\34 5169a31-41ec-417c-b62d-392c4cd38f2d{fill:#333;}</style></defs><title>document_v1</title><rect class="08724d42-708e-4216-8d67-3f7699c36f0e" width="96" height="96"/><path class="45169a31-41ec-417c-b62d-392c4cd38f2d" d="M70,4H26A10,10,0,0,0,16,14V82A10,10,0,0,0,26,92H70A10,10,0,0,0,80,82V14A10,10,0,0,0,70,4Zm6,78a6,6,0,0,1-6,6H26a6,6,0,0,1-6-6V14a6,6,0,0,1,6-6H70a6,6,0,0,1,6,6ZM32,38H42a6,6,0,0,0,6-6V22a6,6,0,0,0-6-6H32a6,6,0,0,0-6,6V32A6,6,0,0,0,32,38ZM30,22a2,2,0,0,1,2-2H42a2,2,0,0,1,2,2V32a2,2,0,0,1-2,2H32a2,2,0,0,1-2-2Zm22-6H70v4H52Zm0,9H70v4H52Zm0,9H70v4H52ZM27,43H70v4H27Zm0,9H70v4H27Zm0,9H52v4H27Z"/></svg>