<svg id="360ff217-efd7-42ae-a63a-e89eb9515729" data-name="Laag 1" xmlns="http://www.w3.org/2000/svg" width="96" height="96" viewBox="0 0 96 96"><defs><style>.c4bb8c50-ef19-4f52-aed7-dd210a6b0870{fill:none;}.\33 d643e36-b52f-4d27-8eec-df9dd882e0a3{fill:#333;}</style></defs><title>dustbin_v1</title><rect class="c4bb8c50-ef19-4f52-aed7-dd210a6b0870" width="96" height="96"/><path class="3d643e36-b52f-4d27-8eec-df9dd882e0a3" d="M86,24H80V22A10,10,0,0,0,70,12H62V10a6,6,0,0,0-6-6H40a6,6,0,0,0-6,6v2H26A10,10,0,0,0,16,22v2H10v4h6V74A18,18,0,0,0,34,92H62A18,18,0,0,0,80,74V28h6ZM38,10a2,2,0,0,1,2-2H56a2,2,0,0,1,2,2v2H38ZM20,22a6,6,0,0,1,6-6H70a6,6,0,0,1,6,6v2H20ZM76,74A14,14,0,0,1,62,88H34A14,14,0,0,1,20,74V28H76Z"/><rect class="3d643e36-b52f-4d27-8eec-df9dd882e0a3" x="32" y="40" width="4" height="30"/><rect class="3d643e36-b52f-4d27-8eec-df9dd882e0a3" x="46" y="40" width="4" height="30"/><rect class="3d643e36-b52f-4d27-8eec-df9dd882e0a3" x="60" y="40" width="4" height="30"/></svg>