<svg id="97f123b5-b54c-4aa2-b0be-777b2a0ebd6c" data-name="Laag 1" xmlns="http://www.w3.org/2000/svg" xmlns:xlink="http://www.w3.org/1999/xlink" width="96" height="96" viewBox="0 0 96 96"><defs><style>.d396c32c-27a7-4244-8937-d2ca8a396663{fill:none;}.\32 06cfb79-5aac-4b69-a52a-8e291f428f46{clip-path:url(#6b022b15-6ad9-4acf-985c-e47401c1c16f);}.a649d301-6875-441b-bd75-3d24d8d28123{fill:#333;}.\38 1ae2c06-1087-4fd0-ab0b-fe0e3a1b46c4{clip-path:url(#0de4e07d-2d55-43f4-998a-a4d45dd469d1);}</style><clipPath id="6b022b15-6ad9-4acf-985c-e47401c1c16f"><rect class="d396c32c-27a7-4244-8937-d2ca8a396663" width="96" height="96"/></clipPath><clipPath id="0de4e07d-2d55-43f4-998a-a4d45dd469d1"><rect class="d396c32c-27a7-4244-8937-d2ca8a396663" y="1" width="96" height="96"/></clipPath></defs><title>edit_v2</title><path class="a649d301-6875-441b-bd75-3d24d8d28123" d="M83.38,9.61a10,10,0,0,0-14.14,0L13.61,65.24c-3.38,3.38-6,15.86-6.55,18.33a2,2,0,0,0,.55,1.81,1.5,1.5,0,0,0,1.31.54c1.09,0,3.24-.46,8.14-1.85,8.37-2.37,10.12-4.11,10.69-4.69l48.6-48.6c.67,1.48.93,3.6-1.27,5.8L57.67,54h5.66L77.91,39.41a8.75,8.75,0,0,0,2.45-9.27,10.85,10.85,0,0,0-1.09-2.29l4.1-4.1A10,10,0,0,0,83.38,9.61ZM20.17,64.34,65.34,19.17l8.49,8.49L28.66,72.83Zm-8.52,17c1.27-5.35,3.24-11.73,4.79-13.29l.9-.9,8.49,8.49-.9.9C23.25,78.23,16.13,80.29,11.65,81.36Zm68.9-60.43-3.9,3.9-8.49-8.49,3.9-3.9a6,6,0,1,1,8.49,8.49ZM30,83H76v4H30Z"/></svg>