<svg id="607fb854-cbdf-47f5-b85a-de9f1295ff8c" data-name="Laag 1" xmlns="http://www.w3.org/2000/svg" width="96" height="96" viewBox="0 0 96 96">
  <title>education_v3</title>
  <rect width="96" height="96" fill="none"/>
  <path d="M90.55,27.08l-42-12a2,2,0,0,0-1.1,0l-42,12a2,2,0,0,0,0,3.85l10.55,3V60A10,10,0,0,0,26,70H70A10,10,0,0,0,80,60V33.94l6-1.71V50h4V31.08l.55-.16a2,2,0,0,0,0-3.85ZM76,60a6,6,0,0,1-6,6H26a6,6,0,0,1-6-6V35.08l27.45,7.84a2,2,0,0,0,1.1,0L76,35.08ZM48,38.92,13.28,29,48,19.08,82.72,29Z" fill="#333"/>
</svg>
