<svg id="69208d70-98f0-421e-9347-55a2983d14c2" data-name="Laag 1" xmlns="http://www.w3.org/2000/svg" xmlns:xlink="http://www.w3.org/1999/xlink" width="96" height="96" viewBox="0 0 96 96"><defs><style>.a68a4870-40e2-4dc6-8c68-4f5e3c52a5fd{fill:none;}.\34 be888ba-654e-45c5-905c-9cf2addf1b4b{fill:#333;}.dbf34849-589e-4c77-8fc0-831be3167244{clip-path:url(#72c616e1-f6bd-48ad-b7af-e91b3429515a);}.\31 b3ab940-924c-48a3-b1ec-598e3ae913e2{clip-path:url(#e27f56ea-8f57-4f84-9e25-b7b2c967911c);}</style><clipPath id="72c616e1-f6bd-48ad-b7af-e91b3429515a"><rect class="a68a4870-40e2-4dc6-8c68-4f5e3c52a5fd" width="96" height="96"/></clipPath><clipPath id="e27f56ea-8f57-4f84-9e25-b7b2c967911c"><rect class="a68a4870-40e2-4dc6-8c68-4f5e3c52a5fd" y="1" width="96" height="96"/></clipPath></defs><title>email_v2</title><path class="4be888ba-654e-45c5-905c-9cf2addf1b4b" d="M79.22,15.36C71.43,8,60.52,4,48.5,4a43.5,43.5,0,0,0,0,87h0a53,53,0,0,0,18-3.71V82.94A50.28,50.28,0,0,1,48.5,87h0a39.5,39.5,0,0,1,0-79C72.13,8,88,23.87,88,47.5,88,51.13,87,54,85,56c-3.42,3.38-8.72,3.35-8.79,3.36a15.42,15.42,0,0,1-6-1.52c-3.86-1.93-5.81-5.4-5.81-10.32V34h-4v3a15.83,15.83,0,1,0,1.82,18.46,14,14,0,0,0,6.2,5.92,19.25,19.25,0,0,0,7.77,1.94h0c.28,0,7,.07,11.61-4.49C90.57,56.07,92,52.25,92,47.5,92,34.34,87.58,23.22,79.22,15.36Zm-30.72,44A11.83,11.83,0,1,1,60.33,47.5,11.85,11.85,0,0,1,48.5,59.33Z"/></svg>