<svg id="9e1496f0-dd8b-4087-b4e9-9f219b5db529" data-name="Laag 1" xmlns="http://www.w3.org/2000/svg" width="96" height="96" viewBox="0 0 96 96"><defs><style>.\31 098dd43-0962-42c7-b4d9-6425fd83643e{fill:none;}.\38 d72345e-285f-463a-81ff-27100573237b{fill:#333;}</style></defs><title>envelop_v1</title><rect class="1098dd43-0962-42c7-b4d9-6425fd83643e" width="96" height="96"/><path class="8d72345e-285f-463a-81ff-27100573237b" d="M82,16H14A10,10,0,0,0,4,26V70A10,10,0,0,0,14,80H82A10,10,0,0,0,92,70V26A10,10,0,0,0,82,16Zm0,4a6,6,0,0,1,3.19.93L57.9,48.21a14,14,0,0,1-19.8,0L10.81,20.93A6,6,0,0,1,14,20Zm6,50a6,6,0,0,1-6,6H14a6,6,0,0,1-6-6V26a6,6,0,0,1,.32-1.91l27,27a18,18,0,0,0,25.46,0l27-27A6,6,0,0,1,88,26Z"/></svg>