<svg id="10fb175c-ff68-4d97-b2a1-089250e3a5cf" data-name="Laag 1" xmlns="http://www.w3.org/2000/svg" width="96" height="96" viewBox="0 0 96 96"><defs><style>.\30 38769fb-5f85-4ffc-a648-c78006329cc0{fill:none;}.\31 533f8da-dffc-4f51-8d7c-d0c383f3adbe{fill:#333;}</style></defs><title>ethernet_v1</title><rect class="038769fb-5f85-4ffc-a648-c78006329cc0" width="96" height="96"/><path class="1533f8da-dffc-4f51-8d7c-d0c383f3adbe" d="M90,39H77.71A7,7,0,0,0,71,34H49.89C44.61,34,28,38.39,28,46v3H26c-.33,0-8-.09-8-8,0-9.49-7.85-12-12-12H4v4H6c.33,0,8,.09,8,8,0,9.49,7.85,12,12,12h2v3c0,7.61,16.61,12,21.89,12H71a7,7,0,0,0,6.68-5H90a2,2,0,0,0,2-2V41A2,2,0,0,0,90,39ZM71,64H58V56H54v8H50V56H46v7.52a39,39,0,0,1-4-1.07V56H38v4.92c-3.38-1.51-6-3.34-6-4.92V46c0-1.59,2.62-3.42,6-4.92V46h4V39.55a39,39,0,0,1,4-1.07V46h4V38h4v8h4V38H71a3,3,0,0,1,3,3v1.89a8.24,8.24,0,0,0,0,16.21V61A3,3,0,0,1,71,64Zm3-17V55A4.23,4.23,0,0,1,74,47ZM88,59H78V43H88Z"/></svg>