<svg id="44cd0a8f-4b86-4b41-827a-b98980aaa386" data-name="Laag 1" xmlns="http://www.w3.org/2000/svg" width="96" height="96" viewBox="0 0 96 96"><defs><style>.d9cf6e2e-5e20-4b20-a572-7ef4544724d2{fill:none;}.f46ff323-5320-43a3-86d3-0606e07aa3bd{fill:#333;}</style></defs><title>euro_v1</title><rect class="d9cf6e2e-5e20-4b20-a572-7ef4544724d2" width="96" height="96"/><path class="f46ff323-5320-43a3-86d3-0606e07aa3bd" d="M77.32,74c-2.61-1.95-6.19-1.61-7.89-1.1A26,26,0,0,1,44.33,67H60a8,8,0,0,0,0-16H36.24a25.67,25.67,0,0,1-.18-3c0-.33,0-.66,0-1H60a7.78,7.78,0,0,0,8-8,7.78,7.78,0,0,0-8-8H42.41a26,26,0,0,1,27-7.93c1.7.51,5.28.84,7.89-1.1A7,7,0,0,0,80,16c0-7.32-7-8.65-9.24-9.09l-.36-.07A42,42,0,0,0,23.66,31H16a7.78,7.78,0,0,0-8,8,7.78,7.78,0,0,0,8,8h4.07c0,.34,0,.67,0,1,0,1,0,2,.11,3H16a8,8,0,0,0,0,16h8.61A42,42,0,0,0,70.4,89.17l.36-.07C73,88.65,80,87.32,80,80A7,7,0,0,0,77.32,74ZM70,85.17l-.4.08a38,38,0,0,1-41.93-21.1A2,2,0,0,0,25.86,63H16a4,4,0,1,1,0-8h6.38a2,2,0,0,0,2-2.25A37.82,37.82,0,0,1,24.06,48c0-.86,0-1.76.12-2.85a2,2,0,0,0-2-2.15H16a3.77,3.77,0,0,1-4-4,3.77,3.77,0,0,1,4-4h9a2,2,0,0,0,1.85-1.25,38,38,0,0,1,42.76-23l.4.08c3.6.69,6,1.84,6,5.17,0,2-.81,2.56-1.07,2.76a5.61,5.61,0,0,1-4.36.48A30,30,0,0,0,36.75,31.92,2,2,0,0,0,38.43,35H60a3.77,3.77,0,0,1,4,4,3.77,3.77,0,0,1-4,4H34.22a2,2,0,0,0-2,1.79,29.68,29.68,0,0,0,.31,8.57,2,2,0,0,0,2,1.64H60a4,4,0,1,1,0,8H39.83a2,2,0,0,0-1.59,3.22A30,30,0,0,0,70.57,76.77a5.61,5.61,0,0,1,4.36.48c.26.2,1.07.8,1.07,2.76C76,83.33,73.6,84.47,70,85.17Z"/></svg>