<svg id="fb942323-8cb5-426f-9a56-7c8bc2cfa8e8" data-name="Laag 1" xmlns="http://www.w3.org/2000/svg" width="96" height="96" viewBox="0 0 96 96"><defs><style>.e26c9a2b-eb05-407c-a1bd-10e42045c97d{fill:none;}.\38 497532e-9ead-4608-a39a-aeb7ee17e45d{fill:#333;}</style></defs><title>experiabox_v1</title><rect class="e26c9a2b-eb05-407c-a1bd-10e42045c97d" width="96" height="96"/><path class="8497532e-9ead-4608-a39a-aeb7ee17e45d" d="M82,16H14A10,10,0,0,0,4,26V70A10,10,0,0,0,14,80H32v4H64V80H82A10,10,0,0,0,92,70V26A10,10,0,0,0,82,16Zm6,54a6,6,0,0,1-6,6H14a6,6,0,0,1-6-6V26a6,6,0,0,1,6-6H82a6,6,0,0,1,6,6ZM18,56a2,2,0,1,1-2-2A2,2,0,0,1,18,56ZM82,28a2,2,0,1,1-2-2A2,2,0,0,1,82,28ZM18,62a2,2,0,1,1-2-2A2,2,0,0,1,18,62Zm0,6a2,2,0,1,1-2-2A2,2,0,0,1,18,68Z"/></svg>