<svg id="96cf15a9-ea8e-4305-8469-ea9ede381c21" data-name="Laag 1" xmlns="http://www.w3.org/2000/svg" width="96" height="96" viewBox="0 0 96 96"><defs><style>.\35 bbbd8fc-5548-47c1-824c-b8c35714181f{fill:none;}.\30 63e89f7-32d1-48af-9c6f-d5f466ecd388{fill:#333;}</style></defs><title>fixed_phone_v1</title><rect class="5bbbd8fc-5548-47c1-824c-b8c35714181f" width="96" height="96"/><path class="063e89f7-32d1-48af-9c6f-d5f466ecd388" d="M66.91,56H66V20A10,10,0,0,0,56,10V4H52v6H40A10,10,0,0,0,30,20V56H29A12,12,0,0,0,17,67.85V80.15A12,12,0,0,0,29.09,92H66.91A12,12,0,0,0,79,80.15V67.85A12,12,0,0,0,66.91,56ZM34,20a6,6,0,0,1,6-6H56a6,6,0,0,1,6,6V72a6,6,0,0,1-6,6H40a6,6,0,0,1-6-6ZM75,80.15A8,8,0,0,1,66.91,88H29.09A8,8,0,0,1,21,80.15V67.85A8,8,0,0,1,29.09,60H30V72A10,10,0,0,0,40,82H56A10,10,0,0,0,66,72V60h.91A8,8,0,0,1,75,67.85Z"/><path class="063e89f7-32d1-48af-9c6f-d5f466ecd388" d="M44,40h8a6,6,0,0,0,6-6V26a6,6,0,0,0-6-6H44a6,6,0,0,0-6,6v8A6,6,0,0,0,44,40ZM42,26a2,2,0,0,1,2-2h8a2,2,0,0,1,2,2v8a2,2,0,0,1-2,2H44a2,2,0,0,1-2-2Z"/><circle class="063e89f7-32d1-48af-9c6f-d5f466ecd388" cx="40.48" cy="46.62" r="2.51"/><circle class="063e89f7-32d1-48af-9c6f-d5f466ecd388" cx="48" cy="46.62" r="2.51"/><circle class="063e89f7-32d1-48af-9c6f-d5f466ecd388" cx="55.52" cy="46.62" r="2.51"/><circle class="063e89f7-32d1-48af-9c6f-d5f466ecd388" cx="40.48" cy="54.14" r="2.51"/><circle class="063e89f7-32d1-48af-9c6f-d5f466ecd388" cx="48" cy="54.14" r="2.51"/><circle class="063e89f7-32d1-48af-9c6f-d5f466ecd388" cx="55.52" cy="54.14" r="2.51"/><circle class="063e89f7-32d1-48af-9c6f-d5f466ecd388" cx="40.48" cy="61.66" r="2.51"/><circle class="063e89f7-32d1-48af-9c6f-d5f466ecd388" cx="48" cy="61.66" r="2.51"/><circle class="063e89f7-32d1-48af-9c6f-d5f466ecd388" cx="55.52" cy="61.66" r="2.51"/></svg>