<svg id="eaf16c62-e4fd-4022-a738-567fa849b9a9" data-name="Laag 1" xmlns="http://www.w3.org/2000/svg" width="96" height="96" viewBox="0 0 96 96">
  <title>food_v3</title>
  <rect width="96" height="96" fill="none"/>
  <path d="M48,22A26,26,0,1,0,74,48,26,26,0,0,0,48,22Zm0,48A22,22,0,1,1,70,48,22,22,0,0,1,48,70ZM88,22c-.1,0-10,.14-10,12V52a2,2,0,0,0,2,2h6V74h4V24A2,2,0,0,0,88,22ZM86,50H82V34c0-4.94,2.24-6.83,4-7.56ZM16,41.79V74H12V41.79A7.83,7.83,0,0,1,6,34V22h4V34a4,4,0,0,0,2,3.58V22h4V37.58A4,4,0,0,0,18,34V22h4V34A7.83,7.83,0,0,1,16,41.79Z" fill="#333"/>
</svg>
