<svg id="15e3644d-d4ff-4bdb-b4da-19b1d377f80d" data-name="Laag 1" xmlns="http://www.w3.org/2000/svg" width="96" height="96" viewBox="0 0 96 96"><defs><style>.a8c421ca-9ef3-4eb7-9c73-38462e694284{fill:none;}.ee1a6268-e235-46b1-b6bf-fd7b1316ea61{fill:#333;}</style></defs><title>forum_v1</title><rect class="a8c421ca-9ef3-4eb7-9c73-38462e694284" width="96" height="96"/><path class="ee1a6268-e235-46b1-b6bf-fd7b1316ea61" d="M88.81,70.87A32,32,0,0,0,65.14,25.4c-.39-.06-.79-.1-1.18-.15l.35-.19A32,32,0,0,0,7.19,53.87L5,64.71A5.33,5.33,0,0,0,11.29,71l10.83-2.17a31.8,31.8,0,0,0,9.45,2.88A32.29,32.29,0,0,0,54,88.43,32.77,32.77,0,0,0,60,89a31.76,31.76,0,0,0,13.87-3.19L84.7,88A5.33,5.33,0,0,0,91,81.7Zm-65.5-5.93a2,2,0,0,0-1.3-.18l-11.5,2.3a1.33,1.33,0,0,1-1.57-1.57L11.24,54a2,2,0,0,0-.18-1.3A28,28,0,0,1,59.65,25,32,32,0,0,0,28.4,62.15a30.37,30.37,0,0,0,1.28,5.12A28.07,28.07,0,0,1,23.31,64.94Zm61.44,6,2.3,11.5a1.33,1.33,0,0,1-1.57,1.57L74,81.76a2,2,0,0,0-1.3.18A28,28,0,1,1,60,29a29.3,29.3,0,0,1,4.53.35A28,28,0,0,1,84.94,69.69,2,2,0,0,0,84.76,71Z"/><rect class="ee1a6268-e235-46b1-b6bf-fd7b1316ea61" x="42.86" y="55" width="34.29" height="4"/><rect class="ee1a6268-e235-46b1-b6bf-fd7b1316ea61" x="48.57" y="46.43" width="22.86" height="4"/><rect class="ee1a6268-e235-46b1-b6bf-fd7b1316ea61" x="48.57" y="63.57" width="22.86" height="4"/></svg>