<svg id="140818ce-a77d-4400-8d8c-89296d8d1ce4" data-name="Laag 1" xmlns="http://www.w3.org/2000/svg" width="96" height="96" viewBox="0 0 96 96"><defs><style>.\38 794df30-d70a-4e84-b28c-673f10af8441{fill:none;}.eab301f5-096d-4ab5-98cc-19226a517624{fill:#333;}</style></defs><title>gaming_v1</title><rect class="8794df30-d70a-4e84-b28c-673f10af8441" width="96" height="96"/><circle class="eab301f5-096d-4ab5-98cc-19226a517624" cx="71" cy="63" r="3"/><circle class="eab301f5-096d-4ab5-98cc-19226a517624" cx="71" cy="47" r="3"/><circle class="eab301f5-096d-4ab5-98cc-19226a517624" cx="79" cy="55" r="3"/><circle class="eab301f5-096d-4ab5-98cc-19226a517624" cx="63" cy="55" r="3"/><polygon class="eab301f5-096d-4ab5-98cc-19226a517624" points="26 45 22 45 22 53 14 53 14 57 22 57 22 65 26 65 26 57 34 57 34 53 26 53 26 45"/><path class="eab301f5-096d-4ab5-98cc-19226a517624" d="M82,32H56V30.5A5.77,5.77,0,0,0,50,25c0-.51.17-5,6-5,7.91,0,10-6.54,10-10H62c0,1-.35,6-6,6-9.89,0-10,8.91-10,9a5.77,5.77,0,0,0-6,5.5V32H14C6.09,32,4,38.54,4,42V58a20,20,0,0,0,39.9,2h8.2A20,20,0,0,0,92,58V42C92,38.54,89.91,32,82,32ZM44,30.5c0-.8.93-1.5,2-1.5h4c1.07,0,2,.7,2,1.5V32H44ZM88,58a16,16,0,0,1-32,0,2,2,0,0,0-2-2H42a2,2,0,0,0-2,2A16,16,0,0,1,8,58V42c0-.61.17-6,6-6H82c5.65,0,6,5,6,6Z"/></svg>