<svg id="4b81cd81-7df0-4389-982a-be8cf5a6c90f" data-name="Laag 1" xmlns="http://www.w3.org/2000/svg" width="96" height="96" viewBox="0 0 96 96"><defs><style>.\31 bfa262f-339c-48a5-a667-6afbbe29eb84{fill:none;}.\30 dcb86d0-9377-427f-964a-f9184006cc9a{fill:#333;}</style></defs><title>giftbox_v1</title><rect class="1bfa262f-339c-48a5-a667-6afbbe29eb84" width="96" height="96"/><path class="0dcb86d0-9377-427f-964a-f9184006cc9a" d="M74,34H69.78A14,14,0,1,0,49,15.35,17,17,0,1,0,22.07,34H22A10,10,0,0,0,12,44v4a5.64,5.64,0,0,0,4,5.66V82A10,10,0,0,0,26,92H70A10,10,0,0,0,80,82V53.66A5.64,5.64,0,0,0,84,48V44A10,10,0,0,0,74,34ZM60,14a10,10,0,0,1,0,20H55.44A4,4,0,0,0,52,32H50V24A10,10,0,0,1,60,14ZM20,21a13,13,0,0,1,26,0V32H44a4,4,0,0,0-3.44,2H33A13,13,0,0,1,20,21ZM16,44a6,6,0,0,1,6-6H40V50H18a1.84,1.84,0,0,1-2-2V44ZM26,88a6,6,0,0,1-6-6V54H40V88Zm18,0V36h8V88Zm26,0H56V54H76V82A6,6,0,0,1,70,88ZM80,48a1.83,1.83,0,0,1-2,2H56V38H74a6,6,0,0,1,6,6v4Z"/></svg>