<svg id="635c754d-72aa-4c9e-885d-11bc5e25f642" data-name="Laag 1" xmlns="http://www.w3.org/2000/svg" width="96" height="96" viewBox="0 0 96 96"><defs><style>.\36 97683be-a6aa-490e-9b8e-77a3ae88351e{fill:none;}.a7cdf1a9-8d99-4e3f-a441-f5fed3c74b64{fill:#333;}</style></defs><title>globe_v1</title><rect class="697683be-a6aa-490e-9b8e-77a3ae88351e" width="96" height="96"/><path class="a7cdf1a9-8d99-4e3f-a441-f5fed3c74b64" d="M19.16,24.21a2,2,0,0,0-.15.62c-.26.69-.49,1.4-.7,2.11A2,2,0,0,0,18,28,32,32,0,0,0,46.36,67.88,2,2,0,0,0,47,68a2,2,0,0,0,.32,0q.84,0,1.68,0A32,32,0,0,0,76.89,20.33a2,2,0,0,0-.34-.59A32,32,0,0,0,51.68,4.12,1.93,1.93,0,0,0,50.83,4l-.19,0Q49.83,4,49,4A32,32,0,0,0,19.75,23.05,10.42,10.42,0,0,0,19.16,24.21ZM73.77,23a27.94,27.94,0,0,1-8.37,35.7c1-3.53,1.26-6.13-.46-13.15-.89-3.61-3.59-14.59.58-19.6C67.19,23.92,70,22.93,73.77,23ZM49,8h0a16.67,16.67,0,0,1-.56,3.59c-.93,3.33-2.79,5.11-5.67,5.43-2.15.24-4.4.3-6.59.36a50.71,50.71,0,0,0-8.71.74A28,28,0,0,1,49,8ZM23.25,25c1.91-3.08,6.3-3.44,13.05-3.63,2.26-.06,4.6-.13,6.92-.38,7.34-.82,9.54-7.69,9.8-12.69A28,28,0,0,1,71.29,19.07a12.68,12.68,0,0,0-8.84,4.29c-4.89,5.88-3.14,16-1.39,23.11s1.3,8.6-.06,12.92c-.21.66-.44,1.39-.68,2.2A27.83,27.83,0,0,1,49,64c-.55,0-1.1,0-1.65-.05-2.25-1.13-6.94-4-7.94-7.14A3.31,3.31,0,0,1,39.74,54a42.37,42.37,0,0,1,3.67-5.1c3.8-4.79,8.11-10.21,3.23-17.05-4.3-6-10.59-3.27-14.75-1.44-1.8.79-3.65,1.6-4.88,1.6-2.68,0-4.25-2.72-4.83-4A27.78,27.78,0,0,1,23.25,25Zm-2.13,8.45A8.14,8.14,0,0,0,27,36c2.06,0,4.21-.94,6.48-1.94,5.08-2.23,7.71-2.94,9.89.1,3,4.18.88,7.22-3.1,12.24a45.36,45.36,0,0,0-4,5.61,7.34,7.34,0,0,0-.66,6,10.79,10.79,0,0,0,2.07,3.57A28,28,0,0,1,21,36C21,35.14,21,34.29,21.12,33.45Z"/><path class="a7cdf1a9-8d99-4e3f-a441-f5fed3c74b64" d="M79,68H72.69A40,40,0,0,1,14.07,16.5,40.14,40.14,0,0,1,20.45,8l.27-.28-.08-.08L20.29,8H15a43.66,43.66,0,0,0-4.28,6.37q-.44.8-.85,1.62A44,44,0,0,0,47.17,80v8H31.88v4H66.46V88H51.17V79.95A43.65,43.65,0,0,0,79.18,68c.31-.29.63-.58.93-.89L80,67Q79.5,67.52,79,68Z"/></svg>