<svg id="9c8ff11e-828d-48f3-9af7-e486a0f927a0" data-name="Laag 1" xmlns="http://www.w3.org/2000/svg" width="96" height="96" viewBox="0 0 96 96"><defs><style>.ffc97e57-b59c-45ea-9572-b4b27ce3be6c{fill:none;}.\39 0618a61-cfa3-46c6-b47a-76f0fa5a2984{fill:#333;}</style></defs><title>graph_v1</title><rect class="ffc97e57-b59c-45ea-9572-b4b27ce3be6c" width="96" height="96"/><path class="90618a61-cfa3-46c6-b47a-76f0fa5a2984" d="M8,70V8H4V70A18,18,0,0,0,22,88H92V84H22A14,14,0,0,1,8,70Z"/><path class="90618a61-cfa3-46c6-b47a-76f0fa5a2984" d="M22,70a8,8,0,0,0,6-13.22L38.82,46a8,8,0,0,0,9.71-1.59l6.83,3c0,.18,0,.36,0,.54a8,8,0,1,0,14.76-4.26L80.6,33.23a8,8,0,1,0-3.09-2.57L67.18,41a8,8,0,0,0-10.55,2.66l-6.2-2.75a8,8,0,1,0-14.52,2.37L24.69,54.48A8,8,0,1,0,22,70ZM84,22a4,4,0,1,1-4,4A4,4,0,0,1,84,22ZM63.33,44a4,4,0,1,1-4,4A4,4,0,0,1,63.33,44ZM42.67,35a4,4,0,1,1-4,4A4,4,0,0,1,42.67,35ZM22,58a4,4,0,1,1-4,4A4,4,0,0,1,22,58Z"/></svg>