<svg id="c0b933aa-c9e5-4076-a1cf-97f70b21c28a" data-name="Laag 1" xmlns="http://www.w3.org/2000/svg" width="96" height="96" viewBox="0 0 96 96"><defs><style>.\36 d9b602a-e537-470c-a0fd-e4d32f8f0539{fill:none;}.\38 f85226e-3308-4770-aa72-f00a56383185{fill:#333;}</style></defs><title>hd_quality_v1</title><rect class="6d9b602a-e537-470c-a0fd-e4d32f8f0539" width="96" height="96"/><path class="8f85226e-3308-4770-aa72-f00a56383185" d="M38,22a7.78,7.78,0,0,0-8,8V41H20V30a7.78,7.78,0,0,0-8-8,7.78,7.78,0,0,0-8,8V66a7.78,7.78,0,0,0,8,8,7.78,7.78,0,0,0,8-8V54H30V66a7.78,7.78,0,0,0,8,8,7.78,7.78,0,0,0,8-8V30A7.78,7.78,0,0,0,38,22Zm4,44a3.77,3.77,0,0,1-4,4,3.77,3.77,0,0,1-4-4V52a2,2,0,0,0-2-2H18a2,2,0,0,0-2,2V66a3.77,3.77,0,0,1-4,4,3.77,3.77,0,0,1-4-4V30a3.77,3.77,0,0,1,4-4,3.77,3.77,0,0,1,4,4V43a2,2,0,0,0,2,2H32a2,2,0,0,0,2-2V30a3.77,3.77,0,0,1,4-4,3.77,3.77,0,0,1,4,4Z"/><path class="8f85226e-3308-4770-aa72-f00a56383185" d="M70,22H58a7.78,7.78,0,0,0-8,8V66a7.78,7.78,0,0,0,8,8H70c.22,0,22-.25,22-22V44C92,43.78,91.75,22,70,22ZM88,52c0,17.72-17.27,18-18,18H58a3.77,3.77,0,0,1-4-4V30a3.77,3.77,0,0,1,4-4H70c17.72,0,18,17.27,18,18Z"/><path class="8f85226e-3308-4770-aa72-f00a56383185" d="M68,34H64a2,2,0,0,0-2,2V59a2,2,0,0,0,2,2h4c11.86,0,12-9.9,12-10V44C80,43.9,79.86,34,68,34Zm8,17c0,.25-.09,6-8,6H66V38h2c7.67,0,8,5.4,8,6Z"/></svg>