<svg id="8216c266-2726-49e5-ac84-8610a3eee3c4" data-name="Laag 1" xmlns="http://www.w3.org/2000/svg" width="96" height="96" viewBox="0 0 96 96">
  <title>health_v3</title>
  <rect width="96" height="96" fill="none"/>
  <path d="M85.26,18.74a23.17,23.17,0,0,0-16.32-6.81h-.17a22.71,22.71,0,0,0-16.19,6.66L48,23.17l-4.59-4.59a22.74,22.74,0,0,0-16.35-6.66,23.17,23.17,0,0,0-16.32,6.81,23,23,0,0,0,0,32.53l29.5,29.52a11,11,0,0,0,15.52,0h0l29.5-29.52a23,23,0,0,0,0-32.53Zm-2.83,29.7L52.93,78a7,7,0,0,1-9.87,0L15.13,50H29a2,2,0,0,0,1.9-1.37L34.46,38,39,62.37A2,2,0,0,0,40.78,64H41a2,2,0,0,0,1.84-1.21L48.32,50H62V46H47a2,2,0,0,0-1.84,1.21l-3.41,8L37,29.63a2,2,0,0,0-3.86-.26L27.56,46h-16a19,19,0,0,1,2-24.44,19.2,19.2,0,0,1,13.52-5.64h.14a18.74,18.74,0,0,1,13.36,5.49l6,6a2,2,0,0,0,2.83,0l6-6a18.74,18.74,0,0,1,13.36-5.49h.14a19.2,19.2,0,0,1,13.52,5.64,19,19,0,0,1,0,26.87Z" fill="#333"/>
</svg>
