<svg id="d07b8cfe-aa15-4290-9f24-9dc917162671" data-name="Laag 1" xmlns="http://www.w3.org/2000/svg" width="96" height="96" viewBox="0 0 96 96"><defs><style>.ec99cffb-808c-4245-a8d2-569b1bf3af01{fill:none;}.a5451877-6732-4d54-95e9-e373efaa7c07{fill:#333;}</style></defs><title>heart_v1</title><rect class="ec99cffb-808c-4245-a8d2-569b1bf3af01" width="96" height="96"/><path class="a5451877-6732-4d54-95e9-e373efaa7c07" d="M85.26,18.74a23.13,23.13,0,0,0-32.68-.15L48,23.17l-4.59-4.59A23.11,23.11,0,0,0,10.74,51.26l29.5,29.52a11,11,0,0,0,15.53,0l29.5-29.52A23,23,0,0,0,85.26,18.74Zm-2.83,29.7L52.93,78a7,7,0,0,1-9.87,0L13.56,48.44a19,19,0,0,1,0-26.87A19.26,19.26,0,0,1,27.21,15.9a18.83,18.83,0,0,1,13.37,5.51l6,6a2,2,0,0,0,2.83,0l6-6a19.11,19.11,0,0,1,27,27Z"/></svg>