<svg id="aa16a557-da22-4525-bfe8-169b388f26a9" data-name="Laag 1" xmlns="http://www.w3.org/2000/svg" width="96" height="96" viewBox="0 0 96 96"><defs><style>.a34d27b6-6685-4866-8f91-b92c610c3b7d{fill:none;}.\38 52ad363-bae9-4967-a3e8-a3b8a538f4f8{fill:#333;}</style></defs><title>home_v1</title><rect class="a34d27b6-6685-4866-8f91-b92c610c3b7d" width="96" height="96"/><path class="852ad363-bae9-4967-a3e8-a3b8a538f4f8" d="M40.25,9.66,8,41.26v5.6L16,39V78A10,10,0,0,0,26,88H70A10,10,0,0,0,80,78V39l8,7.84v-5.6L55.76,9.67A11,11,0,0,0,40.25,9.66ZM56,84H40V61a2,2,0,0,1,2-2H54a2,2,0,0,1,2,2Zm20-6a6,6,0,0,1-6,6H60V61a6,6,0,0,0-6-6H42a6,6,0,0,0-6,6V84H26a6,6,0,0,1-6-6V35.1L43.07,12.5a7,7,0,0,1,9.88,0L76,35.1Z"/></svg>