<svg id="3cb4c413-0fb2-4b2e-a800-b45f04c0d26e" data-name="Laag 1" xmlns="http://www.w3.org/2000/svg" width="96" height="96" viewBox="0 0 96 96"><defs><style>.\35 c1afea4-8db3-4b36-9c31-62d84dcf1f88{fill:none;}.\30 6335e32-d4ed-477e-b05c-43cbe3941d47{fill:#333;}</style></defs><title>info_v1</title><rect class="5c1afea4-8db3-4b36-9c31-62d84dcf1f88" width="96" height="96"/><path class="06335e32-d4ed-477e-b05c-43cbe3941d47" d="M48,4A44,44,0,1,0,92,48,44,44,0,0,0,48,4Zm0,84A40,40,0,1,1,88,48,40,40,0,0,1,48,88Z"/><path class="06335e32-d4ed-477e-b05c-43cbe3941d47" d="M48,22a8,8,0,1,0,8,8A8,8,0,0,0,48,22Zm0,12a4,4,0,1,1,4-4A4,4,0,0,1,48,34Z"/><path class="06335e32-d4ed-477e-b05c-43cbe3941d47" d="M50,40H46a6,6,0,0,0-6,6V68a6,6,0,0,0,6,6h4a6,6,0,0,0,6-6V46A6,6,0,0,0,50,40Zm2,28a2,2,0,0,1-2,2H46a2,2,0,0,1-2-2V46a2,2,0,0,1,2-2h4a2,2,0,0,1,2,2Z"/></svg>