<svg id="576a3496-89ff-4aae-a95e-85ef6185a294" data-name="Laag 1" xmlns="http://www.w3.org/2000/svg" width="96" height="96" viewBox="0 0 96 96"><defs><style>.\32 9a1ebc0-02bc-41ac-93a7-41297e6e24c5{fill:none;}.b86d1075-601a-4560-997d-1d80fac2965c{fill:#333;}</style></defs><title>internet_v1</title><rect class="29a1ebc0-02bc-41ac-93a7-41297e6e24c5" width="96" height="96"/><path class="b86d1075-601a-4560-997d-1d80fac2965c" d="M48,4A44,44,0,1,0,92,48,44,44,0,0,0,48,4ZM87.95,46H72c-.36-15.61-5-28.86-11.81-36.1A40.08,40.08,0,0,1,87.95,46ZM46,8.21V46H28C28.53,26.54,36.38,10.22,46,8.21ZM46,50V87.79c-9.62-2-17.47-18.33-18-37.79Zm4,37.79V50H68C67.47,69.46,59.62,85.78,50,87.79ZM50,46V8.21c9.62,2,17.47,18.33,18,37.79ZM35.84,9.9C29,17.14,24.39,30.39,24,46h-16A40.08,40.08,0,0,1,35.84,9.9ZM8.05,50H24c.36,15.61,5,28.86,11.81,36.1A40.08,40.08,0,0,1,8.05,50ZM60.16,86.1C67,78.86,71.61,65.61,72,50h16A40.08,40.08,0,0,1,60.16,86.1Z"/></svg>