<svg id="50ef7add-1209-455a-a74b-d0a687054a88" data-name="Laag 1" xmlns="http://www.w3.org/2000/svg" width="96" height="96" viewBox="0 0 96 96"><defs><style>.b81d22ad-35b6-4ae1-872e-3a95c6e52795{fill:none;}.d0b93af5-52e8-4f95-8225-da24c73067ff{fill:#333;}</style></defs><title>key_v2</title><rect class="b81d22ad-35b6-4ae1-872e-3a95c6e52795" width="96" height="96"/><path class="d0b93af5-52e8-4f95-8225-da24c73067ff" d="M18,40a8,8,0,1,0,8,8A8,8,0,0,0,18,40Zm0,12a4,4,0,1,1,4-4A4,4,0,0,1,18,52Zm76.47-3.35-11-12A2,2,0,0,0,82,36H42.44A22,22,0,1,0,24,70a21.82,21.82,0,0,0,15.1-6H42a2,2,0,0,0,1.41-.59L48,58.83l4.59,4.59a2,2,0,0,0,2.83,0L60,58.83l4.59,4.59a2,2,0,0,0,2.83,0L72,58.83l4.59,4.59A2,2,0,0,0,78,64h4a2,2,0,0,0,1.47-.65l11-12A2,2,0,0,0,94.47,48.65ZM81.12,60H78.83l-5.41-5.41a2,2,0,0,0-2.83,0L66,59.17l-4.59-4.59a2,2,0,0,0-2.83,0L54,59.17l-4.59-4.59a2.06,2.06,0,0,0-2.83,0L41.17,60H38.28a2,2,0,0,0-1.43.6A18,18,0,1,1,24,30a18.07,18.07,0,0,1,15.59,9,2,2,0,0,0,1.73,1h39.8l3.67,4H48v4H88.45l1.83,2Z"/></svg>