<svg id="e32def72-f76b-45c7-80e7-f100b8c97feb" data-name="Laag 1" xmlns="http://www.w3.org/2000/svg" width="96" height="96" viewBox="0 0 96 96"><defs><style>.\33 77aeb61-e84d-4a20-9833-7e52e362f8d6{fill:none;}.\38 d506a20-903e-4b1f-a080-55a754159399{fill:#333;}</style></defs><title>laptop_v1</title><rect class="377aeb61-e84d-4a20-9833-7e52e362f8d6" width="96" height="96"/><circle class="8d506a20-903e-4b1f-a080-55a754159399" cx="48" cy="26" r="2"/><path class="8d506a20-903e-4b1f-a080-55a754159399" d="M86,64V28A10,10,0,0,0,76,18H20A10,10,0,0,0,10,28V64a6,6,0,0,0-6,6A10,10,0,0,0,14,80H82A10,10,0,0,0,92,70,6,6,0,0,0,86,64ZM14,28a6,6,0,0,1,6-6H76a6,6,0,0,1,6,6V64H58a2,2,0,0,0-2,2H42a2,2,0,0,0-2-2H14ZM82,76H14a6,6,0,0,1-6-6,2,2,0,0,1,2-2H38a2,2,0,0,0,2,2H58a2,2,0,0,0,2-2H86a2,2,0,0,1,2,2A6,6,0,0,1,82,76Z"/></svg>