<svg id="b1f20ab6-be6d-4648-b0d8-edb432f29485" data-name="Laag 1" xmlns="http://www.w3.org/2000/svg" width="96" height="96" viewBox="0 0 96 96">
  <title>lightbulb_v3</title>
  <rect width="96" height="96" fill="none"/>
  <path d="M48,10A26,26,0,0,0,22,36,26.3,26.3,0,0,0,34,58.11V77a6,6,0,0,0,6,6H56a6,6,0,0,0,6-6V58.11A26.3,26.3,0,0,0,74,36,26,26,0,0,0,48,10ZM58,63H38V59H58Zm0,8H38V67H58Zm0,6a2,2,0,0,1-2,2H40a2,2,0,0,1-2-2V75H58Zm1.45-22H36.55A22.28,22.28,0,0,1,26,36a22,22,0,0,1,44,0A22.29,22.29,0,0,1,59.45,55ZM66,36a17.89,17.89,0,0,1-3,10H57.78A14,14,0,0,0,56,24.53V19.9A18,18,0,0,1,66,36Z" fill="#333"/>
</svg>
