<svg id="77477273-8474-4ffa-989d-316d8b6379c2" data-name="Laag 1" xmlns="http://www.w3.org/2000/svg" width="96" height="96" viewBox="0 0 96 96"><defs><style>.bfd4b0f5-58b7-4098-bf46-29aa7583533b{fill:none;}.\35 1109e95-e5f0-4b8b-b065-9da3434d960c{fill:#333;}</style></defs><title>location_v1</title><rect class="bfd4b0f5-58b7-4098-bf46-29aa7583533b" width="96" height="96"/><path class="51109e95-e5f0-4b8b-b065-9da3434d960c" d="M73.46,14.54A36,36,0,1,0,22.54,65.46l24,24a2,2,0,0,0,2.83,0l24.08-24h0A36,36,0,0,0,73.46,14.54ZM70.63,62.63,48,85.22,25.37,62.63a32,32,0,1,1,45.25,0Z"/><path class="51109e95-e5f0-4b8b-b065-9da3434d960c" d="M48,24A14,14,0,1,0,62,38,14,14,0,0,0,48,24Zm0,24A10,10,0,1,1,58,38,10,10,0,0,1,48,48Z"/></svg>