<svg id="6198d7b0-4a94-46a6-9fbe-519d03569387" data-name="Laag 1" xmlns="http://www.w3.org/2000/svg" xmlns:xlink="http://www.w3.org/1999/xlink" width="96" height="96" viewBox="0 0 96 96"><defs><style>.\39 7de2405-57bc-44c8-849d-c8be8aa97069{fill:none;}.\39 9401169-fc05-4d61-8ede-4d81661773e0{clip-path:url(#b55d3161-ce16-4805-93ae-70f40b63a2eb);}.\33 a3c85ed-5619-467c-83de-fad88cb8ed7f{fill:#333;}.\35 67149da-a98e-42c2-a2db-26487df284e8{clip-path:url(#aefae02d-7bc2-49d1-bf8a-930f9de16f96);}</style><clipPath id="b55d3161-ce16-4805-93ae-70f40b63a2eb"><rect class="97de2405-57bc-44c8-849d-c8be8aa97069" width="96" height="96"/></clipPath><clipPath id="aefae02d-7bc2-49d1-bf8a-930f9de16f96"><rect class="97de2405-57bc-44c8-849d-c8be8aa97069" y="1" width="96" height="96"/></clipPath></defs><title>locked_v2</title><path class="3a3c85ed-5619-467c-83de-fad88cb8ed7f" d="M70,36V32a22,22,0,0,0-44,0v4A10,10,0,0,0,16,46V78A10,10,0,0,0,26,88H70A10,10,0,0,0,80,78V46A10,10,0,0,0,70,36ZM30,32a18,18,0,0,1,36,0v4H30ZM76,78a6,6,0,0,1-6,6H26a6,6,0,0,1-6-6V46a6,6,0,0,1,6-6H70a6,6,0,0,1,6,6ZM54.61,63.5a10,10,0,1,0-13.22,0l-4.46,7.77A3,3,0,0,0,39.67,76H56.33a3,3,0,0,0,2.74-4.73ZM41.12,72l4.63-8.07A2,2,0,0,0,45,61.2a6,6,0,1,1,6,0,2,2,0,0,0-.74,2.73L54.88,72Z"/></svg>