<svg id="145baf66-9b0c-422e-9d9a-94d4e160ebbe" data-name="Laag 1" xmlns="http://www.w3.org/2000/svg" width="96" height="96" viewBox="0 0 96 96"><defs><style>.\39 3f130af-2f9b-4321-935d-9dff830b7870{fill:none;}.\38 7a96037-6061-4990-b1a3-e2802a381c51{fill:#333;}</style></defs><title>low_battery_v1</title><rect class="93f130af-2f9b-4321-935d-9dff830b7870" width="96" height="96"/><path class="87a96037-6061-4990-b1a3-e2802a381c51" d="M62,12H56V10a6,6,0,0,0-6-6H46a6,6,0,0,0-6,6v2H34A10,10,0,0,0,24,22V82A10,10,0,0,0,34,92H62A10,10,0,0,0,72,82V22A10,10,0,0,0,62,12ZM44,10a2,2,0,0,1,2-2h4a2,2,0,0,1,2,2v2H44ZM68,82a6,6,0,0,1-6,6H34a6,6,0,0,1-6-6V22a6,6,0,0,1,6-6H62a6,6,0,0,1,6,6Z"/><path class="87a96037-6061-4990-b1a3-e2802a381c51" d="M58,43H54V31a4,4,0,0,0-7.58-1.79l-12,24A4,4,0,0,0,38,59h4V70a4,4,0,0,0,7.55,1.84l12-23A4,4,0,0,0,58,43ZM46,70V55H38L50,31V47h8Z"/></svg>