<svg id="9db86533-831b-43dc-9931-ec7132bc6248" data-name="Laag 1" xmlns="http://www.w3.org/2000/svg" width="96" height="96" viewBox="0 0 96 96">
  <title>manual_v3</title>
  <rect width="96" height="96" fill="none"/>
  <path d="M68,10H28A10,10,0,0,0,18,20V76A10,10,0,0,0,28,86H72a2,2,0,0,0,2-2V68.2a9,9,0,0,0,2.77-3.3A12,12,0,0,0,78,60V20A10,10,0,0,0,68,10Zm2,72H28a6,6,0,0,1,0-12H68a12,12,0,0,0,2-.16Zm4-22c0,.62-.21,6-6,6H28a10,10,0,0,0-6,2V20a6,6,0,0,1,6-6H68a6,6,0,0,1,6,6ZM64,22H32a2,2,0,0,0-2,2v8a2,2,0,0,0,2,2H64a2,2,0,0,0,2-2V24A2,2,0,0,0,64,22Zm-2,8H34V26H62ZM30,50H54v4H30Zm0,6H45.39v4H30Z" fill="#333"/>
</svg>
