<svg id="f4e5a0af-91e9-4620-b9e5-518e41234118" data-name="Laag 1" xmlns="http://www.w3.org/2000/svg" width="96" height="96" viewBox="0 0 96 96">
  <title>mapview_v3</title>
  <rect width="96" height="96" fill="none"/>
  <path d="M84.72,81.72a9.45,9.45,0,0,1-8.28,4.78H19.56a9.51,9.51,0,0,1-8.27-14.26L19,59c.11-.19,2.91-5,7.5-5H30v4H26.48c-2.22,0-4,3-4,3L14.75,74.24a5.42,5.42,0,0,0,0,5.48,5.5,5.5,0,0,0,4.82,2.77H76.44a5.5,5.5,0,0,0,4.82-2.77,5.42,5.42,0,0,0,0-5.48L73.56,61c-.49-.84-2.16-3-4-3H66V54h3.52c4.59,0,7.39,4.8,7.51,5l7.68,13.23A9.38,9.38,0,0,1,84.72,81.72ZM26,32.5a22,22,0,0,1,44,0c0,12.25-13.06,25.84-18.68,31.12a4.85,4.85,0,0,1-6.64,0C39.06,58.32,26,44.69,26,32.5Zm4,0c0,10.93,13.34,24.35,17.42,28.2a.83.83,0,0,0,1.16,0C52.67,56.86,66,43.49,66,32.5a18,18,0,0,0-36,0Zm18,6a6,6,0,1,1,6-6A6,6,0,0,1,48,38.5Zm0-4a2,2,0,1,0-2-2A2,2,0,0,0,48,34.5Z" fill="#333"/>
</svg>
