<svg id="559bebd5-0592-46ca-9ecd-ef8be4a3709f" data-name="Laag 1" xmlns="http://www.w3.org/2000/svg" width="96" height="96" viewBox="0 0 96 96"><defs><style>.ee834722-d674-497d-b03f-4f80799fc09a{fill:none;}.\31 fac4b25-e7e6-475e-a56c-96749d4b1e77{fill:#333;}</style></defs><title>mechanic_v1</title><rect class="ee834722-d674-497d-b03f-4f80799fc09a" width="96" height="96"/><path class="1fac4b25-e7e6-475e-a56c-96749d4b1e77" d="M87.38,69.2C85.3,59.72,75.71,52,66,52H30c-9.7,0-19.33,7.7-21.46,17.17L4.3,88H8.4l4-18C14.15,62.43,22.19,56,30,56H66c7.8,0,15.8,6.44,17.48,14.06L87.42,88h4.1Z"/><path class="1fac4b25-e7e6-475e-a56c-96749d4b1e77" d="M51.67,59.85a2,2,0,0,0-1,1.71v8a2.83,2.83,0,0,1-2.82,2.82h0a2.82,2.82,0,0,1-2.81-2.81V62.84l0-1.6a2,2,0,0,0-1.73-2c-2.57-.34-4.53,1.69-6,3.17l-.56.58a15.37,15.37,0,0,0,0,21.72c.29.29.6.56.91.82v6.56h4V88h.09a15.27,15.27,0,0,0,10.95.28V92h4V86.17A15.25,15.25,0,0,0,58.57,63C56.77,61.15,54,58.42,51.67,59.85Zm4.65,21.34c-.19.22-.38.44-.58.65a11.35,11.35,0,1,1-16.05-16l.62-.63c.21-.22.48-.5.76-.78v5.2a6.76,6.76,0,0,0,2,4.82,6.92,6.92,0,0,0,1,.8,6.74,6.74,0,0,0,3.84,1.19h0a6.84,6.84,0,0,0,6.81-6.82v-4.8c.3.28.65.61,1,1A11.36,11.36,0,0,1,56.32,81.19Z"/><circle class="1fac4b25-e7e6-475e-a56c-96749d4b1e77" cx="40" cy="31" r="3"/><circle class="1fac4b25-e7e6-475e-a56c-96749d4b1e77" cx="56" cy="31" r="3"/><path class="1fac4b25-e7e6-475e-a56c-96749d4b1e77" d="M48,48A22,22,0,0,0,70,26c0-.34,0-.67,0-1h0a7.78,7.78,0,0,0,8-8c0-1.95-1.44-7-8-7H63.08A22,22,0,1,0,48,48ZM66.42,14H70c3.63,0,4,2.32,4,3a3.77,3.77,0,0,1-4,4H46.57A6.19,6.19,0,0,0,48,17a2.8,2.8,0,0,1,3-3H66.42ZM48,8a17.87,17.87,0,0,1,8.21,2H51a6.8,6.8,0,0,0-7,7c0,2.86-5.36,3.87-6.15,4H30.72A18,18,0,0,1,48,8ZM30.05,25h35.9c0,.33.05.66.05,1a18,18,0,0,1-36,0C30,25.66,30,25.33,30.05,25Z"/></svg>