<svg id="ab03fd79-4f66-4c2a-8869-2788259a785d" data-name="Laag 1" xmlns="http://www.w3.org/2000/svg" width="96" height="96" viewBox="0 0 96 96"><defs><style>.\34 b689183-8072-4e03-a201-958f6ffcd65f{fill:none;}.\36 f32a8c1-4eb6-4155-9a38-ddf3bed410be{fill:#333;}</style></defs><title>mobile_switch_off_v1</title><rect class="4b689183-8072-4e03-a201-958f6ffcd65f" width="96" height="96"/><path class="6f32a8c1-4eb6-4155-9a38-ddf3bed410be" d="M64,4H32A10,10,0,0,0,22,14V82A10,10,0,0,0,32,92H64A10,10,0,0,0,74,82V14A10,10,0,0,0,64,4ZM32,8H64a6,6,0,0,1,6,6V70H26V14A6,6,0,0,1,32,8ZM64,88H32a6,6,0,0,1-6-6V74H70v8A6,6,0,0,1,64,88Z"/><circle class="6f32a8c1-4eb6-4155-9a38-ddf3bed410be" cx="48" cy="81" r="3"/><path class="6f32a8c1-4eb6-4155-9a38-ddf3bed410be" d="M48,53a14,14,0,0,0,4-27.41v4.25a10,10,0,1,1-8,0V25.59A14,14,0,0,0,48,53Z"/><polygon class="6f32a8c1-4eb6-4155-9a38-ddf3bed410be" points="50 32 50 29.2 50 25.16 50 24 50 21 46 21 46 24 46 25.16 46 29.2 46 32 46 33 50 33 50 32"/></svg>