<svg id="1d670b44-63c3-49f0-8d0a-ebc6ce4c73c2" data-name="Laag 1" xmlns="http://www.w3.org/2000/svg" width="96" height="96" viewBox="0 0 96 96"><defs><style>.\30 6330b6f-3ba5-47ef-ab00-a3ebca867e83{fill:none;}.\33 d9e987c-2d02-4ace-9990-3dcc42706f86{fill:#333;}</style></defs><title>mobiel_v1</title><rect class="06330b6f-3ba5-47ef-ab00-a3ebca867e83" width="96" height="96"/><path class="3d9e987c-2d02-4ace-9990-3dcc42706f86" d="M64,4H32A10,10,0,0,0,22,14V82A10,10,0,0,0,32,92H64A10,10,0,0,0,74,82V14A10,10,0,0,0,64,4ZM32,8H64a6,6,0,0,1,6,6V70H26V14A6,6,0,0,1,32,8ZM64,88H32a6,6,0,0,1-6-6V74H70v8A6,6,0,0,1,64,88Z"/><circle class="3d9e987c-2d02-4ace-9990-3dcc42706f86" cx="48" cy="81" r="3"/></svg>