<svg id="72487f36-c9db-4c9e-b3d5-ba913c620f8f" data-name="Laag 1" xmlns="http://www.w3.org/2000/svg" width="96" height="96" viewBox="0 0 96 96"><defs><style>.e35ee18f-f296-4c38-987e-a9ac8e269bdc{fill:none;}.b58157e4-8597-4b66-808e-4f74392f6847{fill:#333;}</style></defs><title>mobile - deviceset_v1</title><rect class="e35ee18f-f296-4c38-987e-a9ac8e269bdc" width="96" height="96"/><path class="b58157e4-8597-4b66-808e-4f74392f6847" d="M55,26H41a6,6,0,0,0-6,6V64a6,6,0,0,0,6,6H55a6,6,0,0,0,6-6V32A6,6,0,0,0,55,26ZM41,30H55a2,2,0,0,1,2,2V54H39V32A2,2,0,0,1,41,30ZM55,66H41a2,2,0,0,1-2-2V58H57v6A2,2,0,0,1,55,66Z"/><circle class="b58157e4-8597-4b66-808e-4f74392f6847" cx="48" cy="62" r="2"/></svg>