<svg id="b0c636d2-8b1e-415c-88f1-8e2ad100fdde" data-name="Laag 1" xmlns="http://www.w3.org/2000/svg" width="96" height="96" viewBox="0 0 96 96">
  <title>mobile_multiple_v3</title>
  <rect width="96" height="96" fill="none"/>
  <path d="M29,81a3,3,0,1,1,3,3A3,3,0,0,1,29,81ZM58,14V82A10,10,0,0,1,48,92H16A10,10,0,0,1,6,82V14A10,10,0,0,1,16,4H48A10,10,0,0,1,58,14ZM54,74H10v8a6,6,0,0,0,6,6H48a6,6,0,0,0,6-6Zm0-60a6,6,0,0,0-6-6H16a6,6,0,0,0-6,6V70H54ZM64,8H62v4h2a6,6,0,0,1,6,6V78a6,6,0,0,1-6,6H62v4h2A10,10,0,0,0,74,78V18A10,10,0,0,0,64,8Zm16,4H78v4h2a6,6,0,0,1,6,6V74a6,6,0,0,1-6,6H78v4h2A10,10,0,0,0,90,74V22A10,10,0,0,0,80,12Z" fill="#333"/>
</svg>
