<svg id="fcb415c6-9ddd-40dd-a859-8b8bc3a94845" data-name="Laag 1" xmlns="http://www.w3.org/2000/svg" width="96" height="96" viewBox="0 0 96 96"><defs><style>.\33 3a6f747-8530-4557-ae51-7bbb78fecd57{fill:none;}.ff925684-aae2-4341-acaa-72b7e2ba3bdf{fill:#333;}</style></defs><title>mobile_incomming_call_v1</title><rect class="33a6f747-8530-4557-ae51-7bbb78fecd57" width="96" height="96"/><circle class="ff925684-aae2-4341-acaa-72b7e2ba3bdf" cx="36" cy="81" r="3"/><path class="ff925684-aae2-4341-acaa-72b7e2ba3bdf" d="M86,46H72.06l7.36-8H74l-8,8.65a2,2,0,0,0,.06,2.77L74.67,58h5.66l-8-8H86Z"/><path class="ff925684-aae2-4341-acaa-72b7e2ba3bdf" d="M52,4H20A10,10,0,0,0,10,14V82A10,10,0,0,0,20,92H52A10,10,0,0,0,62,82V14A10,10,0,0,0,52,4Zm6,78a6,6,0,0,1-6,6H20a6,6,0,0,1-6-6V74H58Zm0-12H14V14a6,6,0,0,1,6-6H52a6,6,0,0,1,6,6Z"/></svg>