<svg id="edac3b39-c397-467a-b961-5043521d73ff" data-name="Laag 1" xmlns="http://www.w3.org/2000/svg" xmlns:xlink="http://www.w3.org/1999/xlink" width="96" height="96" viewBox="0 0 96 96"><defs><style>.\32 6ac0415-a4f3-45ae-bfd9-1aef99ab4372{fill:none;}.cfa58a8c-5151-4c8b-bc6b-cb59eadca1f2{clip-path:url(#eb519a3a-e90d-4118-801f-60af7371317d);}.\39 1fc406e-9c6f-4378-9493-decc75f7a240{fill:#333;}.\36 a58bbc6-8a7f-44c0-8ea6-1c3a45326ac0{clip-path:url(#df510533-4612-4ced-ac2d-de0b50c4019c);}</style><clipPath id="eb519a3a-e90d-4118-801f-60af7371317d"><rect class="26ac0415-a4f3-45ae-bfd9-1aef99ab4372" width="96" height="96"/></clipPath><clipPath id="df510533-4612-4ced-ac2d-de0b50c4019c"><rect class="26ac0415-a4f3-45ae-bfd9-1aef99ab4372" y="1" width="96" height="96"/></clipPath></defs><title>modular_v2</title><path class="91fc406e-9c6f-4378-9493-decc75f7a240" d="M40.2,45.9H9.8a5.71,5.71,0,0,1-5.7-5.7V9.8A5.71,5.71,0,0,1,9.8,4.1H40.2a5.71,5.71,0,0,1,5.7,5.7V40.2A5.71,5.71,0,0,1,40.2,45.9ZM9.8,7.9A1.9,1.9,0,0,0,7.9,9.8V40.2a1.9,1.9,0,0,0,1.9,1.9H40.2a1.9,1.9,0,0,0,1.9-1.9V9.8a1.9,1.9,0,0,0-1.9-1.9Zm30.4,61H9.8a5.71,5.71,0,0,1-5.7-5.7V55.8a5.71,5.71,0,0,1,5.7-5.7H40.2a5.71,5.71,0,0,1,5.7,5.7v7.4A5.71,5.71,0,0,1,40.2,68.9ZM9.8,53.9a1.9,1.9,0,0,0-1.9,1.9v7.4a1.9,1.9,0,0,0,1.9,1.9H40.2a1.9,1.9,0,0,0,1.9-1.9V55.8a1.9,1.9,0,0,0-1.9-1.9Zm30.4,38H9.8a5.71,5.71,0,0,1-5.7-5.7V78.8a5.71,5.71,0,0,1,5.7-5.7H40.2a5.71,5.71,0,0,1,5.7,5.7v7.4A5.71,5.71,0,0,1,40.2,91.9ZM9.8,76.9a1.9,1.9,0,0,0-1.9,1.9v7.4a1.9,1.9,0,0,0,1.9,1.9H40.2a1.9,1.9,0,0,0,1.9-1.9V78.8a1.9,1.9,0,0,0-1.9-1.9Zm77.4-8H56.8a5.71,5.71,0,0,1-5.7-5.7V32.8a5.71,5.71,0,0,1,5.7-5.7H87.2a5.71,5.71,0,0,1,5.7,5.7V63.2A5.71,5.71,0,0,1,87.2,68.9Zm-30.4-38a1.9,1.9,0,0,0-1.9,1.9V63.2a1.9,1.9,0,0,0,1.9,1.9H87.2a1.9,1.9,0,0,0,1.9-1.9V32.8a1.9,1.9,0,0,0-1.9-1.9Zm30.4,61H56.8a5.71,5.71,0,0,1-5.7-5.7V78.8a5.71,5.71,0,0,1,5.7-5.7H87.2a5.71,5.71,0,0,1,5.7,5.7v7.4A5.71,5.71,0,0,1,87.2,91.9Zm-30.4-15a1.9,1.9,0,0,0-1.9,1.9v7.4a1.9,1.9,0,0,0,1.9,1.9H87.2a1.9,1.9,0,0,0,1.9-1.9V78.8a1.9,1.9,0,0,0-1.9-1.9Zm30.4-54H56.8a5.71,5.71,0,0,1-5.7-5.7V9.8a5.71,5.71,0,0,1,5.7-5.7H87.2a5.71,5.71,0,0,1,5.7,5.7v7.4A5.71,5.71,0,0,1,87.2,22.9ZM56.8,7.9a1.9,1.9,0,0,0-1.9,1.9v7.4a1.9,1.9,0,0,0,1.9,1.9H87.2a1.9,1.9,0,0,0,1.9-1.9V9.8a1.9,1.9,0,0,0-1.9-1.9ZM72,77"/></svg>