<svg id="274f10ff-0646-4e41-8262-0b5586aabbe9" data-name="Laag 1" xmlns="http://www.w3.org/2000/svg" width="96" height="96" viewBox="0 0 96 96"><defs><style>.be03c9a9-fe09-4338-a80f-9b85e672f55f{fill:none;}.e275f01c-9dfa-494b-a1da-46cf48ff62f4{fill:#333;}</style></defs><title>montage_v1</title><rect class="be03c9a9-fe09-4338-a80f-9b85e672f55f" width="96" height="96"/><path class="e275f01c-9dfa-494b-a1da-46cf48ff62f4" d="M71.59,27.41A2,2,0,0,0,73,28h6a2,2,0,0,0,1.57-.76l11-14a2,2,0,0,0-.16-2.65l-6-6a2,2,0,0,0-2.65-.16l-14,11A2,2,0,0,0,68,17v6a2,2,0,0,0,.59,1.41l.08.08L53,40.17,37.58,24.72A17,17,0,0,0,21,4c-2.79,0-7,0-7.7,2.83a2,2,0,0,0,.53,1.9l6.35,6.36a3.42,3.42,0,0,1,0,4.82,3.37,3.37,0,0,1-2.4,1h0a3.37,3.37,0,0,1-2.41-1L10,14.56l-1.24-1.3A2,2,0,0,0,6.13,13C3.91,14.74,4,17.83,4,20.09c0,.31,0,.62,0,.91A16.87,16.87,0,0,0,23.7,37.77L34.4,48.46,6.61,76.24a10,10,0,0,0,0,14.14h0a10,10,0,0,0,14.14,0L48.53,62.61,74.72,88.8A9.52,9.52,0,0,0,88.18,75.34L55.84,43,71.5,27.33ZM8,21c0-.32,0-.65,0-1,0-.54,0-1.19,0-1.8l4.53,4.53a7.35,7.35,0,0,0,5.24,2.16h0A7.35,7.35,0,0,0,23,22.74a7.43,7.43,0,0,0,0-10.47l-4.2-4.21C19.39,8,20.11,8,21,8A13,13,0,1,1,8,21Zm28,7.87L50.19,43l-3,3a10,10,0,0,0-9.7-.06L28,36.45A17.08,17.08,0,0,0,36.06,28.86ZM17.93,87.56a6,6,0,0,1-8.49-8.49L38.07,50.44a6,6,0,1,1,8.49,8.49Zm67.42-9.38a5.52,5.52,0,0,1-7.8,7.8L51.08,59.49a10,10,0,0,0-.84-10.89L53,45.83ZM72,18,83.84,8.66l3.49,3.49L78,24h-4.2L72,22.17Z"/></svg>