<svg id="1db97452-5ce5-4fad-a0ed-e35fb36369c1" data-name="Laag 1" xmlns="http://www.w3.org/2000/svg" width="96" height="96" viewBox="0 0 96 96"><defs><style>.\36 d8f56f9-eb51-4eba-b2a2-70740cc8c708{fill:none;}.\34 cc0b0f3-29ae-418d-b65a-24f075c75f79{fill:#333;}</style></defs><title>multiple-apps_v1</title><rect class="6d8f56f9-eb51-4eba-b2a2-70740cc8c708" width="96" height="96"/><path class="4cc0b0f3-29ae-418d-b65a-24f075c75f79" d="M80,28H70V26A10,10,0,0,0,60,16H50V14A10,10,0,0,0,40,4H16A10,10,0,0,0,6,14V58A10,10,0,0,0,16,68H26v2A10,10,0,0,0,36,80H46v2A10,10,0,0,0,56,92H80A10,10,0,0,0,90,82V38A10,10,0,0,0,80,28ZM26,26V64H16a6,6,0,0,1-6-6V14a6,6,0,0,1,6-6H40a6,6,0,0,1,6,6v2H36A10,10,0,0,0,26,26ZM46,38V76H36a6,6,0,0,1-6-6V26a6,6,0,0,1,6-6H60a6,6,0,0,1,6,6v2H56A10,10,0,0,0,46,38ZM86,82a6,6,0,0,1-6,6H56a6,6,0,0,1-6-6V38a6,6,0,0,1,6-6H80a6,6,0,0,1,6,6Z"/></svg>