<svg id="e7d83717-a54d-473e-9c7d-a752439ac099" data-name="Laag 1" xmlns="http://www.w3.org/2000/svg" xmlns:xlink="http://www.w3.org/1999/xlink" width="96" height="96" viewBox="0 0 96 96"><defs><style>.\31 aba9ee9-7779-48e4-ac2b-73ca0a297ea8{fill:none;}.\35 db5e967-46e0-4bc0-b96f-352470b0655a{clip-path:url(#71e72315-e6cc-4c6d-aeac-8041fd153052);}.\38 8f28b98-ece5-45ea-96b5-a468889e7b61{fill:#333;}.fe456b8f-3a23-491a-925d-85b39ad1b0f0{clip-path:url(#70afaf59-e6f2-4fdf-bf5d-6d20a9563613);}</style><clipPath id="71e72315-e6cc-4c6d-aeac-8041fd153052"><rect class="1aba9ee9-7779-48e4-ac2b-73ca0a297ea8" width="96" height="96"/></clipPath><clipPath id="70afaf59-e6f2-4fdf-bf5d-6d20a9563613"><rect class="1aba9ee9-7779-48e4-ac2b-73ca0a297ea8" y="1" width="96" height="96"/></clipPath></defs><title>music_v2</title><path class="88f28b98-ece5-45ea-96b5-a468889e7b61" d="M88.34,8A10,10,0,0,0,80,6l-44,8.8a10,10,0,0,0-8,9.81V68.22A14,14,0,1,0,32,78V35.64l56-11.2V68.22A14,14,0,1,0,92,78V15.76A10,10,0,0,0,88.34,8ZM18,88A10,10,0,1,1,28,78,10,10,0,0,1,18,88Zm60,0A10,10,0,1,1,88,78,10,10,0,0,1,78,88ZM32,31.56v-7a6,6,0,0,1,4.82-5.88l44-8.8A6,6,0,0,1,88,15.76v4.6Z"/></svg>