<svg id="20218bd4-b0ed-4556-b77b-4a2314e3f0af" data-name="Laag 1" xmlns="http://www.w3.org/2000/svg" width="96" height="96" viewBox="0 0 96 96"><defs><style>.\34 ecb2eda-8f42-403c-9f56-e9e9c1709103{fill:none;}.\38 f9c9e92-9d6f-4d07-b998-e72216a3cbba{fill:#333;}</style></defs><title>navigation_v1</title><rect class="4ecb2eda-8f42-403c-9f56-e9e9c1709103" width="96" height="96"/><path class="8f9c9e92-9d6f-4d07-b998-e72216a3cbba" d="M90.68,7.36A7.74,7.74,0,0,0,84.08,4h0a12.71,12.71,0,0,0-4.85,1.07L10.51,33.69C4.37,36.24,3.92,40.36,4,42s1,5.7,7.37,7.57l19.69,5.78c3,.87,5.72,1.82,7.5,2.5l7.85,26.76c2,6.66,6.21,7.38,7.95,7.38,2,0,5.6-.85,8-6.51L90.93,16.77C92.84,12.17,91.85,9.12,90.68,7.36Zm-3.45,7.87L58.62,84c-.77,1.84-2.13,4-4.26,4-1.83,0-3.25-1.56-4.11-4.5L42.12,55.8A2,2,0,0,0,41,54.52c-1.61-.66-4.87-1.85-8.78-3L12.5,45.75c-2.8-.82-4.4-2.23-4.5-4s1.34-3.3,4-4.42L80.77,8.76A8.77,8.77,0,0,1,84.08,8a3.77,3.77,0,0,1,3.27,1.58C88.25,10.93,88.21,12.89,87.24,15.23Z"/></svg>