<svg id="640cab77-d681-48f3-b106-e222b674ad02" data-name="Laag 1" xmlns="http://www.w3.org/2000/svg" width="96" height="96" viewBox="0 0 96 96"><defs><style>.\39 c9e25a0-62cd-4d03-be08-110dc545de28{fill:none;}.\31 29fe090-b333-4bd8-9b8f-fa69a543219a{fill:#333;}</style></defs><title>network_v1</title><rect class="9c9e25a0-62cd-4d03-be08-110dc545de28" width="96" height="96"/><path class="129fe090-b333-4bd8-9b8f-fa69a543219a" d="M69.49,36.73l2.83,2.83a22,22,0,0,0,0-31.11l-2.83,2.83A18,18,0,0,1,69.49,36.73Z"/><path class="129fe090-b333-4bd8-9b8f-fa69a543219a" d="M66.66,33.9a14,14,0,0,0,0-19.8l-2.83,2.83a10,10,0,0,1,0,14.14Z"/><path class="129fe090-b333-4bd8-9b8f-fa69a543219a" d="M26.51,36.73a18,18,0,0,1,0-25.46L23.69,8.44a22,22,0,0,0,0,31.11Z"/><path class="129fe090-b333-4bd8-9b8f-fa69a543219a" d="M29.34,33.9l2.83-2.83a10,10,0,0,1,0-14.14L29.34,14.1A14,14,0,0,0,29.34,33.9Z"/><path class="129fe090-b333-4bd8-9b8f-fa69a543219a" d="M78.26,87.54,56,35.5A14,14,0,1,0,40,35.5l-22.3,52c-1,2.42-.34,3.65.43,4.25a2.4,2.4,0,0,0,1.51.52,4.62,4.62,0,0,0,2.72-1.12L48,71.84,73.6,91.18a4.62,4.62,0,0,0,2.72,1.13,2.4,2.4,0,0,0,1.51-.52C78.6,91.18,79.3,90,78.26,87.54ZM38.4,56,48,47.63,57.6,56ZM57,60l-9,6.83L39,60ZM37.57,51.42l4-9.38L45,45ZM51,45,54.41,42l4,9.38ZM38,24A10,10,0,1,1,48,34,10,10,0,0,1,38,24ZM48,38a13.92,13.92,0,0,0,4.38-.71l.38.88L48,42.32l-4.76-4.15.38-.88A13.92,13.92,0,0,0,48,38ZM22.81,85.86l10.7-25,11.17,8.44ZM51.32,69.33,61,62a5.59,5.59,0,0,0,1.35-1.41L73.19,85.86Z"/></svg>