<svg id="eee73fe7-2b9e-4109-b7d4-9e0bf959f68f" data-name="Laag 1" xmlns="http://www.w3.org/2000/svg" width="96" height="96" viewBox="0 0 96 96"><defs><style>.\39 0b9209a-5157-443d-bc17-49887ed82e97{fill:none;}.\38 6dd71f9-1d17-4e0a-acb4-1b7ffb225358{fill:#333;}</style></defs><title>no_wifi_v1</title><rect class="90b9209a-5157-443d-bc17-49887ed82e97" width="96" height="96"/><path class="86dd71f9-1d17-4e0a-acb4-1b7ffb225358" d="M62.44,40.44a32.06,32.06,0,0,1,8.19,5.94l2.83-2.83a35.88,35.88,0,0,0-8.09-6.07Z"/><path class="86dd71f9-1d17-4e0a-acb4-1b7ffb225358" d="M47.05,56.05a13,13,0,0,1,10.14,3.76L60,57a16.89,16.89,0,0,0-9.22-4.73Z"/><path class="86dd71f9-1d17-4e0a-acb4-1b7ffb225358" d="M69.72,33.05a41.93,41.93,0,0,1,8,6.25l2.83-2.83a46,46,0,0,0-7.93-6.34Z"/><path class="86dd71f9-1d17-4e0a-acb4-1b7ffb225358" d="M54.87,48.12a21.84,21.84,0,0,1,8.69,5.32l2.83-2.83A25.85,25.85,0,0,0,58,45Z"/><path class="86dd71f9-1d17-4e0a-acb4-1b7ffb225358" d="M51.08,47.25l3.38-3.43L59.2,39l3-3.07L66.7,31.4l2.95-3L82.87,15H77.25L65.81,26.6a46.06,46.06,0,0,0-50.34,9.87L18.3,39.3A42,42,0,0,1,62.76,29.7l-4.69,4.75a36,36,0,0,0-35.53,9.1l2.83,2.83A31.79,31.79,0,0,1,48,37a32.26,32.26,0,0,1,6.84.74l-5.25,5.33a25.94,25.94,0,0,0-20,7.55l2.83,2.83a21.88,21.88,0,0,1,13.1-6.28L16.13,77h5.62l17-17.25L46.3,52.1Z"/><path class="86dd71f9-1d17-4e0a-acb4-1b7ffb225358" d="M42.34,63.34a8,8,0,1,0,11.31,0A8,8,0,0,0,42.34,63.34Zm8.49,8.49a4,4,0,1,1,0-5.66A4,4,0,0,1,50.83,71.83Z"/></svg>