<svg id="cab7f500-c41f-4884-8b6e-d9dc588195b7" data-name="Laag 1" xmlns="http://www.w3.org/2000/svg" xmlns:xlink="http://www.w3.org/1999/xlink" width="96" height="96" viewBox="0 0 96 96"><defs><style>.c4c70efe-2919-475a-bbfd-f05183aa0468{fill:none;}.bc1037ea-5107-4dff-8044-0659ba6d9e5e{clip-path:url(#e8929c0c-aca4-4631-a74f-7ba23ca02e69);}.a80224c0-ebe4-459a-a83f-324e5be8f128{fill:#333;}.a0d9692b-bb16-4949-ac58-9397cfc0504a{clip-path:url(#73c9cea7-7330-401a-aa59-44687aaf4c25);}</style><clipPath id="e8929c0c-aca4-4631-a74f-7ba23ca02e69"><rect class="c4c70efe-2919-475a-bbfd-f05183aa0468" width="96" height="96"/></clipPath><clipPath id="73c9cea7-7330-401a-aa59-44687aaf4c25"><rect class="c4c70efe-2919-475a-bbfd-f05183aa0468" y="1" width="96" height="96"/></clipPath></defs><title>number_1_v2</title><path class="a80224c0-ebe4-459a-a83f-324e5be8f128" d="M68,4H53.55a4,4,0,0,0-1.68.37L26.32,16.23A4,4,0,0,0,24,19.85V39.66a4,4,0,0,0,5.7,3.62L43.13,37V88a4,4,0,0,0,4,4H68a4,4,0,0,0,4-4V8A4,4,0,0,0,68,4Zm0,84H47.13V30.67L28,39.66V19.85L53.55,8H68Z"/></svg>