<svg id="db934955-dd75-4e92-b014-374d337b5ee1" data-name="Laag 1" xmlns="http://www.w3.org/2000/svg" xmlns:xlink="http://www.w3.org/1999/xlink" width="96" height="96" viewBox="0 0 96 96"><defs><style>.d80e5d47-61ce-4a5a-8f2d-332777dbf4cc{fill:none;}.\37 00f6e8b-26d1-4d28-83d7-ebb0e42a7dbd{clip-path:url(#eb3008a2-af73-4dc6-ae67-d5cb6f9d0ddd);}.\38 2b7ebce-4010-414b-8cf0-2242d5cde324{fill:#333;}.d188a65a-855a-49bc-8497-03adbe4ccf85{clip-path:url(#79309713-18bc-4c4a-85f4-969fa75a4086);}</style><clipPath id="eb3008a2-af73-4dc6-ae67-d5cb6f9d0ddd"><rect class="d80e5d47-61ce-4a5a-8f2d-332777dbf4cc" width="96" height="96"/></clipPath><clipPath id="79309713-18bc-4c4a-85f4-969fa75a4086"><rect class="d80e5d47-61ce-4a5a-8f2d-332777dbf4cc" y="1" width="96" height="96"/></clipPath></defs><title>number_8_v2</title><path class="82b7ebce-4010-414b-8cf0-2242d5cde324" d="M47.93,55.27c-5.89,0-10.31,3.32-10.31,8.67S42,72.62,47.93,72.62s10.45-3.44,10.45-8.67S54,55.27,47.93,55.27Zm0,13.35c-2.91,0-6.31-1.22-6.31-4.67,0-4.45,5.26-4.67,6.31-4.67,6.14,0,6.45,3.89,6.45,4.67C54.38,67.39,50.9,68.62,47.93,68.62ZM73.52,46.86a22.39,22.39,0,0,0,6.8-16.46C80.32,14.6,67,3.57,47.93,3.57c-8.51,0-16.39,2.36-22.19,6.65A24.55,24.55,0,0,0,15.54,30.4a22.27,22.27,0,0,0,6.85,16.45A22.33,22.33,0,0,0,13,65.48c0,15.87,14.36,27,34.93,27S83,81.35,83,65.48A22.66,22.66,0,0,0,73.52,46.86ZM47.93,88.43c-17.14,0-30.93-8.55-30.93-23A18.59,18.59,0,0,1,30.26,47.36a18.06,18.06,0,0,1-10.71-17c0-14.8,13.39-22.83,28.39-22.83s28.39,8,28.39,22.83a18.15,18.15,0,0,1-10.58,17A18.75,18.75,0,0,1,79,65.48C79,79.89,65.07,88.43,47.93,88.43Zm0-49.49c5.22,0,9.24-3.19,9.24-7.91,0-5-4-8.17-9.24-8.17S38.69,26.06,38.69,31C38.69,35.75,42.84,38.94,47.93,38.94Zm0-12.07c2.42,0,5.24,1.09,5.24,4.17,0,2.7-2.63,3.91-5.24,3.91S42.69,33.6,42.69,31C42.69,28.16,45.32,26.87,47.93,26.87Z"/></svg>