<svg id="6349edd5-1eb6-4527-aff9-8c8f8cc33cd9" data-name="Laag 1" xmlns="http://www.w3.org/2000/svg" xmlns:xlink="http://www.w3.org/1999/xlink" width="96" height="96" viewBox="0 0 96 96"><defs><style>.e19fb186-d36d-4d5b-bd6f-71f034be82c8{fill:none;}.d57a33bc-2e6f-4447-8595-2d8a083ddb12{clip-path:url(#45a7d75a-ad48-4502-8394-366ecb9ec425);}.aac85617-c7e6-48fb-97e4-07cc9f571654{fill:#333;}.\30 9f0b5ce-31db-496c-8c56-2c49cbeda362{clip-path:url(#7b156a85-d786-4af8-9b1f-5f458412976d);}</style><clipPath id="45a7d75a-ad48-4502-8394-366ecb9ec425"><rect class="e19fb186-d36d-4d5b-bd6f-71f034be82c8" width="96" height="96"/></clipPath><clipPath id="7b156a85-d786-4af8-9b1f-5f458412976d"><rect class="e19fb186-d36d-4d5b-bd6f-71f034be82c8" y="1" width="96" height="96"/></clipPath></defs><title>number_2_v2</title><path class="aac85617-c7e6-48fb-97e4-07cc9f571654" d="M77,66.31H62.05l3.05-4.14c7.63-10.57,13.44-19.5,13.44-30.45C78.55,15.14,66.56,4,48.71,4,37.5,4,26.64,7.65,18.91,14a4,4,0,0,0-1.46,3.09V36.85A4,4,0,0,0,23.94,40c4.11-3.27,12.1-8.75,19.34-8.75,5.95,0,5.95,3.46,5.95,4.59,0,4.9-2.73,8.69-9.46,17.55l-.71.93L15.81,85.08A4,4,0,0,0,15,87.49V88a4,4,0,0,0,4,4H77a4,4,0,0,0,4-4V70.31A4,4,0,0,0,77,66.31ZM77,88H19v-.51L42.25,56.72c7.11-9.36,11-14.23,11-20.9,0-5.26-3.62-8.59-9.95-8.59-8.14,0-16.66,5.51-21.83,9.62V17.1C27.53,12.1,37.22,8,48.71,8,64.6,8,74.55,17.49,74.55,31.72c0,10-5.81,18.59-12.66,28.08L54.14,70.31H77Z"/></svg>