<svg id="9ca22b91-f60b-4f65-aac4-69746370c9d9" data-name="Laag 1" xmlns="http://www.w3.org/2000/svg" xmlns:xlink="http://www.w3.org/1999/xlink" width="96" height="96" viewBox="0 0 96 96"><defs><style>.c5b0a3e2-9786-4f67-a17d-1587ba6a3560{fill:none;}.\36 232ca9b-b691-479f-a257-db7f15e9e305{clip-path:url(#85bbcddb-839e-4783-837c-dd02805aba10);}.\32 2e7e265-bc50-449a-8e85-d6ae5c3a2f74{fill:#333;}.b1efc18a-2b33-483f-ae55-9cd485390543{clip-path:url(#443d764e-726d-4827-b79e-aa37461277f6);}</style><clipPath id="85bbcddb-839e-4783-837c-dd02805aba10"><rect class="c5b0a3e2-9786-4f67-a17d-1587ba6a3560" width="96" height="96"/></clipPath><clipPath id="443d764e-726d-4827-b79e-aa37461277f6"><rect class="c5b0a3e2-9786-4f67-a17d-1587ba6a3560" y="1" width="96" height="96"/></clipPath></defs><title>number_4_v2</title><path class="22e7e265-bc50-449a-8e85-d6ae5c3a2f74" d="M80,52.47H74.55V45.36a4,4,0,0,0-4-4H51.91a4,4,0,0,0-1.52.3l14.87-32A4,4,0,0,0,61.63,4H39.76a4,4,0,0,0-3.63,2.31L12.37,57.39A4,4,0,0,0,12,59.08V73.41a4,4,0,0,0,4,4H47.91V88a4,4,0,0,0,4,4H70.55a4,4,0,0,0,4-4V77.41H80a4,4,0,0,0,4-4V56.47A4,4,0,0,0,80,52.47Zm0,20.94H70.55V88H51.91V73.41H16V59.08L39.76,8H61.63L39.09,56.47H51.91V45.36H70.55V56.47H80ZM47.91,47v5.49H45.36Z"/></svg>