<svg id="19731823-76d1-4c82-9b16-a9da810bd59f" data-name="Laag 1" xmlns="http://www.w3.org/2000/svg" xmlns:xlink="http://www.w3.org/1999/xlink" width="96" height="96" viewBox="0 0 96 96"><defs><style>.\31 6a98c1f-7280-4980-8217-c5d375dc327a{fill:none;}.cbaf5b4d-143b-4a4b-bf71-d25a72201083{clip-path:url(#7351c858-48ae-47b3-8abe-c408368340d7);}.b10c5580-6478-489a-bda8-e33c0e3a96e1{fill:#333;}.f6035225-56d3-4924-8ff9-45de91ec5306{clip-path:url(#87b19860-228e-4a58-a242-620b4c77c0a6);}</style><clipPath id="7351c858-48ae-47b3-8abe-c408368340d7"><rect class="16a98c1f-7280-4980-8217-c5d375dc327a" width="96" height="96"/></clipPath><clipPath id="87b19860-228e-4a58-a242-620b4c77c0a6"><rect class="16a98c1f-7280-4980-8217-c5d375dc327a" y="1" width="96" height="96"/></clipPath></defs><title>number_7_v2</title><path class="b10c5580-6478-489a-bda8-e33c0e3a96e1" d="M81,4H15.26a4,4,0,0,0-4,3.93L11,22.24a4,4,0,0,0,4,4.07H51.86A171,171,0,0,0,41.19,40.38l0,.06C30.38,56.69,24.62,72.64,24,87.85A4,4,0,0,0,28,92H47a4,4,0,0,0,4-4c0-4.26,1-9.91,3-16.78A97.93,97.93,0,0,1,60.81,53.5a104.78,104.78,0,0,1,11.84-18c4.73-5.83,8.41-9.87,10.94-12a4,4,0,0,0,1.4-3V8A4,4,0,0,0,81,4Zm0,16.46Q76.88,24,69.55,33A108.22,108.22,0,0,0,57.26,51.66a101.37,101.37,0,0,0-7.07,18.45Q47,81,47,88H28q.84-21.8,16.45-45.34,10.09-14.58,16.9-20.34H15L15.26,8H81Z"/></svg>