<svg id="04e9e95b-629c-4aea-8150-7d22f1b52796" data-name="Laag 1" xmlns="http://www.w3.org/2000/svg" xmlns:xlink="http://www.w3.org/1999/xlink" width="96" height="96" viewBox="0 0 96 96"><defs><style>.\31 cc53e75-6797-41d7-a288-65ad5887381e{fill:none;}.f0de38ee-753a-4a74-ad97-7ef958bf25a8{clip-path:url(#68c128a7-70a0-4567-a246-84424f969ab4);}.\37 6a148ab-1062-4c64-ab26-b1532723956a{fill:#333;}.\33 fe23c3f-4925-4d06-967a-7b867ba6a71d{clip-path:url(#5bf8c0c0-9fa1-4a87-81a6-21f7031aafa7);}</style><clipPath id="68c128a7-70a0-4567-a246-84424f969ab4"><rect class="1cc53e75-6797-41d7-a288-65ad5887381e" width="96" height="96"/></clipPath><clipPath id="5bf8c0c0-9fa1-4a87-81a6-21f7031aafa7"><rect class="1cc53e75-6797-41d7-a288-65ad5887381e" y="1" width="96" height="96"/></clipPath></defs><title>number_6_v2</title><path class="76a148ab-1062-4c64-ab26-b1532723956a" d="M48,47.22A11.52,11.52,0,0,0,36.34,58.89,11.34,11.34,0,0,0,48,70.42c6.89,0,11.79-4.92,11.79-11.54A11.47,11.47,0,0,0,48,47.22Zm0,19.2a7.35,7.35,0,0,1-7.66-7.54A7.49,7.49,0,0,1,48,51.22a7.47,7.47,0,0,1,7.79,7.66C55.79,63.32,52.59,66.42,48,66.42ZM74.7,37.3a32.1,32.1,0,0,0-17.31-9.4L68,9.57a4,4,0,0,0-3.46-6H41.91a4,4,0,0,0-3.44,2L21.37,34.43c-6,10-8.37,16.87-8.37,24.46C13,78,28,92.43,48,92.43a35.81,35.81,0,0,0,25-9.51,32.82,32.82,0,0,0,10-24A31.41,31.41,0,0,0,74.7,37.3ZM48,88.43c-17.75,0-31-12.57-31-29.55,0-6.74,2.12-13,7.82-22.42L41.91,7.57H64.56l-13.91,24a9.19,9.19,0,0,1,2-.26C68.54,32.45,79,44.24,79,58.89,79,75.87,65.88,88.43,48,88.43Z"/></svg>