<svg id="005ed9ed-4575-43f2-990f-e4b079246452" data-name="Laag 1" xmlns="http://www.w3.org/2000/svg" xmlns:xlink="http://www.w3.org/1999/xlink" width="96" height="96" viewBox="0 0 96 96"><defs><style>.\38 bdbf2da-c989-492e-8cdd-d095577ae41a{fill:none;}.\34 421e7ae-06cc-45bc-8c08-7d5c99144681{clip-path:url(#ce00c0a9-5d30-49c4-ade1-5bf3ef1f6189);}.\32 bdc858d-5782-4382-969a-7d25adaac308{fill:#333;}.\30 15dfe77-33bb-4750-886a-a835388aa89d{clip-path:url(#1bc84244-2365-4732-b2ae-7a6ffb9972be);}</style><clipPath id="ce00c0a9-5d30-49c4-ade1-5bf3ef1f6189"><rect class="8bdbf2da-c989-492e-8cdd-d095577ae41a" width="96" height="96"/></clipPath><clipPath id="1bc84244-2365-4732-b2ae-7a6ffb9972be"><rect class="8bdbf2da-c989-492e-8cdd-d095577ae41a" y="1" width="96" height="96"/></clipPath></defs><title>number_3_v2</title><path class="2bdc858d-5782-4382-969a-7d25adaac308" d="M80,8.39V8a4,4,0,0,0-4-4H20.41a4,4,0,0,0-4,4V25.69a4,4,0,0,0,4,4H41L31.19,47.9a4,4,0,0,0-.48,1.89v.38a4,4,0,0,0,4,4h.23c.81,0,1.63-.07,2.41-.07,13.18,0,14.21,5.53,14.21,7.23s0,5.87-8.94,5.87a31.45,31.45,0,0,1-20-7.78A4,4,0,0,0,16,62.49V81.33a4,4,0,0,0,1.81,3.34C25.42,89.67,34,92,44.94,92c9.4,0,18-2.82,24.33-8a28.49,28.49,0,0,0,10.6-22.84c0-10.46-5.18-18.85-14.7-24L79.53,10.27A4,4,0,0,0,80,8.39Zm-4,0L59.65,39c10.22,4.1,16.21,11.79,16.21,22.18,0,16.92-14,26.79-30.93,26.79C33.35,88,25.86,85.18,20,81.33V62.49a35.53,35.53,0,0,0,22.62,8.72c8.18,0,12.94-3.33,12.94-9.87,0-7.78-8.19-11.23-18.21-11.23q-1.3,0-2.64.08V49.8l12.95-24.1H20.41V8H76Z"/></svg>