<svg id="d5f3ab46-a6c0-49f5-b3f9-89459a7ae5b1" data-name="Laag 1" xmlns="http://www.w3.org/2000/svg" xmlns:xlink="http://www.w3.org/1999/xlink" width="96" height="96" viewBox="0 0 96 96"><defs><style>.\39 9224bfa-1c0b-4627-bfd5-bab8532d4b01{fill:none;}.\30 b3dff61-2c1e-4c98-b44d-192be2e6c66a{clip-path:url(#f92b17cb-6048-4f7d-838a-3be76f15f26a);}.\36 b502c1a-9077-48a1-80b7-a122cc814ed3{fill:#333;}.\32 7e0f792-44ac-43be-8506-4b19b1e5175d{clip-path:url(#62435cfc-032a-4ce3-9dc0-83b1d1577b5b);}</style><clipPath id="f92b17cb-6048-4f7d-838a-3be76f15f26a"><rect class="99224bfa-1c0b-4627-bfd5-bab8532d4b01" width="96" height="96"/></clipPath><clipPath id="62435cfc-032a-4ce3-9dc0-83b1d1577b5b"><rect class="99224bfa-1c0b-4627-bfd5-bab8532d4b01" y="1" width="96" height="96"/></clipPath></defs><title>number_0_v2</title><path class="6b502c1a-9077-48a1-80b7-a122cc814ed3" d="M47.94,25.79C39,25.79,35.49,36,35.49,48S39,70.21,47.94,70.21,60.38,60,60.38,48,56.86,25.79,47.94,25.79Zm0,40.42c-7.84,0-8.45-13.94-8.45-18.21s.61-18.21,8.45-18.21S56.38,43.73,56.38,48,55.78,66.21,47.94,66.21ZM47.94,4C26.78,4,12,22.09,12,48S26.78,92,47.94,92,84,73.91,84,48,69.17,4,47.94,4Zm0,84C29,88,16,71.6,16,48S29,8,47.94,8,80,24.4,80,48,66.92,88,47.94,88Z"/></svg>