<svg id="3c813c49-9723-4650-9654-02a8067035af" data-name="Laag 1" xmlns="http://www.w3.org/2000/svg" xmlns:xlink="http://www.w3.org/1999/xlink" width="96" height="96" viewBox="0 0 96 96"><defs><style>.\35 a499dfa-3450-43ec-8472-98e3408bc0aa{fill:none;}.\34 6d9c67b-5326-46f5-bbb7-487aeef45997{clip-path:url(#cd463801-0df6-460d-b724-2d1a06856cbe);}.\32 ef9b176-40a5-4c6f-aba6-b25a47d14b86{fill:#333;}.\31 635d09c-0449-4fa9-b557-0e100edc2be7{clip-path:url(#d71973cf-9acd-465a-9af5-1c52f7266122);}</style><clipPath id="cd463801-0df6-460d-b724-2d1a06856cbe"><rect class="5a499dfa-3450-43ec-8472-98e3408bc0aa" width="96" height="96"/></clipPath><clipPath id="d71973cf-9acd-465a-9af5-1c52f7266122"><rect class="5a499dfa-3450-43ec-8472-98e3408bc0aa" y="1" width="96" height="96"/></clipPath></defs><title>number_5_v2</title><path class="2ef9b176-40a5-4c6f-aba6-b25a47d14b86" d="M69.93,39c-6.1-5.11-14.65-7.92-24.09-7.92-.79,0-1.53,0-2.22,0v-1.4H71.54a4,4,0,0,0,4-4V8a4,4,0,0,0-4-4H22.7a4,4,0,0,0-4,4V52.2a4,4,0,0,0,4,4h.24c.12,0,12.13-.73,18.42-.73C50.6,55.46,52,59.3,52,61.59c0,5.33-7.5,5.74-9.8,5.74-6.1,0-16.94-4.07-20.61-5.64A4,4,0,0,0,16,65.37V81.46a4,4,0,0,0,1.85,3.37C25.29,89.59,34.07,92,43.94,92,65.17,92,80,79.39,80,61.33,80,52.22,76.52,44.49,69.93,39Zm-26,49C33.53,88,25.82,85.18,20,81.46V65.37s13.93,6,22.18,6c7.58,0,13.8-3.08,13.8-9.74S49.89,51.46,41.37,51.46c-6.49,0-18.67.74-18.67.74V8H71.54V25.69H39.61v9.87a28.78,28.78,0,0,1,6.22-.51C63,35.05,76,44.92,76,61.33S62.34,88,43.94,88Z"/></svg>