<svg id="2c2e8fb7-f1ad-4d94-b509-9428186ee920" data-name="Laag 1" xmlns="http://www.w3.org/2000/svg" xmlns:xlink="http://www.w3.org/1999/xlink" width="96" height="96" viewBox="0 0 96 96"><defs><style>.ee362a62-026e-44d0-8fb0-45f04351fae3{fill:none;}.\35 7d820f9-23ac-4977-a591-13fdf41ad5d5{clip-path:url(#eb812a56-86c5-4602-b045-affd2d091553);}.e3e97eec-f8ef-462e-994a-48558dd3b965{fill:#333;}.\34 e2b80d8-fb63-41fd-b76d-3149bf1f664a{clip-path:url(#b56ad5dc-94a0-40fa-9a8a-5ad30bf02ba3);}</style><clipPath id="eb812a56-86c5-4602-b045-affd2d091553"><rect class="ee362a62-026e-44d0-8fb0-45f04351fae3" width="96" height="96"/></clipPath><clipPath id="b56ad5dc-94a0-40fa-9a8a-5ad30bf02ba3"><rect class="ee362a62-026e-44d0-8fb0-45f04351fae3" y="1" width="96" height="96"/></clipPath></defs><title>number_9_v2</title><path class="e3e97eec-f8ef-462e-994a-48558dd3b965" d="M48,3.57a35.81,35.81,0,0,0-25,9.51,32.82,32.82,0,0,0-10,24A31.41,31.41,0,0,0,21.3,58.7a32.1,32.1,0,0,0,17.31,9.4L28,86.43a4,4,0,0,0,3.46,6H54.1a4,4,0,0,0,3.44-2l17.09-28.9c6-10,8.37-16.86,8.37-24.46C83,18,68,3.57,48,3.57Zm23.18,56L54.1,88.43H31.44l13.91-24a9.32,9.32,0,0,1-2,.26C27.46,63.55,17,51.76,17,37.11c0-17,13.11-29.55,31-29.55S79,20.14,79,37.11C79,43.85,76.88,50.07,71.18,59.53ZM48,25.58c-6.89,0-11.79,4.92-11.79,11.54a11.73,11.73,0,0,0,23.45,0A11.34,11.34,0,0,0,48,25.58Zm0,19.2a7.47,7.47,0,0,1-7.79-7.66c0-4.44,3.2-7.54,7.79-7.54a7.35,7.35,0,0,1,7.66,7.54A7.49,7.49,0,0,1,48,44.78Z"/></svg>