<svg id="1671c937-99b1-4845-bc2b-073c9fee3d5f" data-name="Laag 1" xmlns="http://www.w3.org/2000/svg" width="96" height="96" viewBox="0 0 96 96"><defs><style>.f7e0af81-4127-4539-9042-55fa3e3b6209{fill:none;}.f72fa3e0-ffeb-4b4b-9622-f55e4d051200{fill:#333;}</style></defs><title>pauze_v1</title><rect class="f7e0af81-4127-4539-9042-55fa3e3b6209" width="96" height="96"/><path class="f72fa3e0-ffeb-4b4b-9622-f55e4d051200" d="M48,4A44,44,0,1,0,92,48,44,44,0,0,0,48,4Zm0,84A40,40,0,1,1,88,48,40,40,0,0,1,48,88Z"/><path class="f72fa3e0-ffeb-4b4b-9622-f55e4d051200" d="M38,26a8,8,0,0,0-8,8V62a8,8,0,0,0,16,0V34A8,8,0,0,0,38,26Zm4,36a4,4,0,0,1-8,0V34a4,4,0,0,1,8,0Z"/><path class="f72fa3e0-ffeb-4b4b-9622-f55e4d051200" d="M58,26a8,8,0,0,0-8,8V62a8,8,0,0,0,16,0V34A8,8,0,0,0,58,26Zm4,36a4,4,0,0,1-8,0V34a4,4,0,0,1,8,0Z"/></svg>