<svg id="f2538d5b-eddf-4c27-aa9a-294e4a9515cf" data-name="Laag 1" xmlns="http://www.w3.org/2000/svg" width="96" height="96" viewBox="0 0 96 96"><defs><style>.b0739691-5a94-49f8-81d5-354485bdc462{fill:none;}.\37 ab6e81f-a941-46ae-a1b0-a4a31ccb73a9{fill:#333;}</style></defs><title>person_v1</title><rect class="b0739691-5a94-49f8-81d5-354485bdc462" width="96" height="96"/><path class="7ab6e81f-a941-46ae-a1b0-a4a31ccb73a9" d="M86.94,71.35C85.13,61.78,75.74,54,66,54H30c-9.73,0-19.16,7.77-21,17.32L5.35,90H9.43l3.48-17.91C14.39,64.45,22.22,58,30,58H66c7.77,0,15.56,6.45,17,14.09L86.4,90h4.07Z"/><path class="7ab6e81f-a941-46ae-a1b0-a4a31ccb73a9" d="M48,49A22.5,22.5,0,1,0,25.5,26.5,22.53,22.53,0,0,0,48,49ZM48,8A18.5,18.5,0,1,1,29.5,26.5,18.52,18.52,0,0,1,48,8Z"/><circle class="7ab6e81f-a941-46ae-a1b0-a4a31ccb73a9" cx="40" cy="27" r="3"/><circle class="7ab6e81f-a941-46ae-a1b0-a4a31ccb73a9" cx="56" cy="27" r="3"/></svg>