<svg id="eca988b6-8d8e-4a33-b201-d6fda1ea9857" data-name="Laag 1" xmlns="http://www.w3.org/2000/svg" width="96" height="96" viewBox="0 0 96 96">
  <title>pinpoint_small_v3</title>
  <rect width="96" height="96" fill="none"/>
  <path d="M66.38,23.68A26,26,0,1,0,29.62,60.45L46.56,77.39a2,2,0,0,0,2.83,0l17-16.94h0a26,26,0,0,0,0-36.77ZM63.56,57.62,48,73.15,32.44,57.62a22,22,0,1,1,31.12,0ZM48,30.18A10.47,10.47,0,1,0,58.47,40.65,10.48,10.48,0,0,0,48,30.18Zm0,16.94a6.47,6.47,0,1,1,6.47-6.47A6.48,6.48,0,0,1,48,47.12Z" fill="#333"/>
</svg>
