<svg id="c1047eab-87dc-498b-9f89-52dce172fb63" data-name="Laag 1" xmlns="http://www.w3.org/2000/svg" width="96" height="96" viewBox="0 0 96 96"><defs><style>.c9fe1171-0ee5-42e8-8a27-f19d3a57df6f{fill:none;}.\30 c0b9217-af88-4dea-ab2d-dcfe99a35642{fill:#333;}</style></defs><title>play_v1</title><rect class="c9fe1171-0ee5-42e8-8a27-f19d3a57df6f" width="96" height="96"/><path class="0c0b9217-af88-4dea-ab2d-dcfe99a35642" d="M48,4A44,44,0,1,0,92,48,44,44,0,0,0,48,4Zm0,84A40,40,0,1,1,88,48,40,40,0,0,1,48,88Z"/><path class="0c0b9217-af88-4dea-ab2d-dcfe99a35642" d="M63.56,40.23,46.88,29.11a9.78,9.78,0,0,0-5.43-1.81C37.06,27.3,34,30.88,34,36V60c0,5.12,3.06,8.7,7.45,8.7a9.78,9.78,0,0,0,5.43-1.81L63.56,55.77A9.42,9.42,0,0,0,68.09,48,9.42,9.42,0,0,0,63.56,40.23Zm-2.22,12.2L44.66,63.56a5.93,5.93,0,0,1-3.21,1.14C39.4,64.7,38,63,38,60V36c0-3,1.4-4.7,3.45-4.7a5.93,5.93,0,0,1,3.21,1.14L61.34,43.56C65,46,65,50,61.34,52.44Z"/></svg>