<svg id="b7cb6b73-2278-4323-a167-7083f5fb34bc" data-name="Laag 1" xmlns="http://www.w3.org/2000/svg" width="96" height="96" viewBox="0 0 96 96"><defs><style>.d5ab7947-88ee-4d4a-acca-22d64a6bf7e3{fill:none;}.d865b793-ca4c-4677-903d-f8145fd21798{fill:#333;}</style></defs><title>questionmark_v1</title><rect class="d5ab7947-88ee-4d4a-acca-22d64a6bf7e3" width="96" height="96"/><path class="d865b793-ca4c-4677-903d-f8145fd21798" d="M48,4A44,44,0,1,0,92,48,44,44,0,0,0,48,4Zm0,84A40,40,0,1,1,88,48,40,40,0,0,1,48,88Z"/><path class="d865b793-ca4c-4677-903d-f8145fd21798" d="M48,17A22,22,0,0,0,26,39a2,2,0,0,0,2,2H40a2,2,0,0,0,2-2,6,6,0,0,1,12,0c-.24.54-2.65,2.15-3.45,2.68C46.73,44.23,40.32,48.5,40,57c0,.12,0,2.83,0,3a2,2,0,0,0,2,2H54a2,2,0,0,0,2-2c0-.09,0-1.74,0-2.35A18.55,18.55,0,0,1,59.44,55c4-2.63,10.56-7,10.56-16A22,22,0,0,0,48,17Zm9.22,34.66C54,53.82,52.15,55.15,52,57.38c0,0,0,.07,0,.11s0,.29,0,.51H44c0-.41,0-.74,0-.81.24-6.5,5.17-9.79,8.77-12.19,3.33-2.22,5.22-3.6,5.22-6a10,10,0,0,0-19.8-2H30.11A18,18,0,0,1,66,39C66,45.81,60.92,49.19,57.22,51.66Z"/><path class="d865b793-ca4c-4677-903d-f8145fd21798" d="M48,64a8,8,0,1,0,8,8A8,8,0,0,0,48,64Zm0,12a4,4,0,1,1,4-4A4,4,0,0,1,48,76Z"/></svg>