<svg id="39003f09-01b7-4e0c-bea0-d57c3486ccc9" data-name="Laag 1" xmlns="http://www.w3.org/2000/svg" width="96" height="96" viewBox="0 0 96 96"><defs><style>.edcc67c6-6d0b-45ec-aab2-32abe73a84f5{fill:none;}.cc661ea2-0d37-4a6b-a0c2-25ba37706b8b{fill:#333;}</style></defs><title>radio_v1</title><rect class="edcc67c6-6d0b-45ec-aab2-32abe73a84f5" width="96" height="96"/><path class="cc661ea2-0d37-4a6b-a0c2-25ba37706b8b" d="M80,25.05V22a6.73,6.73,0,0,0-5.68-6.54L23.73,8.23a6,6,0,1,0-.17,4l50.2,7.17A2.77,2.77,0,0,1,76,22v2.12A18.06,18.06,0,0,0,74,24H22A18,18,0,0,0,4,42V70A18,18,0,0,0,14,86.1V92h4V87.54A17.94,17.94,0,0,0,22,88H74a17.94,17.94,0,0,0,4-.46V92h4V86.1A18,18,0,0,0,92,70V42A18,18,0,0,0,80,25.05ZM18,12a2,2,0,1,1,2-2A2,2,0,0,1,18,12ZM88,70A14,14,0,0,1,74,84H22A14,14,0,0,1,8,70V42A14,14,0,0,1,22,28H74A14,14,0,0,1,88,42Z"/><path class="cc661ea2-0d37-4a6b-a0c2-25ba37706b8b" d="M30,42A14,14,0,1,0,44,56,14,14,0,0,0,30,42Zm0,24A10,10,0,1,1,40,56,10,10,0,0,1,30,66Z"/><rect class="cc661ea2-0d37-4a6b-a0c2-25ba37706b8b" x="50" y="64" width="26" height="4"/><rect class="cc661ea2-0d37-4a6b-a0c2-25ba37706b8b" x="50" y="54" width="26" height="4"/><rect class="cc661ea2-0d37-4a6b-a0c2-25ba37706b8b" x="50" y="44" width="26" height="4"/></svg>