<svg id="5c903b49-7129-4a2e-b28b-bcb22b485e68" data-name="Laag 1" xmlns="http://www.w3.org/2000/svg" width="96" height="96" viewBox="0 0 96 96"><defs><style>.\32 bc781b3-fb2b-4e00-bfbd-9a3c909f6491{fill:none;}.\32 70a65c4-04de-4c2c-a981-ac85622bcbb8{fill:#333;}</style></defs><title>replay_tv_v1</title><rect class="2bc781b3-fb2b-4e00-bfbd-9a3c909f6491" width="96" height="96"/><path class="270a65c4-04de-4c2c-a981-ac85622bcbb8" d="M52,12A36,36,0,0,0,16,48v7L8,47v5.66l8.59,8.59a2,2,0,0,0,2.83,0L28,52.69V47l-8,8V48A32,32,0,1,1,52,80v4a36,36,0,0,0,0-72Z"/><path class="270a65c4-04de-4c2c-a981-ac85622bcbb8" d="M66,48a6.67,6.67,0,0,0-3.15-5.55L51.55,34.89a6.94,6.94,0,0,0-3.82-1.24C44.88,33.65,42,35.83,42,40V56c0,4.17,2.88,6.35,5.72,6.35a6.94,6.94,0,0,0,3.82-1.24l11.34-7.56A6.67,6.67,0,0,0,66,48Zm-5.37,2.22L49.33,57.78a3,3,0,0,1-1.6.57c-1,0-1.72-.85-1.72-2.35V40c0-1.5.7-2.35,1.72-2.35a3,3,0,0,1,1.6.57l11.34,7.56A2.48,2.48,0,0,1,60.67,50.22Z"/></svg>