<svg id="b0fc7614-4fd9-41fe-80a2-ab004b00833d" data-name="Laag 1" xmlns="http://www.w3.org/2000/svg" width="96" height="96" viewBox="0 0 96 96">
  <title>robot_v3</title>
  <rect width="96" height="96" fill="none"/>
  <path d="M74,62.2V46a25.89,25.89,0,0,0-6.58-17.26l3.9-5.21A8,8,0,1,0,68,21.28l-3.49,4.65a26,26,0,0,0-33.05,0L28,21.3a8,8,0,1,0-3.32,2.24l3.91,5.22A25.89,25.89,0,0,0,22,46V62.2A10,10,0,0,0,14,72V84h4V72a6,6,0,0,1,12,0V84h4V72H62V84h4V72a6,6,0,0,1,12,0V84h4V72A10,10,0,0,0,74,62.2ZM70,16a4,4,0,1,1,4,4h0a4.05,4.05,0,0,1-4-4ZM22,20a4,4,0,1,1,4-4,4.05,4.05,0,0,1-4,4Zm26,4A22,22,0,0,1,70,46V56H26V46A22,22,0,0,1,48,24ZM62.84,68H33.16A10,10,0,0,0,26,62.2V60H70v2.2A10,10,0,0,0,62.84,68ZM42.35,44a6,6,0,0,0,11.3,0H57.8a10,10,0,0,1-19.6,0Zm-5.83-8a3,3,0,1,1,3,3A3,3,0,0,1,36.52,36Zm17,0a3,3,0,1,1,3,3A3,3,0,0,1,53.52,36Z" fill="#333"/>
</svg>
