<svg id="7e5ef285-a0cc-4661-96a2-b11680afc677" data-name="Laag 1" xmlns="http://www.w3.org/2000/svg" width="96" height="96" viewBox="0 0 96 96"><defs><style>.\33 8f8200f-1faf-4332-a971-fee1ca264a29{fill:none;}.f1f00aab-43ed-4823-a3c8-368631448330{fill:#333;}</style></defs><title>search_v1</title><rect class="38f8200f-1faf-4332-a971-fee1ca264a29" width="96" height="96"/><path class="f1f00aab-43ed-4823-a3c8-368631448330" d="M88.68,72.65,66,50A11.32,11.32,0,0,0,51.53,48.7l-8.1-8.1a22,22,0,1,0-2.92,2.74l8.19,8.19A11.32,11.32,0,0,0,50,66L72.65,88.68a11.33,11.33,0,1,0,16-16ZM27,44A18,18,0,1,1,45,26,18,18,0,0,1,27,44ZM85.85,85.85a7.33,7.33,0,0,1-10.37,0L52.81,63.18A7.33,7.33,0,1,1,63.19,52.82L85.85,75.48a7.33,7.33,0,0,1,0,10.37Z"/></svg>