<svg id="377bfb9c-e1c7-49dd-a378-3fe7a7526288" data-name="Laag 1" xmlns="http://www.w3.org/2000/svg" xmlns:xlink="http://www.w3.org/1999/xlink" width="96" height="96" viewBox="0 0 96 96"><defs><style>.\33 dbe5294-a85e-4fda-8fbb-b947f5a58712{fill:none;}.b2ff603f-bbc4-4141-9f34-22e5e4f203b7{clip-path:url(#c3f4877f-9330-4039-869a-e05ff8315d23);}.fc3708d1-2275-4ae6-8b8d-03a14b2e5cd2{fill:#333;}.\37 21abd8e-f148-4c40-903f-55df257e5b12{clip-path:url(#137780dd-eacd-4caf-8ca8-a8275f5e25dd);}</style><clipPath id="c3f4877f-9330-4039-869a-e05ff8315d23"><rect class="3dbe5294-a85e-4fda-8fbb-b947f5a58712" width="96" height="96"/></clipPath><clipPath id="137780dd-eacd-4caf-8ca8-a8275f5e25dd"><rect class="3dbe5294-a85e-4fda-8fbb-b947f5a58712" y="1" width="96" height="96"/></clipPath></defs><title>security_v2</title><path class="fc3708d1-2275-4ae6-8b8d-03a14b2e5cd2" d="M70.86,6H25.14A11.23,11.23,0,0,0,14,17.21V59a11.27,11.27,0,0,0,3.9,8.54L40.72,87.33a11.07,11.07,0,0,0,14.57,0L78.14,67.58h0A11.27,11.27,0,0,0,82,59V17.21A11.23,11.23,0,0,0,70.86,6ZM78,59a7.19,7.19,0,0,1-2.49,5.45h0L52.62,84.24a7,7,0,0,1-9.23,0L20.53,64.5A7.19,7.19,0,0,1,18,59V17.21A7.15,7.15,0,0,1,25.14,10H70.86A7.15,7.15,0,0,1,78,17.21Z"/><path class="fc3708d1-2275-4ae6-8b8d-03a14b2e5cd2" d="M43.72,53.4l-8-13.4H31.07L42,58.26a2,2,0,0,0,1.7,1h0a2,2,0,0,0,1.7-.94L65.55,25.93H60.84Z"/></svg>