<svg id="44d54b31-efaf-4303-b7ea-b744e31863d8" data-name="Laag 1" xmlns="http://www.w3.org/2000/svg" width="96" height="96" viewBox="0 0 96 96">
  <title>send_v3</title>
  <rect width="96" height="96" fill="none"/>
  <path d="M80.55,38.8l-.09,0-2.24-1L26.4,11.61C22.22,9.52,18.16,9.45,15,11.42s-5,5.71-5,10.32C10,25.12,15.8,43,17.44,48,15.8,53,10,70.88,10,74.26c0,4.6,1.81,8.36,5,10.32A9.69,9.69,0,0,0,20.13,86a14.09,14.09,0,0,0,6.27-1.62L78.27,58.26,80.53,57a10.31,10.31,0,0,0,0-18.24ZM78.67,53.5h0l-2.22,1.2L24.61,80.82c-2.89,1.45-5.56,1.58-7.53.36S14,77.45,14,74.26c0-2,3.95-14.95,7-24.26H66V46H21c-3-9.32-7-22.24-7-24.26,0-3.19,1.12-5.71,3.08-6.91A5.75,5.75,0,0,1,20.14,14a10.1,10.1,0,0,1,4.46,1.19L76.48,41.32l2.25,1a6.31,6.31,0,0,1-.06,11.14Z" fill="#333"/>
</svg>
