<svg id="d4740a5e-6d0d-4dbd-b121-fed11d26cfaa" data-name="Laag 1" xmlns="http://www.w3.org/2000/svg" width="96" height="96" viewBox="0 0 96 96"><defs><style>.\33 c257f14-2916-48c8-9f43-bfb1f29c0abe{fill:none;}.cd92c6f6-5714-4da5-bdb1-f4f6564e400d{fill:#333;}</style></defs><title>share_v1</title><rect class="3c257f14-2916-48c8-9f43-bfb1f29c0abe" width="96" height="96"/><path class="cd92c6f6-5714-4da5-bdb1-f4f6564e400d" d="M91.75,35.79a14,14,0,0,0-27.1,6.7l-4.11,1.34A14,14,0,0,0,50,36.16V31.84a14,14,0,1,0-4,0v4.32a14,14,0,0,0-10.54,7.66l-4.11-1.34a14,14,0,1,0-1.23,3.81l4.1,1.33a13.8,13.8,0,0,0,4,12.4l-2.54,3.49a14,14,0,1,0-6.55,26.38,14.1,14.1,0,0,0,2.22-.18,14,14,0,0,0,7.56-23.85l2.53-3.49a13.92,13.92,0,0,0,13,0l2.53,3.49a14,14,0,0,0,7.56,23.85,14.1,14.1,0,0,0,2.22.18,14,14,0,1,0-6.55-26.38L57.75,60a13.8,13.8,0,0,0,4-12.4l4.1-1.33a14,14,0,0,0,12.53,7.83,14.05,14.05,0,0,0,4.34-.69,14,14,0,0,0,9-17.64ZM27.08,43.2a10,10,0,1,1-6.42-12.6A9.94,9.94,0,0,1,27.08,43.2ZM37.28,81.77a10,10,0,1,1,1.79-7.44A9.94,9.94,0,0,1,37.28,81.77ZM68.37,66a10,10,0,1,1-7.44,1.79A9.94,9.94,0,0,1,68.37,66ZM38,18A10,10,0,1,1,48,28,10,10,0,0,1,38,18ZM48,60A10,10,0,1,1,58,50,10,10,0,0,1,48,60ZM87.34,44.65a10,10,0,1,1,.6-7.63A9.93,9.93,0,0,1,87.34,44.65Z"/></svg>