<svg id="2a9aa306-a9c3-4b6e-9f5b-05d8332acf2b" data-name="Laag 1" xmlns="http://www.w3.org/2000/svg" width="96" height="96" viewBox="0 0 96 96"><defs><style>.\33 3883db2-7663-4587-84a2-d5d797a92054{fill:none;}.\37 0920d91-1931-4331-9069-106ff341049b{fill:#333;}</style></defs><title>shoppingcard_v1</title><rect class="33883db2-7663-4587-84a2-d5d797a92054" width="96" height="96"/><path class="70920d91-1931-4331-9069-106ff341049b" d="M86.79,35A8.71,8.71,0,0,0,80,32H54.31L32.92,10.61A8,8,0,1,0,21.61,21.92L31.69,32H16A8.57,8.57,0,0,0,7.34,42.22l5.37,32.22A11.85,11.85,0,0,0,24,84H72a11.85,11.85,0,0,0,11.29-9.56l5.37-32.22A8.71,8.71,0,0,0,86.79,35ZM23.26,16.26a4,4,0,0,1,6.83-2.83L51.56,34.91a4,4,0,0,1,0,5.66h0a4.09,4.09,0,0,1-5.66,0L24.44,19.09A4,4,0,0,1,23.26,16.26Zm-11,21.35A4.78,4.78,0,0,1,16,36H35.69l7.39,7.39a8,8,0,0,0,13.66-5.66A8.05,8.05,0,0,0,56.54,36H80a4.57,4.57,0,0,1,4.71,5.56L83.64,48H12.36l-1.07-6.44A4.78,4.78,0,0,1,12.26,37.61ZM79.34,73.78A7.81,7.81,0,0,1,72,80H24a7.81,7.81,0,0,1-7.34-6.22L13,52H83Z"/><rect class="70920d91-1931-4331-9069-106ff341049b" x="28" y="60" width="4" height="12"/><rect class="70920d91-1931-4331-9069-106ff341049b" x="40" y="60" width="4" height="12"/><rect class="70920d91-1931-4331-9069-106ff341049b" x="52" y="60" width="4" height="12"/><rect class="70920d91-1931-4331-9069-106ff341049b" x="64" y="60" width="4" height="12"/></svg>