<svg id="dc33f187-c179-423b-b83f-3b933a9ac1e8" data-name="Laag 1" xmlns="http://www.w3.org/2000/svg" width="96" height="96" viewBox="0 0 96 96">
  <title>shop_v3</title>
  <rect width="96" height="96" fill="none"/>
  <path d="M90,34h-.6L81.88,13.32A2,2,0,0,0,80,12H58.2a7.91,7.91,0,0,0-2.63-1.39C53.5,6.75,48.48,4,44.93,4c-4.27,0-7.16,3.09-7.66,8H16a2,2,0,0,0-1.88,1.32L6.6,34H6a2,2,0,0,0-2,2v8a8,8,0,0,0,6,7.74V76A10,10,0,0,0,20,86H76A10,10,0,0,0,86,76V51.74A8,8,0,0,0,92,44V36A2,2,0,0,0,90,34ZM41.8,16.5a5.09,5.09,0,0,1-.21-.5,5.74,5.74,0,0,1-.25-.84,7.79,7.79,0,0,1-.16-1.6A10.93,10.93,0,0,1,41.29,12c.3-2,1.26-4,3.64-4,2.17,0,5.37,1.84,6.82,4a4,4,0,0,1,.76,2.18,7.05,7.05,0,0,1,1,.07,4.91,4.91,0,0,1,1.65.53A3.3,3.3,0,0,1,56.47,16a2.93,2.93,0,0,1,.43,1.5,5.23,5.23,0,0,1-.49,2.06c-.49,1.15-.93,2.35-1.33,3.54-.06.18-.12.37-.18.57l-.19.63a6.22,6.22,0,0,1-.86,1.83,2.49,2.49,0,0,1-.43.45,1.87,1.87,0,0,1-1.2.41l-.31,0a4.24,4.24,0,0,1-1.73-.78,5.1,5.1,0,0,1-.92-.87,5.35,5.35,0,0,1-.42-.58l-.54,0a12.26,12.26,0,0,1-1.93-.15,11.26,11.26,0,0,1-1.72-.41c-3.22-1-5.09-3.33-5.09-4.78A3.64,3.64,0,0,1,41.8,16.5ZM17.4,16H36.58a6.43,6.43,0,0,0-1,3.41c0,4.15,4.61,8.74,11.39,9.29A8,8,0,0,0,52.22,31c4.66,0,6-4.46,6.5-6.15.05-.18.1-.34.15-.49.39-1.18.8-2.26,1.21-3.22a9.19,9.19,0,0,0,.81-3.63,7,7,0,0,0-.19-1.5H78.6l6.55,18H10.86ZM46,82H30V58H46Zm20,0H50V58H66Zm16-6a6,6,0,0,1-6,6H70V56a2,2,0,0,0-2-2H28a2,2,0,0,0-2,2V82H20a6,6,0,0,1-6-6V51.74a8,8,0,0,0,4-2.46,8,8,0,0,0,12,0,8,8,0,0,0,12,0,8,8,0,0,0,12,0,8,8,0,0,0,12,0,8,8,0,0,0,12,0,8,8,0,0,0,4,2.46Zm6-32a4,4,0,0,1-8,0H76a4,4,0,0,1-8,0H64a4,4,0,0,1-8,0H52a4,4,0,0,1-8,0H40a4,4,0,0,1-8,0H28a4,4,0,0,1-8,0H16a4,4,0,0,1-8,0V38H88Z" fill="#333"/>
</svg>
