<svg id="5557272b-3909-4e1c-b66c-66c6bf369113" data-name="Laag 1" xmlns="http://www.w3.org/2000/svg" width="96" height="96" viewBox="0 0 96 96"><defs><style>.\37 ebdf91e-b7f0-4684-9cd3-9721c6dd4bdc{fill:none;}.d991b173-bbfb-4691-8b07-8bb8d96a623f{fill:#333;}</style></defs><title>sim_card_v1</title><rect class="7ebdf91e-b7f0-4684-9cd3-9721c6dd4bdc" width="96" height="96"/><path class="d991b173-bbfb-4691-8b07-8bb8d96a623f" d="M77.47,20.64c-.62-.71-7.16-8.16-11.05-12.05-.54-.54-1-1-1.37-1.44C63.07,5,61.94,4,58,4H26A10,10,0,0,0,16,14V82A10,10,0,0,0,26,92H70A10,10,0,0,0,80,82V26C80,23.39,77.9,21.09,77.47,20.64ZM76,82a6,6,0,0,1-6,6H26a6,6,0,0,1-6-6V14a6,6,0,0,1,6-6H58c2.37,0,2.54.18,4.11,1.87.41.45.89,1,1.47,1.54,3.91,3.91,10.84,11.82,10.91,11.9l.09.1A5,5,0,0,1,76,26Z"/><path class="d991b173-bbfb-4691-8b07-8bb8d96a623f" d="M64,36H32a6,6,0,0,0-6,6V76a6,6,0,0,0,6,6H64a6,6,0,0,0,6-6V42A6,6,0,0,0,64,36Zm0,4a2,2,0,0,1,2,2v8H56V40ZM56,54H66V64H56ZM32,40H52V78H44V52a2,2,0,0,0-2-2H30V42A2,2,0,0,1,32,40ZM30,54H40V64H30Zm0,22V68H40V78H32A2,2,0,0,1,30,76Zm34,2H56V68H66v8A2,2,0,0,1,64,78Z"/></svg>