<svg id="dc3c217b-bfbd-4958-b859-45ec9415651b" data-name="Laag 1" xmlns="http://www.w3.org/2000/svg" width="96" height="96" viewBox="0 0 96 96"><defs><style>.\31 5bca7dd-f3af-4c03-9858-037c9738ac1f{fill:none;}.\39 cdb02de-3d1a-4810-a76f-1e27f9994ff0{fill:#333;}</style></defs><title>smiley_wink_v1</title><rect class="15bca7dd-f3af-4c03-9858-037c9738ac1f" width="96" height="96"/><path class="9cdb02de-3d1a-4810-a76f-1e27f9994ff0" d="M48,68a22,22,0,0,1-17-8H26.11a26,26,0,0,0,43.78,0H65A22,22,0,0,1,48,68Z"/><path class="9cdb02de-3d1a-4810-a76f-1e27f9994ff0" d="M44,41.32V36.7a22.09,22.09,0,0,0-20,0v4.62A18,18,0,0,1,44,41.32Z"/><path class="9cdb02de-3d1a-4810-a76f-1e27f9994ff0" d="M62,30a8,8,0,1,0,8,8A8,8,0,0,0,62,30Zm0,4a4,4,0,1,1-4,4A4,4,0,0,1,62,34Z"/><path class="9cdb02de-3d1a-4810-a76f-1e27f9994ff0" d="M48,4A44,44,0,1,0,92,48,44,44,0,0,0,48,4Zm0,84A40,40,0,1,1,88,48,40,40,0,0,1,48,88Z"/></svg>