<svg id="da88b9f6-908b-47df-930d-7ea816fcc815" data-name="Laag 1" xmlns="http://www.w3.org/2000/svg" width="96" height="96" viewBox="0 0 96 96"><defs><style>.\32 d0160f6-2e12-46ab-9684-630522f2ba08{fill:none;}.b4dfab95-cc3e-4c90-958a-605f538eb6e4{fill:#333;}</style></defs><title>speed_v1</title><rect class="2d0160f6-2e12-46ab-9684-630522f2ba08" width="96" height="96"/><path class="b4dfab95-cc3e-4c90-958a-605f538eb6e4" d="M50,46.26V26H46V46.26a8,8,0,1,0,4,0ZM48,58a4,4,0,1,1,4-4A4,4,0,0,1,48,58Z"/><path class="b4dfab95-cc3e-4c90-958a-605f538eb6e4" d="M79.11,22.89A44,44,0,1,0,16.89,85.11a2,2,0,0,0,2.83,0L26.79,78,24,75.21l-5.62,5.62A39.67,39.67,0,0,1,8.05,56H16V52H8A39.67,39.67,0,0,1,18.34,27.16L24,32.79,26.79,30l-5.62-5.62A39.67,39.67,0,0,1,46,14v8h4V14A39.67,39.67,0,0,1,74.84,24.34L69.21,30,72,32.79l5.62-5.62A39.67,39.67,0,0,1,88,52H80v4h7.95A39.67,39.67,0,0,1,77.66,80.83L72,75.21,69.21,78l7.07,7.07a2,2,0,0,0,2.83,0,44,44,0,0,0,0-62.22Z"/></svg>