<svg id="6764ef0d-13de-4bba-876a-7c75c38fce26" data-name="Laag 1" xmlns="http://www.w3.org/2000/svg" width="96" height="96" viewBox="0 0 96 96">
  <title>sports_v3</title>
  <rect width="96" height="96" fill="none"/>
  <path d="M80.9,15.1a14,14,0,0,0-19.8,0l-.15.17L19.59,67.43l0,0a5,5,0,0,0-7.07,0L11.06,68.8a5,5,0,0,0,0,7.07l9.41,9.41a5,5,0,0,0,7.07,0L29,83.87a5,5,0,0,0,0-7.07l-.39-.39L80.73,35.05l.17-.15A14,14,0,0,0,80.9,15.1ZM24.33,74.67a2,2,0,0,0-.17,3l2,2a1,1,0,0,1,0,1.41l-1.41,1.41a1,1,0,0,1-1.41,0L13.89,73a1,1,0,0,1,0-1.41l1.41-1.41a1,1,0,0,1,1.41,0l1.63,1.63a2,2,0,0,0,3-.17L35.9,53.29l6.81,6.81ZM78.15,32,45.87,57.59l-7.46-7.46L64,17.85A10,10,0,0,1,78.15,32ZM22,30a8,8,0,1,0-8-8A8,8,0,0,0,22,30Zm0-12a4,4,0,1,1-4,4A4,4,0,0,1,22,18Z" fill="#333"/>
</svg>
