<svg id="85a70105-6c38-45e3-b98c-2e9425a4e859" data-name="Laag 1" xmlns="http://www.w3.org/2000/svg" xmlns:xlink="http://www.w3.org/1999/xlink" width="96" height="96" viewBox="0 0 96 96"><defs><style>.f064ee85-0067-4390-b286-8b85421aab66{fill:none;}.\33 fa16579-c238-4696-b5b2-d912f694b1a7{clip-path:url(#0a99f476-b532-416f-bc2e-e023b5690bed);}.\34 5ad42d2-4923-4be0-8b5b-31af461a59ec{fill:#333;}.e3b2b4c1-6767-4fa0-a522-a3fc50f9b4c1{clip-path:url(#71953711-fe85-4848-9ace-38d47d88de90);}</style><clipPath id="0a99f476-b532-416f-bc2e-e023b5690bed"><rect class="f064ee85-0067-4390-b286-8b85421aab66" width="96" height="96"/></clipPath><clipPath id="71953711-fe85-4848-9ace-38d47d88de90"><rect class="f064ee85-0067-4390-b286-8b85421aab66" y="1" width="96" height="96"/></clipPath></defs><title>suitcase_v2</title><path class="45ad42d2-4923-4be0-8b5b-31af461a59ec" d="M78,23H65.84A14,14,0,0,0,52,11H44A14,14,0,0,0,30.16,23H18A10,10,0,0,0,8,33V69A10,10,0,0,0,18,79H78A10,10,0,0,0,88,69V33A10,10,0,0,0,78,23ZM44,15h8a10,10,0,0,1,9.8,8H34.2A10,10,0,0,1,44,15ZM84,69a6,6,0,0,1-6,6H18a6,6,0,0,1-6-6V50.28A14,14,0,0,0,22,54.5H74a14,14,0,0,0,10-4.22ZM74,50.5H22a10,10,0,0,1-10-10V33a6,6,0,0,1,6-6H78a6,6,0,0,1,6,6v7.5A10,10,0,0,1,74,50.5ZM51,43a3,3,0,1,1-3-3A3,3,0,0,1,51,43Z"/></svg>