<svg id="027177d3-a00c-4765-8053-03aa2927f617" data-name="Laag 1" xmlns="http://www.w3.org/2000/svg" width="96" height="96" viewBox="0 0 96 96"><defs><style>.\35 5ac886f-c428-4411-9d36-d720f55b9d00{fill:none;}.adb98400-37fc-4571-8f08-d6369d62189a{fill:#333;}</style></defs><title>sun_v1</title><rect class="55ac886f-c428-4411-9d36-d720f55b9d00" width="96" height="96"/><circle class="adb98400-37fc-4571-8f08-d6369d62189a" cx="39" cy="47" r="3"/><circle class="adb98400-37fc-4571-8f08-d6369d62189a" cx="57" cy="47" r="3"/><rect class="adb98400-37fc-4571-8f08-d6369d62189a" x="46" y="4" width="4" height="14"/><rect class="adb98400-37fc-4571-8f08-d6369d62189a" x="46" y="78" width="4" height="14"/><rect class="adb98400-37fc-4571-8f08-d6369d62189a" x="78" y="46" width="14" height="4"/><rect class="adb98400-37fc-4571-8f08-d6369d62189a" x="4" y="46" width="14" height="4"/><polygon class="adb98400-37fc-4571-8f08-d6369d62189a" points="67.8 70.63 76.17 79 81.83 79 70.63 67.8 67.8 70.63"/><polygon class="adb98400-37fc-4571-8f08-d6369d62189a" points="28.26 25.44 19.62 16 14.67 16 14.41 16.24 25.31 28.14 28.26 25.44"/><polygon class="adb98400-37fc-4571-8f08-d6369d62189a" points="14.17 79 19.83 79 28.2 70.63 25.37 67.8 14.17 79"/><polygon class="adb98400-37fc-4571-8f08-d6369d62189a" points="82.53 16.3 82.23 16 77.17 16 67.8 25.37 70.63 28.2 82.53 16.3"/><path class="adb98400-37fc-4571-8f08-d6369d62189a" d="M48,22A26,26,0,1,0,74,48,26,26,0,0,0,48,22Zm0,48A22,22,0,1,1,70,48,22,22,0,0,1,48,70Z"/></svg>