<svg id="a80bbe86-b33d-4af1-be12-fabc4dfee85c" data-name="Laag 1" xmlns="http://www.w3.org/2000/svg" width="96" height="96" viewBox="0 0 96 96"><defs><style>.\36 dbfb963-6676-4013-a769-845df5a34bdd{fill:none;}.\35 faa5775-46bc-4817-8082-fdc52cb09154{fill:#333;}</style></defs><title>tablet_v1</title><rect class="6dbfb963-6676-4013-a769-845df5a34bdd" width="96" height="96"/><path class="5faa5775-46bc-4817-8082-fdc52cb09154" d="M82,16H14A10,10,0,0,0,4,26V70A10,10,0,0,0,14,80H82A10,10,0,0,0,92,70V26A10,10,0,0,0,82,16Zm6,54a6,6,0,0,1-6,6H14a6,6,0,0,1-6-6V26a6,6,0,0,1,6-6H82a6,6,0,0,1,6,6Z"/><circle class="5faa5775-46bc-4817-8082-fdc52cb09154" cx="15" cy="48" r="3"/></svg>