<svg id="12b95d4c-f66e-430e-ac36-dea89910680d" data-name="Laag 1" xmlns="http://www.w3.org/2000/svg" width="96" height="96" viewBox="0 0 96 96"><defs><style>.\36 2f3716c-e9fb-46d8-a065-c033237ae665{fill:none;}.\35 9ff715e-61bd-47d6-a21d-36b099a2cea7{fill:#333;}</style></defs><title>tablet - deviceset_v1</title><rect class="62f3716c-e9fb-46d8-a065-c033237ae665" width="96" height="96"/><path class="59ff715e-61bd-47d6-a21d-36b099a2cea7" d="M70,26H26A10,10,0,0,0,16,36V60A10,10,0,0,0,26,70H70A10,10,0,0,0,80,60V36A10,10,0,0,0,70,26Zm6,34a6,6,0,0,1-6,6H26a6,6,0,0,1-6-6V36a6,6,0,0,1,6-6H70a6,6,0,0,1,6,6Z"/><circle class="59ff715e-61bd-47d6-a21d-36b099a2cea7" cx="26" cy="48" r="2"/></svg>