<svg id="d37babf3-d11c-47e8-90dd-f1a5656bfaa6" data-name="Laag 1" xmlns="http://www.w3.org/2000/svg" xmlns:xlink="http://www.w3.org/1999/xlink" width="96" height="96" viewBox="0 0 96 96"><defs><style>.\30 9fcd262-8212-4fd0-b47b-1971904aa651{fill:none;}.adbac58c-1010-451a-ab91-89918ddff3e8{fill:#033333;}.\39 3250ebf-ca61-4fff-8aab-25a2842a343d{clip-path:url(#b9df60b9-da78-458b-aab0-a427c08e9e8d);}.\32 e5b2aa8-5a98-405f-b282-2044196814a1{clip-path:url(#1275cf5e-09f1-4c1a-8d09-1542c27b86d3);}</style><clipPath id="b9df60b9-da78-458b-aab0-a427c08e9e8d"><rect class="09fcd262-8212-4fd0-b47b-1971904aa651" width="96" height="96"/></clipPath><clipPath id="1275cf5e-09f1-4c1a-8d09-1542c27b86d3"><rect class="09fcd262-8212-4fd0-b47b-1971904aa651" y="1" width="96" height="96"/></clipPath></defs><title>thief_v2</title><rect class="09fcd262-8212-4fd0-b47b-1971904aa651" width="96" height="96"/><path class="adbac58c-1010-451a-ab91-89918ddff3e8" d="M86.4,90h4.07L86.94,71.35C85.13,61.78,75.74,54,66,54H30c-9.73,0-19.16,7.77-21,17.32L5.35,90H9.43l.39-2H86ZM30,58H66a17.91,17.91,0,0,1,12.77,6H17.18A18,18,0,0,1,30,58ZM14.35,68H81.58A15.25,15.25,0,0,1,83,72.09L83.36,74H12.54l.37-1.91A15.31,15.31,0,0,1,14.35,68ZM10.6,84l1.17-6H84.12l1.14,6ZM48,49A22.5,22.5,0,1,0,25.5,26.5,22.5,22.5,0,0,0,48,49Zm0-4A18.48,18.48,0,0,1,31.53,34.9a17.85,17.85,0,0,0,5.51.92A14.09,14.09,0,0,0,46,32.69H50a14.26,14.26,0,0,0,9,3.11,17,17,0,0,0,3.72-.43c.62-.14,1.2-.31,1.75-.49A18.48,18.48,0,0,1,48,45ZM66.5,26.5a18.55,18.55,0,0,1-.32,3.34c-2.65,1.45-8.82,3.91-14.12-.66a2,2,0,0,0-1.31-.49H45.24a2,2,0,0,0-1.31.49c-5.26,4.54-11.45,2.09-14.12.65A17.78,17.78,0,0,1,30,22.19H66A18.49,18.49,0,0,1,66.5,26.5ZM48,8A18.48,18.48,0,0,1,64.51,18.19h-33A18.5,18.5,0,0,1,48,8ZM37,25.14a4,4,0,0,1,.14-1l5.86,1a3.27,3.27,0,0,1-3,3.46A3.28,3.28,0,0,1,37,25.14Zm16,0,5.86-1a3.94,3.94,0,0,1,.14,1,3,3,0,1,1-6,0Z"/><rect class="09fcd262-8212-4fd0-b47b-1971904aa651" y="1" width="96" height="96"/></svg>