<svg id="f49812b5-4c35-42ae-9a2f-be20c5df0dbc" data-name="Laag 1" xmlns="http://www.w3.org/2000/svg" width="96" height="96" viewBox="0 0 96 96"><defs><style>.f6fcaf25-74e8-4dd3-a6af-ad3cfe2e6a01{fill:none;}.\30 01ed2e0-9184-433a-b4a7-9608b08c00a2{fill:#333;}</style></defs><title>thumbs_down_v1</title><rect class="f6fcaf25-74e8-4dd3-a6af-ad3cfe2e6a01" width="96" height="96"/><path class="001ed2e0-9184-433a-b4a7-9608b08c00a2" d="M85,14H69a6,6,0,0,0-5.65,4h-.63A27.12,27.12,0,0,0,47,12H21a8,8,0,0,0-6.64,12.46,8,8,0,0,0-4,12,8,8,0,0,0,0,15.09A8,8,0,0,0,17,64H27V80c0,3.46,2.09,10,10,10s10-6.54,10-10V68s.12-4,2-4a22.41,22.41,0,0,0,14.56-5.49A6,6,0,0,0,69,62H85a6,6,0,0,0,6-6V20A6,6,0,0,0,85,14ZM49,60c-4.75,0-6,5.23-6,8V80c-.07,5.72-5,6-6,6s-5.93-.29-6-6V60H17a4,4,0,0,1,0-8h6V48H13a4,4,0,0,1,0-8H23V36H17a4,4,0,0,1,0-8H27V24H21a4,4,0,0,1,0-8H47a23.49,23.49,0,0,1,13.7,5.52A2,2,0,0,0,62,22h1V53.5C60.81,55.87,56,60,49,60Zm38-4a2,2,0,0,1-2,2H69a2,2,0,0,1-2-2V20a2,2,0,0,1,2-2H85a2,2,0,0,1,2,2Z"/><circle class="001ed2e0-9184-433a-b4a7-9608b08c00a2" cx="77" cy="27" r="3"/></svg>