<svg id="6dfa4b0f-16a0-4e07-ae1d-76302e941e4c" data-name="Laag 1" xmlns="http://www.w3.org/2000/svg" width="96" height="96" viewBox="0 0 96 96"><defs><style>.b82cb737-585d-4bf1-b8d6-b83f37e2c0bf{fill:none;}.d81208fe-c234-4f0f-af0f-0a971a37e737{fill:#333;}</style></defs><title>thumbs_up_v1</title><rect class="b82cb737-585d-4bf1-b8d6-b83f37e2c0bf" width="96" height="96"/><path class="d81208fe-c234-4f0f-af0f-0a971a37e737" d="M91,52a8,8,0,0,0-5.36-7.54A8,8,0,0,0,79,32H69V16c0-3.46-2.09-10-10-10S49,12.54,49,16V28s-.12,4-2,4a22.41,22.41,0,0,0-14.56,5.49A6,6,0,0,0,27,34H11a6,6,0,0,0-6,6V76a6,6,0,0,0,6,6H27a6,6,0,0,0,5.65-4h.63A27.12,27.12,0,0,0,49,84H75a8,8,0,0,0,6.64-12.46,8,8,0,0,0,4-12A8,8,0,0,0,91,52ZM29,76a2,2,0,0,1-2,2H11a2,2,0,0,1-2-2V40a2,2,0,0,1,2-2H27a2,2,0,0,1,2,2V76ZM83,56H73v4h6a4,4,0,0,1,0,8H69v4h6a4,4,0,0,1,0,8H49a23.49,23.49,0,0,1-13.7-5.52A2,2,0,0,0,34,74H33V42.5c2.19-2.37,7-6.5,14-6.5,4.75,0,6-5.23,6-8V16c.07-5.72,5-6,6-6s5.93.29,6,6V36H79a4,4,0,0,1,0,8H73v4H83a4,4,0,0,1,0,8Z"/><circle class="d81208fe-c234-4f0f-af0f-0a971a37e737" cx="19" cy="69" r="3"/></svg>