<svg id="56f1b33d-cdb2-49ad-8d9f-2d3e7c590460" data-name="Laag 1" xmlns="http://www.w3.org/2000/svg" width="96" height="96" viewBox="0 0 96 96">
  <title>tickets_v3</title>
  <rect width="96" height="96" fill="none"/>
  <path d="M62,58h4v4H62Zm0-4h4V50H62Zm0-8h4V42H62Zm0-8h4V34H62ZM30,58H54V54H30ZM50,38H30v4H50Zm-4,8H30v4H46ZM86,32V42H82a6,6,0,0,0,0,12h4V64A10,10,0,0,1,76,74H20A10,10,0,0,1,10,64V54h4a6,6,0,0,0,0-12H10V32A10,10,0,0,1,20,22H76A10,10,0,0,1,86,32Zm-4,0a6,6,0,0,0-6-6H66v4H62V26H20a6,6,0,0,0-6,6v6a10,10,0,0,1,0,20v6a6,6,0,0,0,6,6H62V66h4v4H76a6,6,0,0,0,6-6V58a10,10,0,0,1,0-20Z" fill="#333"/>
</svg>
