<svg id="a8175046-93e7-4a37-91c4-3b1a418e65a0" data-name="Laag 1" xmlns="http://www.w3.org/2000/svg" width="96" height="96" viewBox="0 0 96 96"><defs><style>.\33 7a147bc-4235-4afe-8a91-2ae40837b9b3{fill:none;}.\30 252fa02-2827-4623-b138-e2ea0cde6ed6{fill:#333;}</style></defs><title>touch_id_v1</title><rect class="37a147bc-4235-4afe-8a91-2ae40837b9b3" width="96" height="96"/><path class="0252fa02-2827-4623-b138-e2ea0cde6ed6" d="M71,12.86V8.5a61,61,0,0,0-46,0v4.36a56.88,56.88,0,0,1,46,0Z"/><path class="0252fa02-2827-4623-b138-e2ea0cde6ed6" d="M48,43A22,22,0,0,1,70,65h4a26,26,0,0,0-52,0,48.69,48.69,0,0,0,5.75,23h4.59A44.72,44.72,0,0,1,26,65,22,22,0,0,1,48,43Z"/><path class="0252fa02-2827-4623-b138-e2ea0cde6ed6" d="M48,27A38,38,0,0,0,10,65a61.29,61.29,0,0,0,.41,7h4A57.22,57.22,0,0,1,14,65a34,34,0,0,1,68,0,10,10,0,0,1-20,0,14,14,0,0,0-28,0A36.92,36.92,0,0,0,46.85,93h6.71A33.1,33.1,0,0,1,38,65a10,10,0,0,1,20,0,14,14,0,0,0,28,0A38,38,0,0,0,48,27Z"/><path class="0252fa02-2827-4623-b138-e2ea0cde6ed6" d="M48,19A45.93,45.93,0,0,1,84,36.41V30.35a49.88,49.88,0,0,0-72,0v6.06A45.93,45.93,0,0,1,48,19Z"/><path class="0252fa02-2827-4623-b138-e2ea0cde6ed6" d="M50,65H46A25,25,0,0,0,71,90V86A21,21,0,0,1,50,65Z"/></svg>