<svg id="f82dd979-b037-4e80-83f4-adf9597b995d" data-name="Laag 1" xmlns="http://www.w3.org/2000/svg" width="96" height="96" viewBox="0 0 96 96"><defs><style>.\36 b6fc254-8a46-4ede-b383-aa681bbb3adc{fill:none;}.bd9723bd-ebce-4cf5-8d36-94ead2e07638{fill:#333;}</style></defs><title>tv_remote_v1</title><rect class="6b6fc254-8a46-4ede-b383-aa681bbb3adc" width="96" height="96"/><path class="bd9723bd-ebce-4cf5-8d36-94ead2e07638" d="M57,4H39A10,10,0,0,0,29,14V74A18,18,0,0,0,47,92h2A18,18,0,0,0,67,74V14A10,10,0,0,0,57,4Zm6,70A14,14,0,0,1,49,88H47A14,14,0,0,1,33,74V14a6,6,0,0,1,6-6H57a6,6,0,0,1,6,6ZM47,45H37V41H47Zm2-4H59v4H49ZM47,17H37V13H47Zm2-4H59v4H49ZM47,34v4a8,8,0,0,1-8-8h4A4,4,0,0,0,47,34Zm2,4V34a4,4,0,0,0,4-4h4A8,8,0,0,1,49,38Zm0-14V20a8,8,0,0,1,8,8H53A4,4,0,0,0,49,24Zm-2,0a4,4,0,0,0-4,4H39a8,8,0,0,1,8-8ZM43,52.62a2.51,2.51,0,1,1-2.51-2.51A2.51,2.51,0,0,1,43,52.62Zm7.52,0A2.51,2.51,0,1,1,48,50.11,2.51,2.51,0,0,1,50.51,52.62Zm7.52,0a2.51,2.51,0,1,1-2.51-2.51A2.51,2.51,0,0,1,58,52.62ZM43,60.14a2.51,2.51,0,1,1-2.51-2.51A2.51,2.51,0,0,1,43,60.14Zm7.52,0A2.51,2.51,0,1,1,48,57.63,2.51,2.51,0,0,1,50.51,60.14Zm7.52,0a2.51,2.51,0,1,1-2.51-2.51A2.51,2.51,0,0,1,58,60.14ZM43,67.66a2.51,2.51,0,1,1-2.51-2.51A2.51,2.51,0,0,1,43,67.66Zm7.52,0A2.51,2.51,0,1,1,48,65.15,2.51,2.51,0,0,1,50.51,67.66Zm7.52,0a2.51,2.51,0,1,1-2.51-2.51A2.51,2.51,0,0,1,58,67.66Z"/></svg>