<svg id="e457bcd3-75d7-4533-a4eb-381e8d5da965" data-name="Laag 1" xmlns="http://www.w3.org/2000/svg" width="96" height="96" viewBox="0 0 96 96"><defs><style>.\30 3978816-de47-43fb-a7ae-a25b33976b8a{fill:none;}.\39 3ad2c85-0f47-4ad2-ae2e-83b198f9aa4a{fill:#333;}</style></defs><title>tv_v1</title><rect class="03978816-de47-43fb-a7ae-a25b33976b8a" width="96" height="96"/><path class="93ad2c85-0f47-4ad2-ae2e-83b198f9aa4a" d="M78,14H18A10,10,0,0,0,8,24V60A10,10,0,0,0,18,70H35.44l-1.38,5.52A2,2,0,0,0,34,76a6,6,0,0,0,6,6H56a6,6,0,0,0,6-6,2,2,0,0,0-.06-.48L60.56,70H78A10,10,0,0,0,88,60V24A10,10,0,0,0,78,14ZM18,18H78a6,6,0,0,1,6,6V54H12V24A6,6,0,0,1,18,18ZM58,76.2A2,2,0,0,1,56,78H40a2,2,0,0,1-2-1.8L39.56,70H56.44ZM78,66H18a6,6,0,0,1-6-6V58H84v2A6,6,0,0,1,78,66Z"/><path class="93ad2c85-0f47-4ad2-ae2e-83b198f9aa4a" d="M39.61,48.53a4,4,0,0,0,4.11-.2l12-8a4,4,0,0,0,0-6.66l-12-8A4,4,0,0,0,37.5,29V45A4,4,0,0,0,39.61,48.53ZM41.5,29l12,8-12,8Z"/></svg>