<svg id="1e7341db-2188-460e-afed-84d7828af1d5" data-name="Laag 1" xmlns="http://www.w3.org/2000/svg" width="96" height="96" viewBox="0 0 96 96"><defs><style>.a4d85433-08a9-40a1-bfd0-7750e7a43740{fill:none;}.e26a0d14-4bc7-4b19-80aa-820f2ceef43a{fill:#333;}</style></defs><title>warning_v1</title><rect class="a4d85433-08a9-40a1-bfd0-7750e7a43740" width="96" height="96"/><path class="e26a0d14-4bc7-4b19-80aa-820f2ceef43a" d="M89.77,66.24,59.71,16.61C56.8,11.8,52.53,9,48,9s-8.8,2.76-11.71,7.57L6.23,66.24C3.29,71.1,2.85,76.09,5,79.94S11.69,86,17.37,86H78.63c5.68,0,10.18-2.21,12.35-6.06S92.71,71.1,89.77,66.24ZM78.63,82H17.37C8.57,82,5.1,75.84,9.65,68.31L39.71,18.69C42,14.92,45,13,48,13s6,1.88,8.29,5.65L86.35,68.31C90.9,75.84,87.43,82,78.63,82Z"/><path class="e26a0d14-4bc7-4b19-80aa-820f2ceef43a" d="M48,62a8,8,0,1,0,8,8A8,8,0,0,0,48,62Zm0,12a4,4,0,1,1,4-4A4,4,0,0,1,48,74Z"/><path class="e26a0d14-4bc7-4b19-80aa-820f2ceef43a" d="M50,26H46a6,6,0,0,0-6,6V54a6,6,0,0,0,6,6h4a6,6,0,0,0,6-6V32A6,6,0,0,0,50,26Zm2,28a2,2,0,0,1-2,2H46a2,2,0,0,1-2-2V32a2,2,0,0,1,2-2h4a2,2,0,0,1,2,2Z"/></svg>