<svg id="26ae7208-1839-44cf-a533-760d8cafe979" data-name="Laag 1" xmlns="http://www.w3.org/2000/svg" width="96" height="96" viewBox="0 0 96 96"><defs><style>.e65d6246-3bd9-4560-b52d-8f2c98148305{fill:none;}.\32 657d32d-86dc-42ce-94c7-2748f17d98ee{fill:#333;}</style></defs><title>wifi_extender_v1</title><rect class="e65d6246-3bd9-4560-b52d-8f2c98148305" width="96" height="96"/><path class="2657d32d-86dc-42ce-94c7-2748f17d98ee" d="M69,22H29A18,18,0,0,0,11,40V80a6,6,0,0,0,6,6H57A18,18,0,0,0,75,68V28A6,6,0,0,0,69,22Zm2,46A14,14,0,0,1,57,82H17a2,2,0,0,1-2-2V40A14,14,0,0,1,29,26H69a2,2,0,0,1,2,2ZM92,26H88A18,18,0,0,0,70,8V4A22,22,0,0,1,92,26Zm-8,0H80A10,10,0,0,0,70,16V12A14,14,0,0,1,84,26ZM25,74a2,2,0,1,1-2-2A2,2,0,0,1,25,74Z"/></svg>