<svg id="1f37c5ca-e9c9-4818-bbf7-d513af70ea4c" data-name="Laag 1" xmlns="http://www.w3.org/2000/svg" width="96" height="96" viewBox="0 0 96 96"><defs><style>.ac0770b6-5ddc-492a-aa94-9536e8aaa98b{fill:none;}.dad98696-211e-494b-85a0-0093fd0d4005{fill:#333;}</style></defs><title>wifi_v1</title><rect class="ac0770b6-5ddc-492a-aa94-9536e8aaa98b" width="96" height="96"/><path class="dad98696-211e-494b-85a0-0093fd0d4005" d="M22.54,43.54l2.83,2.83a32,32,0,0,1,45.26,0l2.83-2.83A36,36,0,0,0,22.54,43.54Z"/><path class="dad98696-211e-494b-85a0-0093fd0d4005" d="M36,57l2.83,2.83a13,13,0,0,1,18.38,0L60,57a17,17,0,0,0-24,0Z"/><path class="dad98696-211e-494b-85a0-0093fd0d4005" d="M48,61a8,8,0,1,0,5.66,2.34A7.94,7.94,0,0,0,48,61Zm2.83,10.83a4.09,4.09,0,0,1-5.66,0,4,4,0,1,1,5.66,0Z"/><path class="dad98696-211e-494b-85a0-0093fd0d4005" d="M48,23A45.7,45.7,0,0,0,15.47,36.47L18.3,39.3a42,42,0,0,1,59.4,0l2.83-2.83A45.7,45.7,0,0,0,48,23Z"/><path class="dad98696-211e-494b-85a0-0093fd0d4005" d="M29.62,50.62l2.83,2.83a22,22,0,0,1,31.11,0l2.83-2.83A26,26,0,0,0,29.62,50.62Z"/></svg>