<svg id="e0b106d0-235c-4d29-a338-f9e63bdfb58d" data-name="Layer 1" xmlns="http://www.w3.org/2000/svg" width="24" height="24" viewBox="0 0 24 24"><defs><style>.a0c961c7-a63e-49d2-86a7-9ae427675386{fill:none;}.\39 77fe84c-fc4c-4ea7-b71a-ab6e47fcd91f{fill:#333;}</style></defs><title>account_v1</title><rect class="a0c961c7-a63e-49d2-86a7-9ae427675386" width="24" height="24"/><path class="977fe84c-fc4c-4ea7-b71a-ab6e47fcd91f" d="M19.17,19a10,10,0,1,0-14.36,0l.05.06a10,10,0,0,0,14.29,0ZM12,4a8,8,0,0,1,6.61,12.49l-.67-1.33a3,3,0,0,0-2.68-1.66H8.74a3,3,0,0,0-2.68,1.66l-.67,1.33A8,8,0,0,1,12,4ZM6.82,18.09l1-2a1,1,0,0,1,.89-.55h6.53a1,1,0,0,1,.89.55l1,2a8,8,0,0,1-10.35,0ZM12,13A4,4,0,1,0,8,9,4,4,0,0,0,12,13Zm0-6a2,2,0,1,1-2,2A2,2,0,0,1,12,7Z"/></svg>