<svg id="73ae3053-fb38-42f9-b706-a75bdee239ce" data-name="Layer 1" xmlns="http://www.w3.org/2000/svg" width="24" height="24" viewBox="0 0 24 24"><defs><style>.\32 94ffc45-4dc1-43d3-8334-411b89b3bd9b{fill:#333;}</style></defs><title>account_diap_v1</title><path class="294ffc45-4dc1-43d3-8334-411b89b3bd9b" d="M19.17,19a10,10,0,1,0-14.36,0l.05.06a10,10,0,0,0,14.29,0ZM12,4a8,8,0,0,1,6.61,12.49l-.67-1.33a3,3,0,0,0-2.68-1.66H8.74a3,3,0,0,0-2.68,1.66l-.67,1.33A8,8,0,0,1,12,4Z"/><path class="294ffc45-4dc1-43d3-8334-411b89b3bd9b" d="M12,13A4,4,0,1,0,8,9,4,4,0,0,0,12,13Z"/></svg>