<svg id="9b3909a3-a1af-4576-afec-124659702c53" data-name="Layer 1" xmlns="http://www.w3.org/2000/svg" width="24" height="24" viewBox="0 0 24 24"><defs><style>.\33 871302d-7448-4034-a40c-23abd86da6b3{fill:none;}.\37 58828d8-78ee-4a86-a7cc-fc63ee33f7b6{fill:#333;}</style></defs><title>Backword_v2</title><rect class="3871302d-7448-4034-a40c-23abd86da6b3" width="24" height="24"/><path class="758828d8-78ee-4a86-a7cc-fc63ee33f7b6" d="M19.82,6.65a2.39,2.39,0,0,0-2.43.08L13,9.54V8.63a2.24,2.24,0,0,0-1.19-2,2.39,2.39,0,0,0-2.43.08L4.06,10.09a2.25,2.25,0,0,0,0,3.82l5.29,3.37a2.39,2.39,0,0,0,2.43.08,2.24,2.24,0,0,0,1.19-2v-.91l4.42,2.82a2.39,2.39,0,0,0,2.43.08,2.24,2.24,0,0,0,1.19-2V8.63A2.24,2.24,0,0,0,19.82,6.65ZM11,15.37a.27.27,0,0,1-.15.23.39.39,0,0,1-.39,0L5.13,12.22a.25.25,0,0,1,0-.44l5.29-3.37a.37.37,0,0,1,.2-.06.42.42,0,0,1,.19,0,.27.27,0,0,1,.15.23Zm8,0a.26.26,0,0,1-.15.23.39.39,0,0,1-.39,0l-5.29-3.37a.25.25,0,0,1,0-.44l5.29-3.37a.37.37,0,0,1,.2-.06.41.41,0,0,1,.19,0,.26.26,0,0,1,.15.23Z"/></svg>