<svg id="3a44ef7a-8ccd-4833-b5ad-2513696f7f64" data-name="Layer 1" xmlns="http://www.w3.org/2000/svg" width="24" height="24" viewBox="0 0 24 24"><defs><style>.\32 3cd71c9-6e9b-4605-97f0-700f4f4cdae1{fill:none;}.b5b3bc42-69d0-4c64-9823-00b3bf717be8{fill:#333;}</style></defs><title>backspace_v1</title><rect class="23cd71c9-6e9b-4605-97f0-700f4f4cdae1" width="24" height="24"/><path class="b5b3bc42-69d0-4c64-9823-00b3bf717be8" d="M17.41,10l-2,2,2,2L16,15.41l-2-2-2,2L10.59,14l2-2-2-2L12,8.59l2,2,2-2ZM22,7V17a3,3,0,0,1-3,3H9a3,3,0,0,1-2.44-1.26L3,13.74a3,3,0,0,1,0-3.49l3.57-5A3,3,0,0,1,9,4H19A3,3,0,0,1,22,7ZM20,7a1,1,0,0,0-1-1H9a1,1,0,0,0-.81.42l-3.57,5a1,1,0,0,0,0,1.16l3.57,5A1,1,0,0,0,9,18H19a1,1,0,0,0,1-1Z"/></svg>