<svg id="aa99c85c-0a83-4d92-9196-1efd33525256" data-name="Layer 1" xmlns="http://www.w3.org/2000/svg" width="24" height="24" viewBox="0 0 24 24"><defs><style>.\30 7aefbac-0e53-4db3-aa15-1ead0c24601a{fill:none;}.\35 5bef2f1-2491-4eb4-91fe-856ca4669f39{fill:#333;}</style></defs><title>bookmark_v1</title><rect class="07aefbac-0e53-4db3-aa15-1ead0c24601a" width="24" height="24"/><path class="55bef2f1-2491-4eb4-91fe-856ca4669f39" d="M11,13H9V11h2V9h2v2h2v2H13v2H11Zm7-8V19.92a2,2,0,0,1-1.13,1.8,2,2,0,0,1-.87.2,2,2,0,0,1-1.25-.44l-2.13-1.7a1,1,0,0,0-1.25,0l-2.13,1.7A2,2,0,0,1,6,19.92V5A3,3,0,0,1,9,2h6A3,3,0,0,1,18,5ZM16,7H8V19.92l2.13-1.7a3,3,0,0,1,3.75,0L16,19.92Zm0-2a1,1,0,0,0-1-1H9A1,1,0,0,0,8,5Z"/></svg>