<svg id="889c873d-d0fa-471e-af54-ce967f9af2fd" data-name="Layer 1" xmlns="http://www.w3.org/2000/svg" width="24" height="24" viewBox="0 0 24 24"><defs><style>.\34 04d33ec-2460-4fe2-a93c-923d9d4fb780{fill:#333;}</style></defs><title>calendar_v1</title><path class="404d33ec-2460-4fe2-a93c-923d9d4fb780" d="M17,4V2H15V4H9V2H7V4A3,3,0,0,0,4,7V17a3,3,0,0,0,3,3H17a3,3,0,0,0,3-3V7A3,3,0,0,0,17,4ZM7,6H17a1,1,0,0,1,1,1V8H6V7A1,1,0,0,1,7,6ZM17,18H7a1,1,0,0,1-1-1V10H18v7A1,1,0,0,1,17,18ZM8,14h8v2H8Z"/></svg>