<svg id="ba6721d6-a43b-4809-b88d-4fd3e05bb2bf" data-name="Layer 1" xmlns="http://www.w3.org/2000/svg" width="24" height="24" viewBox="0 0 24 24">
  <title>call_outbound_v3</title>
  <rect width="24" height="24" fill="none"/>
  <path d="M22,7a1,1,0,0,1-.29.71h0L17.41,12H14.59l4-4H11V6h7.59l-4-4h2.83l4.29,4.29h0A1,1,0,0,1,22,7ZM20,17.82v1a3,3,0,0,1-3.43,3,16.78,16.78,0,0,1-5.31-1.7A1,1,0,0,1,11,20a17.18,17.18,0,0,1-7-7,1,1,0,0,1-.12-.23,16.79,16.79,0,0,1-1.7-5.31A3,3,0,0,1,5.15,4h1a2,2,0,0,1,2,1.61l.72,3.58a2,2,0,0,1-.76,2l-2,1.49a15.17,15.17,0,0,0,5.22,5.22l1.49-2a2,2,0,0,1,2-.76l3.58.71A2,2,0,0,1,20,17.82Zm-14.81-7L6.9,9.58,6.18,6h-1a1,1,0,0,0-1,1.15A14.79,14.79,0,0,0,5.19,10.86Zm12.81,7-3.58-.71-1.28,1.7a14.81,14.81,0,0,0,3.71,1,1,1,0,0,0,1.15-1Z" fill="#333"/>
</svg>
