<svg id="fe221373-7567-44bb-ac1c-dea7c9e40da7" data-name="Layer 1" xmlns="http://www.w3.org/2000/svg" width="24" height="24" viewBox="0 0 24 24">
  <title>call_end_v3</title>
  <rect width="24" height="24" fill="none"/>
  <path d="M18.39,15.86l-3.58-.71a2,2,0,0,0-2,.76l-1.49,2a15.17,15.17,0,0,1-5.22-5.22l2-1.49a2,2,0,0,0,.76-2L8.14,5.61A2,2,0,0,0,6.18,4h-1a3,3,0,0,0-3,3.43,16.79,16.79,0,0,0,1.7,5.31A1,1,0,0,0,4,13a17.18,17.18,0,0,0,7,7,1,1,0,0,0,.23.12,16.78,16.78,0,0,0,5.31,1.7,3,3,0,0,0,3.43-3v-1A2,2,0,0,0,18.39,15.86ZM4.15,7.15A1,1,0,0,1,5.15,6h1L6.9,9.58l-1.7,1.28A14.79,14.79,0,0,1,4.15,7.15ZM18,18.85a1,1,0,0,1-1.15,1,14.81,14.81,0,0,1-3.71-1l1.28-1.7,3.58.71ZM19.41,6.43l3,3L21,10.84l-3-3-3,3L13.59,9.43l3-3-3-3L15,2l3,3,3-3,1.41,1.41Z" fill="#333"/>
</svg>
