<svg id="38f6a22d-1161-4f22-aa96-bdc3be430ea3" data-name="Layer 1" xmlns="http://www.w3.org/2000/svg" width="24" height="24" viewBox="0 0 24 24"><defs><style>.f61e6e30-b148-4b66-8fd2-af8675837f34{fill:none;}.\31 35a3cd1-e984-4d99-85ca-1a3739a0ee95{fill:#333;}</style></defs><title>Camera_v2</title><rect class="f61e6e30-b148-4b66-8fd2-af8675837f34" width="24" height="24"/><path class="135a3cd1-e984-4d99-85ca-1a3739a0ee95" d="M12,9a4,4,0,1,0,4,4A4,4,0,0,0,12,9Zm0,6a2,2,0,1,1,2-2A2,2,0,0,1,12,15Zm6.71-5.71a1,1,0,0,1,0,1.42l-.15.12a.76.76,0,0,1-.18.09L18.2,11,18,11a1,1,0,0,1-.71-1.71A1,1,0,0,1,18.2,9l.18.06a.76.76,0,0,1,.18.09ZM19,6H16.72l-.32-.95A3,3,0,0,0,13.56,3H10.44A3,3,0,0,0,7.6,5.05L7.28,6H5A3,3,0,0,0,2,9v8a3,3,0,0,0,3,3H19a3,3,0,0,0,3-3V9A3,3,0,0,0,19,6Zm1,11a1,1,0,0,1-1,1H5a1,1,0,0,1-1-1V9A1,1,0,0,1,5,8H8a1,1,0,0,0,.95-.68l.54-1.63A1,1,0,0,1,10.44,5h3.12a1,1,0,0,1,.95.68l.54,1.63A1,1,0,0,0,16,8h3a1,1,0,0,1,1,1Z"/></svg>