<svg id="082c67e2-cfcd-43c6-9cb5-f0a1d0f2fa28" data-name="Layer 1" xmlns="http://www.w3.org/2000/svg" width="24" height="24" viewBox="0 0 24 24"><defs><style>.\32 68105f2-d716-4467-a0d3-babad567d23f{fill:none;}.cea3ceb0-9511-4ff7-9eb9-bbae42658855{fill:#333;}</style></defs><title>Delete_v2</title><rect class="268105f2-d716-4467-a0d3-babad567d23f" width="24" height="24"/><path class="cea3ceb0-9511-4ff7-9eb9-bbae42658855" d="M19,4H11A6.6,6.6,0,0,0,6.88,5.71L2.71,9.87a3,3,0,0,0,0,4.24l4.17,4.18A6.49,6.49,0,0,0,11,20h8a3,3,0,0,0,3-3V7A3,3,0,0,0,19,4Zm1,13a1,1,0,0,1-1,1H11a4.62,4.62,0,0,1-2.71-1.12L4.12,12.7a1,1,0,0,1,0-1.42L8.29,7.12A4.63,4.63,0,0,1,11,6h8a1,1,0,0,1,1,1ZM17.71,9.71,15.41,12l2.29,2.29-1.41,1.41L14,13.41l-2.29,2.29-1.41-1.41L12.59,12,10.29,9.71l1.41-1.41L14,10.59l2.29-2.29Z"/></svg>