<svg id="0f8ed2c9-4e4f-429c-8410-993d5b6a4011" data-name="Layer 1" xmlns="http://www.w3.org/2000/svg" width="24" height="24" viewBox="0 0 24 24"><defs><style>.\32 0cf319e-ac1c-405e-8377-61ed5175fb8a{fill:none;}.d0a6fffa-756b-4a6f-903e-ec9391676c81{fill:#333;}</style></defs><title>delete_v1</title><rect class="20cf319e-ac1c-405e-8377-61ed5175fb8a" width="24" height="24"/><path class="d0a6fffa-756b-4a6f-903e-ec9391676c81" d="M21,5H16a3,3,0,0,0-3-3H11A3,3,0,0,0,8,5H3V7H5V19a3,3,0,0,0,3,3h8a3,3,0,0,0,3-3V7h2ZM11,4h2a1,1,0,0,1,1,1H10A1,1,0,0,1,11,4Zm6,15a1,1,0,0,1-1,1H8a1,1,0,0,1-1-1V7H17ZM9,10h2v7H9Zm4,0h2v7H13Z"/></svg>