<svg id="64968532-feeb-46ac-a861-a022ddab449f" data-name="Layer 1" xmlns="http://www.w3.org/2000/svg" width="24" height="24" viewBox="0 0 24 24"><defs><style>.df06530a-7056-4ae8-a766-b533285f39ee{fill:none;}.\31 26e0a81-ad0a-4bcf-b935-bfaa234f58c4{fill:#333;}</style></defs><title>dialpad_v1</title><rect class="df06530a-7056-4ae8-a766-b533285f39ee" width="24" height="24"/><path class="126e0a81-ad0a-4bcf-b935-bfaa234f58c4" d="M7,9A2,2,0,1,1,9,7,2,2,0,0,1,7,9Zm7-2a2,2,0,1,0-2,2A2,2,0,0,0,14,7Zm5,0a2,2,0,1,0-2,2A2,2,0,0,0,19,7ZM9,12a2,2,0,1,0-2,2A2,2,0,0,0,9,12Zm5,0a2,2,0,1,0-2,2A2,2,0,0,0,14,12Zm5,0a2,2,0,1,0-2,2A2,2,0,0,0,19,12ZM9,17a2,2,0,1,0-2,2A2,2,0,0,0,9,17Zm5,0a2,2,0,1,0-2,2A2,2,0,0,0,14,17Zm5,0a2,2,0,1,0-2,2A2,2,0,0,0,19,17Z"/></svg>