<svg id="5183d050-2f34-4408-bf95-d23ab4bbd4f7" data-name="Layer 1" xmlns="http://www.w3.org/2000/svg" width="24" height="24" viewBox="0 0 24 24"><defs><style>.a5d66ca9-22b2-4e9f-9a89-ffbc7f44f810{fill:none;}.\36 f613465-acae-425d-8047-aed278868753{fill:#333;}</style></defs><title>Mail_v1</title><rect class="a5d66ca9-22b2-4e9f-9a89-ffbc7f44f810" width="24" height="24"/><path class="6f613465-acae-425d-8047-aed278868753" d="M12,2a10,10,0,0,0,0,20h0a12.08,12.08,0,0,0,4-.81V19a10.28,10.28,0,0,1-4,1,8,8,0,1,1,8-8,1.92,1.92,0,0,1-.49,1.43A2.38,2.38,0,0,1,18,14a2.8,2.8,0,0,1-1.05-.27A1.72,1.72,0,0,1,16,12V8H14v.56A4,4,0,0,0,12,8a4,4,0,1,0,3,6.68,3.68,3.68,0,0,0,1.1.84A4.71,4.71,0,0,0,18,16h0a4.37,4.37,0,0,0,2.93-1.13A3.85,3.85,0,0,0,22,12,10,10,0,0,0,12,2Zm0,12a2,2,0,1,1,2-2A2,2,0,0,1,12,14Z"/></svg>