<svg id="fb153122-0e37-4686-a67a-9644f35bd7fc" data-name="Layer 1" xmlns="http://www.w3.org/2000/svg" width="24" height="24" viewBox="0 0 24 24">
  <title>emotion_angry_v3</title>
  <rect width="24" height="24" fill="none"/>
  <path d="M7.77,9.24a1.9,1.9,0,0,1,0-.24,1.22,1.22,0,0,1,.37-.88A1,1,0,0,1,8.31,8l.21-.11a1.1,1.1,0,0,1,.24-.07,1,1,0,0,1,.48,0,1.12,1.12,0,0,1,.24.07L9.69,8a1,1,0,0,1,.19.16,1.22,1.22,0,0,1,.37.88,2,2,0,0,1,0,.24,1.13,1.13,0,0,1-.08.24,1.47,1.47,0,0,1-.11.21,1.47,1.47,0,0,1-.35.35l-.21.11a1.13,1.13,0,0,1-.24.08l-.24,0-.24,0a1.12,1.12,0,0,1-.24-.08L8.31,10a1,1,0,0,1-.19-.16A1,1,0,0,1,8,9.69a1.42,1.42,0,0,1-.11-.21A1.15,1.15,0,0,1,7.77,9.24Zm7.23,1,.24,0a1.13,1.13,0,0,0,.24-.08l.21-.11A1.47,1.47,0,0,0,16,9.69a1.47,1.47,0,0,0,.11-.21,1.13,1.13,0,0,0,.08-.24,2,2,0,0,0,0-.24,2,2,0,0,0,0-.24,1.12,1.12,0,0,0-.08-.24A1.42,1.42,0,0,0,16,8.31a1,1,0,0,0-.16-.19A1,1,0,0,0,15.69,8l-.21-.11a1.12,1.12,0,0,0-.24-.07,1,1,0,0,0-.48,0,1.1,1.1,0,0,0-.24.07L14.31,8a1,1,0,0,0-.19.16A1.25,1.25,0,0,0,15,10.25ZM11.75,12a5,5,0,0,0-5,5h2a3,3,0,0,1,.18-1,3,3,0,0,1,5.63,0,3,3,0,0,1,.18,1h2a5,5,0,0,0-5-5ZM22,12A10,10,0,1,1,12,2,10,10,0,0,1,22,12Zm-2,0A8,8,0,1,0,6.48,17.77l.25.23a8,8,0,0,0,10.55,0l.25-.23A8,8,0,0,0,20,12Z" fill="#333"/>
</svg>
