<svg id="2c382d48-891a-426c-a9a9-81fa12cf2aed" data-name="Layer 1" xmlns="http://www.w3.org/2000/svg" width="24" height="24" viewBox="0 0 24 24">
  <title>emotion_neutral_v3</title>
  <rect width="24" height="24" fill="none"/>
  <path d="M12,2A10,10,0,1,0,22,12,10,10,0,0,0,12,2Zm0,18a8,8,0,1,1,8-8A8,8,0,0,1,12,20ZM8.12,9.88A1,1,0,0,1,8,9.69a1.42,1.42,0,0,1-.11-.21,1.15,1.15,0,0,1-.08-.24,1.9,1.9,0,0,1,0-.24,1.22,1.22,0,0,1,.37-.88A1,1,0,0,1,8.31,8l.21-.11a1.1,1.1,0,0,1,.24-.07,1,1,0,0,1,.48,0,1.12,1.12,0,0,1,.24.07L9.69,8a1,1,0,0,1,.19.16,1.22,1.22,0,0,1,.37.88,2,2,0,0,1,0,.24,1.13,1.13,0,0,1-.08.24,1.47,1.47,0,0,1-.11.21,1.47,1.47,0,0,1-.35.35l-.21.11a1.13,1.13,0,0,1-.24.08l-.24,0-.24,0a1.12,1.12,0,0,1-.24-.08L8.31,10A1,1,0,0,1,8.12,9.88Zm8.11-1.12a2,2,0,0,1,0,.24,2,2,0,0,1,0,.24,1.13,1.13,0,0,1-.08.24,1.47,1.47,0,0,1-.11.21,1.47,1.47,0,0,1-.35.35l-.21.11a1.13,1.13,0,0,1-.24.08l-.24,0a1.25,1.25,0,0,1-.88-2.13A1,1,0,0,1,14.31,8l.21-.11a1.1,1.1,0,0,1,.24-.07,1,1,0,0,1,.48,0,1.12,1.12,0,0,1,.24.07l.21.11a1,1,0,0,1,.19.16,1,1,0,0,1,.16.19,1.42,1.42,0,0,1,.11.21A1.12,1.12,0,0,1,16.23,8.76ZM8,14h8v2H8Z" fill="#333"/>
</svg>
