<svg id="01fdeba8-0f6b-43ce-949b-c6086341548d" data-name="Layer 1" xmlns="http://www.w3.org/2000/svg" width="24" height="24" viewBox="0 0 24 24">
  <title>emotion_happy_v3</title>
  <rect width="24" height="24" fill="none"/>
  <path d="M17.93,12.9a6,6,0,0,1-11.87,0h2a4,4,0,0,0,7.8,0ZM22,12A10,10,0,1,1,12,2,10,10,0,0,1,22,12Zm-2,0a8,8,0,1,0-8,8A8,8,0,0,0,20,12ZM7.85,9.48A1.42,1.42,0,0,0,8,9.69a1,1,0,0,0,.16.19,1,1,0,0,0,.19.16l.21.11a1.12,1.12,0,0,0,.24.08l.24,0,.24,0a1.13,1.13,0,0,0,.24-.08L9.69,10A1.47,1.47,0,0,0,10,9.69a1.47,1.47,0,0,0,.11-.21,1.13,1.13,0,0,0,.08-.24,2,2,0,0,0,0-.24,1.22,1.22,0,0,0-.37-.88A1,1,0,0,0,9.69,8l-.21-.11a1.12,1.12,0,0,0-.24-.07,1,1,0,0,0-.48,0,1.1,1.1,0,0,0-.24.07L8.31,8a1,1,0,0,0-.19.16A1.22,1.22,0,0,0,7.75,9a1.9,1.9,0,0,0,0,.24A1.15,1.15,0,0,0,7.85,9.48Zm7.15.77.24,0a1.13,1.13,0,0,0,.24-.08l.21-.11A1.47,1.47,0,0,0,16,9.69a1.47,1.47,0,0,0,.11-.21,1.13,1.13,0,0,0,.08-.24,2,2,0,0,0,0-.24,2,2,0,0,0,0-.24,1.12,1.12,0,0,0-.08-.24A1.42,1.42,0,0,0,16,8.31a1,1,0,0,0-.16-.19A1,1,0,0,0,15.69,8l-.21-.11a1.12,1.12,0,0,0-.24-.07,1,1,0,0,0-.48,0,1.1,1.1,0,0,0-.24.07L14.31,8a1,1,0,0,0-.19.16A1.25,1.25,0,0,0,15,10.25Z" fill="#333"/>
</svg>
