<svg id="02133dcf-3d98-4824-baae-b14eb69e80ac" data-name="Layer 1" xmlns="http://www.w3.org/2000/svg" width="24" height="24" viewBox="0 0 24 24"><defs><style>.\39 bb065ee-4ad7-4bf7-9925-8461fb1f19c7{fill:none;}.\31 b87b983-4d61-4d8f-ba54-09182a7858f0{fill:#333;}</style></defs><title>error_v1</title><rect class="9bb065ee-4ad7-4bf7-9925-8461fb1f19c7" width="24" height="24"/><path class="1b87b983-4d61-4d8f-ba54-09182a7858f0" d="M12,22A10,10,0,1,1,22,12,10,10,0,0,1,12,22ZM12,4a8,8,0,1,0,8,8A8,8,0,0,0,12,4Z"/><rect class="1b87b983-4d61-4d8f-ba54-09182a7858f0" x="11" y="7" width="2" height="7"/><path class="1b87b983-4d61-4d8f-ba54-09182a7858f0" d="M12,17.25A1.26,1.26,0,0,1,10.75,16a1.26,1.26,0,0,1,.37-.89,1.3,1.3,0,0,1,1.76,0A1.25,1.25,0,0,1,12,17.25Z"/></svg>