<svg id="4e7a35bb-be36-4b7c-b3cc-1492bd48b2c5" data-name="Layer 1" xmlns="http://www.w3.org/2000/svg" width="24" height="24" viewBox="0 0 24 24"><defs><style>.de0892d8-1562-4b88-8364-bc952ffc7549{fill:none;}.\39 a341bef-68fc-4c61-9382-6e2dcb811f60{fill:#333;}</style></defs><title>euro_v1</title><rect class="de0892d8-1562-4b88-8364-bc952ffc7549" width="24" height="24"/><path class="9a341bef-68fc-4c61-9382-6e2dcb811f60" d="M8.81,9H14v2H8.09a5.58,5.58,0,0,0,0,2H14v2H8.81A6,6,0,0,0,18,16.46v2.46A8,8,0,0,1,6.59,15H4V13H6.07a7.23,7.23,0,0,1,0-2H4V9H6.59A8,8,0,0,1,18,5.08V7.54A6,6,0,0,0,8.81,9Z"/></svg>