<svg id="0249de9e-a112-4cc7-9d01-7faf631f64f9" data-name="Layer 1" xmlns="http://www.w3.org/2000/svg" width="24" height="24" viewBox="0 0 24 24"><defs><style>.\36 e8c1642-f06c-4f13-8a41-bb08b12cafdd{fill:none;}.\31 d4e23ff-8a7f-4555-a579-34d547521e58{fill:#333;}</style></defs><title>external_link_v2</title><rect class="6e8c1642-f06c-4f13-8a41-bb08b12cafdd" width="24" height="24"/><path class="1d4e23ff-8a7f-4555-a579-34d547521e58" d="M21,4v6H19V6.42l-5.44,5.44-1.41-1.41L17.59,5H14V3h6A1,1,0,0,1,21,4ZM17,18a1,1,0,0,1-1,1H6a1,1,0,0,1-1-1V8A1,1,0,0,1,6,7h6V5H6A3,3,0,0,0,3,8V18a3,3,0,0,0,3,3H16a3,3,0,0,0,3-3V12H17Z"/></svg>