<svg id="4ea2018f-57d6-48e5-a5a1-f1a87859d584" data-name="Layer 1" xmlns="http://www.w3.org/2000/svg" width="24" height="24" viewBox="0 0 24 24">
  <title>file_csv_v3</title>
  <rect width="24" height="24" fill="none"/>
  <path d="M17,20H7a1,1,0,0,1-1-1V5A1,1,0,0,1,7,4h6V8a1,1,0,0,0,1,1h4v3h2V7.83a3,3,0,0,0-.88-2.12L16.29,2.88A3,3,0,0,0,14.17,2H7A3,3,0,0,0,4,5V19a3,3,0,0,0,3,3H17a3,3,0,0,0,3-3H18A1,1,0,0,1,17,20Zm.59-13H15V4.41ZM9,15.49a1.24,1.24,0,0,0,1.34,1.34,1.82,1.82,0,0,0,1.14-.39v1.25a2.21,2.21,0,0,1-1.25.34,2.39,2.39,0,0,1-2.52-2.53A2.39,2.39,0,0,1,10.24,13a2.21,2.21,0,0,1,1.25.34v1.25a1.83,1.83,0,0,0-1.14-.4A1.24,1.24,0,0,0,9,15.49Zm5.82,1.07c0-.24-.15-.32-.42-.42l-.74-.22c-.82-.24-1.28-.65-1.28-1.46,0-1,.82-1.51,1.85-1.51a3.05,3.05,0,0,1,1.54.37V14.5A2.57,2.57,0,0,0,14.3,14c-.37,0-.65.1-.65.35s.15.31.41.39l.74.22c.9.28,1.3.75,1.3,1.5,0,1.06-.9,1.54-2,1.54a3.27,3.27,0,0,1-1.61-.4V16.44a3,3,0,0,0,1.58.51C14.48,17,14.83,16.86,14.83,16.56Zm4.28-.35L20.22,13h1.32l-1.83,4.91H18.45L16.62,13H18Z" fill="#333"/>
</svg>
