<svg id="b7fe5456-46e0-49f6-8d73-ffb70dfff7fb" data-name="Layer 1" xmlns="http://www.w3.org/2000/svg" width="24" height="24" viewBox="0 0 24 24">
  <title>file_zip_v3</title>
  <rect width="24" height="24" fill="none"/>
  <path d="M17,20H7a1,1,0,0,1-1-1V5A1,1,0,0,1,7,4h6V8a1,1,0,0,0,1,1h4v3h2V7.83a3,3,0,0,0-.88-2.12L16.29,2.88A3,3,0,0,0,14.17,2H7A3,3,0,0,0,4,5V19a3,3,0,0,0,3,3H17a3,3,0,0,0,3-3H18A1,1,0,0,1,17,20Zm.59-13H15V4.41Zm-2.72,6.07-2.09,3.77h2.07v1.11h-4v0l2.13-3.77h-2V13h4Zm.84,4.88V13H17v4.91ZM20.16,13H18v4.91h1.27V16.42h.88a1.61,1.61,0,0,0,1.78-1.69A1.61,1.61,0,0,0,20.16,13ZM20,15.34h-.74V14.11H20c.46,0,.67.24.67.62S20.49,15.34,20,15.34Z" fill="#333"/>
</svg>
