<svg id="da7e95dc-539c-4cd1-9659-698ba1dcdf62" data-name="Layer 1" xmlns="http://www.w3.org/2000/svg" width="24" height="24" viewBox="0 0 24 24">
  <title>file_pdf_v3</title>
  <rect width="24" height="24" fill="none"/>
  <path d="M17,20H7a1,1,0,0,1-1-1V5A1,1,0,0,1,7,4h6V8a1,1,0,0,0,1,1h4v3h2V7.83a3,3,0,0,0-.88-2.12L16.29,2.88A3,3,0,0,0,14.17,2H7A3,3,0,0,0,4,5V19a3,3,0,0,0,3,3H17a3,3,0,0,0,3-3H18A1,1,0,0,1,17,20ZM15,4.41,17.59,7H15ZM7.91,13v4.91H9.18V16.42h.88a1.61,1.61,0,0,0,1.78-1.69A1.61,1.61,0,0,0,10.06,13Zm2.69,1.69c0,.37-.21.62-.67.62H9.18V14.11h.74C10.39,14.11,10.6,14.35,10.6,14.73ZM12.4,13v4.91h1.85a2.29,2.29,0,0,0,2.48-2.45A2.29,2.29,0,0,0,14.25,13Zm3.06,2.45a1.2,1.2,0,0,1-1.27,1.34h-.53V14.14h.53A1.2,1.2,0,0,1,15.46,15.49Zm3.08-1.34v1h2v1.09h-2v1.73H17.27V13h3.45v1.11Z" fill="#333"/>
</svg>
