<svg id="995935ca-9ebe-4fb1-9599-5333a4eb07a9" data-name="Layer 1" xmlns="http://www.w3.org/2000/svg" width="24" height="24" viewBox="0 0 24 24">
  <title>file_doc_v3</title>
  <rect width="24" height="24" fill="none"/>
  <path d="M17,20H7a1,1,0,0,1-1-1V5A1,1,0,0,1,7,4h6V8a1,1,0,0,0,1,1h4v3h2V7.83a3,3,0,0,0-.88-2.12L16.29,2.88A3,3,0,0,0,14.17,2H7A3,3,0,0,0,4,5V19a3,3,0,0,0,3,3H17a3,3,0,0,0,3-3H18A1,1,0,0,1,17,20Zm.59-13H15V4.41ZM7.91,13v4.91H9.77a2.29,2.29,0,0,0,2.48-2.45A2.29,2.29,0,0,0,9.77,13ZM11,15.49A1.2,1.2,0,0,1,9.7,16.83H9.17V14.14H9.7A1.2,1.2,0,0,1,11,15.49Zm1.84,0a2.4,2.4,0,1,0,4.8,0,2.4,2.4,0,1,0-4.8,0Zm3.5,0c0,.85-.45,1.41-1.11,1.41s-1.09-.56-1.09-1.41.43-1.41,1.09-1.41S16.32,14.64,16.32,15.49Zm3.15,0a1.24,1.24,0,0,0,1.34,1.34,1.82,1.82,0,0,0,1.14-.39v1.25A2.21,2.21,0,0,1,20.7,18a2.39,2.39,0,0,1-2.52-2.53A2.39,2.39,0,0,1,20.7,13a2.21,2.21,0,0,1,1.25.34v1.25a1.83,1.83,0,0,0-1.14-.4A1.24,1.24,0,0,0,19.47,15.49Z" fill="#333"/>
</svg>
