<svg id="ab21cc82-c059-4db7-b9c1-54bdd56aad87" data-name="Layer 1" xmlns="http://www.w3.org/2000/svg" width="24" height="24" viewBox="0 0 24 24">
  <title>flag_v3</title>
  <rect width="24" height="24" fill="none"/>
  <path d="M19.4,4.1a1,1,0,0,0-1.08.16S17.44,5,15,5a5.71,5.71,0,0,1-2.87-.62A6.4,6.4,0,0,0,8,3.82V3H6V21H8V14.84a4.84,4.84,0,0,1,3.34.37A7.73,7.73,0,0,0,15,16c3.31,0,4.57-1.16,4.7-1.29A1,1,0,0,0,20,14V5A1,1,0,0,0,19.4,4.1ZM18,13.46A6.82,6.82,0,0,1,15,14a5.78,5.78,0,0,1-2.83-.61A6.52,6.52,0,0,0,8,12.83v-7a4.61,4.61,0,0,1,3.28.35A7.66,7.66,0,0,0,15,7a10.12,10.12,0,0,0,3-.4Z" fill="#333"/>
</svg>
