<svg id="78a83e3c-f9ab-442f-b228-3c8ecab92302" data-name="Layer 1" xmlns="http://www.w3.org/2000/svg" width="24" height="24" viewBox="0 0 24 24"><defs><style>.\34 90cf515-9758-4138-9e07-7e8bd53c10f7{fill:none;}.fd10cb56-f60b-4173-931c-40a414665f97{fill:#333;}</style></defs><title>Folder_v2</title><rect class="490cf515-9758-4138-9e07-7e8bd53c10f7" width="24" height="24"/><path class="fd10cb56-f60b-4173-931c-40a414665f97" d="M5,19.94a3,3,0,0,1-3-3l0-10a3,3,0,0,1,3-3H8.21a3,3,0,0,1,2.12.88l1.83,1.83a1,1,0,0,0,.71.29H19a3,3,0,0,1,3,3v7a3,3,0,0,1-3,3l-14,0Zm0-14a1,1,0,0,0-1,1l0,10a1,1,0,0,0,1,1H5l14,0a1,1,0,0,0,1-1v-7a1,1,0,0,0-1-1H12.86A3,3,0,0,1,10.74,8L8.91,6.21a1,1,0,0,0-.71-.29Z"/></svg>