<svg id="368aaa87-3e35-4b0d-9da8-7fdba7b1bf2b" data-name="Layer 1" xmlns="http://www.w3.org/2000/svg" width="24" height="24" viewBox="0 0 24 24"><defs><style>.d889e11a-61a5-4793-b681-8cca78c3ba71{fill:none;}.dd04f203-1910-478d-b5c0-550be494cc73{fill:#333;}</style></defs><title>Forum_v2</title><rect class="d889e11a-61a5-4793-b681-8cca78c3ba71" width="24" height="24"/><path class="dd04f203-1910-478d-b5c0-550be494cc73" d="M21.78,19.82a1.67,1.67,0,0,1-2,2l-2-.39A6.93,6.93,0,0,1,15,22a7.17,7.17,0,0,1-1.32-.12A7,7,0,0,1,9.23,19c.26,0,.51,0,.77,0l.53,0a9.24,9.24,0,0,0,1.17-.13l.1,0A4.92,4.92,0,0,0,14,19.91a5,5,0,0,0,3.21-.46,1,1,0,0,1,.65-.09l1.81.36-.36-1.81a1,1,0,0,1,.09-.65A5,5,0,0,0,19.91,14a4.92,4.92,0,0,0-1.1-2.27c0-.12.06-.23.08-.34,0-.31.07-.61.09-.91a9.19,9.19,0,0,0,0-1.3,7,7,0,0,1,2.42,8.62ZM9.81,18a8.23,8.23,0,0,1-3.12-.71l-2.36.47a1.78,1.78,0,0,1-2.09-2.09l.47-2.36A8,8,0,1,1,18,9.81,8.27,8.27,0,0,1,17.93,11c0,.11,0,.22,0,.33a8,8,0,0,1-6.39,6.58l-.55.08A8.15,8.15,0,0,1,10,18Zm.3-2a6.16,6.16,0,0,0,1-.1A6,6,0,0,0,15.92,11a6.3,6.3,0,0,0,.07-.87,6.1,6.1,0,0,0-.07-1A6,6,0,0,0,9,4.08a6,6,0,0,0-4.37,8.64,1,1,0,0,1,.09.65l-.47,2.36,2.36-.47.2,0a1,1,0,0,1,.45.11,6.06,6.06,0,0,0,.76.31,5.9,5.9,0,0,0,2.07.34ZM13,9V7H7V9h6Zm-2,4V11H7v2h4Z"/></svg>