<svg id="8bea613a-6a7f-47d5-aa52-3343e00d0db7" data-name="Layer 1" xmlns="http://www.w3.org/2000/svg" width="24" height="24" viewBox="0 0 24 24"><defs><style>.\36 c9fbde2-3e42-42bf-ab54-ad9f78e761d0{fill:none;}.\30 314a114-8b28-41a5-964f-087509b1e344{fill:#333;}</style></defs><title>Forward_v2</title><rect class="6c9fbde2-3e42-42bf-ab54-ad9f78e761d0" width="24" height="24"/><path class="0314a114-8b28-41a5-964f-087509b1e344" d="M20,10.09,14.67,6.73a2.39,2.39,0,0,0-2.43-.08,2.24,2.24,0,0,0-1.19,2v.91L6.62,6.73a2.39,2.39,0,0,0-2.43-.08A2.24,2.24,0,0,0,3,8.63v6.73a2.24,2.24,0,0,0,1.19,2,2.39,2.39,0,0,0,2.43-.08L11,14.46v.91a2.24,2.24,0,0,0,1.19,2,2.39,2.39,0,0,0,2.43-.08L20,13.91a2.25,2.25,0,0,0,0-3.82Zm-9.12,2.13L5.55,15.59a.39.39,0,0,1-.39,0A.27.27,0,0,1,5,15.37V8.63a.27.27,0,0,1,.15-.23.42.42,0,0,1,.19,0,.37.37,0,0,1,.2.06l5.29,3.37a.25.25,0,0,1,0,.44Zm8,0-5.29,3.37a.39.39,0,0,1-.39,0,.27.27,0,0,1-.15-.23V8.63a.27.27,0,0,1,.15-.23.42.42,0,0,1,.19,0,.37.37,0,0,1,.2.06l5.29,3.37a.25.25,0,0,1,0,.44Z"/></svg>