<svg id="5400a320-ceda-4c2a-a1ca-6c059fe256e0" data-name="Layer 1" xmlns="http://www.w3.org/2000/svg" width="24" height="24" viewBox="0 0 24 24"><defs><style>.c9e9c8ca-147f-443b-9406-1d8acdf5200e{fill:none;}.\30 e98290a-03a1-40e6-9d01-682f3f7bcd00{fill:#333;}</style></defs><title>fullscreen_exit_v1</title><rect class="c9e9c8ca-147f-443b-9406-1d8acdf5200e" width="24" height="24"/><path class="0e98290a-03a1-40e6-9d01-682f3f7bcd00" d="M20,8v2H17a3,3,0,0,1-3-3V4h2V7a1,1,0,0,0,1,1Zm-6,9v3h2V17a1,1,0,0,1,1-1h3V14H17A3,3,0,0,0,14,17ZM7,14H4v2H7a1,1,0,0,1,1,1v3h2V17A3,3,0,0,0,7,14ZM8,7A1,1,0,0,1,7,8H4v2H7a3,3,0,0,0,3-3V4H8Z"/></svg>