<svg id="a0a99203-ee47-44d6-8513-e266b0dd5d4e" data-name="Layer 1" xmlns="http://www.w3.org/2000/svg" width="24" height="24" viewBox="0 0 24 24"><defs><style>.\34 a370e19-3db3-4633-96a3-5862cfc55a6e{fill:none;}.\39 13764e4-89f3-4719-b906-c36a9e3aa3d1{fill:#333;}</style></defs><title>fullscreen_v1</title><rect class="4a370e19-3db3-4633-96a3-5862cfc55a6e" width="24" height="24"/><path class="913764e4-89f3-4719-b906-c36a9e3aa3d1" d="M7,18h3v2H7a3,3,0,0,1-3-3V14H6v3A1,1,0,0,0,7,18ZM4,7v3H6V7A1,1,0,0,1,7,6h3V4H7A3,3,0,0,0,4,7ZM17,4H14V6h3a1,1,0,0,1,1,1v3h2V7A3,3,0,0,0,17,4Zm1,13a1,1,0,0,1-1,1H14v2h3a3,3,0,0,0,3-3V14H18Z"/></svg>