<svg id="5d399a0b-68f6-4ae7-a1b4-d3a617be6615" data-name="Layer 1" xmlns="http://www.w3.org/2000/svg" width="24" height="24" viewBox="0 0 24 24"><defs><style>.ca24f4c6-a77b-4978-a206-fcd085b22c43{fill:none;}.fed31649-2206-4a32-9574-20a0d1bfb1f8{fill:#333;}</style></defs><title>graph_view_v1</title><rect class="ca24f4c6-a77b-4978-a206-fcd085b22c43" width="24" height="24"/><path class="fed31649-2206-4a32-9574-20a0d1bfb1f8" d="M8,4H7A3,3,0,0,0,4,7V17a3,3,0,0,0,3,3H8a3,3,0,0,0,3-3V7A3,3,0,0,0,8,4ZM9,17a1,1,0,0,1-1,1H7a1,1,0,0,1-1-1V7A1,1,0,0,1,7,6H8A1,1,0,0,1,9,7Zm8-4H16a3,3,0,0,0-3,3v1a3,3,0,0,0,3,3h1a3,3,0,0,0,3-3V16A3,3,0,0,0,17,13Zm1,4a1,1,0,0,1-1,1H16a1,1,0,0,1-1-1V16a1,1,0,0,1,1-1h1a1,1,0,0,1,1,1Z"/></svg>