<svg id="968649eb-438a-484e-bbd4-dd62d4d2adf8" data-name="Layer 1" xmlns="http://www.w3.org/2000/svg" width="24" height="24" viewBox="0 0 24 24"><defs><style>.\35 d3e84d1-dd25-41ad-b445-81f6198ced96{fill:none;}.\36 a01c99d-8bb1-40d2-b07e-2474f2ee7db5{fill:#333;}</style></defs><title>grid_view_v1</title><rect class="5d3e84d1-dd25-41ad-b445-81f6198ced96" width="24" height="24"/><path class="6a01c99d-8bb1-40d2-b07e-2474f2ee7db5" d="M8,4H7A3,3,0,0,0,4,7V8a3,3,0,0,0,3,3H8a3,3,0,0,0,3-3V7A3,3,0,0,0,8,4ZM9,8A1,1,0,0,1,8,9H7A1,1,0,0,1,6,8V7A1,1,0,0,1,7,6H8A1,1,0,0,1,9,7ZM8,13H7a3,3,0,0,0-3,3v1a3,3,0,0,0,3,3H8a3,3,0,0,0,3-3V16A3,3,0,0,0,8,13Zm1,4a1,1,0,0,1-1,1H7a1,1,0,0,1-1-1V16a1,1,0,0,1,1-1H8a1,1,0,0,1,1,1ZM17,4H16a3,3,0,0,0-3,3V8a3,3,0,0,0,3,3h1a3,3,0,0,0,3-3V7A3,3,0,0,0,17,4Zm1,4a1,1,0,0,1-1,1H16a1,1,0,0,1-1-1V7a1,1,0,0,1,1-1h1a1,1,0,0,1,1,1Zm-1,5H16a3,3,0,0,0-3,3v1a3,3,0,0,0,3,3h1a3,3,0,0,0,3-3V16A3,3,0,0,0,17,13Zm1,4a1,1,0,0,1-1,1H16a1,1,0,0,1-1-1V16a1,1,0,0,1,1-1h1a1,1,0,0,1,1,1Z"/></svg>