<svg id="e738543e-28e9-44ad-b09c-639947f65af8" data-name="Layer 1" xmlns="http://www.w3.org/2000/svg" width="24" height="24" viewBox="0 0 24 24"><defs><style>.c2666c66-6147-4874-8a80-e3673dc93b57{fill:none;}.bfd52089-f920-48b5-bce4-24c79d7b509c{fill:#333;}</style></defs><title>heart_v1</title><rect class="c2666c66-6147-4874-8a80-e3673dc93b57" width="24" height="24"/><path class="bfd52089-f920-48b5-bce4-24c79d7b509c" d="M12,20a3,3,0,0,1-2.13-.91L3.6,12.63a5.74,5.74,0,0,1-.68-.86,3,3,0,0,1-.18-.33l-.1-.19a4.3,4.3,0,0,1-.22-.45,4,4,0,0,1-.14-.45l-.07-.22a3.16,3.16,0,0,1-.1-.38A5.84,5.84,0,0,1,2,8.65a5.91,5.91,0,0,1,.11-1.11,3.37,3.37,0,0,1,.1-.38L2.27,7a4,4,0,0,1,.15-.47A4,4,0,0,1,2.64,6l.1-.19a3.15,3.15,0,0,1,.18-.34A5.56,5.56,0,0,1,4.44,4a3.17,3.17,0,0,1,.34-.2L5,3.66a3.82,3.82,0,0,1,.43-.23,3.75,3.75,0,0,1,.45-.15L6,3.22a3.13,3.13,0,0,1,.38-.11,5.37,5.37,0,0,1,1-.11h.21a5.41,5.41,0,0,1,1,.11A3.12,3.12,0,0,1,9,3.22l.2.06a3.81,3.81,0,0,1,.45.15,3.84,3.84,0,0,1,.43.23l.18.1a3.2,3.2,0,0,1,.34.2,5.58,5.58,0,0,1,.84.71l.6.62.6-.62A5.51,5.51,0,0,1,13.44,4a3.17,3.17,0,0,1,.34-.2l.19-.1a3.06,3.06,0,0,1,.88-.37l.2-.06a3.14,3.14,0,0,1,.39-.11,5.34,5.34,0,0,1,1-.11h.21a5.41,5.41,0,0,1,1,.11,3.14,3.14,0,0,1,.38.11l.2.06a3.05,3.05,0,0,1,.88.37l.19.1a3.2,3.2,0,0,1,.34.2,5.57,5.57,0,0,1,1.52,1.56,3.15,3.15,0,0,1,.19.34l.1.2a4,4,0,0,1,.21.43,4.15,4.15,0,0,1,.15.47l.06.21a3.14,3.14,0,0,1,.1.37A5.85,5.85,0,0,1,22,8.64a5.78,5.78,0,0,1-.11,1.1,3.25,3.25,0,0,1-.1.38l-.07.22a4.24,4.24,0,0,1-.14.45,4.14,4.14,0,0,1-.22.45l-.09.18a3.09,3.09,0,0,1-.19.34,5.66,5.66,0,0,1-.68.86L19.08,14h0l-4.95,5.11A3,3,0,0,1,12,20ZM7.5,5h0a3.4,3.4,0,0,0-.63.07l-.14,0-.3.09-.21.07L6,5.39l-.27.15-.12.07a3.57,3.57,0,0,0-1,1l-.07.13L4.39,7a2,2,0,0,0-.11.22,2,2,0,0,0-.07.24l-.09.3a1.24,1.24,0,0,0,0,.15A3.81,3.81,0,0,0,4,8.64a3.92,3.92,0,0,0,.07.72,1.46,1.46,0,0,0,0,.15l.09.32a1.86,1.86,0,0,0,.07.22,2,2,0,0,0,.12.23l.14.27a1,1,0,0,0,.06.12,3.7,3.7,0,0,0,.44.56L11.3,17.7a1,1,0,0,0,1.39,0L19,11.23a3.68,3.68,0,0,0,.44-.56,1,1,0,0,0,.07-.13l.14-.28a1.89,1.89,0,0,0,.11-.22,2,2,0,0,0,.07-.23l.09-.31a1.31,1.31,0,0,0,0-.15A3.74,3.74,0,0,0,20,8.65a3.78,3.78,0,0,0-.07-.73,1.2,1.2,0,0,0,0-.14l-.09-.31a2.08,2.08,0,0,0-.07-.24A2.21,2.21,0,0,0,19.62,7l-.15-.28-.07-.13a3.57,3.57,0,0,0-1-1l-.13-.07L18,5.39l-.2-.11-.21-.07-.3-.09-.14,0A3.4,3.4,0,0,0,16.54,5h-.08a3.37,3.37,0,0,0-.63.07l-.14,0-.3.09-.21.07-.2.11-.27.15-.12.07a3.54,3.54,0,0,0-.54.45L12.72,7.42a1,1,0,0,1-.72.3h0a1,1,0,0,1-.72-.3L10,6.06a3.58,3.58,0,0,0-.54-.45L9.3,5.54,9,5.39l-.21-.11-.21-.07-.3-.09-.14,0A3.41,3.41,0,0,0,7.54,5Z"/></svg>