<svg id="c919526d-b131-44dc-a760-4422210a7f24" data-name="Layer 1" xmlns="http://www.w3.org/2000/svg" width="24" height="24" viewBox="0 0 24 24"><defs><style>.\32 2b7a793-0358-483a-a059-dc785210fd1b{fill:none;}.\36 db4d2a9-6b5b-4842-80da-ad91bcb7757b{fill:#333;}</style></defs><title>help_v1</title><rect class="22b7a793-0358-483a-a059-dc785210fd1b" width="24" height="24"/><path class="6db4d2a9-6b5b-4842-80da-ad91bcb7757b" d="M12,2A10,10,0,1,0,22,12,10,10,0,0,0,12,2Zm0,18a8,8,0,1,1,8-8A8,8,0,0,1,12,20Zm4-10a3.4,3.4,0,0,1-1.95,2.83c-.75.5-1.05.75-1.05,1.17v1H11V14a3.4,3.4,0,0,1,1.95-2.83c.75-.5,1.05-.75,1.05-1.17a2,2,0,0,0-4,0v1H8V10a4,4,0,0,1,8,0Zm-3.12,6.12a1.25,1.25,0,1,1-1.76,0A1.28,1.28,0,0,1,12.88,16.12Z"/></svg>