<svg id="3d61c7bf-1b79-49bb-9c0f-9554349beeb0" data-name="Layer 1" xmlns="http://www.w3.org/2000/svg" width="24" height="24" viewBox="0 0 24 24"><defs><style>.\32 3d9caf4-864b-4d7f-8f2f-125c8d5abf41{fill:none;}.\38 1b52d8c-8ab5-4948-859d-b72bd9ed9f1f{fill:#333;}</style></defs><title>hide_v1</title><rect class="23d9caf4-864b-4d7f-8f2f-125c8d5abf41" width="24" height="24"/><path class="81b52d8c-8ab5-4948-859d-b72bd9ed9f1f" d="M22.3,13.57A11.52,11.52,0,0,1,12,19a14.86,14.86,0,0,1-1.66-.1L12.25,17a9.55,9.55,0,0,0,8.35-4.47,1,1,0,0,0,0-1.06,9.21,9.21,0,0,0-1.24-1.59l1.41-1.41a11.28,11.28,0,0,1,1.53,2A3,3,0,0,1,22.3,13.57ZM22.2,4.22,6.41,20H3.59L6,17.59a11.22,11.22,0,0,1-4.3-4,3,3,0,0,1,0-3.15C2.92,8.4,5.9,5,12,5a13,13,0,0,1,5.4,1.09l.05,0L19.59,4h2.83ZM7.48,16.11,9,14.6A4,4,0,0,1,8,12a4,4,0,0,1,4-4,4,4,0,0,1,2.6,1l1.32-1.32A11.39,11.39,0,0,0,12,7C6.88,7,4.41,9.8,3.4,11.46a1,1,0,0,0,0,1.06,9.19,9.19,0,0,0,4,3.55Zm5.71-5.71A2,2,0,0,0,12,10a2,2,0,0,0-2,2,2,2,0,0,0,.4,1.19Z"/></svg>