<svg id="16fb08c8-415d-4e21-bb0f-e7af076cb597" data-name="Layer 1" xmlns="http://www.w3.org/2000/svg" width="24" height="24" viewBox="0 0 24 24"><defs><style>.\30 0067b44-48a1-4b2c-b831-acaccd5b0f4b{fill:none;}.\35 5f60ce7-1c8c-4a36-b589-7b75b670b219{fill:#333;}</style></defs><title>history_v1</title><rect class="00067b44-48a1-4b2c-b831-acaccd5b0f4b" width="24" height="24"/><path class="55f60ce7-1c8c-4a36-b589-7b75b670b219" d="M13,8v3h2v2H12a1,1,0,0,1-1-1V8ZM12,4a8,8,0,0,0-8,8v2.59l-2-2v2.83l2.29,2.29h0a1,1,0,0,0,1.41,0h0L8,15.41V12.59l-2,2V12a6,6,0,1,1,6,6H11v2h1A8,8,0,0,0,12,4Z"/></svg>