<svg id="abf84796-7669-4083-ba0f-29ef031161cd" data-name="Layer 1" xmlns="http://www.w3.org/2000/svg" width="24" height="24" viewBox="0 0 24 24"><defs><style>.fd6b0a8a-af62-4042-bb12-3e41b3f54efb{fill:none;}.ea38bd5d-7983-48d6-a22d-1dc97b86922f{fill:#333;}</style></defs><title>home_v1</title><rect class="fd6b0a8a-af62-4042-bb12-3e41b3f54efb" width="24" height="24"/><path class="ea38bd5d-7983-48d6-a22d-1dc97b86922f" d="M14,2.79a3,3,0,0,0-4,0L2,10v2.7l2-1.82V19a3,3,0,0,0,3,3H17a3,3,0,0,0,3-3V10.91l2,1.82V10ZM7,20a1,1,0,0,1-1-1V9.1l5.33-4.84a1,1,0,0,1,1.35,0L18,9.1V19a1,1,0,0,1-1,1Z"/></svg>