<svg id="74b4f88d-08bf-47a7-93df-324cd6f2c2b7" data-name="Layer 1" xmlns="http://www.w3.org/2000/svg" width="24" height="24" viewBox="0 0 24 24"><defs><style>.\37 0d915d9-b936-4345-a465-60d8b188675e{fill:none;}.\39 67a9f26-12ca-4337-aaa6-3cbc68691424{fill:#333;}</style></defs><title>infinite_v2</title><rect class="70d915d9-b936-4345-a465-60d8b188675e" width="24" height="24"/><path class="967a9f26-12ca-4337-aaa6-3cbc68691424" d="M7,6a6,6,0,0,1,3.6,1.21A8,8,0,0,0,9.6,9,4,4,0,0,0,7,8a4,4,0,0,0,0,8,4,4,0,0,0,4-4,6,6,0,0,1,1-3.31,6,6,0,0,1,1.4-1.48,6,6,0,1,1,0,9.57,8,8,0,0,0,1-1.77A4,4,0,0,0,17,16a4,4,0,0,0,0-8,4,4,0,0,0-4,4,6,6,0,0,1-1,3.31,6,6,0,0,1-1.4,1.48A6,6,0,1,1,7,6Z"/></svg>