<svg id="85a5dd5e-96bf-4f2f-927c-5562322c70c8" data-name="Layer 1" xmlns="http://www.w3.org/2000/svg" width="24" height="24" viewBox="0 0 24 24"><defs><style>.\31 0a63e05-c02b-4de7-b6e3-74b980606f74{fill:none;}.\34 7678721-cd70-4d2e-87b9-b2b50ba97582{fill:#333;}</style></defs><title>info_v1</title><rect class="10a63e05-c02b-4de7-b6e3-74b980606f74" width="24" height="24"/><path class="47678721-cd70-4d2e-87b9-b2b50ba97582" d="M12,2A10,10,0,1,0,22,12,10,10,0,0,0,12,2Zm0,18a8,8,0,1,1,8-8A8,8,0,0,1,12,20ZM11,10h2v7H11Zm1.88-2.88A1.24,1.24,0,1,1,10.75,8a1.25,1.25,0,0,1,.36-.88A1.29,1.29,0,0,1,12.88,7.12Z"/></svg>