<svg id="73fa90e5-db66-4bb2-bb7f-c1f93381a503" data-name="Layer 1" xmlns="http://www.w3.org/2000/svg" width="24" height="24" viewBox="0 0 24 24"><defs><style>.\34 19bdf1e-ff40-4481-aa97-c88716a0fd24{fill:none;}.\31 9763815-c985-484f-99b1-03f66d2be96d{fill:#333;}</style></defs><title>internet_v1</title><rect class="419bdf1e-ff40-4481-aa97-c88716a0fd24" width="24" height="24"/><path class="19763815-c985-484f-99b1-03f66d2be96d" d="M12,2h0A10,10,0,1,0,22,12,10,10,0,0,0,12,2Zm8,9.22H17.48a11,11,0,0,0-2-6.4A8,8,0,0,1,20,11.22ZM11,5.26c0,1.89,0,4,.06,6H8.55C8.81,7.94,10,6.17,11,5.26Zm.08,8c0,2.57,0,4.83,0,6.21-1-.76-2.41-2.48-2.57-6.21Zm2,0h2.33a8.79,8.79,0,0,1-2.35,5.84C13.13,17.85,13.14,16,13.12,13.22Zm0-2c0-1.73,0-3.75-.07-6.11,1,.81,2.28,2.55,2.44,6.11ZM8.89,4.63a11.28,11.28,0,0,0-2.35,6.6H4A8,8,0,0,1,8.89,4.63ZM4.1,13.22H6.53A11.76,11.76,0,0,0,8,18.93,8,8,0,0,1,4.1,13.22Zm11.52,5.9a11.85,11.85,0,0,0,1.83-5.9H19.9A8,8,0,0,1,15.62,19.12Z"/></svg>