<svg id="54832b92-6bc7-44be-96d3-56c8c8700fa0" data-name="Layer 1" xmlns="http://www.w3.org/2000/svg" width="24" height="24" viewBox="0 0 24 24"><defs><style>.\34 124370e-822b-497e-ae88-354ef839c88b{fill:none;}.\32 1385ec7-0760-4584-a83c-3818889a39a7{fill:#333;}</style></defs><title>laptop_v1</title><rect class="4124370e-822b-497e-ae88-354ef839c88b" width="24" height="24"/><path class="21385ec7-0760-4584-a83c-3818889a39a7" d="M23,14H22V7a3,3,0,0,0-3-3H5A3,3,0,0,0,2,7v7H1a1,1,0,0,0-1,1v2a3,3,0,0,0,3,3H21a3,3,0,0,0,3-3V15A1,1,0,0,0,23,14ZM4,7A1,1,0,0,1,5,6H19a1,1,0,0,1,1,1v7H4ZM22,17a1,1,0,0,1-1,1H3a1,1,0,0,1-1-1V16h8v1h4V16h8Z"/></svg>