<svg id="fbea77a9-dae4-4d61-afeb-db0731f89e90" data-name="Layer 1" xmlns="http://www.w3.org/2000/svg" width="24" height="24" viewBox="0 0 24 24"><defs><style>.\30 70060cd-0bd1-49d7-b5e1-0fdb2d4942d4{fill:none;}.ad299ee1-2617-4aea-9504-4fc0c1d34fbe{fill:#333;}</style></defs><title>list_view_v1</title><rect class="070060cd-0bd1-49d7-b5e1-0fdb2d4942d4" width="24" height="24"/><path class="ad299ee1-2617-4aea-9504-4fc0c1d34fbe" d="M17,4H7A3,3,0,0,0,4,7V8a3,3,0,0,0,3,3H17a3,3,0,0,0,3-3V7A3,3,0,0,0,17,4Zm1,4a1,1,0,0,1-1,1H7A1,1,0,0,1,6,8V7A1,1,0,0,1,7,6H17a1,1,0,0,1,1,1Zm-1,5H7a3,3,0,0,0-3,3v1a3,3,0,0,0,3,3H17a3,3,0,0,0,3-3V16A3,3,0,0,0,17,13Zm1,4a1,1,0,0,1-1,1H7a1,1,0,0,1-1-1V16a1,1,0,0,1,1-1H17a1,1,0,0,1,1,1Z"/></svg>