<svg id="fa3828ab-3b66-46d4-a565-14cc9adab93b" data-name="Layer 1" xmlns="http://www.w3.org/2000/svg" width="24" height="24" viewBox="0 0 24 24"><defs><style>.\37 316972b-9e65-4247-a92d-f919b0dda10d{fill:none;}.b4923e38-60e1-4533-871f-786b5a271070{fill:#333;}</style></defs><title>locate_v1</title><rect class="7316972b-9e65-4247-a92d-f919b0dda10d" width="24" height="24"/><path class="b4923e38-60e1-4533-871f-786b5a271070" d="M22,11H19.93A8,8,0,0,0,13,4.07V2H11V4.07A8,8,0,0,0,4.07,11H2v2H4.07A8,8,0,0,0,11,19.93V22h2V19.93A8,8,0,0,0,19.93,13H22ZM12,18a6,6,0,1,1,6-6A6,6,0,0,1,12,18Zm2-6a2,2,0,1,1-2-2A2,2,0,0,1,14,12Z"/></svg>