<svg id="e5d24450-3c86-4bc8-b0e8-0092b6d43888" data-name="Layer 1" xmlns="http://www.w3.org/2000/svg" width="24" height="24" viewBox="0 0 24 24"><defs><style>.\31 fdcbdd8-f533-422e-aa79-48076905525c{fill:none;}.\38 d1ec00d-7f2c-41db-b4d2-600a4ac25f0a{fill:#333;}</style></defs><title>lock_v1</title><rect class="1fdcbdd8-f533-422e-aa79-48076905525c" width="24" height="24"/><path class="8d1ec00d-7f2c-41db-b4d2-600a4ac25f0a" d="M17,9V7A5,5,0,0,0,7,7V9a3,3,0,0,0-3,3v6a3,3,0,0,0,3,3H17a3,3,0,0,0,3-3V12A3,3,0,0,0,17,9ZM9,7a3,3,0,0,1,6,0V9H9Zm9,11a1,1,0,0,1-1,1H7a1,1,0,0,1-1-1V12a1,1,0,0,1,1-1H17a1,1,0,0,1,1,1Z"/></svg>