<svg id="bbd653f2-f904-4b0d-8106-ae1796919dcc" data-name="Layer 1" xmlns="http://www.w3.org/2000/svg" width="24" height="24" viewBox="0 0 24 24"><defs><style>.\30 df0876d-160a-430d-89ea-b142bd3d3be7{fill:none;}.\32 3b347a9-81e9-456f-aef3-8ba73ac946c2{fill:#333;}</style></defs><title>lock_open_v1</title><rect class="0df0876d-160a-430d-89ea-b142bd3d3be7" width="24" height="24"/><path class="23b347a9-81e9-456f-aef3-8ba73ac946c2" d="M17,9V7A5,5,0,0,0,7,7H9a3,3,0,0,1,6,0V9H7a3,3,0,0,0-3,3v6a3,3,0,0,0,3,3H17a3,3,0,0,0,3-3V12A3,3,0,0,0,17,9Zm1,9a1,1,0,0,1-1,1H7a1,1,0,0,1-1-1V12a1,1,0,0,1,1-1H17a1,1,0,0,1,1,1Z"/></svg>