<svg id="fa17b66a-002d-4325-8cd0-b13711b8c42d" data-name="Layer 1" xmlns="http://www.w3.org/2000/svg" width="24" height="24" viewBox="0 0 24 24">
  <title>mapview_v3</title>
  <rect width="24" height="24" fill="none"/>
  <path d="M21.61,20.55A2.86,2.86,0,0,1,19.11,22H4.89a2.88,2.88,0,0,1-2.5-4.32L4.55,14H6.87L4.12,18.69a.85.85,0,0,0,0,.87.87.87,0,0,0,.77.44H19.11a.87.87,0,0,0,.77-.44.85.85,0,0,0,0-.87L17.13,14h2.31l2.16,3.72A2.84,2.84,0,0,1,21.61,20.55ZM6,8A6,6,0,0,1,18,8c0,3.26-3.38,6.78-4.83,8.14a1.71,1.71,0,0,1-2.35,0C9,14.44,6,11.13,6,8ZM8,8c0,2.38,2.84,5.38,4,6.5,1.16-1.12,4-4.1,4-6.5A4,4,0,0,0,8,8Zm6,0a2,2,0,1,0-2,2A2,2,0,0,0,14,8Z" fill="#333"/>
</svg>
