<svg id="bdf9d9b6-7d14-4986-a060-af8e4bc4e9e8" data-name="Layer 1" xmlns="http://www.w3.org/2000/svg" width="24" height="24" viewBox="0 0 24 24"><defs><style>.\37 4cb8c47-0e41-45a9-94af-5a7bf6e0f0ca{fill:#333;}</style></defs><title>marker_v1</title><path class="74cb8c47-0e41-45a9-94af-5a7bf6e0f0ca" d="M12,2a8,8,0,0,0-8,8c0,4.38,4.64,9.23,6.63,11.11a2,2,0,0,0,2.73,0C15.36,19.24,20,14.41,20,10A8,8,0,0,0,12,2Zm0,17.65C10.6,18.33,6,13.71,6,10a6,6,0,0,1,12,0C18,13.73,13.41,18.33,12,19.65ZM14,10a2,2,0,1,1-2-2A2,2,0,0,1,14,10Z"/></svg>