<svg id="7da129c0-3765-4b0e-97ab-b28519bfa1f5" data-name="Layer 1" xmlns="http://www.w3.org/2000/svg" width="24" height="24" viewBox="0 0 24 24"><defs><style>.ffc31b1b-52a0-4247-a559-b02e310a30a3{fill:none;}.\32 1972248-d61b-4072-be2c-a74e5f5e55f3{fill:#333;}</style></defs><title>message_v1</title><rect class="ffc31b1b-52a0-4247-a559-b02e310a30a3" width="24" height="24"/><path class="21972248-d61b-4072-be2c-a74e5f5e55f3" d="M8,9h8v2H8Zm0,6h6V13H8Zm13.69,4.33a2,2,0,0,1-2.35,2.35l-3.12-.62A9.92,9.92,0,0,1,12,22a10.26,10.26,0,0,1-1.89-.18,10.07,10.07,0,0,1-8-8.22A10,10,0,0,1,13.6,2.13a10.07,10.07,0,0,1,8.22,8,10,10,0,0,1-.76,6.1Zm-1.83-8.85A8,8,0,0,0,13.29,4.1,8.38,8.38,0,0,0,12,4a8,8,0,0,0-7.9,9.3,8,8,0,0,0,11.52,5.83,1,1,0,0,1,.65-.09l3.45.69L19,16.27a1,1,0,0,1,.09-.65A8,8,0,0,0,19.86,10.48Z"/></svg>