<svg id="082c24d8-8b58-4f1d-9ae9-389303257501" data-name="Layer 1" xmlns="http://www.w3.org/2000/svg" width="24" height="24" viewBox="0 0 24 24"><defs><style>.\38 a2afd35-7bdc-4b5c-afd9-c3ecb92a73b5{fill:none;}.\33 8ba2728-6cd1-4a40-a511-e97cd67199a2{fill:#333;}</style></defs><title>microphone_off_v1</title><rect class="8a2afd35-7bdc-4b5c-afd9-c3ecb92a73b5" width="24" height="24"/><path class="38ba2728-6cd1-4a40-a511-e97cd67199a2" d="M21,4h-2.4L15,7.59V5A3,3,0,0,0,9,5v6a3,3,0,0,0,.68,1.9L8.27,14.32A5,5,0,0,1,7,11V10H5v1a7,7,0,0,0,1.86,4.73L2.59,20H5.41l3-3,.66-.66,2.4-2.4L15,10.42l6.2-6.2L21.41,4ZM13,9.59l-1.87,1.87A1,1,0,0,1,11,11V5a1,1,0,0,1,2,0Z"/><path class="38ba2728-6cd1-4a40-a511-e97cd67199a2" d="M17,11.27a5,5,0,0,1-4.7,4.7L12.2,16,11,17.24l-.57.57.57.11V20H8v2h8V20H13V17.92A7,7,0,0,0,19,11V10h-.76Z"/></svg>