<svg id="6bc27ed2-9cc0-464c-be49-4b0743d4bd06" data-name="Layer 1" xmlns="http://www.w3.org/2000/svg" width="24" height="24" viewBox="0 0 24 24"><defs><style>.def10dbd-2304-427d-becc-ea8ccbed4e77{fill:none;}.\35 eff5156-ab1c-4a86-919a-fee162f14161{fill:#333;}</style></defs><title>microphone_v1</title><rect class="def10dbd-2304-427d-becc-ea8ccbed4e77" width="24" height="24"/><path class="5eff5156-ab1c-4a86-919a-fee162f14161" d="M19,10v1a7,7,0,0,1-6,6.92V20h3v2H8V20h3V17.92A7,7,0,0,1,5,11V10H7v1a5,5,0,0,0,10,0V10ZM9,11V5a3,3,0,0,1,6,0v6a3,3,0,0,1-6,0Zm2,0a1,1,0,0,0,2,0V5a1,1,0,0,0-2,0Z"/></svg>