<svg id="acc343cc-579c-4192-97e2-6facd20d75a1" data-name="Layer 1" xmlns="http://www.w3.org/2000/svg" width="24" height="24" viewBox="0 0 24 24"><defs><style>.\36 a8b8610-940f-4c4d-90a6-88c5f0fbc690{fill:none;}.\32 1ea8f05-a3b8-4b84-ada0-71f47836c315{fill:#333;}</style></defs><title>mobile_v1</title><rect class="6a8b8610-940f-4c4d-90a6-88c5f0fbc690" width="24" height="24"/><path class="21ea8f05-a3b8-4b84-ada0-71f47836c315" d="M15,2H9A3,3,0,0,0,6,5V19a3,3,0,0,0,3,3h6a3,3,0,0,0,3-3V5A3,3,0,0,0,15,2Zm1,17a1,1,0,0,1-1,1H9a1,1,0,0,1-1-1V5A1,1,0,0,1,9,4h6a1,1,0,0,1,1,1Zm-3.29-1.71a1,1,0,0,1-1.42,1.42,1,1,0,0,1,0-1.42A1,1,0,0,1,12.71,17.29Z"/></svg>