<svg id="22bc9bbb-31a9-4f5c-a206-8ce27dea9e02" data-name="Layer 1" xmlns="http://www.w3.org/2000/svg" width="24" height="24" viewBox="0 0 24 24"><defs><style>.\36 d0dcfb7-b3ab-49fa-aa9e-38d8a8bf2309{fill:none;}.\34 2eeffe7-b60b-453e-9462-c691133e44e5{fill:#333;}</style></defs><title>notifications_v2</title><rect class="6d0dcfb7-b3ab-49fa-aa9e-38d8a8bf2309" width="24" height="24"/><path class="42eeffe7-b60b-453e-9462-c691133e44e5" d="M19.6,15.8l-1.4-1.87a1,1,0,0,1-.2-.6V10a6,6,0,0,0-4-5.65V4a2,2,0,0,0-4,0v.35A6,6,0,0,0,6,10v3.33a1,1,0,0,1-.2.6L4.4,15.8A2,2,0,0,0,6,19H18a2,2,0,0,0,1.6-3.2ZM6,17l1.4-1.87a3,3,0,0,0,.6-1.8V10a4,4,0,0,1,8,0v3.33a3,3,0,0,0,.6,1.8L18,17Zm4,3h4a2,2,0,0,1-4,0Z"/></svg>