<svg id="f1976b66-1e7b-4272-9f09-f20fc15ff5e6" data-name="Layer 1" xmlns="http://www.w3.org/2000/svg" width="24" height="24" viewBox="0 0 24 24"><defs><style>.\34 7fa8e77-46e2-498c-8d7f-f86b8e31f32f{fill:none;}.\36 c4e2ad3-f484-404e-85c0-96b88a66f80f{fill:#333;}</style></defs><title>notifications_on_v2</title><rect class="47fa8e77-46e2-498c-8d7f-f86b8e31f32f" width="24" height="24"/><path class="6c4e2ad3-f484-404e-85c0-96b88a66f80f" d="M18.2,13.93a1,1,0,0,1-.2-.6V10a6,6,0,0,0-4-5.65V4a2,2,0,0,0-4,0v.35A6,6,0,0,0,6,10v3.33a1,1,0,0,1-.2.6L4.4,15.8A2,2,0,0,0,6,19H18a2,2,0,0,0,1.6-3.2ZM6,17l1.4-1.87a3,3,0,0,0,.6-1.8V10a4,4,0,0,1,8,0v3.33a3,3,0,0,0,.6,1.8L18,17ZM6,4.72A7.93,7.93,0,0,0,4,10H2A9.93,9.93,0,0,1,4.93,2.93,10.1,10.1,0,0,1,6,2ZM22,10H20a8,8,0,0,0-2-5.27V2A10,10,0,0,1,22,10ZM10,20h4a2,2,0,0,1-4,0Z"/></svg>