<svg id="6b7317be-f7f9-4ad0-92c2-ae89f1abae01" data-name="Layer 1" xmlns="http://www.w3.org/2000/svg" width="24" height="24" viewBox="0 0 24 24"><defs><style>.\38 881af0f-7c38-4bc3-b831-72247a469c71{fill:none;}.\35 6cc7a70-5dab-4147-bee8-25e66714a9d6{fill:#333;}</style></defs><title>notifications_off_v2</title><rect class="8881af0f-7c38-4bc3-b831-72247a469c71" width="24" height="24"/><path class="56cc7a70-5dab-4147-bee8-25e66714a9d6" d="M10,20h4a2,2,0,0,1-4,0Zm8.2-6.07a1,1,0,0,1-.2-.6V10.24l-2,2v1.09a3,3,0,0,0,.6,1.8L18,17H11.24l-2,2H18a2,2,0,0,0,1.6-3.2ZM21.41,4l-13,13-2,2-1,1H2.59l1.82-1.82a1.87,1.87,0,0,1,0-2.38l1.4-1.87a1,1,0,0,0,.2-.6V10a6,6,0,0,1,4-5.65V4a2,2,0,0,1,4,0v.36a6,6,0,0,1,2.51,1.72L18.59,4ZM15.09,7.49A4,4,0,0,0,12,6a4,4,0,0,0-4,4v3.33a3,3,0,0,1-.6,1.8l-.16.21Z"/></svg>