<svg id="36c5adbb-c195-4e5c-947b-10989812d178" data-name="Layer 1" xmlns="http://www.w3.org/2000/svg" width="24" height="24" viewBox="0 0 24 24"><defs><style>.d67bcc4e-0ec9-4705-8325-d41b17a07952{fill:none;}.\32 9d825cd-a862-4016-a8f1-6ab106348886{fill:#333;}</style></defs><title>on_demand_v1</title><rect class="d67bcc4e-0ec9-4705-8325-d41b17a07952" width="24" height="24"/><path class="29d825cd-a862-4016-a8f1-6ab106348886" d="M19,4H5A3,3,0,0,0,2,7V17a3,3,0,0,0,3,3H19a3,3,0,0,0,3-3V7A3,3,0,0,0,19,4Zm1,13a1,1,0,0,1-1,1H5a1,1,0,0,1-1-1V7A1,1,0,0,1,5,6H19a1,1,0,0,1,1,1Zm-5.37-6.57L12.18,8.5a2,2,0,0,0-3.24,1.57v3.87a2,2,0,0,0,3.24,1.57l2.45-1.93a2,2,0,0,0,0-3.14Zm-3.69,3.5V10.06h0L13.39,12Z"/></svg>