<svg id="ba26a70f-3fdc-4877-996f-c93b86d0dc42" data-name="Layer 1" xmlns="http://www.w3.org/2000/svg" width="24" height="24" viewBox="0 0 24 24"><defs><style>.\36 2c5ea78-d875-4b23-9cd0-8b758e5af87e{fill:none;}.\37 c818a5b-1ebf-4aa8-ad56-17ffe524145e{fill:#333;}</style></defs><title>pause_v1</title><rect class="62c5ea78-d875-4b23-9cd0-8b758e5af87e" width="24" height="24"/><path class="7c818a5b-1ebf-4aa8-ad56-17ffe524145e" d="M7,20a3,3,0,0,1-3-3V7a3,3,0,0,1,6,0V17A3,3,0,0,1,7,20ZM7,6A1,1,0,0,0,6,7V17a1,1,0,0,0,2,0V7A1,1,0,0,0,7,6ZM17,20a3,3,0,0,1-3-3V7a3,3,0,0,1,6,0V17A3,3,0,0,1,17,20ZM17,6a1,1,0,0,0-1,1V17a1,1,0,0,0,2,0V7A1,1,0,0,0,17,6Z"/></svg>