<svg id="5a4f0574-38dc-42d2-b144-d1259ccde3e2" data-name="Layer 1" xmlns="http://www.w3.org/2000/svg" width="24" height="24" viewBox="0 0 24 24"><defs><style>.c1670a9a-a67d-4072-bddf-5a1412487881{fill:none;}.\31 4c4d024-4b73-4bd8-b522-0696191b186d{fill:#333;}</style></defs><title>payment_v1</title><rect class="c1670a9a-a67d-4072-bddf-5a1412487881" width="24" height="24"/><path class="14c4d024-4b73-4bd8-b522-0696191b186d" d="M19,4H5A3,3,0,0,0,2,7V17a3,3,0,0,0,3,3H19a3,3,0,0,0,3-3V7A3,3,0,0,0,19,4ZM5,6H19a1,1,0,0,1,1,1V8H4V7A1,1,0,0,1,5,6ZM19,18H5a1,1,0,0,1-1-1V10H20v7A1,1,0,0,1,19,18ZM6,14h4v2H6Zm6,0h4v2H12Z"/></svg>