<svg id="f7e048ad-0a27-4ca4-8db2-88609c358ba0" data-name="Layer 1" xmlns="http://www.w3.org/2000/svg" width="24" height="24" viewBox="0 0 24 24"><defs><style>.aae1d5b7-0b34-4d88-9879-b5abeba30a44{fill:none;}.dcb45300-1e99-4952-95af-4ca361c60369{fill:#333;}</style></defs><title>person_v1</title><rect class="aae1d5b7-0b34-4d88-9879-b5abeba30a44" width="24" height="24"/><path class="dcb45300-1e99-4952-95af-4ca361c60369" d="M12,12A4,4,0,1,0,8,8,4,4,0,0,0,12,12Zm0-6a2,2,0,1,1-2,2A2,2,0,0,1,12,6Zm8,13H18l-.78-3.4a1,1,0,0,0-.93-.6H7.74a1,1,0,0,0-1,.69L6,19H4a1,1,0,0,1,0-.22l.83-3.62A3,3,0,0,1,7.74,13h8.53a3,3,0,0,1,2.85,2.07L20,18.78A1,1,0,0,1,20,19Z"/></svg>