<svg id="c409c4c0-bc57-487b-b9d8-30e562c06d02" data-name="Layer 1" xmlns="http://www.w3.org/2000/svg" width="24" height="24" viewBox="0 0 24 24"><defs><style>.\36 d938b53-a376-4fe5-848b-8f6523471685{fill:none;}.\36 4e2e831-ddc3-4800-a322-5a2660e3c8e4{fill:#333;}</style></defs><title>phone_v1</title><rect class="6d938b53-a376-4fe5-848b-8f6523471685" width="24" height="24"/><path class="64e2e831-ddc3-4800-a322-5a2660e3c8e4" d="M18.39,15.86l-3.58-.71a2,2,0,0,0-2,.76l-1.49,2a15.17,15.17,0,0,1-5.22-5.22l2-1.49a2,2,0,0,0,.76-2L8.14,5.61A2,2,0,0,0,6.18,4h-1a3,3,0,0,0-3,3.43,16.79,16.79,0,0,0,1.7,5.31A1,1,0,0,0,4,13a17.18,17.18,0,0,0,7,7,1,1,0,0,0,.23.12,16.78,16.78,0,0,0,5.31,1.7,3,3,0,0,0,3.43-3v-1A2,2,0,0,0,18.39,15.86ZM4.15,7.15A1,1,0,0,1,5.15,6h1L6.9,9.58l-1.7,1.28A14.79,14.79,0,0,1,4.15,7.15ZM18,18.85a1,1,0,0,1-1.15,1,14.81,14.81,0,0,1-3.71-1l1.28-1.7,3.58.71ZM22,11H20a7,7,0,0,0-7-7V2A9,9,0,0,1,22,11ZM13,8V6a5,5,0,0,1,5,5H16A3,3,0,0,0,13,8Z"/></svg>