<svg id="080c7c95-67eb-4f17-87d1-b602349854e3" data-name="Layer 1" xmlns="http://www.w3.org/2000/svg" width="24" height="24" viewBox="0 0 24 24"><defs><style>.cd6a92bf-b4c1-42f1-b0b1-917b51cd51e1{fill:none;}.e5f13a07-22f0-4ea6-bc27-1f369eaf7a1a{fill:#333;}</style></defs><title>play_v1</title><rect class="cd6a92bf-b4c1-42f1-b0b1-917b51cd51e1" width="24" height="24"/><path class="e5f13a07-22f0-4ea6-bc27-1f369eaf7a1a" d="M8,20a3.09,3.09,0,0,1-1.49-.38A2.88,2.88,0,0,1,5,17.07V6.93A2.88,2.88,0,0,1,6.53,4.38a3.09,3.09,0,0,1,3.14.1l8,5.07a2.88,2.88,0,0,1,0,4.89l-8,5.07A3.08,3.08,0,0,1,8,20ZM8,6a1.1,1.1,0,0,0-.53.14A.91.91,0,0,0,7,6.93V17.07a.91.91,0,0,0,.49.79,1.08,1.08,0,0,0,1.11,0l8-5.07a.88.88,0,0,0,0-1.52l-8-5.07A1.07,1.07,0,0,0,8,6Z"/></svg>