<svg id="f8ac978d-b5a7-4ff0-b8bb-3002b6054c0d" data-name="Layer 1" xmlns="http://www.w3.org/2000/svg" width="24" height="24" viewBox="0 0 24 24"><defs><style>.bb23170d-968b-4238-a8ea-cf759b3cec17{fill:none;}.\34 3310e5e-d9b2-4f7b-9a42-6a149cb4f4cb{fill:#333;}</style></defs><title>Present_v2</title><rect class="bb23170d-968b-4238-a8ea-cf759b3cec17" width="24" height="24"/><path class="43310e5e-d9b2-4f7b-9a42-6a149cb4f4cb" d="M19,7H16.82A3,3,0,0,0,17,6a3,3,0,0,0-3-3,3,3,0,0,0-1.37.35A4,4,0,0,0,5,5a4,4,0,0,0,.56,2H5a3,3,0,0,0-3,3v2a1,1,0,0,0,1,1v6a3,3,0,0,0,3,3H18a3,3,0,0,0,3-3V13a1,1,0,0,0,1-1V10A3,3,0,0,0,19,7Zm1,3v1H12.94V9H19A1,1,0,0,1,20,10ZM14,5a1,1,0,0,1,0,2H13c0-.26,0-.58,0-.94,0,0,0,0,0-.06A1,1,0,0,1,14,5ZM7,5a2,2,0,0,1,4,0c0,.7,0,1.44,0,2H9A2,2,0,0,1,7,5ZM4,10A1,1,0,0,1,5,9h5.94v2H4Zm1,9V13h5.94v7H6A1,1,0,0,1,5,19Zm14,0a1,1,0,0,1-1,1H12.94V13H19Z"/></svg>