<svg id="21feda13-ae71-4f07-8fd1-80a1af036ed9" data-name="Layer 1" xmlns="http://www.w3.org/2000/svg" width="24" height="24" viewBox="0 0 24 24"><defs><style>.\35 9139e71-5d05-4de6-a31a-5a873c03e656{fill:none;}.\31 b55dee9-7022-4233-8904-2b96d1f50e77{fill:#333;}</style></defs><title>products_v1</title><rect class="59139e71-5d05-4de6-a31a-5a873c03e656" width="24" height="24"/><path class="1b55dee9-7022-4233-8904-2b96d1f50e77" d="M12,21.69a3,3,0,0,1-1.49-.39L4.64,17.94a3,3,0,0,1-1.51-2.6V8.66a3,3,0,0,1,1.51-2.6L10.51,2.7a3,3,0,0,1,3,0h0l5.88,3.36a3,3,0,0,1,1.51,2.6v6.68a3,3,0,0,1-1.51,2.6L13.49,21.3A3,3,0,0,1,12,21.69ZM12,4.3a1,1,0,0,0-.5.13L5.63,7.79a1,1,0,0,0-.5.87v6.68a1,1,0,0,0,.5.87l5.88,3.36a1,1,0,0,0,1,0l5.88-3.36a1,1,0,0,0,.5-.87V8.66a1,1,0,0,0-.5-.87L12.5,4.44A1,1,0,0,0,12,4.3Z"/></svg>