<svg id="ee34ca8a-4fef-4cd0-8b80-2d8053e7347c" data-name="Layer 1" xmlns="http://www.w3.org/2000/svg" width="24" height="24" viewBox="0 0 24 24"><defs><style>.f595f7f2-f153-44b4-a512-c15f72bd3ef3{fill:#333;}</style></defs><title>products_diap_v1</title><path class="f595f7f2-f153-44b4-a512-c15f72bd3ef3" d="M13,3.57l5.88,3.36a2,2,0,0,1,1,1.74v6.68a2,2,0,0,1-1,1.74L13,20.43a2,2,0,0,1-2,0L5.13,17.08a2,2,0,0,1-1-1.74V8.66a2,2,0,0,1,1-1.74L11,3.57A2,2,0,0,1,13,3.57Z"/><path class="f595f7f2-f153-44b4-a512-c15f72bd3ef3" d="M12,21.69a3,3,0,0,1-1.49-.39L4.64,17.94a3,3,0,0,1-1.51-2.6V8.66a3,3,0,0,1,1.51-2.6L10.51,2.7a3,3,0,0,1,3,0h0l5.88,3.36a3,3,0,0,1,1.51,2.6v6.68a3,3,0,0,1-1.51,2.6L13.49,21.3A3,3,0,0,1,12,21.69ZM12,4.3a1,1,0,0,0-.5.13L5.63,7.79a1,1,0,0,0-.5.87v6.68a1,1,0,0,0,.5.87l5.88,3.36a1,1,0,0,0,1,0l5.88-3.36a1,1,0,0,0,.5-.87V8.66a1,1,0,0,0-.5-.87L12.5,4.44A1,1,0,0,0,12,4.3Z"/></svg>