<svg id="c447a074-6939-42ed-bbfd-d6933685ada9" data-name="Layer 1" xmlns="http://www.w3.org/2000/svg" width="24" height="24" viewBox="0 0 24 24"><defs><style>.b36e3538-cbb2-46bd-bca4-0a18e4e6c179{fill:none;}.\39 64927cc-7d9f-4eb9-aa26-33cab692f526{fill:#333;}</style></defs><title>remove_v1</title><rect class="b36e3538-cbb2-46bd-bca4-0a18e4e6c179" width="24" height="24"/><path class="964927cc-7d9f-4eb9-aa26-33cab692f526" d="M12,2A10,10,0,1,0,22,12,10,10,0,0,0,12,2Zm0,18a8,8,0,1,1,8-8A8,8,0,0,1,12,20ZM15.71,9.71,13.41,12l2.29,2.29-1.41,1.41L12,13.41,9.71,15.71,8.29,14.29,10.59,12,8.29,9.71,9.71,8.29,12,10.59l2.29-2.29Z"/></svg>