<svg id="686f5b8b-220f-4255-95b9-d250f2f6b785" data-name="Layer 1" xmlns="http://www.w3.org/2000/svg" width="24" height="24" viewBox="0 0 24 24"><defs><style>.\34 39f5ad4-2b05-42bf-b8da-a566a9bbff8f{fill:#333;}</style></defs><title>renew_v1</title><path class="439f5ad4-2b05-42bf-b8da-a566a9bbff8f" d="M7.59,10l2-2H8a4,4,0,0,0,0,8H9v2H8A6,6,0,0,1,8,6H9.59l-2-2h2.83l2.29,2.29a1,1,0,0,1,0,1.41L10.41,10ZM22,12a6,6,0,0,0-6-6H15V8h1a4,4,0,0,1,0,8H14.41l2-2H13.59l-2.29,2.29a1,1,0,0,0,0,1.41L13.59,20h2.83l-2-2H16A6,6,0,0,0,22,12Z"/></svg>