<svg id="ee931a02-aa06-4e15-9458-1f9eb2d8423d" data-name="Layer 1" xmlns="http://www.w3.org/2000/svg" width="24" height="24" viewBox="0 0 24 24"><defs><style>.bc1fdd5b-9be4-49a1-bbd7-ceaf457a745d{fill:none;}.ffc28856-d5bd-4893-b45e-0c116777dd01{fill:#333;}</style></defs><title>reveal_v1</title><rect class="bc1fdd5b-9be4-49a1-bbd7-ceaf457a745d" width="24" height="24"/><path class="ffc28856-d5bd-4893-b45e-0c116777dd01" d="M12,19A11.53,11.53,0,0,1,1.7,13.58a3,3,0,0,1,0-3.15C2.92,8.4,5.9,5,12,5s9.08,3.4,10.31,5.42h0a3,3,0,0,1,0,3.15A11.53,11.53,0,0,1,12,19ZM12,7C6.88,7,4.41,9.8,3.4,11.46a1,1,0,0,0,0,1.06A9.59,9.59,0,0,0,12,17a9.59,9.59,0,0,0,8.6-4.47,1,1,0,0,0,0-1.06h0C19.59,9.8,17.13,7,12,7Zm0,9a4,4,0,1,1,4-4A4,4,0,0,1,12,16Zm0-6a2,2,0,1,0,2,2A2,2,0,0,0,12,10Z"/></svg>