<svg id="f14dc94a-69a5-4b34-bc63-628a98580ef8" data-name="Layer 1" xmlns="http://www.w3.org/2000/svg" width="24" height="24" viewBox="0 0 24 24"><defs><style>.\32 8f3e107-9a8e-47e6-8351-2c31c43ff695{fill:none;}.\37 4e9b7a6-454a-4aec-b00c-df07d649b679{fill:#333;}</style></defs><title>search_v1</title><rect class="28f3e107-9a8e-47e6-8351-2c31c43ff695" width="24" height="24"/><path class="74e9b7a6-454a-4aec-b00c-df07d649b679" d="M21.12,16.88l-4-4a3,3,0,0,0-3.41-.58l-.83-.83a6,6,0,1,0-1.41,1.41l.83.83a3,3,0,0,0,.58,3.41l4,4a3,3,0,1,0,4.24-4.24ZM4,8a4,4,0,1,1,4,4A4,4,0,0,1,4,8ZM19.71,19.71a1,1,0,0,1-1.41,0l-4-4a1,1,0,0,1,1.41-1.41l4,4a1,1,0,0,1,0,1.41Z"/></svg>