<svg id="53a11d69-ce86-47ba-8dc7-835888433120" data-name="Layer 1" xmlns="http://www.w3.org/2000/svg" width="24" height="24" viewBox="0 0 24 24"><defs><style>.d124cde1-941b-4bba-af44-f88c26ef01d4{fill:none;}.\37 572c5b4-8288-4ea1-a989-d866d14981a7{fill:#333;}</style></defs><title>secure_v1</title><rect class="d124cde1-941b-4bba-af44-f88c26ef01d4" width="24" height="24"/><path class="7572c5b4-8288-4ea1-a989-d866d14981a7" d="M17,2H7A3,3,0,0,0,4,5v9.08a3,3,0,0,0,1,2.28l5,4.29a3,3,0,0,0,3.9,0l5-4.29a3,3,0,0,0,1-2.28V5A3,3,0,0,0,17,2Zm1,12.08a1,1,0,0,1-.35.76h0l-5,4.29a1,1,0,0,1-1.3,0l-5-4.29A1,1,0,0,1,6,14.08V5A1,1,0,0,1,7,4H17a1,1,0,0,1,1,1Z"/><path class="7572c5b4-8288-4ea1-a989-d866d14981a7" d="M11.06,12,9.84,10H7.51l2.68,4.49A1,1,0,0,0,11,15h0a1,1,0,0,0,.85-.49L16.56,7H14.2Z"/></svg>