<svg id="3cb93e32-4540-4af4-9e78-e76aa6a73c56" data-name="Layer 1" xmlns="http://www.w3.org/2000/svg" width="24" height="24" viewBox="0 0 24 24"><defs><style>.\33 3f5a584-fec7-45dd-850b-fff8aea35c0c{fill:none;}.\36 273cbe3-28c1-4b0f-8b7c-add873f6c78c{fill:#333;}</style></defs><title>select_v1</title><rect class="33f5a584-fec7-45dd-850b-fff8aea35c0c" width="24" height="24"/><path class="6273cbe3-28c1-4b0f-8b7c-add873f6c78c" d="M17,4H7A3,3,0,0,0,4,7V17a3,3,0,0,0,3,3H17a3,3,0,0,0,3-3V7A3,3,0,0,0,17,4Zm1,13a1,1,0,0,1-1,1H7a1,1,0,0,1-1-1V7A1,1,0,0,1,7,6H17a1,1,0,0,1,1,1ZM14.2,8h2.36l-4.67,7.51A1,1,0,0,1,11,16h0a1,1,0,0,1-.85-.51L7.51,11H9.84l1.22,2Z"/></svg>