<svg id="3709ccc8-0cef-4a32-959c-7dcefe3a43cb" data-name="Layer 1" xmlns="http://www.w3.org/2000/svg" width="24" height="24" viewBox="0 0 24 24">
  <title>send_v3</title>
  <rect width="24" height="24" fill="none"/>
  <path d="M20.32,9.23,6.82,2.46a3.39,3.39,0,0,0-3.34,0A3.4,3.4,0,0,0,2,5.43a40.78,40.78,0,0,0,1.89,6.3v.53A40.78,40.78,0,0,0,2,18.57a3.4,3.4,0,0,0,1.48,3A2.92,2.92,0,0,0,5,22a4,4,0,0,0,1.79-.45L19.8,15l.56-.3a3.08,3.08,0,0,0,0-5.47Zm-.89,3.7h0L5.93,19.76a1.45,1.45,0,0,1-1.4.11A1.46,1.46,0,0,1,4,18.58,50.24,50.24,0,0,1,5.75,13H12V11H5.75A51.25,51.25,0,0,1,4,5.43a1.48,1.48,0,0,1,.53-1.3A1,1,0,0,1,5,4a2,2,0,0,1,.89.24l13,6.54.53.24a1.08,1.08,0,0,1,0,1.91Z" fill="#333"/>
</svg>
