<?xml version="1.0" encoding="utf-8"?>
<!-- Generator: Adobe Illustrator 16.0.0, SVG Export Plug-In . SVG Version: 6.00 Build 0)  -->
<!DOCTYPE svg PUBLIC "-//W3C//DTD SVG 1.1//EN" "http://www.w3.org/Graphics/SVG/1.1/DTD/svg11.dtd">
<svg version="1.1" id="e0b106d0-235c-4d29-a338-f9e63bdfb58d"
	 xmlns="http://www.w3.org/2000/svg" xmlns:xlink="http://www.w3.org/1999/xlink" x="0px" y="0px" width="24px" height="24px"
	 viewBox="0 0 24 24" enable-background="new 0 0 24 24" xml:space="preserve">
<title>account_v1</title>
<g>
	<path d="M20.863,9.014c0,1.593-0.576,2.959-1.729,4.096c-1.15,1.139-2.523,1.707-4.117,1.707c-0.654,0-1.166-0.057-1.535-0.17
		l-5.546,5.547c-0.484,0.482-1.125,0.725-1.921,0.725c-0.711,0-1.351-0.242-1.92-0.725l-0.171-0.172
		c-0.541-0.512-0.811-1.137-0.811-1.877s0.27-1.393,0.811-1.963l5.547-5.547c-0.113-0.74-0.17-1.28-0.17-1.621
		c0-1.649,0.576-3.051,1.728-4.203c1.152-1.152,2.524-1.729,4.118-1.729c0.854,0,1.635,0.186,2.346,0.555l0.172,0.086
		c0.482,0.313,0.582,0.74,0.299,1.28c0,0.057-0.029,0.113-0.086,0.17L15.658,7.35l1.023,1.023l2.262-2.219
		c0.428-0.369,0.854-0.369,1.281,0c0.027,0.029,0.057,0.079,0.084,0.149c0.029,0.071,0.057,0.122,0.086,0.149
		C20.793,7.222,20.949,8.075,20.863,9.014z M19.115,8.459l-1.152,1.279c-0.342,0.285-0.74,0.427-1.195,0.427
		s-0.854-0.142-1.195-0.427l-1.194-1.194c-0.313-0.312-0.47-0.711-0.47-1.194s0.156-0.882,0.47-1.195l1.194-1.151h-0.426
		c-1.109,0-2.056,0.391-2.837,1.173c-0.783,0.783-1.174,1.729-1.174,2.838c0,0.455,0.086,0.967,0.256,1.535
		c0.172,0.371,0.113,0.697-0.17,0.982l-5.932,5.93c-0.369,0.428-0.369,0.854,0,1.281l0.171,0.17c0.455,0.455,0.882,0.455,1.28,0
		l6.015-6.016c0.229-0.228,0.527-0.284,0.896-0.171c0.455,0.171,0.953,0.256,1.494,0.256c1.08,0,2.012-0.391,2.795-1.173
		c0.781-0.783,1.174-1.714,1.174-2.795V8.459z"/>
</g>
</svg>
