<svg id="91a50ae4-1791-4b02-a03f-75e9794ff5a8" data-name="Layer 1" xmlns="http://www.w3.org/2000/svg" width="24" height="24" viewBox="0 0 24 24"><defs><style>.\38 55f4381-60fe-4861-9ac3-97d47dcce6c7{fill:none;}.\31 bad7b2f-ecf2-44e7-aba3-552a9fb000c2{fill:#333;}</style></defs><title>settings_v1</title><rect class="855f4381-60fe-4861-9ac3-97d47dcce6c7" width="24" height="24"/><path class="1bad7b2f-ecf2-44e7-aba3-552a9fb000c2" d="M12,8a4,4,0,1,0,2.83,1.17A4,4,0,0,0,12,8Zm1.41,5.41a2,2,0,0,1-2.83,0,2,2,0,1,1,2.83,0Zm8.5-3L21.4,8.45A2,2,0,0,0,19,7l-.57.15a7.85,7.85,0,0,0-1.57-1.57L17,5A2,2,0,0,0,15.55,2.6l-1.93-.52A2,2,0,0,0,11.17,3.5L11,4.06a7.92,7.92,0,0,0-2.14.58l-.41-.41a2,2,0,0,0-2.83,0L4.22,5.64a2,2,0,0,0,0,2.83l.42.42A8,8,0,0,0,4.06,11l-.57.15a2,2,0,0,0-1.41,2.45l.52,1.93A2,2,0,0,0,5,17l.57-.15a7.85,7.85,0,0,0,1.57,1.57L7,19A2,2,0,0,0,8.45,21.4l1.93.52a2,2,0,0,0,2.45-1.41l.15-.56a7.92,7.92,0,0,0,2.14-.58l.41.41a2,2,0,0,0,2.83,0l1.41-1.41a2,2,0,0,0,0-2.83l-.42-.42A8,8,0,0,0,19.94,13l.57-.15A2,2,0,0,0,21.92,10.38ZM18,11.43a6,6,0,0,1-1.09,4l1.48,1.48-1.41,1.41-1.48-1.48A6,6,0,0,1,12,18l-.56,0-.54,2L9,19.47l.54-2a5.91,5.91,0,0,1-3-3l-2,.54L4,13.1l2-.54a6,6,0,0,1,1.09-4L5.64,7.05,7.05,5.64,8.53,7.11A6,6,0,0,1,12,6l.56,0,.54-2L15,4.53l-.54,2a5.91,5.91,0,0,1,3,3l2-.54L20,10.9Z"/></svg>