<svg id="5aa40aee-e6d8-4949-95cb-e1dcfee41d9a" data-name="Layer 1" xmlns="http://www.w3.org/2000/svg" width="24" height="24" viewBox="0 0 24 24"><defs><style>.e856a50a-9624-490a-a650-fb20a67e6263{fill:none;}.\38 977960d-14fb-47a9-8841-e0fe6d6cd447{fill:#333;}</style></defs><title>settings_1_v1</title><rect class="e856a50a-9624-490a-a650-fb20a67e6263" width="24" height="24"/><path class="8977960d-14fb-47a9-8841-e0fe6d6cd447" d="M7.5,14.5A3.49,3.49,0,0,0,4.16,17H2v2H4.16a3.48,3.48,0,0,0,6.67,0H22V17H10.84A3.49,3.49,0,0,0,7.5,14.5Zm0,5A1.51,1.51,0,1,1,8.61,19,1.49,1.49,0,0,1,7.5,19.5Z"/><path class="8977960d-14fb-47a9-8841-e0fe6d6cd447" d="M16.5,8.5A3.49,3.49,0,0,0,13.16,11H2v2H13.16a3.48,3.48,0,0,0,6.67,0H22V11H19.84A3.49,3.49,0,0,0,16.5,8.5Zm0,5a1.51,1.51,0,1,1,1.11-.5A1.49,1.49,0,0,1,16.5,13.5Z"/><path class="8977960d-14fb-47a9-8841-e0fe6d6cd447" d="M10.84,5A3.48,3.48,0,0,0,4.16,5H2V7H4.16a3.48,3.48,0,0,0,6.67,0H22V5ZM7.5,7.5A1.51,1.51,0,1,1,8.61,7,1.49,1.49,0,0,1,7.5,7.5Z"/></svg>