<svg id="0af66835-b864-4ddb-9a71-800e4fff0211" data-name="Layer 1" xmlns="http://www.w3.org/2000/svg" width="24" height="24" viewBox="0 0 24 24"><defs><style>.c7aaa949-65ec-4bc2-a641-068868998e99{fill:none;}.fe1c38d9-2c25-4bd2-a786-08d14309b7c4{fill:#333;}</style></defs><title>share_v1</title><rect class="c7aaa949-65ec-4bc2-a641-068868998e99" width="24" height="24"/><path class="fe1c38d9-2c25-4bd2-a786-08d14309b7c4" d="M17.5,15A3.48,3.48,0,0,0,15,16.08l-5.17-3a3.19,3.19,0,0,0,0-2.14l5.17-3a3.57,3.57,0,1,0-.92-1.78L8.68,9.28A3.47,3.47,0,0,0,6.5,8.5a3.5,3.5,0,0,0,0,7,3.47,3.47,0,0,0,2.18-.78l5.39,3.14A3.5,3.5,0,1,0,17.5,15Zm0-11a1.5,1.5,0,0,1,0,3,1.5,1.5,0,0,1,0-3Zm-11,9.5A1.5,1.5,0,1,1,8,12s0,0,0,0,0,0,0,.06A1.51,1.51,0,0,1,6.5,13.5Zm11,6.5A1.5,1.5,0,1,1,19,18.5,1.5,1.5,0,0,1,17.5,20Z"/></svg>