<svg id="c0e3ecd7-bb3f-4b72-a918-000704dc08ce" data-name="Layer 1" xmlns="http://www.w3.org/2000/svg" width="24" height="24" viewBox="0 0 24 24">
  <title>shop_v3</title>
  <rect width="24" height="24" fill="none"/>
  <path d="M23,9.73l-2-7A1,1,0,0,0,20,2H4a1,1,0,0,0-1,.73l-2,7A1,1,0,0,0,2,11v8a3,3,0,0,0,3,3H19a3,3,0,0,0,3-3V11a1,1,0,0,0,1-1.27ZM4.75,4H19.25l1.43,5H3.33ZM11,20H8V15h3Zm2,0V15h3v5Zm7-1a1,1,0,0,1-1,1H18V14a1,1,0,0,0-1-1H7a1,1,0,0,0-1,1v6H5a1,1,0,0,1-1-1V11H20ZM8,6h8V8H8Z" fill="#333"/>
</svg>
