<svg id="e41426df-c92b-4ab7-bd6a-2d0a525631c9" data-name="Layer 1" xmlns="http://www.w3.org/2000/svg" width="24" height="24" viewBox="0 0 24 24"><defs><style>.\32 6deb5eb-a740-4545-836f-cae853d3cab1{fill:none;}.\37 fa6472c-1b74-4ada-a8c9-07304dd52232{fill:#333;}</style></defs><title>sim_v1</title><rect class="26deb5eb-a740-4545-836f-cae853d3cab1" width="24" height="24"/><path class="7fa6472c-1b74-4ada-a8c9-07304dd52232" d="M17,22H7a3,3,0,0,1-3-3V5A3,3,0,0,1,7,2h7.17a3,3,0,0,1,2.12.88l2.83,2.83A3,3,0,0,1,20,7.83V19A3,3,0,0,1,17,22ZM7,4A1,1,0,0,0,6,5V19a1,1,0,0,0,1,1H17a1,1,0,0,0,1-1V7.83a1,1,0,0,0-.29-.71L14.88,4.29A1,1,0,0,0,14.17,4Zm7,14H10a2,2,0,0,1-2-2V12a2,2,0,0,1,2-2h4a2,2,0,0,1,2,2v4A2,2,0,0,1,14,18Zm-4-6v4h4V12Z"/></svg>