<svg id="2c7b5f78-457f-4c6d-b67b-da6d1dbca426" data-name="Layer 1" xmlns="http://www.w3.org/2000/svg" width="24" height="24" viewBox="0 0 24 24"><defs><style>.\37 4e0dff2-9385-4d52-b75b-5a1aeb0513c5{fill:none;}.c490ab18-ef06-4e4d-ade2-6830fb110d27{fill:#333;}</style></defs><title>smartwatch_v1</title><rect class="74e0dff2-9385-4d52-b75b-5a1aeb0513c5" width="24" height="24"/><path class="c490ab18-ef06-4e4d-ade2-6830fb110d27" d="M15.76,6.11,15.4,5.05A3,3,0,0,0,12.56,3H11.44A3,3,0,0,0,8.6,5.05L8.24,6.11A3,3,0,0,0,6,9v6a3,3,0,0,0,2.24,2.89l.35,1.06A3,3,0,0,0,11.44,21h1.12a3,3,0,0,0,2.85-2.05l.35-1.06A3,3,0,0,0,18,15V9A3,3,0,0,0,15.76,6.11ZM11.44,5h1.12a1,1,0,0,1,.95.68l.11.32H10.39l.11-.32A1,1,0,0,1,11.44,5Zm1.12,14H11.44a1,1,0,0,1-.95-.68L10.39,18h3.23l-.11.32A1,1,0,0,1,12.56,19ZM16,15a1,1,0,0,1-1,1H9a1,1,0,0,1-1-1V9A1,1,0,0,1,9,8h6a1,1,0,0,1,1,1Z"/></svg>