<svg id="ba26a3f2-5da4-4050-9a2f-1dd5c7f22e32" data-name="Layer 1" xmlns="http://www.w3.org/2000/svg" width="24" height="24" viewBox="0 0 24 24"><defs><style>.\38 97d74e8-0d72-4669-a3d4-4d826f95cd29{fill:none;}.faa46d53-0945-4a82-9b44-5d16c89ae7fb{fill:#333;}</style></defs><title>sound_off_v1</title><rect class="897d74e8-0d72-4669-a3d4-4d826f95cd29" width="24" height="24"/><path class="faa46d53-0945-4a82-9b44-5d16c89ae7fb" d="M19.41,12l3,3L21,16.41l-3-3-3,3L13.59,15l3-3-3-3L15,7.59l3,3,3-3L22.41,9ZM11,8v8a2,2,0,0,1-3.2,1.6L5.93,16.2a1,1,0,0,0-.6-.2H5a3,3,0,0,1-3-3V11A3,3,0,0,1,5,8h.33a1,1,0,0,0,.6-.2L7.8,6.4A2,2,0,0,1,11,8ZM9,8,7.13,9.4a3,3,0,0,1-1.8.6H5a1,1,0,0,0-1,1v2a1,1,0,0,0,1,1h.33a3,3,0,0,1,1.8.6L9,16Z"/></svg>