<svg id="ec4a56d9-3664-4708-98cf-b95be1c3c8f3" data-name="Layer 1" xmlns="http://www.w3.org/2000/svg" width="24" height="24" viewBox="0 0 24 24"><defs><style>.\36 1ec26c6-3acc-4dcb-b83a-d17ccdcaffc7{fill:none;}.\32 54adb30-3517-471a-aa36-46759fa5fe67{fill:#333;}</style></defs><title>star_v1</title><rect class="61ec26c6-3acc-4dcb-b83a-d17ccdcaffc7" width="24" height="24"/><path class="254adb30-3517-471a-aa36-46759fa5fe67" d="M7.15,21.47a2,2,0,0,1-2-2.34l.75-4.37L2.75,11.67A2,2,0,0,1,3.86,8.26l4.38-.64,2-4a2,2,0,0,1,3.59,0l2,4,4.38.64a2,2,0,0,1,1.11,3.41l-3.17,3.09.75,4.37a2,2,0,0,1-2.9,2.11L12,19.17,8.08,21.24A2,2,0,0,1,7.15,21.47ZM12,16.91l4.85,2.55-.93-5.4,3.92-3.83-5.42-.79L12,4.53,9.57,9.45l-5.43.79,3.93,3.83-.93,5.4Z"/></svg>