<svg id="732f56ab-d69f-44d6-9812-6b4c3684052f" data-name="Layer 1" xmlns="http://www.w3.org/2000/svg" width="24" height="24" viewBox="0 0 24 24"><defs><style>.\36 f94ffb8-dc85-48a3-8346-629c90b0fe86{fill:none;}.cd99fe3d-031c-4555-b8a2-0c0258669aef{fill:#333;}</style></defs><title>stop_v1</title><rect class="6f94ffb8-dc85-48a3-8346-629c90b0fe86" width="24" height="24"/><path class="cd99fe3d-031c-4555-b8a2-0c0258669aef" d="M17,20H7a3,3,0,0,1-3-3V7A3,3,0,0,1,7,4H17a3,3,0,0,1,3,3V17A3,3,0,0,1,17,20ZM7,6A1,1,0,0,0,6,7V17a1,1,0,0,0,1,1H17a1,1,0,0,0,1-1V7a1,1,0,0,0-1-1Z"/></svg>