<svg id="aeab50fb-2b88-4354-8d15-03c781aa68ed" data-name="Layer 1" xmlns="http://www.w3.org/2000/svg" width="24" height="24" viewBox="0 0 24 24"><defs><style>.bceab789-f260-479c-b95c-ad2da48b0532{fill:none;}.\37 0477526-e022-42ba-b056-e086aaf33a97{fill:#333;}</style></defs><title>tablet_v1</title><rect class="bceab789-f260-479c-b95c-ad2da48b0532" width="24" height="24"/><path class="70477526-e022-42ba-b056-e086aaf33a97" d="M19,4H5A3,3,0,0,0,2,7V17a3,3,0,0,0,3,3H19a3,3,0,0,0,3-3V7A3,3,0,0,0,19,4Zm1,13a1,1,0,0,1-1,1H5a1,1,0,0,1-1-1V7A1,1,0,0,1,5,6H19a1,1,0,0,1,1,1ZM6.71,11.29A1,1,0,0,1,6,13a1,1,0,1,1,.71-1.71Z"/></svg>