<svg id="131f1ee0-3f4f-4b96-b84c-beaed1f47d59" data-name="Layer 1" xmlns="http://www.w3.org/2000/svg" width="24" height="24" viewBox="0 0 24 24">
  <title>ticket_v3</title>
  <rect width="24" height="24" fill="none"/>
  <path d="M19,5H5A3,3,0,0,0,2,8v3H3a1,1,0,0,1,0,2H2v3a3,3,0,0,0,3,3H19a3,3,0,0,0,3-3V13H21a1,1,0,0,1,0-2h1V8A3,3,0,0,0,19,5Zm1,11a1,1,0,0,1-1,1H16V15H14v2H5a1,1,0,0,1-1-1V14.82A3,3,0,0,0,4,9.18V8A1,1,0,0,1,5,7h9V9h2V7h3a1,1,0,0,1,1,1V9.17a3,3,0,0,0,0,5.63Zm-6-5h2v2H14Z" fill="#333"/>
</svg>
