<svg id="e55a37fa-540a-41a1-ba7e-11ad4da0e9aa" data-name="Layer 1" xmlns="http://www.w3.org/2000/svg" width="24" height="24" viewBox="0 0 24 24"><defs><style>.\35 ddefab5-5a9d-45f0-838a-d0f9f92e1cc2{fill:none;}.b88d272e-4789-4572-976a-586189d63b22{fill:#333;}</style></defs><title>tv_v1</title><rect class="5ddefab5-5a9d-45f0-838a-d0f9f92e1cc2" width="24" height="24"/><path class="b88d272e-4789-4572-976a-586189d63b22" d="M19,4H5A3,3,0,0,0,2,7v7a3,3,0,0,0,3,3h6v1H7v2H17V18H13V17h6a3,3,0,0,0,3-3V7A3,3,0,0,0,19,4Zm1,10a1,1,0,0,1-1,1H5a1,1,0,0,1-1-1V7A1,1,0,0,1,5,6H19a1,1,0,0,1,1,1Z"/></svg>