<?xml version="1.0" encoding="utf-8"?>
<!-- Generator: Adobe Illustrator 16.0.0, SVG Export Plug-In . SVG Version: 6.00 Build 0)  -->
<!DOCTYPE svg PUBLIC "-//W3C//DTD SVG 1.1//EN" "http://www.w3.org/Graphics/SVG/1.1/DTD/svg11.dtd">
<svg version="1.1" id="c447a074-6939-42ed-bbfd-d6933685ada9"
	 xmlns="http://www.w3.org/2000/svg" xmlns:xlink="http://www.w3.org/1999/xlink" x="0px" y="0px" width="24px" height="24px"
	 viewBox="0 0 24 24" enable-background="new 0 0 24 24" xml:space="preserve">
<title>remove_v1</title>
<path d="M22.053,10.348c-0.346-2.1-1.271-3.895-2.775-5.385c-1.505-1.489-3.323-2.438-5.454-2.845
	c-2.76-0.501-5.292,0.047-7.596,1.646s-3.708,3.794-4.209,6.584c-0.22,0.659-0.063,1.317,0.47,1.976
	c0.533,0.627,1.175,0.94,2.267,0.94h6.302v6.02c0,0.534-0.298,0.799-0.894,0.799c-0.596,0-0.894-0.265-0.894-0.799H7.248v0.11
	c0.062,0.815,0.415,1.448,0.964,1.998c0.754,0.756,2.14,0.667,2.14,0.667c0.752,0,1.395-0.274,1.928-0.823
	c0.532-0.547,0.8-1.199,0.8-1.952v-6.02h6.912c0.414,0,1.057-0.313,1.59-0.94C21.989,11.695,22.146,11.038,22.053,10.348z
	 M19.983,11.053c0,0.126-0.11,0.188-0.33,0.188H4.417c-0.032,0-0.141-0.062-0.329-0.188c-0.063-0.062-0.094-0.204-0.094-0.423
	c0.345-1.912,1.285-3.495,2.821-4.75c1.537-1.253,3.276-1.881,5.22-1.881c1.945,0,3.685,0.628,5.221,1.881
	c1.535,1.255,2.476,2.838,2.821,4.75C20.077,10.85,20.045,10.991,19.983,11.053z"/>
</svg>
