<svg id="dba30060-e82f-4e15-ba8d-a179934a5122" data-name="Layer 1" xmlns="http://www.w3.org/2000/svg" width="24" height="24" viewBox="0 0 24 24"><defs><style>.eea6b577-ce90-44a5-97ba-73506e119ab9{fill:none;}.\39 7a4d76a-2120-46ee-90aa-8e72105c0bb5{fill:#333;}</style></defs><title>unordered_list_v1</title><rect class="eea6b577-ce90-44a5-97ba-73506e119ab9" width="24" height="24"/><path class="97a4d76a-2120-46ee-90aa-8e72105c0bb5" d="M10,16H20v2H10Zm0-3H20V11H10Zm0-7V8H20V6ZM6,5.5A1.5,1.5,0,1,0,7.5,7,1.5,1.5,0,0,0,6,5.5Zm0,5A1.5,1.5,0,1,0,7.5,12,1.5,1.5,0,0,0,6,10.5Zm0,5A1.5,1.5,0,1,0,7.5,17,1.5,1.5,0,0,0,6,15.5Z"/></svg>