<svg id="457b44a6-8e93-4e4b-be2c-d4a0a01305da" data-name="Layer 1" xmlns="http://www.w3.org/2000/svg" width="24" height="24" viewBox="0 0 24 24"><defs><style>.\30 50deb59-ae85-4b18-9c2b-004166471b4f{fill:none;}.c1f82f06-bf0f-49ef-a579-cdc76e47bd67{fill:#333;}</style></defs><title>video_recordings_v1</title><rect class="050deb59-ae85-4b18-9c2b-004166471b4f" width="24" height="24"/><path class="c1f82f06-bf0f-49ef-a579-cdc76e47bd67" d="M19,4H5A3,3,0,0,0,2,7V17a3,3,0,0,0,3,3H19a3,3,0,0,0,3-3V7A3,3,0,0,0,19,4Zm1,13a1,1,0,0,1-1,1H5a1,1,0,0,1-1-1V7A1,1,0,0,1,5,6H19a1,1,0,0,1,1,1ZM16,9H8a3.5,3.5,0,1,0,3.5,3.5,3.46,3.46,0,0,0-.35-1.5h1.7a3.46,3.46,0,0,0-.35,1.5A3.5,3.5,0,1,0,16,9ZM9.5,12.5A1.5,1.5,0,1,1,8,11,1.5,1.5,0,0,1,9.5,12.5ZM16,14a1.5,1.5,0,1,1,1.5-1.5A1.5,1.5,0,0,1,16,14Z"/></svg>