<svg id="dcac41df-7c5e-4358-bdf3-a077f102d862" data-name="Layer 1" xmlns="http://www.w3.org/2000/svg" width="24" height="24" viewBox="0 0 24 24"><defs><style>.\31 8d776f6-684b-47e6-b400-9ff9d8d24c82{fill:none;}.\35 6867cde-2f9b-41d3-b579-a14caac9c37e{fill:#333;}</style></defs><title>voicemail_v1</title><rect class="18d776f6-684b-47e6-b400-9ff9d8d24c82" width="24" height="24"/><path class="56867cde-2f9b-41d3-b579-a14caac9c37e" d="M17,8a4,4,0,0,0-4,4,4,4,0,0,0,.56,2H10.44A4,4,0,0,0,11,12a4,4,0,1,0-4,4H17a4,4,0,0,0,0-8ZM5,12a2,2,0,1,1,2,2A2,2,0,0,1,5,12Zm12,2a2,2,0,1,1,2-2A2,2,0,0,1,17,14Z"/></svg>