<svg id="dc103b4d-f48a-4266-9080-e526eb66cc70" data-name="Layer 1" xmlns="http://www.w3.org/2000/svg" width="24" height="24" viewBox="0 0 24 24"><defs><style>.\32 ec784ad-1300-48ea-871c-bcbc00ff131e{fill:none;}.\33 6b0dba9-10f0-4bd2-a9da-a292a930a315{fill:#333;}</style></defs><title>volume_down_v1</title><rect class="2ec784ad-1300-48ea-871c-bcbc00ff131e" width="24" height="24"/><path class="36b0dba9-10f0-4bd2-a9da-a292a930a315" d="M9.9,6.21A2,2,0,0,0,7.8,6.4L5.93,7.8a1,1,0,0,1-.6.2H5a3,3,0,0,0-3,3v2a3,3,0,0,0,3,3h.33a1,1,0,0,1,.6.2L7.8,17.6A2,2,0,0,0,11,16V8A2,2,0,0,0,9.9,6.21ZM9,16,7.13,14.6a3,3,0,0,0-1.8-.6H5a1,1,0,0,1-1-1V11a1,1,0,0,1,1-1h.33a3,3,0,0,0,1.8-.6L9,8Zm7-4a5,5,0,0,1-1.46,3.54l-1.41-1.41a3,3,0,0,0,0-4.25l1.41-1.42A5,5,0,0,1,16,12Z"/></svg>