<svg id="1064efba-569d-4a30-81d2-5fd9e4380e83" data-name="Layer 1" xmlns="http://www.w3.org/2000/svg" width="24" height="24" viewBox="0 0 24 24"><defs><style>.b0153278-9a77-45b6-992d-fee2575476ff{fill:none;}.\33 d31a9c0-3d63-49f5-9935-91b490e0d684{fill:#333;}</style></defs><title>volume_up_v1</title><rect class="b0153278-9a77-45b6-992d-fee2575476ff" width="24" height="24"/><path class="3d31a9c0-3d63-49f5-9935-91b490e0d684" d="M9,18a2,2,0,0,1-1.2-.4L5.93,16.2a1,1,0,0,0-.6-.2H5a3,3,0,0,1-3-3V11A3,3,0,0,1,5,8h.33a1,1,0,0,0,.6-.2L7.8,6.4A2,2,0,0,1,11,8v8a2,2,0,0,1-2,2ZM5,10a1,1,0,0,0-1,1v2a1,1,0,0,0,1,1h.33a3,3,0,0,1,1.8.6L9,16V8L7.13,9.4a3,3,0,0,1-1.8.6Zm11,2a5,5,0,0,0-1.47-3.54L13.12,9.88a3,3,0,0,1,0,4.25l1.42,1.41A5,5,0,0,0,16,12Zm3,0a9,9,0,0,0-2.1-5.78L15.37,7.51a7,7,0,0,1,0,8.94l1.54,1.27A9,9,0,0,0,19,12Zm3,0a12,12,0,0,0-3-7.92L17.51,5.4a10,10,0,0,1,0,13.21L19,19.92A12,12,0,0,0,22,12Z"/></svg>