<svg id="5b1f58db-fd33-43f8-b2e5-2f94a6710c02" data-name="Layer 1" xmlns="http://www.w3.org/2000/svg" width="24" height="24" viewBox="0 0 24 24"><defs><style>.\32 b34e3c7-9280-441c-885a-e5744e5ee314{fill:none;}.\35 ca60a0d-9e2b-4bdb-a85c-61944786f1d5{fill:#333;}</style></defs><title>volume_v1</title><rect class="2b34e3c7-9280-441c-885a-e5744e5ee314" width="24" height="24"/><path class="5ca60a0d-9e2b-4bdb-a85c-61944786f1d5" d="M9.9,6.21A2,2,0,0,0,7.8,6.4L5.93,7.8a1,1,0,0,1-.6.2H5a3,3,0,0,0-3,3v2a3,3,0,0,0,3,3h.33a1,1,0,0,1,.6.2L7.8,17.6A2,2,0,0,0,11,16V8A2,2,0,0,0,9.9,6.21ZM9,16,7.13,14.6a3,3,0,0,0-1.8-.6H5a1,1,0,0,1-1-1V11a1,1,0,0,1,1-1h.33a3,3,0,0,0,1.8-.6L9,8Zm7-4a5,5,0,0,1-1.46,3.54l-1.41-1.41a3,3,0,0,0,0-4.25l1.41-1.42A5,5,0,0,1,16,12Zm3,0a9,9,0,0,1-2.06,5.73L15.4,16.45a7,7,0,0,0,0-8.94L16.9,6.22A9,9,0,0,1,19,12Z"/></svg>