<svg id="beeaea98-7870-46f4-a278-ffe976bb849b" data-name="Layer 1" xmlns="http://www.w3.org/2000/svg" width="24" height="24" viewBox="0 0 24 24"><defs><style>.bebf9782-ac85-4da3-9e1b-eace13e26a0b{fill:none;}.\37 64a6a92-782a-4dfa-805d-cdbbd421516e{fill:#333;}</style></defs><title>warning_v1</title><rect class="bebf9782-ac85-4da3-9e1b-eace13e26a0b" width="24" height="24"/><path class="764a6a92-782a-4dfa-805d-cdbbd421516e" d="M13,14H11V9h2Zm-1.88,1.12a1.22,1.22,0,0,0-.37.88,1.25,1.25,0,1,0,2.5,0,1.22,1.22,0,0,0-.37-.88A1.28,1.28,0,0,0,11.12,15.12Zm10.49,4.43A2.86,2.86,0,0,1,19.11,21H4.89a2.88,2.88,0,0,1-2.5-4.32L9.5,4.44a2.89,2.89,0,0,1,5,0l7.11,12.25A2.84,2.84,0,0,1,21.61,19.55Zm-1.73-1.87L12.77,5.44a.89.89,0,0,0-1.54,0L4.12,17.69a.85.85,0,0,0,0,.87.87.87,0,0,0,.77.44H19.11a.87.87,0,0,0,.77-.44A.85.85,0,0,0,19.88,17.69Z"/></svg>