<svg id="f9f20565-aba6-473a-a37e-2a5ef3d4f8f6" data-name="Layer 1" xmlns="http://www.w3.org/2000/svg" width="24" height="24" viewBox="0 0 24 24"><defs><style>.\34 78128af-19d9-456f-8738-d907b78f2fff{fill:none;}.dca596a1-484c-4d7b-9ad8-2dc950b2ec1a{fill:#333;}</style></defs><title>wifi_v1</title><rect class="478128af-19d9-456f-8738-d907b78f2fff" width="24" height="24"/><path class="dca596a1-484c-4d7b-9ad8-2dc950b2ec1a" d="M12.88,17.11a1.26,1.26,0,0,1,.37.89,1.25,1.25,0,1,1-2.13-.88A1.29,1.29,0,0,1,12.88,17.11ZM8.46,14.46l-.71.71,1.41,1.41.71-.71a3,3,0,0,1,4.24,0l.71.71,1.41-1.41-.71-.71A5,5,0,0,0,8.46,14.46ZM12,9a8.94,8.94,0,0,0-6.36,2.64l-.71.71,1.41,1.41.71-.71a7,7,0,0,1,9.9,0l.71.71,1.41-1.41-.71-.71A8.94,8.94,0,0,0,12,9Zm9.19-.19a13,13,0,0,0-18.38,0l-.71.71,1.41,1.41.71-.71a11,11,0,0,1,15.56,0l.71.71L21.9,9.51Z"/></svg>