<svg id="8f901d2b-59ee-4792-9d6b-6f522bbb232c" data-name="Layer 1" xmlns="http://www.w3.org/2000/svg" width="24" height="24" viewBox="0 0 24 24"><defs><style>.\38 78c78eb-af7b-4350-a570-8e75bc5ab98f{fill:none;}.e73ecf41-8816-40a5-ad98-dc971159e8c7{fill:#333;}</style></defs><title>wifi_off_v1</title><rect class="878c78eb-af7b-4350-a570-8e75bc5ab98f" width="24" height="24"/><path class="e73ecf41-8816-40a5-ad98-dc971159e8c7" d="M12.88,17.12a1.24,1.24,0,1,1-2.13.88,1.25,1.25,0,0,1,.33-.84l0,0,0,0A1.28,1.28,0,0,1,12.88,17.12Zm1.65-3.41L13,15.2a3,3,0,0,1,1.08.68l.71.71,1.41-1.41-.71-.71A4.94,4.94,0,0,0,14.53,13.71Zm2.89-2.89L16,12.25a7.07,7.07,0,0,1,1,.8l.71.71,1.41-1.41-.71-.71A9.1,9.1,0,0,0,17.42,10.82Zm3.77-2c-.3-.3-.61-.57-.92-.83L18.85,9.4a11.05,11.05,0,0,1,.93.83l.71.71L21.9,9.51Zm-7.1,2.51,1.55-1.55,1.5-1.5L18.6,6.82l2.6-2.6L21.41,4H18.59L16.7,5.89A13,13,0,0,0,2.81,8.81l-.71.71,1.41,1.41.71-.71A11,11,0,0,1,15.13,7.46L13.46,9.13A9.09,9.09,0,0,0,12,9a8.94,8.94,0,0,0-6.36,2.64l-.71.71,1.41,1.41.71-.71a6.94,6.94,0,0,1,4.51-2l-9,9H5.41L9,16.41,12.38,13Z"/></svg>